G04 #@! TF.GenerationSoftware,KiCad,Pcbnew,(5.1.8)-1*
G04 #@! TF.CreationDate,2021-08-02T21:41:25+02:00*
G04 #@! TF.ProjectId,SuperPower-uC-KiCad,53757065-7250-46f7-9765-722d75432d4b,rev?*
G04 #@! TF.SameCoordinates,Original*
G04 #@! TF.FileFunction,Soldermask,Top*
G04 #@! TF.FilePolarity,Negative*
%FSLAX46Y46*%
G04 Gerber Fmt 4.6, Leading zero omitted, Abs format (unit mm)*
G04 Created by KiCad (PCBNEW (5.1.8)-1) date 2021-08-02 21:41:25*
%MOMM*%
%LPD*%
G01*
G04 APERTURE LIST*
%ADD10R,0.650000X1.060000*%
%ADD11R,0.900000X0.800000*%
%ADD12R,1.060000X0.650000*%
%ADD13C,0.100000*%
%ADD14R,1.300000X0.900000*%
%ADD15R,1.000000X1.500000*%
%ADD16R,0.800000X0.900000*%
%ADD17O,1.700000X1.700000*%
%ADD18R,1.700000X1.700000*%
%ADD19C,2.700000*%
%ADD20R,0.700000X0.510000*%
%ADD21R,1.900000X1.200000*%
%ADD22O,1.900000X1.200000*%
%ADD23R,1.900000X1.500000*%
%ADD24C,1.450000*%
%ADD25R,1.350000X0.400000*%
%ADD26O,1.750000X1.200000*%
%ADD27R,1.800000X1.000000*%
%ADD28R,1.800000X2.400000*%
%ADD29R,3.500000X2.950000*%
%ADD30O,2.000000X1.700000*%
%ADD31R,0.900000X1.200000*%
%ADD32R,1.200000X0.900000*%
G04 APERTURE END LIST*
G36*
G01*
X148708100Y-99512000D02*
X149183100Y-99512000D01*
G75*
G02*
X149420600Y-99749500I0J-237500D01*
G01*
X149420600Y-100349500D01*
G75*
G02*
X149183100Y-100587000I-237500J0D01*
G01*
X148708100Y-100587000D01*
G75*
G02*
X148470600Y-100349500I0J237500D01*
G01*
X148470600Y-99749500D01*
G75*
G02*
X148708100Y-99512000I237500J0D01*
G01*
G37*
G36*
G01*
X148708100Y-97787000D02*
X149183100Y-97787000D01*
G75*
G02*
X149420600Y-98024500I0J-237500D01*
G01*
X149420600Y-98624500D01*
G75*
G02*
X149183100Y-98862000I-237500J0D01*
G01*
X148708100Y-98862000D01*
G75*
G02*
X148470600Y-98624500I0J237500D01*
G01*
X148470600Y-98024500D01*
G75*
G02*
X148708100Y-97787000I237500J0D01*
G01*
G37*
D10*
X153959600Y-114132000D03*
X153009600Y-114132000D03*
X154909600Y-114132000D03*
X154909600Y-116332000D03*
X153959600Y-116332000D03*
X153009600Y-116332000D03*
D11*
X156065600Y-99187000D03*
X154065600Y-100137000D03*
X154065600Y-98237000D03*
D12*
X165302100Y-81976000D03*
X165302100Y-81026000D03*
X165302100Y-82926000D03*
X163102100Y-82926000D03*
X163102100Y-81976000D03*
X163102100Y-81026000D03*
G36*
G01*
X168216600Y-118483000D02*
X167266600Y-118483000D01*
G75*
G02*
X167016600Y-118233000I0J250000D01*
G01*
X167016600Y-117733000D01*
G75*
G02*
X167266600Y-117483000I250000J0D01*
G01*
X168216600Y-117483000D01*
G75*
G02*
X168466600Y-117733000I0J-250000D01*
G01*
X168466600Y-118233000D01*
G75*
G02*
X168216600Y-118483000I-250000J0D01*
G01*
G37*
G36*
G01*
X168216600Y-120383000D02*
X167266600Y-120383000D01*
G75*
G02*
X167016600Y-120133000I0J250000D01*
G01*
X167016600Y-119633000D01*
G75*
G02*
X167266600Y-119383000I250000J0D01*
G01*
X168216600Y-119383000D01*
G75*
G02*
X168466600Y-119633000I0J-250000D01*
G01*
X168466600Y-120133000D01*
G75*
G02*
X168216600Y-120383000I-250000J0D01*
G01*
G37*
D13*
G36*
X168135600Y-115471300D02*
G01*
X165010600Y-115471300D01*
X165010600Y-115054800D01*
X163535600Y-115054800D01*
X163535600Y-114154800D01*
X165010600Y-114154800D01*
X165010600Y-113738300D01*
X168135600Y-113738300D01*
X168135600Y-115471300D01*
G37*
D14*
X164185600Y-116104800D03*
X164185600Y-113104800D03*
D13*
G36*
X176136600Y-115471300D02*
G01*
X173011600Y-115471300D01*
X173011600Y-115054800D01*
X171536600Y-115054800D01*
X171536600Y-114154800D01*
X173011600Y-114154800D01*
X173011600Y-113738300D01*
X176136600Y-113738300D01*
X176136600Y-115471300D01*
G37*
D14*
X172186600Y-116104800D03*
X172186600Y-113104800D03*
D15*
X170789600Y-82423000D03*
X172089600Y-82423000D03*
D16*
X155295600Y-87789000D03*
X156245600Y-89789000D03*
X154345600Y-89789000D03*
D11*
X154438600Y-110109000D03*
X156438600Y-109159000D03*
X156438600Y-111059000D03*
X175710600Y-110170000D03*
X173710600Y-111120000D03*
X173710600Y-109220000D03*
X167709600Y-110170000D03*
X165709600Y-111120000D03*
X165709600Y-109220000D03*
G36*
G01*
X152061100Y-93582500D02*
X152061100Y-93107500D01*
G75*
G02*
X152298600Y-92870000I237500J0D01*
G01*
X152798600Y-92870000D01*
G75*
G02*
X153036100Y-93107500I0J-237500D01*
G01*
X153036100Y-93582500D01*
G75*
G02*
X152798600Y-93820000I-237500J0D01*
G01*
X152298600Y-93820000D01*
G75*
G02*
X152061100Y-93582500I0J237500D01*
G01*
G37*
G36*
G01*
X150236100Y-93582500D02*
X150236100Y-93107500D01*
G75*
G02*
X150473600Y-92870000I237500J0D01*
G01*
X150973600Y-92870000D01*
G75*
G02*
X151211100Y-93107500I0J-237500D01*
G01*
X151211100Y-93582500D01*
G75*
G02*
X150973600Y-93820000I-237500J0D01*
G01*
X150473600Y-93820000D01*
G75*
G02*
X150236100Y-93582500I0J237500D01*
G01*
G37*
G36*
G01*
X163012600Y-101235500D02*
X163012600Y-101710500D01*
G75*
G02*
X162775100Y-101948000I-237500J0D01*
G01*
X162275100Y-101948000D01*
G75*
G02*
X162037600Y-101710500I0J237500D01*
G01*
X162037600Y-101235500D01*
G75*
G02*
X162275100Y-100998000I237500J0D01*
G01*
X162775100Y-100998000D01*
G75*
G02*
X163012600Y-101235500I0J-237500D01*
G01*
G37*
G36*
G01*
X164837600Y-101235500D02*
X164837600Y-101710500D01*
G75*
G02*
X164600100Y-101948000I-237500J0D01*
G01*
X164100100Y-101948000D01*
G75*
G02*
X163862600Y-101710500I0J237500D01*
G01*
X163862600Y-101235500D01*
G75*
G02*
X164100100Y-100998000I237500J0D01*
G01*
X164600100Y-100998000D01*
G75*
G02*
X164837600Y-101235500I0J-237500D01*
G01*
G37*
G36*
G01*
X166568600Y-101235500D02*
X166568600Y-101710500D01*
G75*
G02*
X166331100Y-101948000I-237500J0D01*
G01*
X165831100Y-101948000D01*
G75*
G02*
X165593600Y-101710500I0J237500D01*
G01*
X165593600Y-101235500D01*
G75*
G02*
X165831100Y-100998000I237500J0D01*
G01*
X166331100Y-100998000D01*
G75*
G02*
X166568600Y-101235500I0J-237500D01*
G01*
G37*
G36*
G01*
X168393600Y-101235500D02*
X168393600Y-101710500D01*
G75*
G02*
X168156100Y-101948000I-237500J0D01*
G01*
X167656100Y-101948000D01*
G75*
G02*
X167418600Y-101710500I0J237500D01*
G01*
X167418600Y-101235500D01*
G75*
G02*
X167656100Y-100998000I237500J0D01*
G01*
X168156100Y-100998000D01*
G75*
G02*
X168393600Y-101235500I0J-237500D01*
G01*
G37*
G36*
G01*
X151291100Y-89551500D02*
X151291100Y-90026500D01*
G75*
G02*
X151053600Y-90264000I-237500J0D01*
G01*
X150553600Y-90264000D01*
G75*
G02*
X150316100Y-90026500I0J237500D01*
G01*
X150316100Y-89551500D01*
G75*
G02*
X150553600Y-89314000I237500J0D01*
G01*
X151053600Y-89314000D01*
G75*
G02*
X151291100Y-89551500I0J-237500D01*
G01*
G37*
G36*
G01*
X153116100Y-89551500D02*
X153116100Y-90026500D01*
G75*
G02*
X152878600Y-90264000I-237500J0D01*
G01*
X152378600Y-90264000D01*
G75*
G02*
X152141100Y-90026500I0J237500D01*
G01*
X152141100Y-89551500D01*
G75*
G02*
X152378600Y-89314000I237500J0D01*
G01*
X152878600Y-89314000D01*
G75*
G02*
X153116100Y-89551500I0J-237500D01*
G01*
G37*
G36*
G01*
X158327100Y-109811000D02*
X157852100Y-109811000D01*
G75*
G02*
X157614600Y-109573500I0J237500D01*
G01*
X157614600Y-109073500D01*
G75*
G02*
X157852100Y-108836000I237500J0D01*
G01*
X158327100Y-108836000D01*
G75*
G02*
X158564600Y-109073500I0J-237500D01*
G01*
X158564600Y-109573500D01*
G75*
G02*
X158327100Y-109811000I-237500J0D01*
G01*
G37*
G36*
G01*
X158327100Y-111636000D02*
X157852100Y-111636000D01*
G75*
G02*
X157614600Y-111398500I0J237500D01*
G01*
X157614600Y-110898500D01*
G75*
G02*
X157852100Y-110661000I237500J0D01*
G01*
X158327100Y-110661000D01*
G75*
G02*
X158564600Y-110898500I0J-237500D01*
G01*
X158564600Y-111398500D01*
G75*
G02*
X158327100Y-111636000I-237500J0D01*
G01*
G37*
G36*
G01*
X163821100Y-110725800D02*
X164296100Y-110725800D01*
G75*
G02*
X164533600Y-110963300I0J-237500D01*
G01*
X164533600Y-111463300D01*
G75*
G02*
X164296100Y-111700800I-237500J0D01*
G01*
X163821100Y-111700800D01*
G75*
G02*
X163583600Y-111463300I0J237500D01*
G01*
X163583600Y-110963300D01*
G75*
G02*
X163821100Y-110725800I237500J0D01*
G01*
G37*
G36*
G01*
X163821100Y-108900800D02*
X164296100Y-108900800D01*
G75*
G02*
X164533600Y-109138300I0J-237500D01*
G01*
X164533600Y-109638300D01*
G75*
G02*
X164296100Y-109875800I-237500J0D01*
G01*
X163821100Y-109875800D01*
G75*
G02*
X163583600Y-109638300I0J237500D01*
G01*
X163583600Y-109138300D01*
G75*
G02*
X163821100Y-108900800I237500J0D01*
G01*
G37*
G36*
G01*
X171822100Y-110684500D02*
X172297100Y-110684500D01*
G75*
G02*
X172534600Y-110922000I0J-237500D01*
G01*
X172534600Y-111422000D01*
G75*
G02*
X172297100Y-111659500I-237500J0D01*
G01*
X171822100Y-111659500D01*
G75*
G02*
X171584600Y-111422000I0J237500D01*
G01*
X171584600Y-110922000D01*
G75*
G02*
X171822100Y-110684500I237500J0D01*
G01*
G37*
G36*
G01*
X171822100Y-108859500D02*
X172297100Y-108859500D01*
G75*
G02*
X172534600Y-109097000I0J-237500D01*
G01*
X172534600Y-109597000D01*
G75*
G02*
X172297100Y-109834500I-237500J0D01*
G01*
X171822100Y-109834500D01*
G75*
G02*
X171584600Y-109597000I0J237500D01*
G01*
X171584600Y-109097000D01*
G75*
G02*
X171822100Y-108859500I237500J0D01*
G01*
G37*
G36*
G01*
X163012600Y-99076500D02*
X163012600Y-99551500D01*
G75*
G02*
X162775100Y-99789000I-237500J0D01*
G01*
X162275100Y-99789000D01*
G75*
G02*
X162037600Y-99551500I0J237500D01*
G01*
X162037600Y-99076500D01*
G75*
G02*
X162275100Y-98839000I237500J0D01*
G01*
X162775100Y-98839000D01*
G75*
G02*
X163012600Y-99076500I0J-237500D01*
G01*
G37*
G36*
G01*
X164837600Y-99076500D02*
X164837600Y-99551500D01*
G75*
G02*
X164600100Y-99789000I-237500J0D01*
G01*
X164100100Y-99789000D01*
G75*
G02*
X163862600Y-99551500I0J237500D01*
G01*
X163862600Y-99076500D01*
G75*
G02*
X164100100Y-98839000I237500J0D01*
G01*
X164600100Y-98839000D01*
G75*
G02*
X164837600Y-99076500I0J-237500D01*
G01*
G37*
G36*
G01*
X160151600Y-101710500D02*
X160151600Y-101235500D01*
G75*
G02*
X160389100Y-100998000I237500J0D01*
G01*
X160889100Y-100998000D01*
G75*
G02*
X161126600Y-101235500I0J-237500D01*
G01*
X161126600Y-101710500D01*
G75*
G02*
X160889100Y-101948000I-237500J0D01*
G01*
X160389100Y-101948000D01*
G75*
G02*
X160151600Y-101710500I0J237500D01*
G01*
G37*
G36*
G01*
X158326600Y-101710500D02*
X158326600Y-101235500D01*
G75*
G02*
X158564100Y-100998000I237500J0D01*
G01*
X159064100Y-100998000D01*
G75*
G02*
X159301600Y-101235500I0J-237500D01*
G01*
X159301600Y-101710500D01*
G75*
G02*
X159064100Y-101948000I-237500J0D01*
G01*
X158564100Y-101948000D01*
G75*
G02*
X158326600Y-101710500I0J237500D01*
G01*
G37*
G36*
G01*
X173092100Y-106633800D02*
X173567100Y-106633800D01*
G75*
G02*
X173804600Y-106871300I0J-237500D01*
G01*
X173804600Y-107371300D01*
G75*
G02*
X173567100Y-107608800I-237500J0D01*
G01*
X173092100Y-107608800D01*
G75*
G02*
X172854600Y-107371300I0J237500D01*
G01*
X172854600Y-106871300D01*
G75*
G02*
X173092100Y-106633800I237500J0D01*
G01*
G37*
G36*
G01*
X173092100Y-104808800D02*
X173567100Y-104808800D01*
G75*
G02*
X173804600Y-105046300I0J-237500D01*
G01*
X173804600Y-105546300D01*
G75*
G02*
X173567100Y-105783800I-237500J0D01*
G01*
X173092100Y-105783800D01*
G75*
G02*
X172854600Y-105546300I0J237500D01*
G01*
X172854600Y-105046300D01*
G75*
G02*
X173092100Y-104808800I237500J0D01*
G01*
G37*
D16*
X155295600Y-91345000D03*
X156245600Y-93345000D03*
X154345600Y-93345000D03*
G36*
G01*
X161769600Y-90457000D02*
X161769600Y-91407000D01*
G75*
G02*
X161519600Y-91657000I-250000J0D01*
G01*
X161019600Y-91657000D01*
G75*
G02*
X160769600Y-91407000I0J250000D01*
G01*
X160769600Y-90457000D01*
G75*
G02*
X161019600Y-90207000I250000J0D01*
G01*
X161519600Y-90207000D01*
G75*
G02*
X161769600Y-90457000I0J-250000D01*
G01*
G37*
G36*
G01*
X163669600Y-90457000D02*
X163669600Y-91407000D01*
G75*
G02*
X163419600Y-91657000I-250000J0D01*
G01*
X162919600Y-91657000D01*
G75*
G02*
X162669600Y-91407000I0J250000D01*
G01*
X162669600Y-90457000D01*
G75*
G02*
X162919600Y-90207000I250000J0D01*
G01*
X163419600Y-90207000D01*
G75*
G02*
X163669600Y-90457000I0J-250000D01*
G01*
G37*
D17*
X171043600Y-122047000D03*
X168503600Y-122047000D03*
X165963600Y-122047000D03*
X163423600Y-122047000D03*
X160883600Y-122047000D03*
X158343600Y-122047000D03*
X155803600Y-122047000D03*
X153263600Y-122047000D03*
X150723600Y-122047000D03*
X148183600Y-122047000D03*
X145643600Y-122047000D03*
X143103600Y-122047000D03*
D18*
X140563600Y-122047000D03*
G36*
G01*
X162645100Y-109975800D02*
X162170100Y-109975800D01*
G75*
G02*
X161932600Y-109738300I0J237500D01*
G01*
X161932600Y-109138300D01*
G75*
G02*
X162170100Y-108900800I237500J0D01*
G01*
X162645100Y-108900800D01*
G75*
G02*
X162882600Y-109138300I0J-237500D01*
G01*
X162882600Y-109738300D01*
G75*
G02*
X162645100Y-109975800I-237500J0D01*
G01*
G37*
G36*
G01*
X162645100Y-111700800D02*
X162170100Y-111700800D01*
G75*
G02*
X161932600Y-111463300I0J237500D01*
G01*
X161932600Y-110863300D01*
G75*
G02*
X162170100Y-110625800I237500J0D01*
G01*
X162645100Y-110625800D01*
G75*
G02*
X162882600Y-110863300I0J-237500D01*
G01*
X162882600Y-111463300D01*
G75*
G02*
X162645100Y-111700800I-237500J0D01*
G01*
G37*
G36*
G01*
X154604600Y-107298500D02*
X154604600Y-106823500D01*
G75*
G02*
X154842100Y-106586000I237500J0D01*
G01*
X155442100Y-106586000D01*
G75*
G02*
X155679600Y-106823500I0J-237500D01*
G01*
X155679600Y-107298500D01*
G75*
G02*
X155442100Y-107536000I-237500J0D01*
G01*
X154842100Y-107536000D01*
G75*
G02*
X154604600Y-107298500I0J237500D01*
G01*
G37*
G36*
G01*
X152879600Y-107298500D02*
X152879600Y-106823500D01*
G75*
G02*
X153117100Y-106586000I237500J0D01*
G01*
X153717100Y-106586000D01*
G75*
G02*
X153954600Y-106823500I0J-237500D01*
G01*
X153954600Y-107298500D01*
G75*
G02*
X153717100Y-107536000I-237500J0D01*
G01*
X153117100Y-107536000D01*
G75*
G02*
X152879600Y-107298500I0J237500D01*
G01*
G37*
G36*
G01*
X140470800Y-109178100D02*
X140470800Y-108703100D01*
G75*
G02*
X140708300Y-108465600I237500J0D01*
G01*
X141308300Y-108465600D01*
G75*
G02*
X141545800Y-108703100I0J-237500D01*
G01*
X141545800Y-109178100D01*
G75*
G02*
X141308300Y-109415600I-237500J0D01*
G01*
X140708300Y-109415600D01*
G75*
G02*
X140470800Y-109178100I0J237500D01*
G01*
G37*
G36*
G01*
X138745800Y-109178100D02*
X138745800Y-108703100D01*
G75*
G02*
X138983300Y-108465600I237500J0D01*
G01*
X139583300Y-108465600D01*
G75*
G02*
X139820800Y-108703100I0J-237500D01*
G01*
X139820800Y-109178100D01*
G75*
G02*
X139583300Y-109415600I-237500J0D01*
G01*
X138983300Y-109415600D01*
G75*
G02*
X138745800Y-109178100I0J237500D01*
G01*
G37*
G36*
G01*
X153018500Y-109975800D02*
X152543500Y-109975800D01*
G75*
G02*
X152306000Y-109738300I0J237500D01*
G01*
X152306000Y-109138300D01*
G75*
G02*
X152543500Y-108900800I237500J0D01*
G01*
X153018500Y-108900800D01*
G75*
G02*
X153256000Y-109138300I0J-237500D01*
G01*
X153256000Y-109738300D01*
G75*
G02*
X153018500Y-109975800I-237500J0D01*
G01*
G37*
G36*
G01*
X153018500Y-111700800D02*
X152543500Y-111700800D01*
G75*
G02*
X152306000Y-111463300I0J237500D01*
G01*
X152306000Y-110863300D01*
G75*
G02*
X152543500Y-110625800I237500J0D01*
G01*
X153018500Y-110625800D01*
G75*
G02*
X153256000Y-110863300I0J-237500D01*
G01*
X153256000Y-111463300D01*
G75*
G02*
X153018500Y-111700800I-237500J0D01*
G01*
G37*
G36*
G01*
X153628100Y-118561000D02*
X153153100Y-118561000D01*
G75*
G02*
X152915600Y-118323500I0J237500D01*
G01*
X152915600Y-117723500D01*
G75*
G02*
X153153100Y-117486000I237500J0D01*
G01*
X153628100Y-117486000D01*
G75*
G02*
X153865600Y-117723500I0J-237500D01*
G01*
X153865600Y-118323500D01*
G75*
G02*
X153628100Y-118561000I-237500J0D01*
G01*
G37*
G36*
G01*
X153628100Y-120286000D02*
X153153100Y-120286000D01*
G75*
G02*
X152915600Y-120048500I0J237500D01*
G01*
X152915600Y-119448500D01*
G75*
G02*
X153153100Y-119211000I237500J0D01*
G01*
X153628100Y-119211000D01*
G75*
G02*
X153865600Y-119448500I0J-237500D01*
G01*
X153865600Y-120048500D01*
G75*
G02*
X153628100Y-120286000I-237500J0D01*
G01*
G37*
G36*
G01*
X162576600Y-117618500D02*
X162576600Y-118093500D01*
G75*
G02*
X162339100Y-118331000I-237500J0D01*
G01*
X161739100Y-118331000D01*
G75*
G02*
X161501600Y-118093500I0J237500D01*
G01*
X161501600Y-117618500D01*
G75*
G02*
X161739100Y-117381000I237500J0D01*
G01*
X162339100Y-117381000D01*
G75*
G02*
X162576600Y-117618500I0J-237500D01*
G01*
G37*
G36*
G01*
X164301600Y-117618500D02*
X164301600Y-118093500D01*
G75*
G02*
X164064100Y-118331000I-237500J0D01*
G01*
X163464100Y-118331000D01*
G75*
G02*
X163226600Y-118093500I0J237500D01*
G01*
X163226600Y-117618500D01*
G75*
G02*
X163464100Y-117381000I237500J0D01*
G01*
X164064100Y-117381000D01*
G75*
G02*
X164301600Y-117618500I0J-237500D01*
G01*
G37*
G36*
G01*
X170719600Y-118093500D02*
X170719600Y-117618500D01*
G75*
G02*
X170957100Y-117381000I237500J0D01*
G01*
X171557100Y-117381000D01*
G75*
G02*
X171794600Y-117618500I0J-237500D01*
G01*
X171794600Y-118093500D01*
G75*
G02*
X171557100Y-118331000I-237500J0D01*
G01*
X170957100Y-118331000D01*
G75*
G02*
X170719600Y-118093500I0J237500D01*
G01*
G37*
G36*
G01*
X168994600Y-118093500D02*
X168994600Y-117618500D01*
G75*
G02*
X169232100Y-117381000I237500J0D01*
G01*
X169832100Y-117381000D01*
G75*
G02*
X170069600Y-117618500I0J-237500D01*
G01*
X170069600Y-118093500D01*
G75*
G02*
X169832100Y-118331000I-237500J0D01*
G01*
X169232100Y-118331000D01*
G75*
G02*
X168994600Y-118093500I0J237500D01*
G01*
G37*
G36*
G01*
X174717700Y-106511000D02*
X175192700Y-106511000D01*
G75*
G02*
X175430200Y-106748500I0J-237500D01*
G01*
X175430200Y-107348500D01*
G75*
G02*
X175192700Y-107586000I-237500J0D01*
G01*
X174717700Y-107586000D01*
G75*
G02*
X174480200Y-107348500I0J237500D01*
G01*
X174480200Y-106748500D01*
G75*
G02*
X174717700Y-106511000I237500J0D01*
G01*
G37*
G36*
G01*
X174717700Y-104786000D02*
X175192700Y-104786000D01*
G75*
G02*
X175430200Y-105023500I0J-237500D01*
G01*
X175430200Y-105623500D01*
G75*
G02*
X175192700Y-105861000I-237500J0D01*
G01*
X174717700Y-105861000D01*
G75*
G02*
X174480200Y-105623500I0J237500D01*
G01*
X174480200Y-105023500D01*
G75*
G02*
X174717700Y-104786000I237500J0D01*
G01*
G37*
G36*
G01*
X168741100Y-90783500D02*
X168266100Y-90783500D01*
G75*
G02*
X168028600Y-90546000I0J237500D01*
G01*
X168028600Y-89946000D01*
G75*
G02*
X168266100Y-89708500I237500J0D01*
G01*
X168741100Y-89708500D01*
G75*
G02*
X168978600Y-89946000I0J-237500D01*
G01*
X168978600Y-90546000D01*
G75*
G02*
X168741100Y-90783500I-237500J0D01*
G01*
G37*
G36*
G01*
X168741100Y-92508500D02*
X168266100Y-92508500D01*
G75*
G02*
X168028600Y-92271000I0J237500D01*
G01*
X168028600Y-91671000D01*
G75*
G02*
X168266100Y-91433500I237500J0D01*
G01*
X168741100Y-91433500D01*
G75*
G02*
X168978600Y-91671000I0J-237500D01*
G01*
X168978600Y-92271000D01*
G75*
G02*
X168741100Y-92508500I-237500J0D01*
G01*
G37*
G36*
G01*
X155833100Y-96282500D02*
X155833100Y-96757500D01*
G75*
G02*
X155595600Y-96995000I-237500J0D01*
G01*
X154995600Y-96995000D01*
G75*
G02*
X154758100Y-96757500I0J237500D01*
G01*
X154758100Y-96282500D01*
G75*
G02*
X154995600Y-96045000I237500J0D01*
G01*
X155595600Y-96045000D01*
G75*
G02*
X155833100Y-96282500I0J-237500D01*
G01*
G37*
G36*
G01*
X157558100Y-96282500D02*
X157558100Y-96757500D01*
G75*
G02*
X157320600Y-96995000I-237500J0D01*
G01*
X156720600Y-96995000D01*
G75*
G02*
X156483100Y-96757500I0J237500D01*
G01*
X156483100Y-96282500D01*
G75*
G02*
X156720600Y-96045000I237500J0D01*
G01*
X157320600Y-96045000D01*
G75*
G02*
X157558100Y-96282500I0J-237500D01*
G01*
G37*
D17*
X135483600Y-104267000D03*
D18*
X135483600Y-101727000D03*
G36*
G01*
X167724600Y-99551500D02*
X167724600Y-99076500D01*
G75*
G02*
X167962100Y-98839000I237500J0D01*
G01*
X168537100Y-98839000D01*
G75*
G02*
X168774600Y-99076500I0J-237500D01*
G01*
X168774600Y-99551500D01*
G75*
G02*
X168537100Y-99789000I-237500J0D01*
G01*
X167962100Y-99789000D01*
G75*
G02*
X167724600Y-99551500I0J237500D01*
G01*
G37*
G36*
G01*
X165974600Y-99551500D02*
X165974600Y-99076500D01*
G75*
G02*
X166212100Y-98839000I237500J0D01*
G01*
X166787100Y-98839000D01*
G75*
G02*
X167024600Y-99076500I0J-237500D01*
G01*
X167024600Y-99551500D01*
G75*
G02*
X166787100Y-99789000I-237500J0D01*
G01*
X166212100Y-99789000D01*
G75*
G02*
X165974600Y-99551500I0J237500D01*
G01*
G37*
G36*
G01*
X156074100Y-85553000D02*
X156549100Y-85553000D01*
G75*
G02*
X156786600Y-85790500I0J-237500D01*
G01*
X156786600Y-86365500D01*
G75*
G02*
X156549100Y-86603000I-237500J0D01*
G01*
X156074100Y-86603000D01*
G75*
G02*
X155836600Y-86365500I0J237500D01*
G01*
X155836600Y-85790500D01*
G75*
G02*
X156074100Y-85553000I237500J0D01*
G01*
G37*
G36*
G01*
X156074100Y-83803000D02*
X156549100Y-83803000D01*
G75*
G02*
X156786600Y-84040500I0J-237500D01*
G01*
X156786600Y-84615500D01*
G75*
G02*
X156549100Y-84853000I-237500J0D01*
G01*
X156074100Y-84853000D01*
G75*
G02*
X155836600Y-84615500I0J237500D01*
G01*
X155836600Y-84040500D01*
G75*
G02*
X156074100Y-83803000I237500J0D01*
G01*
G37*
G36*
G01*
X154136100Y-84853000D02*
X153661100Y-84853000D01*
G75*
G02*
X153423600Y-84615500I0J237500D01*
G01*
X153423600Y-84040500D01*
G75*
G02*
X153661100Y-83803000I237500J0D01*
G01*
X154136100Y-83803000D01*
G75*
G02*
X154373600Y-84040500I0J-237500D01*
G01*
X154373600Y-84615500D01*
G75*
G02*
X154136100Y-84853000I-237500J0D01*
G01*
G37*
G36*
G01*
X154136100Y-86603000D02*
X153661100Y-86603000D01*
G75*
G02*
X153423600Y-86365500I0J237500D01*
G01*
X153423600Y-85790500D01*
G75*
G02*
X153661100Y-85553000I237500J0D01*
G01*
X154136100Y-85553000D01*
G75*
G02*
X154373600Y-85790500I0J-237500D01*
G01*
X154373600Y-86365500D01*
G75*
G02*
X154136100Y-86603000I-237500J0D01*
G01*
G37*
D16*
X159806600Y-97314000D03*
X160756600Y-99314000D03*
X158856600Y-99314000D03*
G36*
G01*
X151723100Y-84853000D02*
X151248100Y-84853000D01*
G75*
G02*
X151010600Y-84615500I0J237500D01*
G01*
X151010600Y-84040500D01*
G75*
G02*
X151248100Y-83803000I237500J0D01*
G01*
X151723100Y-83803000D01*
G75*
G02*
X151960600Y-84040500I0J-237500D01*
G01*
X151960600Y-84615500D01*
G75*
G02*
X151723100Y-84853000I-237500J0D01*
G01*
G37*
G36*
G01*
X151723100Y-86603000D02*
X151248100Y-86603000D01*
G75*
G02*
X151010600Y-86365500I0J237500D01*
G01*
X151010600Y-85790500D01*
G75*
G02*
X151248100Y-85553000I237500J0D01*
G01*
X151723100Y-85553000D01*
G75*
G02*
X151960600Y-85790500I0J-237500D01*
G01*
X151960600Y-86365500D01*
G75*
G02*
X151723100Y-86603000I-237500J0D01*
G01*
G37*
G36*
G01*
X166184600Y-118483000D02*
X165234600Y-118483000D01*
G75*
G02*
X164984600Y-118233000I0J250000D01*
G01*
X164984600Y-117733000D01*
G75*
G02*
X165234600Y-117483000I250000J0D01*
G01*
X166184600Y-117483000D01*
G75*
G02*
X166434600Y-117733000I0J-250000D01*
G01*
X166434600Y-118233000D01*
G75*
G02*
X166184600Y-118483000I-250000J0D01*
G01*
G37*
G36*
G01*
X166184600Y-120383000D02*
X165234600Y-120383000D01*
G75*
G02*
X164984600Y-120133000I0J250000D01*
G01*
X164984600Y-119633000D01*
G75*
G02*
X165234600Y-119383000I250000J0D01*
G01*
X166184600Y-119383000D01*
G75*
G02*
X166434600Y-119633000I0J-250000D01*
G01*
X166434600Y-120133000D01*
G75*
G02*
X166184600Y-120383000I-250000J0D01*
G01*
G37*
G36*
G01*
X162526600Y-119159000D02*
X162526600Y-120109000D01*
G75*
G02*
X162276600Y-120359000I-250000J0D01*
G01*
X161776600Y-120359000D01*
G75*
G02*
X161526600Y-120109000I0J250000D01*
G01*
X161526600Y-119159000D01*
G75*
G02*
X161776600Y-118909000I250000J0D01*
G01*
X162276600Y-118909000D01*
G75*
G02*
X162526600Y-119159000I0J-250000D01*
G01*
G37*
G36*
G01*
X164426600Y-119159000D02*
X164426600Y-120109000D01*
G75*
G02*
X164176600Y-120359000I-250000J0D01*
G01*
X163676600Y-120359000D01*
G75*
G02*
X163426600Y-120109000I0J250000D01*
G01*
X163426600Y-119159000D01*
G75*
G02*
X163676600Y-118909000I250000J0D01*
G01*
X164176600Y-118909000D01*
G75*
G02*
X164426600Y-119159000I0J-250000D01*
G01*
G37*
G36*
G01*
X158691600Y-118356000D02*
X157741600Y-118356000D01*
G75*
G02*
X157491600Y-118106000I0J250000D01*
G01*
X157491600Y-117606000D01*
G75*
G02*
X157741600Y-117356000I250000J0D01*
G01*
X158691600Y-117356000D01*
G75*
G02*
X158941600Y-117606000I0J-250000D01*
G01*
X158941600Y-118106000D01*
G75*
G02*
X158691600Y-118356000I-250000J0D01*
G01*
G37*
G36*
G01*
X158691600Y-120256000D02*
X157741600Y-120256000D01*
G75*
G02*
X157491600Y-120006000I0J250000D01*
G01*
X157491600Y-119506000D01*
G75*
G02*
X157741600Y-119256000I250000J0D01*
G01*
X158691600Y-119256000D01*
G75*
G02*
X158941600Y-119506000I0J-250000D01*
G01*
X158941600Y-120006000D01*
G75*
G02*
X158691600Y-120256000I-250000J0D01*
G01*
G37*
G36*
G01*
X170919600Y-120109000D02*
X170919600Y-119159000D01*
G75*
G02*
X171169600Y-118909000I250000J0D01*
G01*
X171669600Y-118909000D01*
G75*
G02*
X171919600Y-119159000I0J-250000D01*
G01*
X171919600Y-120109000D01*
G75*
G02*
X171669600Y-120359000I-250000J0D01*
G01*
X171169600Y-120359000D01*
G75*
G02*
X170919600Y-120109000I0J250000D01*
G01*
G37*
G36*
G01*
X169019600Y-120109000D02*
X169019600Y-119159000D01*
G75*
G02*
X169269600Y-118909000I250000J0D01*
G01*
X169769600Y-118909000D01*
G75*
G02*
X170019600Y-119159000I0J-250000D01*
G01*
X170019600Y-120109000D01*
G75*
G02*
X169769600Y-120359000I-250000J0D01*
G01*
X169269600Y-120359000D01*
G75*
G02*
X169019600Y-120109000I0J250000D01*
G01*
G37*
G36*
G01*
X160723600Y-118356000D02*
X159773600Y-118356000D01*
G75*
G02*
X159523600Y-118106000I0J250000D01*
G01*
X159523600Y-117606000D01*
G75*
G02*
X159773600Y-117356000I250000J0D01*
G01*
X160723600Y-117356000D01*
G75*
G02*
X160973600Y-117606000I0J-250000D01*
G01*
X160973600Y-118106000D01*
G75*
G02*
X160723600Y-118356000I-250000J0D01*
G01*
G37*
G36*
G01*
X160723600Y-120256000D02*
X159773600Y-120256000D01*
G75*
G02*
X159523600Y-120006000I0J250000D01*
G01*
X159523600Y-119506000D01*
G75*
G02*
X159773600Y-119256000I250000J0D01*
G01*
X160723600Y-119256000D01*
G75*
G02*
X160973600Y-119506000I0J-250000D01*
G01*
X160973600Y-120006000D01*
G75*
G02*
X160723600Y-120256000I-250000J0D01*
G01*
G37*
D19*
X175768000Y-80848200D03*
X135763000Y-80848200D03*
X175768000Y-120853200D03*
X135763000Y-120853200D03*
D20*
X141452600Y-113284000D03*
X141452600Y-114234000D03*
X141452600Y-115184000D03*
X139132600Y-115184000D03*
X139132600Y-114234000D03*
X139132600Y-113284000D03*
G36*
G01*
X163570600Y-97411400D02*
X163570600Y-97711400D01*
G75*
G02*
X163420600Y-97861400I-150000J0D01*
G01*
X162070600Y-97861400D01*
G75*
G02*
X161920600Y-97711400I0J150000D01*
G01*
X161920600Y-97411400D01*
G75*
G02*
X162070600Y-97261400I150000J0D01*
G01*
X163420600Y-97261400D01*
G75*
G02*
X163570600Y-97411400I0J-150000D01*
G01*
G37*
G36*
G01*
X163570600Y-96141400D02*
X163570600Y-96441400D01*
G75*
G02*
X163420600Y-96591400I-150000J0D01*
G01*
X162070600Y-96591400D01*
G75*
G02*
X161920600Y-96441400I0J150000D01*
G01*
X161920600Y-96141400D01*
G75*
G02*
X162070600Y-95991400I150000J0D01*
G01*
X163420600Y-95991400D01*
G75*
G02*
X163570600Y-96141400I0J-150000D01*
G01*
G37*
G36*
G01*
X163570600Y-94871400D02*
X163570600Y-95171400D01*
G75*
G02*
X163420600Y-95321400I-150000J0D01*
G01*
X162070600Y-95321400D01*
G75*
G02*
X161920600Y-95171400I0J150000D01*
G01*
X161920600Y-94871400D01*
G75*
G02*
X162070600Y-94721400I150000J0D01*
G01*
X163420600Y-94721400D01*
G75*
G02*
X163570600Y-94871400I0J-150000D01*
G01*
G37*
G36*
G01*
X163570600Y-93601400D02*
X163570600Y-93901400D01*
G75*
G02*
X163420600Y-94051400I-150000J0D01*
G01*
X162070600Y-94051400D01*
G75*
G02*
X161920600Y-93901400I0J150000D01*
G01*
X161920600Y-93601400D01*
G75*
G02*
X162070600Y-93451400I150000J0D01*
G01*
X163420600Y-93451400D01*
G75*
G02*
X163570600Y-93601400I0J-150000D01*
G01*
G37*
G36*
G01*
X168820600Y-93601400D02*
X168820600Y-93901400D01*
G75*
G02*
X168670600Y-94051400I-150000J0D01*
G01*
X167320600Y-94051400D01*
G75*
G02*
X167170600Y-93901400I0J150000D01*
G01*
X167170600Y-93601400D01*
G75*
G02*
X167320600Y-93451400I150000J0D01*
G01*
X168670600Y-93451400D01*
G75*
G02*
X168820600Y-93601400I0J-150000D01*
G01*
G37*
G36*
G01*
X168820600Y-94871400D02*
X168820600Y-95171400D01*
G75*
G02*
X168670600Y-95321400I-150000J0D01*
G01*
X167320600Y-95321400D01*
G75*
G02*
X167170600Y-95171400I0J150000D01*
G01*
X167170600Y-94871400D01*
G75*
G02*
X167320600Y-94721400I150000J0D01*
G01*
X168670600Y-94721400D01*
G75*
G02*
X168820600Y-94871400I0J-150000D01*
G01*
G37*
G36*
G01*
X168820600Y-96141400D02*
X168820600Y-96441400D01*
G75*
G02*
X168670600Y-96591400I-150000J0D01*
G01*
X167320600Y-96591400D01*
G75*
G02*
X167170600Y-96441400I0J150000D01*
G01*
X167170600Y-96141400D01*
G75*
G02*
X167320600Y-95991400I150000J0D01*
G01*
X168670600Y-95991400D01*
G75*
G02*
X168820600Y-96141400I0J-150000D01*
G01*
G37*
G36*
G01*
X168820600Y-97411400D02*
X168820600Y-97711400D01*
G75*
G02*
X168670600Y-97861400I-150000J0D01*
G01*
X167320600Y-97861400D01*
G75*
G02*
X167170600Y-97711400I0J150000D01*
G01*
X167170600Y-97411400D01*
G75*
G02*
X167320600Y-97261400I150000J0D01*
G01*
X168670600Y-97261400D01*
G75*
G02*
X168820600Y-97411400I0J-150000D01*
G01*
G37*
G36*
G01*
X155152100Y-102457800D02*
X154677100Y-102457800D01*
G75*
G02*
X154439600Y-102220300I0J237500D01*
G01*
X154439600Y-101645300D01*
G75*
G02*
X154677100Y-101407800I237500J0D01*
G01*
X155152100Y-101407800D01*
G75*
G02*
X155389600Y-101645300I0J-237500D01*
G01*
X155389600Y-102220300D01*
G75*
G02*
X155152100Y-102457800I-237500J0D01*
G01*
G37*
G36*
G01*
X155152100Y-104207800D02*
X154677100Y-104207800D01*
G75*
G02*
X154439600Y-103970300I0J237500D01*
G01*
X154439600Y-103395300D01*
G75*
G02*
X154677100Y-103157800I237500J0D01*
G01*
X155152100Y-103157800D01*
G75*
G02*
X155389600Y-103395300I0J-237500D01*
G01*
X155389600Y-103970300D01*
G75*
G02*
X155152100Y-104207800I-237500J0D01*
G01*
G37*
G36*
G01*
X153374100Y-102455200D02*
X152899100Y-102455200D01*
G75*
G02*
X152661600Y-102217700I0J237500D01*
G01*
X152661600Y-101642700D01*
G75*
G02*
X152899100Y-101405200I237500J0D01*
G01*
X153374100Y-101405200D01*
G75*
G02*
X153611600Y-101642700I0J-237500D01*
G01*
X153611600Y-102217700D01*
G75*
G02*
X153374100Y-102455200I-237500J0D01*
G01*
G37*
G36*
G01*
X153374100Y-104205200D02*
X152899100Y-104205200D01*
G75*
G02*
X152661600Y-103967700I0J237500D01*
G01*
X152661600Y-103392700D01*
G75*
G02*
X152899100Y-103155200I237500J0D01*
G01*
X153374100Y-103155200D01*
G75*
G02*
X153611600Y-103392700I0J-237500D01*
G01*
X153611600Y-103967700D01*
G75*
G02*
X153374100Y-104205200I-237500J0D01*
G01*
G37*
G36*
G01*
X152137100Y-99523000D02*
X152612100Y-99523000D01*
G75*
G02*
X152849600Y-99760500I0J-237500D01*
G01*
X152849600Y-100335500D01*
G75*
G02*
X152612100Y-100573000I-237500J0D01*
G01*
X152137100Y-100573000D01*
G75*
G02*
X151899600Y-100335500I0J237500D01*
G01*
X151899600Y-99760500D01*
G75*
G02*
X152137100Y-99523000I237500J0D01*
G01*
G37*
G36*
G01*
X152137100Y-97773000D02*
X152612100Y-97773000D01*
G75*
G02*
X152849600Y-98010500I0J-237500D01*
G01*
X152849600Y-98585500D01*
G75*
G02*
X152612100Y-98823000I-237500J0D01*
G01*
X152137100Y-98823000D01*
G75*
G02*
X151899600Y-98585500I0J237500D01*
G01*
X151899600Y-98010500D01*
G75*
G02*
X152137100Y-97773000I237500J0D01*
G01*
G37*
D21*
X134670800Y-107802600D03*
X134670800Y-113602600D03*
D22*
X134670800Y-114202600D03*
X134670800Y-107202600D03*
D23*
X134670800Y-109702600D03*
D24*
X137370800Y-113202600D03*
D25*
X137370800Y-110702600D03*
X137370800Y-111352600D03*
X137370800Y-112002600D03*
X137370800Y-109402600D03*
X137370800Y-110052600D03*
D24*
X137370800Y-108202600D03*
D23*
X134670800Y-111702600D03*
G36*
G01*
X136283600Y-99215000D02*
X134683600Y-99215000D01*
G75*
G02*
X134483600Y-99015000I0J200000D01*
G01*
X134483600Y-98615000D01*
G75*
G02*
X134683600Y-98415000I200000J0D01*
G01*
X136283600Y-98415000D01*
G75*
G02*
X136483600Y-98615000I0J-200000D01*
G01*
X136483600Y-99015000D01*
G75*
G02*
X136283600Y-99215000I-200000J0D01*
G01*
G37*
G36*
G01*
X136283600Y-95015000D02*
X134683600Y-95015000D01*
G75*
G02*
X134483600Y-94815000I0J200000D01*
G01*
X134483600Y-94415000D01*
G75*
G02*
X134683600Y-94215000I200000J0D01*
G01*
X136283600Y-94215000D01*
G75*
G02*
X136483600Y-94415000I0J-200000D01*
G01*
X136483600Y-94815000D01*
G75*
G02*
X136283600Y-95015000I-200000J0D01*
G01*
G37*
D17*
X135483600Y-91567000D03*
D18*
X135483600Y-89027000D03*
D26*
X171907200Y-86258400D03*
G36*
G01*
X172532201Y-88858400D02*
X171282199Y-88858400D01*
G75*
G02*
X171032200Y-88608401I0J249999D01*
G01*
X171032200Y-87908399D01*
G75*
G02*
X171282199Y-87658400I249999J0D01*
G01*
X172532201Y-87658400D01*
G75*
G02*
X172782200Y-87908399I0J-249999D01*
G01*
X172782200Y-88608401D01*
G75*
G02*
X172532201Y-88858400I-249999J0D01*
G01*
G37*
G36*
G01*
X144572500Y-91969600D02*
X144572500Y-91494600D01*
G75*
G02*
X144810000Y-91257100I237500J0D01*
G01*
X145385000Y-91257100D01*
G75*
G02*
X145622500Y-91494600I0J-237500D01*
G01*
X145622500Y-91969600D01*
G75*
G02*
X145385000Y-92207100I-237500J0D01*
G01*
X144810000Y-92207100D01*
G75*
G02*
X144572500Y-91969600I0J237500D01*
G01*
G37*
G36*
G01*
X142822500Y-91969600D02*
X142822500Y-91494600D01*
G75*
G02*
X143060000Y-91257100I237500J0D01*
G01*
X143635000Y-91257100D01*
G75*
G02*
X143872500Y-91494600I0J-237500D01*
G01*
X143872500Y-91969600D01*
G75*
G02*
X143635000Y-92207100I-237500J0D01*
G01*
X143060000Y-92207100D01*
G75*
G02*
X142822500Y-91969600I0J237500D01*
G01*
G37*
D27*
X142189200Y-101955600D03*
X142189200Y-104455600D03*
G36*
G01*
X157750300Y-107295800D02*
X157750300Y-107495800D01*
G75*
G02*
X157650300Y-107595800I-100000J0D01*
G01*
X156375300Y-107595800D01*
G75*
G02*
X156275300Y-107495800I0J100000D01*
G01*
X156275300Y-107295800D01*
G75*
G02*
X156375300Y-107195800I100000J0D01*
G01*
X157650300Y-107195800D01*
G75*
G02*
X157750300Y-107295800I0J-100000D01*
G01*
G37*
G36*
G01*
X157750300Y-106645800D02*
X157750300Y-106845800D01*
G75*
G02*
X157650300Y-106945800I-100000J0D01*
G01*
X156375300Y-106945800D01*
G75*
G02*
X156275300Y-106845800I0J100000D01*
G01*
X156275300Y-106645800D01*
G75*
G02*
X156375300Y-106545800I100000J0D01*
G01*
X157650300Y-106545800D01*
G75*
G02*
X157750300Y-106645800I0J-100000D01*
G01*
G37*
G36*
G01*
X157750300Y-105995800D02*
X157750300Y-106195800D01*
G75*
G02*
X157650300Y-106295800I-100000J0D01*
G01*
X156375300Y-106295800D01*
G75*
G02*
X156275300Y-106195800I0J100000D01*
G01*
X156275300Y-105995800D01*
G75*
G02*
X156375300Y-105895800I100000J0D01*
G01*
X157650300Y-105895800D01*
G75*
G02*
X157750300Y-105995800I0J-100000D01*
G01*
G37*
G36*
G01*
X157750300Y-105345800D02*
X157750300Y-105545800D01*
G75*
G02*
X157650300Y-105645800I-100000J0D01*
G01*
X156375300Y-105645800D01*
G75*
G02*
X156275300Y-105545800I0J100000D01*
G01*
X156275300Y-105345800D01*
G75*
G02*
X156375300Y-105245800I100000J0D01*
G01*
X157650300Y-105245800D01*
G75*
G02*
X157750300Y-105345800I0J-100000D01*
G01*
G37*
G36*
G01*
X157750300Y-104695800D02*
X157750300Y-104895800D01*
G75*
G02*
X157650300Y-104995800I-100000J0D01*
G01*
X156375300Y-104995800D01*
G75*
G02*
X156275300Y-104895800I0J100000D01*
G01*
X156275300Y-104695800D01*
G75*
G02*
X156375300Y-104595800I100000J0D01*
G01*
X157650300Y-104595800D01*
G75*
G02*
X157750300Y-104695800I0J-100000D01*
G01*
G37*
G36*
G01*
X157750300Y-104045800D02*
X157750300Y-104245800D01*
G75*
G02*
X157650300Y-104345800I-100000J0D01*
G01*
X156375300Y-104345800D01*
G75*
G02*
X156275300Y-104245800I0J100000D01*
G01*
X156275300Y-104045800D01*
G75*
G02*
X156375300Y-103945800I100000J0D01*
G01*
X157650300Y-103945800D01*
G75*
G02*
X157750300Y-104045800I0J-100000D01*
G01*
G37*
G36*
G01*
X157750300Y-103395800D02*
X157750300Y-103595800D01*
G75*
G02*
X157650300Y-103695800I-100000J0D01*
G01*
X156375300Y-103695800D01*
G75*
G02*
X156275300Y-103595800I0J100000D01*
G01*
X156275300Y-103395800D01*
G75*
G02*
X156375300Y-103295800I100000J0D01*
G01*
X157650300Y-103295800D01*
G75*
G02*
X157750300Y-103395800I0J-100000D01*
G01*
G37*
G36*
G01*
X157750300Y-102745800D02*
X157750300Y-102945800D01*
G75*
G02*
X157650300Y-103045800I-100000J0D01*
G01*
X156375300Y-103045800D01*
G75*
G02*
X156275300Y-102945800I0J100000D01*
G01*
X156275300Y-102745800D01*
G75*
G02*
X156375300Y-102645800I100000J0D01*
G01*
X157650300Y-102645800D01*
G75*
G02*
X157750300Y-102745800I0J-100000D01*
G01*
G37*
G36*
G01*
X163475300Y-102745800D02*
X163475300Y-102945800D01*
G75*
G02*
X163375300Y-103045800I-100000J0D01*
G01*
X162100300Y-103045800D01*
G75*
G02*
X162000300Y-102945800I0J100000D01*
G01*
X162000300Y-102745800D01*
G75*
G02*
X162100300Y-102645800I100000J0D01*
G01*
X163375300Y-102645800D01*
G75*
G02*
X163475300Y-102745800I0J-100000D01*
G01*
G37*
G36*
G01*
X163475300Y-103395800D02*
X163475300Y-103595800D01*
G75*
G02*
X163375300Y-103695800I-100000J0D01*
G01*
X162100300Y-103695800D01*
G75*
G02*
X162000300Y-103595800I0J100000D01*
G01*
X162000300Y-103395800D01*
G75*
G02*
X162100300Y-103295800I100000J0D01*
G01*
X163375300Y-103295800D01*
G75*
G02*
X163475300Y-103395800I0J-100000D01*
G01*
G37*
G36*
G01*
X163475300Y-104045800D02*
X163475300Y-104245800D01*
G75*
G02*
X163375300Y-104345800I-100000J0D01*
G01*
X162100300Y-104345800D01*
G75*
G02*
X162000300Y-104245800I0J100000D01*
G01*
X162000300Y-104045800D01*
G75*
G02*
X162100300Y-103945800I100000J0D01*
G01*
X163375300Y-103945800D01*
G75*
G02*
X163475300Y-104045800I0J-100000D01*
G01*
G37*
G36*
G01*
X163475300Y-104695800D02*
X163475300Y-104895800D01*
G75*
G02*
X163375300Y-104995800I-100000J0D01*
G01*
X162100300Y-104995800D01*
G75*
G02*
X162000300Y-104895800I0J100000D01*
G01*
X162000300Y-104695800D01*
G75*
G02*
X162100300Y-104595800I100000J0D01*
G01*
X163375300Y-104595800D01*
G75*
G02*
X163475300Y-104695800I0J-100000D01*
G01*
G37*
G36*
G01*
X163475300Y-105345800D02*
X163475300Y-105545800D01*
G75*
G02*
X163375300Y-105645800I-100000J0D01*
G01*
X162100300Y-105645800D01*
G75*
G02*
X162000300Y-105545800I0J100000D01*
G01*
X162000300Y-105345800D01*
G75*
G02*
X162100300Y-105245800I100000J0D01*
G01*
X163375300Y-105245800D01*
G75*
G02*
X163475300Y-105345800I0J-100000D01*
G01*
G37*
G36*
G01*
X163475300Y-105995800D02*
X163475300Y-106195800D01*
G75*
G02*
X163375300Y-106295800I-100000J0D01*
G01*
X162100300Y-106295800D01*
G75*
G02*
X162000300Y-106195800I0J100000D01*
G01*
X162000300Y-105995800D01*
G75*
G02*
X162100300Y-105895800I100000J0D01*
G01*
X163375300Y-105895800D01*
G75*
G02*
X163475300Y-105995800I0J-100000D01*
G01*
G37*
G36*
G01*
X163475300Y-106645800D02*
X163475300Y-106845800D01*
G75*
G02*
X163375300Y-106945800I-100000J0D01*
G01*
X162100300Y-106945800D01*
G75*
G02*
X162000300Y-106845800I0J100000D01*
G01*
X162000300Y-106645800D01*
G75*
G02*
X162100300Y-106545800I100000J0D01*
G01*
X163375300Y-106545800D01*
G75*
G02*
X163475300Y-106645800I0J-100000D01*
G01*
G37*
G36*
G01*
X163475300Y-107295800D02*
X163475300Y-107495800D01*
G75*
G02*
X163375300Y-107595800I-100000J0D01*
G01*
X162100300Y-107595800D01*
G75*
G02*
X162000300Y-107495800I0J100000D01*
G01*
X162000300Y-107295800D01*
G75*
G02*
X162100300Y-107195800I100000J0D01*
G01*
X163375300Y-107195800D01*
G75*
G02*
X163475300Y-107295800I0J-100000D01*
G01*
G37*
G36*
G01*
X148707200Y-102105600D02*
X148707200Y-101805600D01*
G75*
G02*
X148857200Y-101655600I150000J0D01*
G01*
X150507200Y-101655600D01*
G75*
G02*
X150657200Y-101805600I0J-150000D01*
G01*
X150657200Y-102105600D01*
G75*
G02*
X150507200Y-102255600I-150000J0D01*
G01*
X148857200Y-102255600D01*
G75*
G02*
X148707200Y-102105600I0J150000D01*
G01*
G37*
G36*
G01*
X148707200Y-103375600D02*
X148707200Y-103075600D01*
G75*
G02*
X148857200Y-102925600I150000J0D01*
G01*
X150507200Y-102925600D01*
G75*
G02*
X150657200Y-103075600I0J-150000D01*
G01*
X150657200Y-103375600D01*
G75*
G02*
X150507200Y-103525600I-150000J0D01*
G01*
X148857200Y-103525600D01*
G75*
G02*
X148707200Y-103375600I0J150000D01*
G01*
G37*
G36*
G01*
X148707200Y-104645600D02*
X148707200Y-104345600D01*
G75*
G02*
X148857200Y-104195600I150000J0D01*
G01*
X150507200Y-104195600D01*
G75*
G02*
X150657200Y-104345600I0J-150000D01*
G01*
X150657200Y-104645600D01*
G75*
G02*
X150507200Y-104795600I-150000J0D01*
G01*
X148857200Y-104795600D01*
G75*
G02*
X148707200Y-104645600I0J150000D01*
G01*
G37*
G36*
G01*
X148707200Y-105915600D02*
X148707200Y-105615600D01*
G75*
G02*
X148857200Y-105465600I150000J0D01*
G01*
X150507200Y-105465600D01*
G75*
G02*
X150657200Y-105615600I0J-150000D01*
G01*
X150657200Y-105915600D01*
G75*
G02*
X150507200Y-106065600I-150000J0D01*
G01*
X148857200Y-106065600D01*
G75*
G02*
X148707200Y-105915600I0J150000D01*
G01*
G37*
G36*
G01*
X143757200Y-105915600D02*
X143757200Y-105615600D01*
G75*
G02*
X143907200Y-105465600I150000J0D01*
G01*
X145557200Y-105465600D01*
G75*
G02*
X145707200Y-105615600I0J-150000D01*
G01*
X145707200Y-105915600D01*
G75*
G02*
X145557200Y-106065600I-150000J0D01*
G01*
X143907200Y-106065600D01*
G75*
G02*
X143757200Y-105915600I0J150000D01*
G01*
G37*
G36*
G01*
X143757200Y-104645600D02*
X143757200Y-104345600D01*
G75*
G02*
X143907200Y-104195600I150000J0D01*
G01*
X145557200Y-104195600D01*
G75*
G02*
X145707200Y-104345600I0J-150000D01*
G01*
X145707200Y-104645600D01*
G75*
G02*
X145557200Y-104795600I-150000J0D01*
G01*
X143907200Y-104795600D01*
G75*
G02*
X143757200Y-104645600I0J150000D01*
G01*
G37*
G36*
G01*
X143757200Y-103375600D02*
X143757200Y-103075600D01*
G75*
G02*
X143907200Y-102925600I150000J0D01*
G01*
X145557200Y-102925600D01*
G75*
G02*
X145707200Y-103075600I0J-150000D01*
G01*
X145707200Y-103375600D01*
G75*
G02*
X145557200Y-103525600I-150000J0D01*
G01*
X143907200Y-103525600D01*
G75*
G02*
X143757200Y-103375600I0J150000D01*
G01*
G37*
G36*
G01*
X143757200Y-102105600D02*
X143757200Y-101805600D01*
G75*
G02*
X143907200Y-101655600I150000J0D01*
G01*
X145557200Y-101655600D01*
G75*
G02*
X145707200Y-101805600I0J-150000D01*
G01*
X145707200Y-102105600D01*
G75*
G02*
X145557200Y-102255600I-150000J0D01*
G01*
X143907200Y-102255600D01*
G75*
G02*
X143757200Y-102105600I0J150000D01*
G01*
G37*
D28*
X147789900Y-93103700D03*
G36*
G01*
X148702400Y-94553700D02*
X148827400Y-94553700D01*
G75*
G02*
X148889900Y-94616200I0J-62500D01*
G01*
X148889900Y-95391200D01*
G75*
G02*
X148827400Y-95453700I-62500J0D01*
G01*
X148702400Y-95453700D01*
G75*
G02*
X148639900Y-95391200I0J62500D01*
G01*
X148639900Y-94616200D01*
G75*
G02*
X148702400Y-94553700I62500J0D01*
G01*
G37*
G36*
G01*
X148052400Y-94553700D02*
X148177400Y-94553700D01*
G75*
G02*
X148239900Y-94616200I0J-62500D01*
G01*
X148239900Y-95391200D01*
G75*
G02*
X148177400Y-95453700I-62500J0D01*
G01*
X148052400Y-95453700D01*
G75*
G02*
X147989900Y-95391200I0J62500D01*
G01*
X147989900Y-94616200D01*
G75*
G02*
X148052400Y-94553700I62500J0D01*
G01*
G37*
G36*
G01*
X147402400Y-94553700D02*
X147527400Y-94553700D01*
G75*
G02*
X147589900Y-94616200I0J-62500D01*
G01*
X147589900Y-95391200D01*
G75*
G02*
X147527400Y-95453700I-62500J0D01*
G01*
X147402400Y-95453700D01*
G75*
G02*
X147339900Y-95391200I0J62500D01*
G01*
X147339900Y-94616200D01*
G75*
G02*
X147402400Y-94553700I62500J0D01*
G01*
G37*
G36*
G01*
X146752400Y-94553700D02*
X146877400Y-94553700D01*
G75*
G02*
X146939900Y-94616200I0J-62500D01*
G01*
X146939900Y-95391200D01*
G75*
G02*
X146877400Y-95453700I-62500J0D01*
G01*
X146752400Y-95453700D01*
G75*
G02*
X146689900Y-95391200I0J62500D01*
G01*
X146689900Y-94616200D01*
G75*
G02*
X146752400Y-94553700I62500J0D01*
G01*
G37*
G36*
G01*
X146752400Y-90753700D02*
X146877400Y-90753700D01*
G75*
G02*
X146939900Y-90816200I0J-62500D01*
G01*
X146939900Y-91591200D01*
G75*
G02*
X146877400Y-91653700I-62500J0D01*
G01*
X146752400Y-91653700D01*
G75*
G02*
X146689900Y-91591200I0J62500D01*
G01*
X146689900Y-90816200D01*
G75*
G02*
X146752400Y-90753700I62500J0D01*
G01*
G37*
G36*
G01*
X147402400Y-90753700D02*
X147527400Y-90753700D01*
G75*
G02*
X147589900Y-90816200I0J-62500D01*
G01*
X147589900Y-91591200D01*
G75*
G02*
X147527400Y-91653700I-62500J0D01*
G01*
X147402400Y-91653700D01*
G75*
G02*
X147339900Y-91591200I0J62500D01*
G01*
X147339900Y-90816200D01*
G75*
G02*
X147402400Y-90753700I62500J0D01*
G01*
G37*
G36*
G01*
X148052400Y-90753700D02*
X148177400Y-90753700D01*
G75*
G02*
X148239900Y-90816200I0J-62500D01*
G01*
X148239900Y-91591200D01*
G75*
G02*
X148177400Y-91653700I-62500J0D01*
G01*
X148052400Y-91653700D01*
G75*
G02*
X147989900Y-91591200I0J62500D01*
G01*
X147989900Y-90816200D01*
G75*
G02*
X148052400Y-90753700I62500J0D01*
G01*
G37*
G36*
G01*
X148702400Y-90753700D02*
X148827400Y-90753700D01*
G75*
G02*
X148889900Y-90816200I0J-62500D01*
G01*
X148889900Y-91591200D01*
G75*
G02*
X148827400Y-91653700I-62500J0D01*
G01*
X148702400Y-91653700D01*
G75*
G02*
X148639900Y-91591200I0J62500D01*
G01*
X148639900Y-90816200D01*
G75*
G02*
X148702400Y-90753700I62500J0D01*
G01*
G37*
G36*
G01*
X166546900Y-84859800D02*
X166546900Y-84659800D01*
G75*
G02*
X166646900Y-84559800I100000J0D01*
G01*
X167921900Y-84559800D01*
G75*
G02*
X168021900Y-84659800I0J-100000D01*
G01*
X168021900Y-84859800D01*
G75*
G02*
X167921900Y-84959800I-100000J0D01*
G01*
X166646900Y-84959800D01*
G75*
G02*
X166546900Y-84859800I0J100000D01*
G01*
G37*
G36*
G01*
X166546900Y-85509800D02*
X166546900Y-85309800D01*
G75*
G02*
X166646900Y-85209800I100000J0D01*
G01*
X167921900Y-85209800D01*
G75*
G02*
X168021900Y-85309800I0J-100000D01*
G01*
X168021900Y-85509800D01*
G75*
G02*
X167921900Y-85609800I-100000J0D01*
G01*
X166646900Y-85609800D01*
G75*
G02*
X166546900Y-85509800I0J100000D01*
G01*
G37*
G36*
G01*
X166546900Y-86159800D02*
X166546900Y-85959800D01*
G75*
G02*
X166646900Y-85859800I100000J0D01*
G01*
X167921900Y-85859800D01*
G75*
G02*
X168021900Y-85959800I0J-100000D01*
G01*
X168021900Y-86159800D01*
G75*
G02*
X167921900Y-86259800I-100000J0D01*
G01*
X166646900Y-86259800D01*
G75*
G02*
X166546900Y-86159800I0J100000D01*
G01*
G37*
G36*
G01*
X166546900Y-86809800D02*
X166546900Y-86609800D01*
G75*
G02*
X166646900Y-86509800I100000J0D01*
G01*
X167921900Y-86509800D01*
G75*
G02*
X168021900Y-86609800I0J-100000D01*
G01*
X168021900Y-86809800D01*
G75*
G02*
X167921900Y-86909800I-100000J0D01*
G01*
X166646900Y-86909800D01*
G75*
G02*
X166546900Y-86809800I0J100000D01*
G01*
G37*
G36*
G01*
X160821900Y-86809800D02*
X160821900Y-86609800D01*
G75*
G02*
X160921900Y-86509800I100000J0D01*
G01*
X162196900Y-86509800D01*
G75*
G02*
X162296900Y-86609800I0J-100000D01*
G01*
X162296900Y-86809800D01*
G75*
G02*
X162196900Y-86909800I-100000J0D01*
G01*
X160921900Y-86909800D01*
G75*
G02*
X160821900Y-86809800I0J100000D01*
G01*
G37*
G36*
G01*
X160821900Y-86159800D02*
X160821900Y-85959800D01*
G75*
G02*
X160921900Y-85859800I100000J0D01*
G01*
X162196900Y-85859800D01*
G75*
G02*
X162296900Y-85959800I0J-100000D01*
G01*
X162296900Y-86159800D01*
G75*
G02*
X162196900Y-86259800I-100000J0D01*
G01*
X160921900Y-86259800D01*
G75*
G02*
X160821900Y-86159800I0J100000D01*
G01*
G37*
G36*
G01*
X160821900Y-85509800D02*
X160821900Y-85309800D01*
G75*
G02*
X160921900Y-85209800I100000J0D01*
G01*
X162196900Y-85209800D01*
G75*
G02*
X162296900Y-85309800I0J-100000D01*
G01*
X162296900Y-85509800D01*
G75*
G02*
X162196900Y-85609800I-100000J0D01*
G01*
X160921900Y-85609800D01*
G75*
G02*
X160821900Y-85509800I0J100000D01*
G01*
G37*
G36*
G01*
X160821900Y-84859800D02*
X160821900Y-84659800D01*
G75*
G02*
X160921900Y-84559800I100000J0D01*
G01*
X162196900Y-84559800D01*
G75*
G02*
X162296900Y-84659800I0J-100000D01*
G01*
X162296900Y-84859800D01*
G75*
G02*
X162196900Y-84959800I-100000J0D01*
G01*
X160921900Y-84959800D01*
G75*
G02*
X160821900Y-84859800I0J100000D01*
G01*
G37*
G36*
G01*
X168995100Y-81678000D02*
X168520100Y-81678000D01*
G75*
G02*
X168282600Y-81440500I0J237500D01*
G01*
X168282600Y-80865500D01*
G75*
G02*
X168520100Y-80628000I237500J0D01*
G01*
X168995100Y-80628000D01*
G75*
G02*
X169232600Y-80865500I0J-237500D01*
G01*
X169232600Y-81440500D01*
G75*
G02*
X168995100Y-81678000I-237500J0D01*
G01*
G37*
G36*
G01*
X168995100Y-83428000D02*
X168520100Y-83428000D01*
G75*
G02*
X168282600Y-83190500I0J237500D01*
G01*
X168282600Y-82615500D01*
G75*
G02*
X168520100Y-82378000I237500J0D01*
G01*
X168995100Y-82378000D01*
G75*
G02*
X169232600Y-82615500I0J-237500D01*
G01*
X169232600Y-83190500D01*
G75*
G02*
X168995100Y-83428000I-237500J0D01*
G01*
G37*
G36*
G01*
X156930100Y-114853000D02*
X156455100Y-114853000D01*
G75*
G02*
X156217600Y-114615500I0J237500D01*
G01*
X156217600Y-114040500D01*
G75*
G02*
X156455100Y-113803000I237500J0D01*
G01*
X156930100Y-113803000D01*
G75*
G02*
X157167600Y-114040500I0J-237500D01*
G01*
X157167600Y-114615500D01*
G75*
G02*
X156930100Y-114853000I-237500J0D01*
G01*
G37*
G36*
G01*
X156930100Y-116603000D02*
X156455100Y-116603000D01*
G75*
G02*
X156217600Y-116365500I0J237500D01*
G01*
X156217600Y-115790500D01*
G75*
G02*
X156455100Y-115553000I237500J0D01*
G01*
X156930100Y-115553000D01*
G75*
G02*
X157167600Y-115790500I0J-237500D01*
G01*
X157167600Y-116365500D01*
G75*
G02*
X156930100Y-116603000I-237500J0D01*
G01*
G37*
G36*
G01*
X155152100Y-118536000D02*
X154677100Y-118536000D01*
G75*
G02*
X154439600Y-118298500I0J237500D01*
G01*
X154439600Y-117723500D01*
G75*
G02*
X154677100Y-117486000I237500J0D01*
G01*
X155152100Y-117486000D01*
G75*
G02*
X155389600Y-117723500I0J-237500D01*
G01*
X155389600Y-118298500D01*
G75*
G02*
X155152100Y-118536000I-237500J0D01*
G01*
G37*
G36*
G01*
X155152100Y-120286000D02*
X154677100Y-120286000D01*
G75*
G02*
X154439600Y-120048500I0J237500D01*
G01*
X154439600Y-119473500D01*
G75*
G02*
X154677100Y-119236000I237500J0D01*
G01*
X155152100Y-119236000D01*
G75*
G02*
X155389600Y-119473500I0J-237500D01*
G01*
X155389600Y-120048500D01*
G75*
G02*
X155152100Y-120286000I-237500J0D01*
G01*
G37*
G36*
G01*
X156201100Y-119236000D02*
X156676100Y-119236000D01*
G75*
G02*
X156913600Y-119473500I0J-237500D01*
G01*
X156913600Y-120048500D01*
G75*
G02*
X156676100Y-120286000I-237500J0D01*
G01*
X156201100Y-120286000D01*
G75*
G02*
X155963600Y-120048500I0J237500D01*
G01*
X155963600Y-119473500D01*
G75*
G02*
X156201100Y-119236000I237500J0D01*
G01*
G37*
G36*
G01*
X156201100Y-117486000D02*
X156676100Y-117486000D01*
G75*
G02*
X156913600Y-117723500I0J-237500D01*
G01*
X156913600Y-118298500D01*
G75*
G02*
X156676100Y-118536000I-237500J0D01*
G01*
X156201100Y-118536000D01*
G75*
G02*
X155963600Y-118298500I0J237500D01*
G01*
X155963600Y-117723500D01*
G75*
G02*
X156201100Y-117486000I237500J0D01*
G01*
G37*
G36*
G01*
X164710100Y-91458500D02*
X165185100Y-91458500D01*
G75*
G02*
X165422600Y-91696000I0J-237500D01*
G01*
X165422600Y-92271000D01*
G75*
G02*
X165185100Y-92508500I-237500J0D01*
G01*
X164710100Y-92508500D01*
G75*
G02*
X164472600Y-92271000I0J237500D01*
G01*
X164472600Y-91696000D01*
G75*
G02*
X164710100Y-91458500I237500J0D01*
G01*
G37*
G36*
G01*
X164710100Y-89708500D02*
X165185100Y-89708500D01*
G75*
G02*
X165422600Y-89946000I0J-237500D01*
G01*
X165422600Y-90521000D01*
G75*
G02*
X165185100Y-90758500I-237500J0D01*
G01*
X164710100Y-90758500D01*
G75*
G02*
X164472600Y-90521000I0J237500D01*
G01*
X164472600Y-89946000D01*
G75*
G02*
X164710100Y-89708500I237500J0D01*
G01*
G37*
G36*
G01*
X160392100Y-94979000D02*
X160867100Y-94979000D01*
G75*
G02*
X161104600Y-95216500I0J-237500D01*
G01*
X161104600Y-95791500D01*
G75*
G02*
X160867100Y-96029000I-237500J0D01*
G01*
X160392100Y-96029000D01*
G75*
G02*
X160154600Y-95791500I0J237500D01*
G01*
X160154600Y-95216500D01*
G75*
G02*
X160392100Y-94979000I237500J0D01*
G01*
G37*
G36*
G01*
X160392100Y-93229000D02*
X160867100Y-93229000D01*
G75*
G02*
X161104600Y-93466500I0J-237500D01*
G01*
X161104600Y-94041500D01*
G75*
G02*
X160867100Y-94279000I-237500J0D01*
G01*
X160392100Y-94279000D01*
G75*
G02*
X160154600Y-94041500I0J237500D01*
G01*
X160154600Y-93466500D01*
G75*
G02*
X160392100Y-93229000I237500J0D01*
G01*
G37*
G36*
G01*
X164829500Y-105898200D02*
X164354500Y-105898200D01*
G75*
G02*
X164117000Y-105660700I0J237500D01*
G01*
X164117000Y-105085700D01*
G75*
G02*
X164354500Y-104848200I237500J0D01*
G01*
X164829500Y-104848200D01*
G75*
G02*
X165067000Y-105085700I0J-237500D01*
G01*
X165067000Y-105660700D01*
G75*
G02*
X164829500Y-105898200I-237500J0D01*
G01*
G37*
G36*
G01*
X164829500Y-107648200D02*
X164354500Y-107648200D01*
G75*
G02*
X164117000Y-107410700I0J237500D01*
G01*
X164117000Y-106835700D01*
G75*
G02*
X164354500Y-106598200I237500J0D01*
G01*
X164829500Y-106598200D01*
G75*
G02*
X165067000Y-106835700I0J-237500D01*
G01*
X165067000Y-107410700D01*
G75*
G02*
X164829500Y-107648200I-237500J0D01*
G01*
G37*
G36*
G01*
X143872500Y-93120200D02*
X143872500Y-93595200D01*
G75*
G02*
X143635000Y-93832700I-237500J0D01*
G01*
X143060000Y-93832700D01*
G75*
G02*
X142822500Y-93595200I0J237500D01*
G01*
X142822500Y-93120200D01*
G75*
G02*
X143060000Y-92882700I237500J0D01*
G01*
X143635000Y-92882700D01*
G75*
G02*
X143872500Y-93120200I0J-237500D01*
G01*
G37*
G36*
G01*
X145622500Y-93120200D02*
X145622500Y-93595200D01*
G75*
G02*
X145385000Y-93832700I-237500J0D01*
G01*
X144810000Y-93832700D01*
G75*
G02*
X144572500Y-93595200I0J237500D01*
G01*
X144572500Y-93120200D01*
G75*
G02*
X144810000Y-92882700I237500J0D01*
G01*
X145385000Y-92882700D01*
G75*
G02*
X145622500Y-93120200I0J-237500D01*
G01*
G37*
G36*
G01*
X143872500Y-94745800D02*
X143872500Y-95220800D01*
G75*
G02*
X143635000Y-95458300I-237500J0D01*
G01*
X143060000Y-95458300D01*
G75*
G02*
X142822500Y-95220800I0J237500D01*
G01*
X142822500Y-94745800D01*
G75*
G02*
X143060000Y-94508300I237500J0D01*
G01*
X143635000Y-94508300D01*
G75*
G02*
X143872500Y-94745800I0J-237500D01*
G01*
G37*
G36*
G01*
X145622500Y-94745800D02*
X145622500Y-95220800D01*
G75*
G02*
X145385000Y-95458300I-237500J0D01*
G01*
X144810000Y-95458300D01*
G75*
G02*
X144572500Y-95220800I0J237500D01*
G01*
X144572500Y-94745800D01*
G75*
G02*
X144810000Y-94508300I237500J0D01*
G01*
X145385000Y-94508300D01*
G75*
G02*
X145622500Y-94745800I0J-237500D01*
G01*
G37*
G36*
G01*
X161027100Y-82406000D02*
X161502100Y-82406000D01*
G75*
G02*
X161739600Y-82643500I0J-237500D01*
G01*
X161739600Y-83218500D01*
G75*
G02*
X161502100Y-83456000I-237500J0D01*
G01*
X161027100Y-83456000D01*
G75*
G02*
X160789600Y-83218500I0J237500D01*
G01*
X160789600Y-82643500D01*
G75*
G02*
X161027100Y-82406000I237500J0D01*
G01*
G37*
G36*
G01*
X161027100Y-80656000D02*
X161502100Y-80656000D01*
G75*
G02*
X161739600Y-80893500I0J-237500D01*
G01*
X161739600Y-81468500D01*
G75*
G02*
X161502100Y-81706000I-237500J0D01*
G01*
X161027100Y-81706000D01*
G75*
G02*
X160789600Y-81468500I0J237500D01*
G01*
X160789600Y-80893500D01*
G75*
G02*
X161027100Y-80656000I237500J0D01*
G01*
G37*
D16*
X159613600Y-114300000D03*
X160563600Y-116300000D03*
X158663600Y-116300000D03*
D11*
X171773600Y-102423000D03*
X169773600Y-103373000D03*
X169773600Y-101473000D03*
X169773600Y-106095800D03*
X171773600Y-105145800D03*
X171773600Y-107045800D03*
X168217600Y-106095800D03*
X166217600Y-107045800D03*
X166217600Y-105145800D03*
D29*
X148463000Y-116408200D03*
X148463000Y-110958200D03*
D30*
X171450000Y-96291400D03*
G36*
G01*
X170700000Y-92941400D02*
X172200000Y-92941400D01*
G75*
G02*
X172450000Y-93191400I0J-250000D01*
G01*
X172450000Y-94391400D01*
G75*
G02*
X172200000Y-94641400I-250000J0D01*
G01*
X170700000Y-94641400D01*
G75*
G02*
X170450000Y-94391400I0J250000D01*
G01*
X170450000Y-93191400D01*
G75*
G02*
X170700000Y-92941400I250000J0D01*
G01*
G37*
D31*
X148564600Y-119354600D03*
X151864600Y-119354600D03*
D32*
X176987200Y-103862600D03*
X176987200Y-107162600D03*
G36*
G01*
X166488100Y-91458500D02*
X166963100Y-91458500D01*
G75*
G02*
X167200600Y-91696000I0J-237500D01*
G01*
X167200600Y-92271000D01*
G75*
G02*
X166963100Y-92508500I-237500J0D01*
G01*
X166488100Y-92508500D01*
G75*
G02*
X166250600Y-92271000I0J237500D01*
G01*
X166250600Y-91696000D01*
G75*
G02*
X166488100Y-91458500I237500J0D01*
G01*
G37*
G36*
G01*
X166488100Y-89708500D02*
X166963100Y-89708500D01*
G75*
G02*
X167200600Y-89946000I0J-237500D01*
G01*
X167200600Y-90521000D01*
G75*
G02*
X166963100Y-90758500I-237500J0D01*
G01*
X166488100Y-90758500D01*
G75*
G02*
X166250600Y-90521000I0J237500D01*
G01*
X166250600Y-89946000D01*
G75*
G02*
X166488100Y-89708500I237500J0D01*
G01*
G37*
G36*
G01*
X160203600Y-113013500D02*
X160203600Y-112538500D01*
G75*
G02*
X160441100Y-112301000I237500J0D01*
G01*
X161016100Y-112301000D01*
G75*
G02*
X161253600Y-112538500I0J-237500D01*
G01*
X161253600Y-113013500D01*
G75*
G02*
X161016100Y-113251000I-237500J0D01*
G01*
X160441100Y-113251000D01*
G75*
G02*
X160203600Y-113013500I0J237500D01*
G01*
G37*
G36*
G01*
X158453600Y-113013500D02*
X158453600Y-112538500D01*
G75*
G02*
X158691100Y-112301000I237500J0D01*
G01*
X159266100Y-112301000D01*
G75*
G02*
X159503600Y-112538500I0J-237500D01*
G01*
X159503600Y-113013500D01*
G75*
G02*
X159266100Y-113251000I-237500J0D01*
G01*
X158691100Y-113251000D01*
G75*
G02*
X158453600Y-113013500I0J237500D01*
G01*
G37*
G36*
G01*
X170171100Y-110572000D02*
X170646100Y-110572000D01*
G75*
G02*
X170883600Y-110809500I0J-237500D01*
G01*
X170883600Y-111384500D01*
G75*
G02*
X170646100Y-111622000I-237500J0D01*
G01*
X170171100Y-111622000D01*
G75*
G02*
X169933600Y-111384500I0J237500D01*
G01*
X169933600Y-110809500D01*
G75*
G02*
X170171100Y-110572000I237500J0D01*
G01*
G37*
G36*
G01*
X170171100Y-108822000D02*
X170646100Y-108822000D01*
G75*
G02*
X170883600Y-109059500I0J-237500D01*
G01*
X170883600Y-109634500D01*
G75*
G02*
X170646100Y-109872000I-237500J0D01*
G01*
X170171100Y-109872000D01*
G75*
G02*
X169933600Y-109634500I0J237500D01*
G01*
X169933600Y-109059500D01*
G75*
G02*
X170171100Y-108822000I237500J0D01*
G01*
G37*
G36*
G01*
X162645100Y-113428000D02*
X162170100Y-113428000D01*
G75*
G02*
X161932600Y-113190500I0J237500D01*
G01*
X161932600Y-112615500D01*
G75*
G02*
X162170100Y-112378000I237500J0D01*
G01*
X162645100Y-112378000D01*
G75*
G02*
X162882600Y-112615500I0J-237500D01*
G01*
X162882600Y-113190500D01*
G75*
G02*
X162645100Y-113428000I-237500J0D01*
G01*
G37*
G36*
G01*
X162645100Y-115178000D02*
X162170100Y-115178000D01*
G75*
G02*
X161932600Y-114940500I0J237500D01*
G01*
X161932600Y-114365500D01*
G75*
G02*
X162170100Y-114128000I237500J0D01*
G01*
X162645100Y-114128000D01*
G75*
G02*
X162882600Y-114365500I0J-237500D01*
G01*
X162882600Y-114940500D01*
G75*
G02*
X162645100Y-115178000I-237500J0D01*
G01*
G37*
G36*
G01*
X170646100Y-113428000D02*
X170171100Y-113428000D01*
G75*
G02*
X169933600Y-113190500I0J237500D01*
G01*
X169933600Y-112615500D01*
G75*
G02*
X170171100Y-112378000I237500J0D01*
G01*
X170646100Y-112378000D01*
G75*
G02*
X170883600Y-112615500I0J-237500D01*
G01*
X170883600Y-113190500D01*
G75*
G02*
X170646100Y-113428000I-237500J0D01*
G01*
G37*
G36*
G01*
X170646100Y-115178000D02*
X170171100Y-115178000D01*
G75*
G02*
X169933600Y-114940500I0J237500D01*
G01*
X169933600Y-114365500D01*
G75*
G02*
X170171100Y-114128000I237500J0D01*
G01*
X170646100Y-114128000D01*
G75*
G02*
X170883600Y-114365500I0J-237500D01*
G01*
X170883600Y-114940500D01*
G75*
G02*
X170646100Y-115178000I-237500J0D01*
G01*
G37*
G36*
G01*
X150359100Y-99523000D02*
X150834100Y-99523000D01*
G75*
G02*
X151071600Y-99760500I0J-237500D01*
G01*
X151071600Y-100335500D01*
G75*
G02*
X150834100Y-100573000I-237500J0D01*
G01*
X150359100Y-100573000D01*
G75*
G02*
X150121600Y-100335500I0J237500D01*
G01*
X150121600Y-99760500D01*
G75*
G02*
X150359100Y-99523000I237500J0D01*
G01*
G37*
G36*
G01*
X150359100Y-97773000D02*
X150834100Y-97773000D01*
G75*
G02*
X151071600Y-98010500I0J-237500D01*
G01*
X151071600Y-98585500D01*
G75*
G02*
X150834100Y-98823000I-237500J0D01*
G01*
X150359100Y-98823000D01*
G75*
G02*
X150121600Y-98585500I0J237500D01*
G01*
X150121600Y-98010500D01*
G75*
G02*
X150359100Y-97773000I237500J0D01*
G01*
G37*
G36*
G01*
X144572500Y-90394800D02*
X144572500Y-89919800D01*
G75*
G02*
X144810000Y-89682300I237500J0D01*
G01*
X145385000Y-89682300D01*
G75*
G02*
X145622500Y-89919800I0J-237500D01*
G01*
X145622500Y-90394800D01*
G75*
G02*
X145385000Y-90632300I-237500J0D01*
G01*
X144810000Y-90632300D01*
G75*
G02*
X144572500Y-90394800I0J237500D01*
G01*
G37*
G36*
G01*
X142822500Y-90394800D02*
X142822500Y-89919800D01*
G75*
G02*
X143060000Y-89682300I237500J0D01*
G01*
X143635000Y-89682300D01*
G75*
G02*
X143872500Y-89919800I0J-237500D01*
G01*
X143872500Y-90394800D01*
G75*
G02*
X143635000Y-90632300I-237500J0D01*
G01*
X143060000Y-90632300D01*
G75*
G02*
X142822500Y-90394800I0J237500D01*
G01*
G37*
G36*
G01*
X167344100Y-81678000D02*
X166869100Y-81678000D01*
G75*
G02*
X166631600Y-81440500I0J237500D01*
G01*
X166631600Y-80865500D01*
G75*
G02*
X166869100Y-80628000I237500J0D01*
G01*
X167344100Y-80628000D01*
G75*
G02*
X167581600Y-80865500I0J-237500D01*
G01*
X167581600Y-81440500D01*
G75*
G02*
X167344100Y-81678000I-237500J0D01*
G01*
G37*
G36*
G01*
X167344100Y-83428000D02*
X166869100Y-83428000D01*
G75*
G02*
X166631600Y-83190500I0J237500D01*
G01*
X166631600Y-82615500D01*
G75*
G02*
X166869100Y-82378000I237500J0D01*
G01*
X167344100Y-82378000D01*
G75*
G02*
X167581600Y-82615500I0J-237500D01*
G01*
X167581600Y-83190500D01*
G75*
G02*
X167344100Y-83428000I-237500J0D01*
G01*
G37*
M02*
