G04 #@! TF.GenerationSoftware,KiCad,Pcbnew,(5.1.8)-1*
G04 #@! TF.CreationDate,2021-08-02T21:41:25+02:00*
G04 #@! TF.ProjectId,SuperPower-uC-KiCad,53757065-7250-46f7-9765-722d75432d4b,rev?*
G04 #@! TF.SameCoordinates,Original*
G04 #@! TF.FileFunction,Soldermask,Bot*
G04 #@! TF.FilePolarity,Negative*
%FSLAX46Y46*%
G04 Gerber Fmt 4.6, Leading zero omitted, Abs format (unit mm)*
G04 Created by KiCad (PCBNEW (5.1.8)-1) date 2021-08-02 21:41:25*
%MOMM*%
%LPD*%
G01*
G04 APERTURE LIST*
%ADD10R,1.000000X1.500000*%
%ADD11O,1.700000X1.700000*%
%ADD12R,1.700000X1.700000*%
%ADD13C,2.700000*%
%ADD14O,1.900000X1.200000*%
%ADD15C,1.450000*%
%ADD16O,1.750000X1.200000*%
%ADD17R,1.500000X1.500000*%
%ADD18O,2.000000X1.700000*%
G04 APERTURE END LIST*
D10*
X173822600Y-86233000D03*
X175122600Y-86233000D03*
X157708600Y-116078000D03*
X156408600Y-116078000D03*
X164088600Y-114554000D03*
X162788600Y-114554000D03*
X161488600Y-114554000D03*
D11*
X171043600Y-122047000D03*
X168503600Y-122047000D03*
X165963600Y-122047000D03*
X163423600Y-122047000D03*
X160883600Y-122047000D03*
X158343600Y-122047000D03*
X155803600Y-122047000D03*
X153263600Y-122047000D03*
X150723600Y-122047000D03*
X148183600Y-122047000D03*
X145643600Y-122047000D03*
X143103600Y-122047000D03*
D12*
X140563600Y-122047000D03*
D11*
X135483600Y-104267000D03*
D12*
X135483600Y-101727000D03*
D13*
X175768000Y-80848200D03*
X135763000Y-80848200D03*
X175768000Y-120853200D03*
X135763000Y-120853200D03*
D14*
X134670800Y-114202600D03*
X134670800Y-107202600D03*
D15*
X137370800Y-113202600D03*
X137370800Y-108202600D03*
D11*
X135483600Y-91567000D03*
D12*
X135483600Y-89027000D03*
D16*
X171907200Y-86258400D03*
G36*
G01*
X172532201Y-88858400D02*
X171282199Y-88858400D01*
G75*
G02*
X171032200Y-88608401I0J249999D01*
G01*
X171032200Y-87908399D01*
G75*
G02*
X171282199Y-87658400I249999J0D01*
G01*
X172532201Y-87658400D01*
G75*
G02*
X172782200Y-87908399I0J-249999D01*
G01*
X172782200Y-88608401D01*
G75*
G02*
X172532201Y-88858400I-249999J0D01*
G01*
G37*
D17*
X162864800Y-96291400D03*
D10*
X170438600Y-90424000D03*
X169138600Y-90424000D03*
X167838600Y-90424000D03*
D18*
X171450000Y-96291400D03*
G36*
G01*
X170700000Y-92941400D02*
X172200000Y-92941400D01*
G75*
G02*
X172450000Y-93191400I0J-250000D01*
G01*
X172450000Y-94391400D01*
G75*
G02*
X172200000Y-94641400I-250000J0D01*
G01*
X170700000Y-94641400D01*
G75*
G02*
X170450000Y-94391400I0J250000D01*
G01*
X170450000Y-93191400D01*
G75*
G02*
X170700000Y-92941400I250000J0D01*
G01*
G37*
M02*
