M48
; DRILL file {KiCad (5.1.8)-1} date 09/05/21 10:08:27
; FORMAT={-:-/ absolute / metric / decimal}
; #@! TF.CreationDate,2021-09-05T10:08:27+02:00
; #@! TF.GenerationSoftware,Kicad,Pcbnew,(5.1.8)-1
; #@! TF.FileFunction,Plated,1,4,PTH
FMAT,2
METRIC
T1C0.300
T2C0.305
T3C0.400
T4C0.600
T5C0.750
T6C0.850
T7C1.000
%
G90
G05
T1
X137.262Y-94.615
X138.278Y-114.3
X140.056Y-105.346
X141.935Y-88.773
X142.342Y-90.17
X142.453Y-92.062
X142.596Y-98.425
X143.231Y-119.126
X143.327Y-106.335
X143.358Y-98.552
X143.866Y-98.552
X144.031Y-119.126
X144.882Y-113.665
X145.136Y-87.808
X145.644Y-113.665
X145.91Y-92.494
X146.342Y-104.775
X146.406Y-113.665
X147.168Y-113.665
X147.391Y-104.874
X147.405Y-97.012
X147.93Y-113.665
X148.194Y-106.411
X148.378Y-104.052
X148.399Y-90.208
X148.765Y-96.974
X148.844Y-86.69
X150.724Y-94.361
X151.486Y-87.122
X152.756Y-105.029
X153.919Y-117.495
X154.252Y-105.791
X155.296Y-95.504
X155.677Y-118.872
X155.854Y-108.229
X156.058Y-113.411
X156.312Y-87.122
X156.312Y-94.361
X156.439Y-102.87
X156.464Y-87.96
X157.328Y-105.664
X157.709Y-116.078
X158.039Y-88.722
X158.067Y-105.357
X159.233Y-105.664
X159.614Y-116.332
X159.868Y-99.314
X160.63Y-105.664
X160.757Y-109.41
X160.757Y-111.125
X161.442Y-111.125
X161.773Y-105.537
X162.252Y-103.251
X162.916Y-115.748
X163.17Y-102.108
X164.084Y-96.291
X164.313Y-98.425
X165.837Y-103.251
X166.218Y-101.981
X166.268Y-92.989
X167.488Y-98.425
X167.554Y-105.852
X168.323Y-89.659
X168.605Y-113.106
X169.393Y-111.125
X169.926Y-88.265
X171.298Y-108.712
X171.602Y-91.11
X171.933Y-84.074
X173.634Y-112.141
X175.489Y-103.505
X177.14Y-105.41
X177.808Y-100.139
T2
X138.633Y-112.522
X141.163Y-109.843
X151.765Y-109.398
T3
X152.375Y-117.983
X153.264Y-98.298
X159.233Y-118.618
X160.122Y-90.932
X160.172Y-85.217
X160.193Y-86.06
X161.392Y-118.491
X161.519Y-120.65
X162.052Y-116.002
X163.222Y-113.105
X166.726Y-118.872
X169.52Y-94.996
X169.52Y-97.536
X171.223Y-113.105
X172.242Y-117.972
X172.314Y-119.634
T5
X171.907Y-86.258
X171.907Y-88.258
T6
X137.371Y-108.203
X137.371Y-113.203
T7
X171.45Y-93.791
X171.45Y-96.291
X140.564Y-122.047
X143.104Y-122.047
X145.644Y-122.047
X148.184Y-122.047
X150.724Y-122.047
X153.264Y-122.047
X155.804Y-122.047
X158.344Y-122.047
X160.884Y-122.047
X163.424Y-122.047
X165.964Y-122.047
X168.504Y-122.047
X171.044Y-122.047
X135.484Y-101.727
X135.484Y-104.267
X135.484Y-89.027
X135.484Y-91.567
T4
G00X134.321Y-107.203
M15
G01X135.021Y-107.203
M16
G05
G00X135.021Y-114.203
M15
G01X134.321Y-114.203
M16
G05
T0
M30
