G04 #@! TF.GenerationSoftware,KiCad,Pcbnew,(5.1.8)-1*
G04 #@! TF.CreationDate,2021-09-05T10:08:22+02:00*
G04 #@! TF.ProjectId,SuperPower-uC-KiCad,53757065-7250-46f7-9765-722d75432d4b,rev?*
G04 #@! TF.SameCoordinates,Original*
G04 #@! TF.FileFunction,Soldermask,Top*
G04 #@! TF.FilePolarity,Negative*
%FSLAX46Y46*%
G04 Gerber Fmt 4.6, Leading zero omitted, Abs format (unit mm)*
G04 Created by KiCad (PCBNEW (5.1.8)-1) date 2021-09-05 10:08:22*
%MOMM*%
%LPD*%
G01*
G04 APERTURE LIST*
%ADD10R,0.800000X0.900000*%
%ADD11R,1.300000X1.700000*%
%ADD12C,0.250000*%
%ADD13R,0.650000X1.060000*%
%ADD14R,0.900000X0.800000*%
%ADD15R,1.060000X0.650000*%
%ADD16C,0.100000*%
%ADD17R,1.300000X0.900000*%
%ADD18R,1.000000X1.500000*%
%ADD19O,1.700000X1.700000*%
%ADD20R,1.700000X1.700000*%
%ADD21C,2.700000*%
%ADD22R,0.700000X0.510000*%
%ADD23R,1.900000X1.200000*%
%ADD24O,1.900000X1.200000*%
%ADD25R,1.900000X1.500000*%
%ADD26C,1.450000*%
%ADD27R,1.350000X0.400000*%
%ADD28O,1.750000X1.200000*%
%ADD29R,1.800000X1.000000*%
%ADD30R,1.800000X2.400000*%
%ADD31R,3.500000X2.950000*%
%ADD32O,2.000000X1.700000*%
%ADD33R,0.900000X1.200000*%
G04 APERTURE END LIST*
G36*
G01*
X157427600Y-101946500D02*
X157227600Y-101946500D01*
G75*
G02*
X157127600Y-101846500I0J100000D01*
G01*
X157127600Y-100571500D01*
G75*
G02*
X157227600Y-100471500I100000J0D01*
G01*
X157427600Y-100471500D01*
G75*
G02*
X157527600Y-100571500I0J-100000D01*
G01*
X157527600Y-101846500D01*
G75*
G02*
X157427600Y-101946500I-100000J0D01*
G01*
G37*
G36*
G01*
X158077600Y-101946500D02*
X157877600Y-101946500D01*
G75*
G02*
X157777600Y-101846500I0J100000D01*
G01*
X157777600Y-100571500D01*
G75*
G02*
X157877600Y-100471500I100000J0D01*
G01*
X158077600Y-100471500D01*
G75*
G02*
X158177600Y-100571500I0J-100000D01*
G01*
X158177600Y-101846500D01*
G75*
G02*
X158077600Y-101946500I-100000J0D01*
G01*
G37*
G36*
G01*
X158727600Y-101946500D02*
X158527600Y-101946500D01*
G75*
G02*
X158427600Y-101846500I0J100000D01*
G01*
X158427600Y-100571500D01*
G75*
G02*
X158527600Y-100471500I100000J0D01*
G01*
X158727600Y-100471500D01*
G75*
G02*
X158827600Y-100571500I0J-100000D01*
G01*
X158827600Y-101846500D01*
G75*
G02*
X158727600Y-101946500I-100000J0D01*
G01*
G37*
G36*
G01*
X159377600Y-101946500D02*
X159177600Y-101946500D01*
G75*
G02*
X159077600Y-101846500I0J100000D01*
G01*
X159077600Y-100571500D01*
G75*
G02*
X159177600Y-100471500I100000J0D01*
G01*
X159377600Y-100471500D01*
G75*
G02*
X159477600Y-100571500I0J-100000D01*
G01*
X159477600Y-101846500D01*
G75*
G02*
X159377600Y-101946500I-100000J0D01*
G01*
G37*
G36*
G01*
X160027600Y-101946500D02*
X159827600Y-101946500D01*
G75*
G02*
X159727600Y-101846500I0J100000D01*
G01*
X159727600Y-100571500D01*
G75*
G02*
X159827600Y-100471500I100000J0D01*
G01*
X160027600Y-100471500D01*
G75*
G02*
X160127600Y-100571500I0J-100000D01*
G01*
X160127600Y-101846500D01*
G75*
G02*
X160027600Y-101946500I-100000J0D01*
G01*
G37*
G36*
G01*
X160677600Y-101946500D02*
X160477600Y-101946500D01*
G75*
G02*
X160377600Y-101846500I0J100000D01*
G01*
X160377600Y-100571500D01*
G75*
G02*
X160477600Y-100471500I100000J0D01*
G01*
X160677600Y-100471500D01*
G75*
G02*
X160777600Y-100571500I0J-100000D01*
G01*
X160777600Y-101846500D01*
G75*
G02*
X160677600Y-101946500I-100000J0D01*
G01*
G37*
G36*
G01*
X161327600Y-101946500D02*
X161127600Y-101946500D01*
G75*
G02*
X161027600Y-101846500I0J100000D01*
G01*
X161027600Y-100571500D01*
G75*
G02*
X161127600Y-100471500I100000J0D01*
G01*
X161327600Y-100471500D01*
G75*
G02*
X161427600Y-100571500I0J-100000D01*
G01*
X161427600Y-101846500D01*
G75*
G02*
X161327600Y-101946500I-100000J0D01*
G01*
G37*
G36*
G01*
X161977600Y-101946500D02*
X161777600Y-101946500D01*
G75*
G02*
X161677600Y-101846500I0J100000D01*
G01*
X161677600Y-100571500D01*
G75*
G02*
X161777600Y-100471500I100000J0D01*
G01*
X161977600Y-100471500D01*
G75*
G02*
X162077600Y-100571500I0J-100000D01*
G01*
X162077600Y-101846500D01*
G75*
G02*
X161977600Y-101946500I-100000J0D01*
G01*
G37*
G36*
G01*
X161977600Y-107671500D02*
X161777600Y-107671500D01*
G75*
G02*
X161677600Y-107571500I0J100000D01*
G01*
X161677600Y-106296500D01*
G75*
G02*
X161777600Y-106196500I100000J0D01*
G01*
X161977600Y-106196500D01*
G75*
G02*
X162077600Y-106296500I0J-100000D01*
G01*
X162077600Y-107571500D01*
G75*
G02*
X161977600Y-107671500I-100000J0D01*
G01*
G37*
G36*
G01*
X161327600Y-107671500D02*
X161127600Y-107671500D01*
G75*
G02*
X161027600Y-107571500I0J100000D01*
G01*
X161027600Y-106296500D01*
G75*
G02*
X161127600Y-106196500I100000J0D01*
G01*
X161327600Y-106196500D01*
G75*
G02*
X161427600Y-106296500I0J-100000D01*
G01*
X161427600Y-107571500D01*
G75*
G02*
X161327600Y-107671500I-100000J0D01*
G01*
G37*
G36*
G01*
X160677600Y-107671500D02*
X160477600Y-107671500D01*
G75*
G02*
X160377600Y-107571500I0J100000D01*
G01*
X160377600Y-106296500D01*
G75*
G02*
X160477600Y-106196500I100000J0D01*
G01*
X160677600Y-106196500D01*
G75*
G02*
X160777600Y-106296500I0J-100000D01*
G01*
X160777600Y-107571500D01*
G75*
G02*
X160677600Y-107671500I-100000J0D01*
G01*
G37*
G36*
G01*
X160027600Y-107671500D02*
X159827600Y-107671500D01*
G75*
G02*
X159727600Y-107571500I0J100000D01*
G01*
X159727600Y-106296500D01*
G75*
G02*
X159827600Y-106196500I100000J0D01*
G01*
X160027600Y-106196500D01*
G75*
G02*
X160127600Y-106296500I0J-100000D01*
G01*
X160127600Y-107571500D01*
G75*
G02*
X160027600Y-107671500I-100000J0D01*
G01*
G37*
G36*
G01*
X159377600Y-107671500D02*
X159177600Y-107671500D01*
G75*
G02*
X159077600Y-107571500I0J100000D01*
G01*
X159077600Y-106296500D01*
G75*
G02*
X159177600Y-106196500I100000J0D01*
G01*
X159377600Y-106196500D01*
G75*
G02*
X159477600Y-106296500I0J-100000D01*
G01*
X159477600Y-107571500D01*
G75*
G02*
X159377600Y-107671500I-100000J0D01*
G01*
G37*
G36*
G01*
X158727600Y-107671500D02*
X158527600Y-107671500D01*
G75*
G02*
X158427600Y-107571500I0J100000D01*
G01*
X158427600Y-106296500D01*
G75*
G02*
X158527600Y-106196500I100000J0D01*
G01*
X158727600Y-106196500D01*
G75*
G02*
X158827600Y-106296500I0J-100000D01*
G01*
X158827600Y-107571500D01*
G75*
G02*
X158727600Y-107671500I-100000J0D01*
G01*
G37*
G36*
G01*
X158077600Y-107671500D02*
X157877600Y-107671500D01*
G75*
G02*
X157777600Y-107571500I0J100000D01*
G01*
X157777600Y-106296500D01*
G75*
G02*
X157877600Y-106196500I100000J0D01*
G01*
X158077600Y-106196500D01*
G75*
G02*
X158177600Y-106296500I0J-100000D01*
G01*
X158177600Y-107571500D01*
G75*
G02*
X158077600Y-107671500I-100000J0D01*
G01*
G37*
G36*
G01*
X157427600Y-107671500D02*
X157227600Y-107671500D01*
G75*
G02*
X157127600Y-107571500I0J100000D01*
G01*
X157127600Y-106296500D01*
G75*
G02*
X157227600Y-106196500I100000J0D01*
G01*
X157427600Y-106196500D01*
G75*
G02*
X157527600Y-106296500I0J-100000D01*
G01*
X157527600Y-107571500D01*
G75*
G02*
X157427600Y-107671500I-100000J0D01*
G01*
G37*
G36*
G01*
X147590500Y-86188000D02*
X148065500Y-86188000D01*
G75*
G02*
X148303000Y-86425500I0J-237500D01*
G01*
X148303000Y-87000500D01*
G75*
G02*
X148065500Y-87238000I-237500J0D01*
G01*
X147590500Y-87238000D01*
G75*
G02*
X147353000Y-87000500I0J237500D01*
G01*
X147353000Y-86425500D01*
G75*
G02*
X147590500Y-86188000I237500J0D01*
G01*
G37*
G36*
G01*
X147590500Y-84438000D02*
X148065500Y-84438000D01*
G75*
G02*
X148303000Y-84675500I0J-237500D01*
G01*
X148303000Y-85250500D01*
G75*
G02*
X148065500Y-85488000I-237500J0D01*
G01*
X147590500Y-85488000D01*
G75*
G02*
X147353000Y-85250500I0J237500D01*
G01*
X147353000Y-84675500D01*
G75*
G02*
X147590500Y-84438000I237500J0D01*
G01*
G37*
D10*
X145150800Y-86861400D03*
X144200800Y-84861400D03*
X146100800Y-84861400D03*
D11*
X147726400Y-82880200D03*
X144226400Y-82880200D03*
G36*
G01*
X159503100Y-110637500D02*
X159978100Y-110637500D01*
G75*
G02*
X160215600Y-110875000I0J-237500D01*
G01*
X160215600Y-111375000D01*
G75*
G02*
X159978100Y-111612500I-237500J0D01*
G01*
X159503100Y-111612500D01*
G75*
G02*
X159265600Y-111375000I0J237500D01*
G01*
X159265600Y-110875000D01*
G75*
G02*
X159503100Y-110637500I237500J0D01*
G01*
G37*
G36*
G01*
X159503100Y-108812500D02*
X159978100Y-108812500D01*
G75*
G02*
X160215600Y-109050000I0J-237500D01*
G01*
X160215600Y-109550000D01*
G75*
G02*
X159978100Y-109787500I-237500J0D01*
G01*
X159503100Y-109787500D01*
G75*
G02*
X159265600Y-109550000I0J237500D01*
G01*
X159265600Y-109050000D01*
G75*
G02*
X159503100Y-108812500I237500J0D01*
G01*
G37*
G36*
G01*
X141469100Y-97886000D02*
X141944100Y-97886000D01*
G75*
G02*
X142181600Y-98123500I0J-237500D01*
G01*
X142181600Y-98698500D01*
G75*
G02*
X141944100Y-98936000I-237500J0D01*
G01*
X141469100Y-98936000D01*
G75*
G02*
X141231600Y-98698500I0J237500D01*
G01*
X141231600Y-98123500D01*
G75*
G02*
X141469100Y-97886000I237500J0D01*
G01*
G37*
G36*
G01*
X141469100Y-96136000D02*
X141944100Y-96136000D01*
G75*
G02*
X142181600Y-96373500I0J-237500D01*
G01*
X142181600Y-96948500D01*
G75*
G02*
X141944100Y-97186000I-237500J0D01*
G01*
X141469100Y-97186000D01*
G75*
G02*
X141231600Y-96948500I0J237500D01*
G01*
X141231600Y-96373500D01*
G75*
G02*
X141469100Y-96136000I237500J0D01*
G01*
G37*
D12*
X144373600Y-96774000D03*
X143873600Y-96774000D03*
X143373600Y-96774000D03*
X144373600Y-97274000D03*
X143873600Y-97274000D03*
X143373600Y-97274000D03*
X144373600Y-97774000D03*
X143873600Y-97774000D03*
X143373600Y-97774000D03*
G36*
G01*
X153755100Y-102457800D02*
X153280100Y-102457800D01*
G75*
G02*
X153042600Y-102220300I0J237500D01*
G01*
X153042600Y-101645300D01*
G75*
G02*
X153280100Y-101407800I237500J0D01*
G01*
X153755100Y-101407800D01*
G75*
G02*
X153992600Y-101645300I0J-237500D01*
G01*
X153992600Y-102220300D01*
G75*
G02*
X153755100Y-102457800I-237500J0D01*
G01*
G37*
G36*
G01*
X153755100Y-104207800D02*
X153280100Y-104207800D01*
G75*
G02*
X153042600Y-103970300I0J237500D01*
G01*
X153042600Y-103395300D01*
G75*
G02*
X153280100Y-103157800I237500J0D01*
G01*
X153755100Y-103157800D01*
G75*
G02*
X153992600Y-103395300I0J-237500D01*
G01*
X153992600Y-103970300D01*
G75*
G02*
X153755100Y-104207800I-237500J0D01*
G01*
G37*
G36*
G01*
X148708100Y-99512000D02*
X149183100Y-99512000D01*
G75*
G02*
X149420600Y-99749500I0J-237500D01*
G01*
X149420600Y-100349500D01*
G75*
G02*
X149183100Y-100587000I-237500J0D01*
G01*
X148708100Y-100587000D01*
G75*
G02*
X148470600Y-100349500I0J237500D01*
G01*
X148470600Y-99749500D01*
G75*
G02*
X148708100Y-99512000I237500J0D01*
G01*
G37*
G36*
G01*
X148708100Y-97787000D02*
X149183100Y-97787000D01*
G75*
G02*
X149420600Y-98024500I0J-237500D01*
G01*
X149420600Y-98624500D01*
G75*
G02*
X149183100Y-98862000I-237500J0D01*
G01*
X148708100Y-98862000D01*
G75*
G02*
X148470600Y-98624500I0J237500D01*
G01*
X148470600Y-98024500D01*
G75*
G02*
X148708100Y-97787000I237500J0D01*
G01*
G37*
D13*
X153959600Y-114132000D03*
X153009600Y-114132000D03*
X154909600Y-114132000D03*
X154909600Y-116332000D03*
X153959600Y-116332000D03*
X153009600Y-116332000D03*
D14*
X156065600Y-99187000D03*
X154065600Y-100137000D03*
X154065600Y-98237000D03*
D15*
X165302100Y-81976000D03*
X165302100Y-81026000D03*
X165302100Y-82926000D03*
X163102100Y-82926000D03*
X163102100Y-81976000D03*
X163102100Y-81026000D03*
G36*
G01*
X168216600Y-118483000D02*
X167266600Y-118483000D01*
G75*
G02*
X167016600Y-118233000I0J250000D01*
G01*
X167016600Y-117733000D01*
G75*
G02*
X167266600Y-117483000I250000J0D01*
G01*
X168216600Y-117483000D01*
G75*
G02*
X168466600Y-117733000I0J-250000D01*
G01*
X168466600Y-118233000D01*
G75*
G02*
X168216600Y-118483000I-250000J0D01*
G01*
G37*
G36*
G01*
X168216600Y-120383000D02*
X167266600Y-120383000D01*
G75*
G02*
X167016600Y-120133000I0J250000D01*
G01*
X167016600Y-119633000D01*
G75*
G02*
X167266600Y-119383000I250000J0D01*
G01*
X168216600Y-119383000D01*
G75*
G02*
X168466600Y-119633000I0J-250000D01*
G01*
X168466600Y-120133000D01*
G75*
G02*
X168216600Y-120383000I-250000J0D01*
G01*
G37*
D16*
G36*
X168135600Y-115471300D02*
G01*
X165010600Y-115471300D01*
X165010600Y-115054800D01*
X163535600Y-115054800D01*
X163535600Y-114154800D01*
X165010600Y-114154800D01*
X165010600Y-113738300D01*
X168135600Y-113738300D01*
X168135600Y-115471300D01*
G37*
D17*
X164185600Y-116104800D03*
X164185600Y-113104800D03*
D16*
G36*
X176136600Y-115471300D02*
G01*
X173011600Y-115471300D01*
X173011600Y-115054800D01*
X171536600Y-115054800D01*
X171536600Y-114154800D01*
X173011600Y-114154800D01*
X173011600Y-113738300D01*
X176136600Y-113738300D01*
X176136600Y-115471300D01*
G37*
D17*
X172186600Y-116104800D03*
X172186600Y-113104800D03*
D18*
X170789600Y-82423000D03*
X172089600Y-82423000D03*
D10*
X155295600Y-87789000D03*
X156245600Y-89789000D03*
X154345600Y-89789000D03*
D14*
X154438600Y-110109000D03*
X156438600Y-109159000D03*
X156438600Y-111059000D03*
X175710600Y-110170000D03*
X173710600Y-111120000D03*
X173710600Y-109220000D03*
X167709600Y-110170000D03*
X165709600Y-111120000D03*
X165709600Y-109220000D03*
G36*
G01*
X152061100Y-93582500D02*
X152061100Y-93107500D01*
G75*
G02*
X152298600Y-92870000I237500J0D01*
G01*
X152798600Y-92870000D01*
G75*
G02*
X153036100Y-93107500I0J-237500D01*
G01*
X153036100Y-93582500D01*
G75*
G02*
X152798600Y-93820000I-237500J0D01*
G01*
X152298600Y-93820000D01*
G75*
G02*
X152061100Y-93582500I0J237500D01*
G01*
G37*
G36*
G01*
X150236100Y-93582500D02*
X150236100Y-93107500D01*
G75*
G02*
X150473600Y-92870000I237500J0D01*
G01*
X150973600Y-92870000D01*
G75*
G02*
X151211100Y-93107500I0J-237500D01*
G01*
X151211100Y-93582500D01*
G75*
G02*
X150973600Y-93820000I-237500J0D01*
G01*
X150473600Y-93820000D01*
G75*
G02*
X150236100Y-93582500I0J237500D01*
G01*
G37*
G36*
G01*
X166615100Y-102429500D02*
X167090100Y-102429500D01*
G75*
G02*
X167327600Y-102667000I0J-237500D01*
G01*
X167327600Y-103167000D01*
G75*
G02*
X167090100Y-103404500I-237500J0D01*
G01*
X166615100Y-103404500D01*
G75*
G02*
X166377600Y-103167000I0J237500D01*
G01*
X166377600Y-102667000D01*
G75*
G02*
X166615100Y-102429500I237500J0D01*
G01*
G37*
G36*
G01*
X166615100Y-100604500D02*
X167090100Y-100604500D01*
G75*
G02*
X167327600Y-100842000I0J-237500D01*
G01*
X167327600Y-101342000D01*
G75*
G02*
X167090100Y-101579500I-237500J0D01*
G01*
X166615100Y-101579500D01*
G75*
G02*
X166377600Y-101342000I0J237500D01*
G01*
X166377600Y-100842000D01*
G75*
G02*
X166615100Y-100604500I237500J0D01*
G01*
G37*
G36*
G01*
X151291100Y-89551500D02*
X151291100Y-90026500D01*
G75*
G02*
X151053600Y-90264000I-237500J0D01*
G01*
X150553600Y-90264000D01*
G75*
G02*
X150316100Y-90026500I0J237500D01*
G01*
X150316100Y-89551500D01*
G75*
G02*
X150553600Y-89314000I237500J0D01*
G01*
X151053600Y-89314000D01*
G75*
G02*
X151291100Y-89551500I0J-237500D01*
G01*
G37*
G36*
G01*
X153116100Y-89551500D02*
X153116100Y-90026500D01*
G75*
G02*
X152878600Y-90264000I-237500J0D01*
G01*
X152378600Y-90264000D01*
G75*
G02*
X152141100Y-90026500I0J237500D01*
G01*
X152141100Y-89551500D01*
G75*
G02*
X152378600Y-89314000I237500J0D01*
G01*
X152878600Y-89314000D01*
G75*
G02*
X153116100Y-89551500I0J-237500D01*
G01*
G37*
G36*
G01*
X158327100Y-109811000D02*
X157852100Y-109811000D01*
G75*
G02*
X157614600Y-109573500I0J237500D01*
G01*
X157614600Y-109073500D01*
G75*
G02*
X157852100Y-108836000I237500J0D01*
G01*
X158327100Y-108836000D01*
G75*
G02*
X158564600Y-109073500I0J-237500D01*
G01*
X158564600Y-109573500D01*
G75*
G02*
X158327100Y-109811000I-237500J0D01*
G01*
G37*
G36*
G01*
X158327100Y-111636000D02*
X157852100Y-111636000D01*
G75*
G02*
X157614600Y-111398500I0J237500D01*
G01*
X157614600Y-110898500D01*
G75*
G02*
X157852100Y-110661000I237500J0D01*
G01*
X158327100Y-110661000D01*
G75*
G02*
X158564600Y-110898500I0J-237500D01*
G01*
X158564600Y-111398500D01*
G75*
G02*
X158327100Y-111636000I-237500J0D01*
G01*
G37*
G36*
G01*
X163821100Y-110725800D02*
X164296100Y-110725800D01*
G75*
G02*
X164533600Y-110963300I0J-237500D01*
G01*
X164533600Y-111463300D01*
G75*
G02*
X164296100Y-111700800I-237500J0D01*
G01*
X163821100Y-111700800D01*
G75*
G02*
X163583600Y-111463300I0J237500D01*
G01*
X163583600Y-110963300D01*
G75*
G02*
X163821100Y-110725800I237500J0D01*
G01*
G37*
G36*
G01*
X163821100Y-108900800D02*
X164296100Y-108900800D01*
G75*
G02*
X164533600Y-109138300I0J-237500D01*
G01*
X164533600Y-109638300D01*
G75*
G02*
X164296100Y-109875800I-237500J0D01*
G01*
X163821100Y-109875800D01*
G75*
G02*
X163583600Y-109638300I0J237500D01*
G01*
X163583600Y-109138300D01*
G75*
G02*
X163821100Y-108900800I237500J0D01*
G01*
G37*
G36*
G01*
X171822100Y-110684500D02*
X172297100Y-110684500D01*
G75*
G02*
X172534600Y-110922000I0J-237500D01*
G01*
X172534600Y-111422000D01*
G75*
G02*
X172297100Y-111659500I-237500J0D01*
G01*
X171822100Y-111659500D01*
G75*
G02*
X171584600Y-111422000I0J237500D01*
G01*
X171584600Y-110922000D01*
G75*
G02*
X171822100Y-110684500I237500J0D01*
G01*
G37*
G36*
G01*
X171822100Y-108859500D02*
X172297100Y-108859500D01*
G75*
G02*
X172534600Y-109097000I0J-237500D01*
G01*
X172534600Y-109597000D01*
G75*
G02*
X172297100Y-109834500I-237500J0D01*
G01*
X171822100Y-109834500D01*
G75*
G02*
X171584600Y-109597000I0J237500D01*
G01*
X171584600Y-109097000D01*
G75*
G02*
X171822100Y-108859500I237500J0D01*
G01*
G37*
G36*
G01*
X163012600Y-99076500D02*
X163012600Y-99551500D01*
G75*
G02*
X162775100Y-99789000I-237500J0D01*
G01*
X162275100Y-99789000D01*
G75*
G02*
X162037600Y-99551500I0J237500D01*
G01*
X162037600Y-99076500D01*
G75*
G02*
X162275100Y-98839000I237500J0D01*
G01*
X162775100Y-98839000D01*
G75*
G02*
X163012600Y-99076500I0J-237500D01*
G01*
G37*
G36*
G01*
X164837600Y-99076500D02*
X164837600Y-99551500D01*
G75*
G02*
X164600100Y-99789000I-237500J0D01*
G01*
X164100100Y-99789000D01*
G75*
G02*
X163862600Y-99551500I0J237500D01*
G01*
X163862600Y-99076500D01*
G75*
G02*
X164100100Y-98839000I237500J0D01*
G01*
X164600100Y-98839000D01*
G75*
G02*
X164837600Y-99076500I0J-237500D01*
G01*
G37*
G36*
G01*
X174198100Y-104283500D02*
X174198100Y-104758500D01*
G75*
G02*
X173960600Y-104996000I-237500J0D01*
G01*
X173460600Y-104996000D01*
G75*
G02*
X173223100Y-104758500I0J237500D01*
G01*
X173223100Y-104283500D01*
G75*
G02*
X173460600Y-104046000I237500J0D01*
G01*
X173960600Y-104046000D01*
G75*
G02*
X174198100Y-104283500I0J-237500D01*
G01*
G37*
G36*
G01*
X176023100Y-104283500D02*
X176023100Y-104758500D01*
G75*
G02*
X175785600Y-104996000I-237500J0D01*
G01*
X175285600Y-104996000D01*
G75*
G02*
X175048100Y-104758500I0J237500D01*
G01*
X175048100Y-104283500D01*
G75*
G02*
X175285600Y-104046000I237500J0D01*
G01*
X175785600Y-104046000D01*
G75*
G02*
X176023100Y-104283500I0J-237500D01*
G01*
G37*
D10*
X155295600Y-91345000D03*
X156245600Y-93345000D03*
X154345600Y-93345000D03*
G36*
G01*
X161769600Y-90457000D02*
X161769600Y-91407000D01*
G75*
G02*
X161519600Y-91657000I-250000J0D01*
G01*
X161019600Y-91657000D01*
G75*
G02*
X160769600Y-91407000I0J250000D01*
G01*
X160769600Y-90457000D01*
G75*
G02*
X161019600Y-90207000I250000J0D01*
G01*
X161519600Y-90207000D01*
G75*
G02*
X161769600Y-90457000I0J-250000D01*
G01*
G37*
G36*
G01*
X163669600Y-90457000D02*
X163669600Y-91407000D01*
G75*
G02*
X163419600Y-91657000I-250000J0D01*
G01*
X162919600Y-91657000D01*
G75*
G02*
X162669600Y-91407000I0J250000D01*
G01*
X162669600Y-90457000D01*
G75*
G02*
X162919600Y-90207000I250000J0D01*
G01*
X163419600Y-90207000D01*
G75*
G02*
X163669600Y-90457000I0J-250000D01*
G01*
G37*
D19*
X171043600Y-122047000D03*
X168503600Y-122047000D03*
X165963600Y-122047000D03*
X163423600Y-122047000D03*
X160883600Y-122047000D03*
X158343600Y-122047000D03*
X155803600Y-122047000D03*
X153263600Y-122047000D03*
X150723600Y-122047000D03*
X148183600Y-122047000D03*
X145643600Y-122047000D03*
X143103600Y-122047000D03*
D20*
X140563600Y-122047000D03*
G36*
G01*
X162645100Y-109975800D02*
X162170100Y-109975800D01*
G75*
G02*
X161932600Y-109738300I0J237500D01*
G01*
X161932600Y-109138300D01*
G75*
G02*
X162170100Y-108900800I237500J0D01*
G01*
X162645100Y-108900800D01*
G75*
G02*
X162882600Y-109138300I0J-237500D01*
G01*
X162882600Y-109738300D01*
G75*
G02*
X162645100Y-109975800I-237500J0D01*
G01*
G37*
G36*
G01*
X162645100Y-111700800D02*
X162170100Y-111700800D01*
G75*
G02*
X161932600Y-111463300I0J237500D01*
G01*
X161932600Y-110863300D01*
G75*
G02*
X162170100Y-110625800I237500J0D01*
G01*
X162645100Y-110625800D01*
G75*
G02*
X162882600Y-110863300I0J-237500D01*
G01*
X162882600Y-111463300D01*
G75*
G02*
X162645100Y-111700800I-237500J0D01*
G01*
G37*
G36*
G01*
X155914100Y-102391500D02*
X155439100Y-102391500D01*
G75*
G02*
X155201600Y-102154000I0J237500D01*
G01*
X155201600Y-101554000D01*
G75*
G02*
X155439100Y-101316500I237500J0D01*
G01*
X155914100Y-101316500D01*
G75*
G02*
X156151600Y-101554000I0J-237500D01*
G01*
X156151600Y-102154000D01*
G75*
G02*
X155914100Y-102391500I-237500J0D01*
G01*
G37*
G36*
G01*
X155914100Y-104116500D02*
X155439100Y-104116500D01*
G75*
G02*
X155201600Y-103879000I0J237500D01*
G01*
X155201600Y-103279000D01*
G75*
G02*
X155439100Y-103041500I237500J0D01*
G01*
X155914100Y-103041500D01*
G75*
G02*
X156151600Y-103279000I0J-237500D01*
G01*
X156151600Y-103879000D01*
G75*
G02*
X155914100Y-104116500I-237500J0D01*
G01*
G37*
G36*
G01*
X140470800Y-109178100D02*
X140470800Y-108703100D01*
G75*
G02*
X140708300Y-108465600I237500J0D01*
G01*
X141308300Y-108465600D01*
G75*
G02*
X141545800Y-108703100I0J-237500D01*
G01*
X141545800Y-109178100D01*
G75*
G02*
X141308300Y-109415600I-237500J0D01*
G01*
X140708300Y-109415600D01*
G75*
G02*
X140470800Y-109178100I0J237500D01*
G01*
G37*
G36*
G01*
X138745800Y-109178100D02*
X138745800Y-108703100D01*
G75*
G02*
X138983300Y-108465600I237500J0D01*
G01*
X139583300Y-108465600D01*
G75*
G02*
X139820800Y-108703100I0J-237500D01*
G01*
X139820800Y-109178100D01*
G75*
G02*
X139583300Y-109415600I-237500J0D01*
G01*
X138983300Y-109415600D01*
G75*
G02*
X138745800Y-109178100I0J237500D01*
G01*
G37*
G36*
G01*
X153018500Y-109975800D02*
X152543500Y-109975800D01*
G75*
G02*
X152306000Y-109738300I0J237500D01*
G01*
X152306000Y-109138300D01*
G75*
G02*
X152543500Y-108900800I237500J0D01*
G01*
X153018500Y-108900800D01*
G75*
G02*
X153256000Y-109138300I0J-237500D01*
G01*
X153256000Y-109738300D01*
G75*
G02*
X153018500Y-109975800I-237500J0D01*
G01*
G37*
G36*
G01*
X153018500Y-111700800D02*
X152543500Y-111700800D01*
G75*
G02*
X152306000Y-111463300I0J237500D01*
G01*
X152306000Y-110863300D01*
G75*
G02*
X152543500Y-110625800I237500J0D01*
G01*
X153018500Y-110625800D01*
G75*
G02*
X153256000Y-110863300I0J-237500D01*
G01*
X153256000Y-111463300D01*
G75*
G02*
X153018500Y-111700800I-237500J0D01*
G01*
G37*
G36*
G01*
X153628100Y-118561000D02*
X153153100Y-118561000D01*
G75*
G02*
X152915600Y-118323500I0J237500D01*
G01*
X152915600Y-117723500D01*
G75*
G02*
X153153100Y-117486000I237500J0D01*
G01*
X153628100Y-117486000D01*
G75*
G02*
X153865600Y-117723500I0J-237500D01*
G01*
X153865600Y-118323500D01*
G75*
G02*
X153628100Y-118561000I-237500J0D01*
G01*
G37*
G36*
G01*
X153628100Y-120286000D02*
X153153100Y-120286000D01*
G75*
G02*
X152915600Y-120048500I0J237500D01*
G01*
X152915600Y-119448500D01*
G75*
G02*
X153153100Y-119211000I237500J0D01*
G01*
X153628100Y-119211000D01*
G75*
G02*
X153865600Y-119448500I0J-237500D01*
G01*
X153865600Y-120048500D01*
G75*
G02*
X153628100Y-120286000I-237500J0D01*
G01*
G37*
G36*
G01*
X162576600Y-117618500D02*
X162576600Y-118093500D01*
G75*
G02*
X162339100Y-118331000I-237500J0D01*
G01*
X161739100Y-118331000D01*
G75*
G02*
X161501600Y-118093500I0J237500D01*
G01*
X161501600Y-117618500D01*
G75*
G02*
X161739100Y-117381000I237500J0D01*
G01*
X162339100Y-117381000D01*
G75*
G02*
X162576600Y-117618500I0J-237500D01*
G01*
G37*
G36*
G01*
X164301600Y-117618500D02*
X164301600Y-118093500D01*
G75*
G02*
X164064100Y-118331000I-237500J0D01*
G01*
X163464100Y-118331000D01*
G75*
G02*
X163226600Y-118093500I0J237500D01*
G01*
X163226600Y-117618500D01*
G75*
G02*
X163464100Y-117381000I237500J0D01*
G01*
X164064100Y-117381000D01*
G75*
G02*
X164301600Y-117618500I0J-237500D01*
G01*
G37*
G36*
G01*
X170719600Y-118093500D02*
X170719600Y-117618500D01*
G75*
G02*
X170957100Y-117381000I237500J0D01*
G01*
X171557100Y-117381000D01*
G75*
G02*
X171794600Y-117618500I0J-237500D01*
G01*
X171794600Y-118093500D01*
G75*
G02*
X171557100Y-118331000I-237500J0D01*
G01*
X170957100Y-118331000D01*
G75*
G02*
X170719600Y-118093500I0J237500D01*
G01*
G37*
G36*
G01*
X168994600Y-118093500D02*
X168994600Y-117618500D01*
G75*
G02*
X169232100Y-117381000I237500J0D01*
G01*
X169832100Y-117381000D01*
G75*
G02*
X170069600Y-117618500I0J-237500D01*
G01*
X170069600Y-118093500D01*
G75*
G02*
X169832100Y-118331000I-237500J0D01*
G01*
X169232100Y-118331000D01*
G75*
G02*
X168994600Y-118093500I0J237500D01*
G01*
G37*
G36*
G01*
X172297100Y-105693500D02*
X171822100Y-105693500D01*
G75*
G02*
X171584600Y-105456000I0J237500D01*
G01*
X171584600Y-104856000D01*
G75*
G02*
X171822100Y-104618500I237500J0D01*
G01*
X172297100Y-104618500D01*
G75*
G02*
X172534600Y-104856000I0J-237500D01*
G01*
X172534600Y-105456000D01*
G75*
G02*
X172297100Y-105693500I-237500J0D01*
G01*
G37*
G36*
G01*
X172297100Y-107418500D02*
X171822100Y-107418500D01*
G75*
G02*
X171584600Y-107181000I0J237500D01*
G01*
X171584600Y-106581000D01*
G75*
G02*
X171822100Y-106343500I237500J0D01*
G01*
X172297100Y-106343500D01*
G75*
G02*
X172534600Y-106581000I0J-237500D01*
G01*
X172534600Y-107181000D01*
G75*
G02*
X172297100Y-107418500I-237500J0D01*
G01*
G37*
G36*
G01*
X167112900Y-91786700D02*
X167112900Y-92261700D01*
G75*
G02*
X166875400Y-92499200I-237500J0D01*
G01*
X166275400Y-92499200D01*
G75*
G02*
X166037900Y-92261700I0J237500D01*
G01*
X166037900Y-91786700D01*
G75*
G02*
X166275400Y-91549200I237500J0D01*
G01*
X166875400Y-91549200D01*
G75*
G02*
X167112900Y-91786700I0J-237500D01*
G01*
G37*
G36*
G01*
X168837900Y-91786700D02*
X168837900Y-92261700D01*
G75*
G02*
X168600400Y-92499200I-237500J0D01*
G01*
X168000400Y-92499200D01*
G75*
G02*
X167762900Y-92261700I0J237500D01*
G01*
X167762900Y-91786700D01*
G75*
G02*
X168000400Y-91549200I237500J0D01*
G01*
X168600400Y-91549200D01*
G75*
G02*
X168837900Y-91786700I0J-237500D01*
G01*
G37*
G36*
G01*
X155833100Y-96282500D02*
X155833100Y-96757500D01*
G75*
G02*
X155595600Y-96995000I-237500J0D01*
G01*
X154995600Y-96995000D01*
G75*
G02*
X154758100Y-96757500I0J237500D01*
G01*
X154758100Y-96282500D01*
G75*
G02*
X154995600Y-96045000I237500J0D01*
G01*
X155595600Y-96045000D01*
G75*
G02*
X155833100Y-96282500I0J-237500D01*
G01*
G37*
G36*
G01*
X157558100Y-96282500D02*
X157558100Y-96757500D01*
G75*
G02*
X157320600Y-96995000I-237500J0D01*
G01*
X156720600Y-96995000D01*
G75*
G02*
X156483100Y-96757500I0J237500D01*
G01*
X156483100Y-96282500D01*
G75*
G02*
X156720600Y-96045000I237500J0D01*
G01*
X157320600Y-96045000D01*
G75*
G02*
X157558100Y-96282500I0J-237500D01*
G01*
G37*
D19*
X135483600Y-104267000D03*
D20*
X135483600Y-101727000D03*
G36*
G01*
X167724600Y-99551500D02*
X167724600Y-99076500D01*
G75*
G02*
X167962100Y-98839000I237500J0D01*
G01*
X168537100Y-98839000D01*
G75*
G02*
X168774600Y-99076500I0J-237500D01*
G01*
X168774600Y-99551500D01*
G75*
G02*
X168537100Y-99789000I-237500J0D01*
G01*
X167962100Y-99789000D01*
G75*
G02*
X167724600Y-99551500I0J237500D01*
G01*
G37*
G36*
G01*
X165974600Y-99551500D02*
X165974600Y-99076500D01*
G75*
G02*
X166212100Y-98839000I237500J0D01*
G01*
X166787100Y-98839000D01*
G75*
G02*
X167024600Y-99076500I0J-237500D01*
G01*
X167024600Y-99551500D01*
G75*
G02*
X166787100Y-99789000I-237500J0D01*
G01*
X166212100Y-99789000D01*
G75*
G02*
X165974600Y-99551500I0J237500D01*
G01*
G37*
G36*
G01*
X156074100Y-85553000D02*
X156549100Y-85553000D01*
G75*
G02*
X156786600Y-85790500I0J-237500D01*
G01*
X156786600Y-86365500D01*
G75*
G02*
X156549100Y-86603000I-237500J0D01*
G01*
X156074100Y-86603000D01*
G75*
G02*
X155836600Y-86365500I0J237500D01*
G01*
X155836600Y-85790500D01*
G75*
G02*
X156074100Y-85553000I237500J0D01*
G01*
G37*
G36*
G01*
X156074100Y-83803000D02*
X156549100Y-83803000D01*
G75*
G02*
X156786600Y-84040500I0J-237500D01*
G01*
X156786600Y-84615500D01*
G75*
G02*
X156549100Y-84853000I-237500J0D01*
G01*
X156074100Y-84853000D01*
G75*
G02*
X155836600Y-84615500I0J237500D01*
G01*
X155836600Y-84040500D01*
G75*
G02*
X156074100Y-83803000I237500J0D01*
G01*
G37*
G36*
G01*
X154136100Y-84853000D02*
X153661100Y-84853000D01*
G75*
G02*
X153423600Y-84615500I0J237500D01*
G01*
X153423600Y-84040500D01*
G75*
G02*
X153661100Y-83803000I237500J0D01*
G01*
X154136100Y-83803000D01*
G75*
G02*
X154373600Y-84040500I0J-237500D01*
G01*
X154373600Y-84615500D01*
G75*
G02*
X154136100Y-84853000I-237500J0D01*
G01*
G37*
G36*
G01*
X154136100Y-86603000D02*
X153661100Y-86603000D01*
G75*
G02*
X153423600Y-86365500I0J237500D01*
G01*
X153423600Y-85790500D01*
G75*
G02*
X153661100Y-85553000I237500J0D01*
G01*
X154136100Y-85553000D01*
G75*
G02*
X154373600Y-85790500I0J-237500D01*
G01*
X154373600Y-86365500D01*
G75*
G02*
X154136100Y-86603000I-237500J0D01*
G01*
G37*
D10*
X159806600Y-97314000D03*
X160756600Y-99314000D03*
X158856600Y-99314000D03*
G36*
G01*
X151723100Y-84853000D02*
X151248100Y-84853000D01*
G75*
G02*
X151010600Y-84615500I0J237500D01*
G01*
X151010600Y-84040500D01*
G75*
G02*
X151248100Y-83803000I237500J0D01*
G01*
X151723100Y-83803000D01*
G75*
G02*
X151960600Y-84040500I0J-237500D01*
G01*
X151960600Y-84615500D01*
G75*
G02*
X151723100Y-84853000I-237500J0D01*
G01*
G37*
G36*
G01*
X151723100Y-86603000D02*
X151248100Y-86603000D01*
G75*
G02*
X151010600Y-86365500I0J237500D01*
G01*
X151010600Y-85790500D01*
G75*
G02*
X151248100Y-85553000I237500J0D01*
G01*
X151723100Y-85553000D01*
G75*
G02*
X151960600Y-85790500I0J-237500D01*
G01*
X151960600Y-86365500D01*
G75*
G02*
X151723100Y-86603000I-237500J0D01*
G01*
G37*
G36*
G01*
X166184600Y-118483000D02*
X165234600Y-118483000D01*
G75*
G02*
X164984600Y-118233000I0J250000D01*
G01*
X164984600Y-117733000D01*
G75*
G02*
X165234600Y-117483000I250000J0D01*
G01*
X166184600Y-117483000D01*
G75*
G02*
X166434600Y-117733000I0J-250000D01*
G01*
X166434600Y-118233000D01*
G75*
G02*
X166184600Y-118483000I-250000J0D01*
G01*
G37*
G36*
G01*
X166184600Y-120383000D02*
X165234600Y-120383000D01*
G75*
G02*
X164984600Y-120133000I0J250000D01*
G01*
X164984600Y-119633000D01*
G75*
G02*
X165234600Y-119383000I250000J0D01*
G01*
X166184600Y-119383000D01*
G75*
G02*
X166434600Y-119633000I0J-250000D01*
G01*
X166434600Y-120133000D01*
G75*
G02*
X166184600Y-120383000I-250000J0D01*
G01*
G37*
G36*
G01*
X162526600Y-119159000D02*
X162526600Y-120109000D01*
G75*
G02*
X162276600Y-120359000I-250000J0D01*
G01*
X161776600Y-120359000D01*
G75*
G02*
X161526600Y-120109000I0J250000D01*
G01*
X161526600Y-119159000D01*
G75*
G02*
X161776600Y-118909000I250000J0D01*
G01*
X162276600Y-118909000D01*
G75*
G02*
X162526600Y-119159000I0J-250000D01*
G01*
G37*
G36*
G01*
X164426600Y-119159000D02*
X164426600Y-120109000D01*
G75*
G02*
X164176600Y-120359000I-250000J0D01*
G01*
X163676600Y-120359000D01*
G75*
G02*
X163426600Y-120109000I0J250000D01*
G01*
X163426600Y-119159000D01*
G75*
G02*
X163676600Y-118909000I250000J0D01*
G01*
X164176600Y-118909000D01*
G75*
G02*
X164426600Y-119159000I0J-250000D01*
G01*
G37*
G36*
G01*
X158691600Y-118356000D02*
X157741600Y-118356000D01*
G75*
G02*
X157491600Y-118106000I0J250000D01*
G01*
X157491600Y-117606000D01*
G75*
G02*
X157741600Y-117356000I250000J0D01*
G01*
X158691600Y-117356000D01*
G75*
G02*
X158941600Y-117606000I0J-250000D01*
G01*
X158941600Y-118106000D01*
G75*
G02*
X158691600Y-118356000I-250000J0D01*
G01*
G37*
G36*
G01*
X158691600Y-120256000D02*
X157741600Y-120256000D01*
G75*
G02*
X157491600Y-120006000I0J250000D01*
G01*
X157491600Y-119506000D01*
G75*
G02*
X157741600Y-119256000I250000J0D01*
G01*
X158691600Y-119256000D01*
G75*
G02*
X158941600Y-119506000I0J-250000D01*
G01*
X158941600Y-120006000D01*
G75*
G02*
X158691600Y-120256000I-250000J0D01*
G01*
G37*
G36*
G01*
X170919600Y-120109000D02*
X170919600Y-119159000D01*
G75*
G02*
X171169600Y-118909000I250000J0D01*
G01*
X171669600Y-118909000D01*
G75*
G02*
X171919600Y-119159000I0J-250000D01*
G01*
X171919600Y-120109000D01*
G75*
G02*
X171669600Y-120359000I-250000J0D01*
G01*
X171169600Y-120359000D01*
G75*
G02*
X170919600Y-120109000I0J250000D01*
G01*
G37*
G36*
G01*
X169019600Y-120109000D02*
X169019600Y-119159000D01*
G75*
G02*
X169269600Y-118909000I250000J0D01*
G01*
X169769600Y-118909000D01*
G75*
G02*
X170019600Y-119159000I0J-250000D01*
G01*
X170019600Y-120109000D01*
G75*
G02*
X169769600Y-120359000I-250000J0D01*
G01*
X169269600Y-120359000D01*
G75*
G02*
X169019600Y-120109000I0J250000D01*
G01*
G37*
G36*
G01*
X160723600Y-118356000D02*
X159773600Y-118356000D01*
G75*
G02*
X159523600Y-118106000I0J250000D01*
G01*
X159523600Y-117606000D01*
G75*
G02*
X159773600Y-117356000I250000J0D01*
G01*
X160723600Y-117356000D01*
G75*
G02*
X160973600Y-117606000I0J-250000D01*
G01*
X160973600Y-118106000D01*
G75*
G02*
X160723600Y-118356000I-250000J0D01*
G01*
G37*
G36*
G01*
X160723600Y-120256000D02*
X159773600Y-120256000D01*
G75*
G02*
X159523600Y-120006000I0J250000D01*
G01*
X159523600Y-119506000D01*
G75*
G02*
X159773600Y-119256000I250000J0D01*
G01*
X160723600Y-119256000D01*
G75*
G02*
X160973600Y-119506000I0J-250000D01*
G01*
X160973600Y-120006000D01*
G75*
G02*
X160723600Y-120256000I-250000J0D01*
G01*
G37*
D21*
X175768000Y-80848200D03*
X135763000Y-80848200D03*
X175768000Y-120853200D03*
X135763000Y-120853200D03*
D22*
X141452600Y-113284000D03*
X141452600Y-114234000D03*
X141452600Y-115184000D03*
X139132600Y-115184000D03*
X139132600Y-114234000D03*
X139132600Y-113284000D03*
G36*
G01*
X163570600Y-97411400D02*
X163570600Y-97711400D01*
G75*
G02*
X163420600Y-97861400I-150000J0D01*
G01*
X162070600Y-97861400D01*
G75*
G02*
X161920600Y-97711400I0J150000D01*
G01*
X161920600Y-97411400D01*
G75*
G02*
X162070600Y-97261400I150000J0D01*
G01*
X163420600Y-97261400D01*
G75*
G02*
X163570600Y-97411400I0J-150000D01*
G01*
G37*
G36*
G01*
X163570600Y-96141400D02*
X163570600Y-96441400D01*
G75*
G02*
X163420600Y-96591400I-150000J0D01*
G01*
X162070600Y-96591400D01*
G75*
G02*
X161920600Y-96441400I0J150000D01*
G01*
X161920600Y-96141400D01*
G75*
G02*
X162070600Y-95991400I150000J0D01*
G01*
X163420600Y-95991400D01*
G75*
G02*
X163570600Y-96141400I0J-150000D01*
G01*
G37*
G36*
G01*
X163570600Y-94871400D02*
X163570600Y-95171400D01*
G75*
G02*
X163420600Y-95321400I-150000J0D01*
G01*
X162070600Y-95321400D01*
G75*
G02*
X161920600Y-95171400I0J150000D01*
G01*
X161920600Y-94871400D01*
G75*
G02*
X162070600Y-94721400I150000J0D01*
G01*
X163420600Y-94721400D01*
G75*
G02*
X163570600Y-94871400I0J-150000D01*
G01*
G37*
G36*
G01*
X163570600Y-93601400D02*
X163570600Y-93901400D01*
G75*
G02*
X163420600Y-94051400I-150000J0D01*
G01*
X162070600Y-94051400D01*
G75*
G02*
X161920600Y-93901400I0J150000D01*
G01*
X161920600Y-93601400D01*
G75*
G02*
X162070600Y-93451400I150000J0D01*
G01*
X163420600Y-93451400D01*
G75*
G02*
X163570600Y-93601400I0J-150000D01*
G01*
G37*
G36*
G01*
X168820600Y-93601400D02*
X168820600Y-93901400D01*
G75*
G02*
X168670600Y-94051400I-150000J0D01*
G01*
X167320600Y-94051400D01*
G75*
G02*
X167170600Y-93901400I0J150000D01*
G01*
X167170600Y-93601400D01*
G75*
G02*
X167320600Y-93451400I150000J0D01*
G01*
X168670600Y-93451400D01*
G75*
G02*
X168820600Y-93601400I0J-150000D01*
G01*
G37*
G36*
G01*
X168820600Y-94871400D02*
X168820600Y-95171400D01*
G75*
G02*
X168670600Y-95321400I-150000J0D01*
G01*
X167320600Y-95321400D01*
G75*
G02*
X167170600Y-95171400I0J150000D01*
G01*
X167170600Y-94871400D01*
G75*
G02*
X167320600Y-94721400I150000J0D01*
G01*
X168670600Y-94721400D01*
G75*
G02*
X168820600Y-94871400I0J-150000D01*
G01*
G37*
G36*
G01*
X168820600Y-96141400D02*
X168820600Y-96441400D01*
G75*
G02*
X168670600Y-96591400I-150000J0D01*
G01*
X167320600Y-96591400D01*
G75*
G02*
X167170600Y-96441400I0J150000D01*
G01*
X167170600Y-96141400D01*
G75*
G02*
X167320600Y-95991400I150000J0D01*
G01*
X168670600Y-95991400D01*
G75*
G02*
X168820600Y-96141400I0J-150000D01*
G01*
G37*
G36*
G01*
X168820600Y-97411400D02*
X168820600Y-97711400D01*
G75*
G02*
X168670600Y-97861400I-150000J0D01*
G01*
X167320600Y-97861400D01*
G75*
G02*
X167170600Y-97711400I0J150000D01*
G01*
X167170600Y-97411400D01*
G75*
G02*
X167320600Y-97261400I150000J0D01*
G01*
X168670600Y-97261400D01*
G75*
G02*
X168820600Y-97411400I0J-150000D01*
G01*
G37*
G36*
G01*
X152104100Y-102455200D02*
X151629100Y-102455200D01*
G75*
G02*
X151391600Y-102217700I0J237500D01*
G01*
X151391600Y-101642700D01*
G75*
G02*
X151629100Y-101405200I237500J0D01*
G01*
X152104100Y-101405200D01*
G75*
G02*
X152341600Y-101642700I0J-237500D01*
G01*
X152341600Y-102217700D01*
G75*
G02*
X152104100Y-102455200I-237500J0D01*
G01*
G37*
G36*
G01*
X152104100Y-104205200D02*
X151629100Y-104205200D01*
G75*
G02*
X151391600Y-103967700I0J237500D01*
G01*
X151391600Y-103392700D01*
G75*
G02*
X151629100Y-103155200I237500J0D01*
G01*
X152104100Y-103155200D01*
G75*
G02*
X152341600Y-103392700I0J-237500D01*
G01*
X152341600Y-103967700D01*
G75*
G02*
X152104100Y-104205200I-237500J0D01*
G01*
G37*
G36*
G01*
X152137100Y-99523000D02*
X152612100Y-99523000D01*
G75*
G02*
X152849600Y-99760500I0J-237500D01*
G01*
X152849600Y-100335500D01*
G75*
G02*
X152612100Y-100573000I-237500J0D01*
G01*
X152137100Y-100573000D01*
G75*
G02*
X151899600Y-100335500I0J237500D01*
G01*
X151899600Y-99760500D01*
G75*
G02*
X152137100Y-99523000I237500J0D01*
G01*
G37*
G36*
G01*
X152137100Y-97773000D02*
X152612100Y-97773000D01*
G75*
G02*
X152849600Y-98010500I0J-237500D01*
G01*
X152849600Y-98585500D01*
G75*
G02*
X152612100Y-98823000I-237500J0D01*
G01*
X152137100Y-98823000D01*
G75*
G02*
X151899600Y-98585500I0J237500D01*
G01*
X151899600Y-98010500D01*
G75*
G02*
X152137100Y-97773000I237500J0D01*
G01*
G37*
D23*
X134670800Y-107802600D03*
X134670800Y-113602600D03*
D24*
X134670800Y-114202600D03*
X134670800Y-107202600D03*
D25*
X134670800Y-109702600D03*
D26*
X137370800Y-113202600D03*
D27*
X137370800Y-110702600D03*
X137370800Y-111352600D03*
X137370800Y-112002600D03*
X137370800Y-109402600D03*
X137370800Y-110052600D03*
D26*
X137370800Y-108202600D03*
D25*
X134670800Y-111702600D03*
G36*
G01*
X136283600Y-99215000D02*
X134683600Y-99215000D01*
G75*
G02*
X134483600Y-99015000I0J200000D01*
G01*
X134483600Y-98615000D01*
G75*
G02*
X134683600Y-98415000I200000J0D01*
G01*
X136283600Y-98415000D01*
G75*
G02*
X136483600Y-98615000I0J-200000D01*
G01*
X136483600Y-99015000D01*
G75*
G02*
X136283600Y-99215000I-200000J0D01*
G01*
G37*
G36*
G01*
X136283600Y-95015000D02*
X134683600Y-95015000D01*
G75*
G02*
X134483600Y-94815000I0J200000D01*
G01*
X134483600Y-94415000D01*
G75*
G02*
X134683600Y-94215000I200000J0D01*
G01*
X136283600Y-94215000D01*
G75*
G02*
X136483600Y-94415000I0J-200000D01*
G01*
X136483600Y-94815000D01*
G75*
G02*
X136283600Y-95015000I-200000J0D01*
G01*
G37*
D19*
X135483600Y-91567000D03*
D20*
X135483600Y-89027000D03*
D28*
X171907200Y-86258400D03*
G36*
G01*
X172532201Y-88858400D02*
X171282199Y-88858400D01*
G75*
G02*
X171032200Y-88608401I0J249999D01*
G01*
X171032200Y-87908399D01*
G75*
G02*
X171282199Y-87658400I249999J0D01*
G01*
X172532201Y-87658400D01*
G75*
G02*
X172782200Y-87908399I0J-249999D01*
G01*
X172782200Y-88608401D01*
G75*
G02*
X172532201Y-88858400I-249999J0D01*
G01*
G37*
G36*
G01*
X144572500Y-91969600D02*
X144572500Y-91494600D01*
G75*
G02*
X144810000Y-91257100I237500J0D01*
G01*
X145385000Y-91257100D01*
G75*
G02*
X145622500Y-91494600I0J-237500D01*
G01*
X145622500Y-91969600D01*
G75*
G02*
X145385000Y-92207100I-237500J0D01*
G01*
X144810000Y-92207100D01*
G75*
G02*
X144572500Y-91969600I0J237500D01*
G01*
G37*
G36*
G01*
X142822500Y-91969600D02*
X142822500Y-91494600D01*
G75*
G02*
X143060000Y-91257100I237500J0D01*
G01*
X143635000Y-91257100D01*
G75*
G02*
X143872500Y-91494600I0J-237500D01*
G01*
X143872500Y-91969600D01*
G75*
G02*
X143635000Y-92207100I-237500J0D01*
G01*
X143060000Y-92207100D01*
G75*
G02*
X142822500Y-91969600I0J237500D01*
G01*
G37*
D29*
X142189200Y-101955600D03*
X142189200Y-104455600D03*
G36*
G01*
X148707200Y-102105600D02*
X148707200Y-101805600D01*
G75*
G02*
X148857200Y-101655600I150000J0D01*
G01*
X150507200Y-101655600D01*
G75*
G02*
X150657200Y-101805600I0J-150000D01*
G01*
X150657200Y-102105600D01*
G75*
G02*
X150507200Y-102255600I-150000J0D01*
G01*
X148857200Y-102255600D01*
G75*
G02*
X148707200Y-102105600I0J150000D01*
G01*
G37*
G36*
G01*
X148707200Y-103375600D02*
X148707200Y-103075600D01*
G75*
G02*
X148857200Y-102925600I150000J0D01*
G01*
X150507200Y-102925600D01*
G75*
G02*
X150657200Y-103075600I0J-150000D01*
G01*
X150657200Y-103375600D01*
G75*
G02*
X150507200Y-103525600I-150000J0D01*
G01*
X148857200Y-103525600D01*
G75*
G02*
X148707200Y-103375600I0J150000D01*
G01*
G37*
G36*
G01*
X148707200Y-104645600D02*
X148707200Y-104345600D01*
G75*
G02*
X148857200Y-104195600I150000J0D01*
G01*
X150507200Y-104195600D01*
G75*
G02*
X150657200Y-104345600I0J-150000D01*
G01*
X150657200Y-104645600D01*
G75*
G02*
X150507200Y-104795600I-150000J0D01*
G01*
X148857200Y-104795600D01*
G75*
G02*
X148707200Y-104645600I0J150000D01*
G01*
G37*
G36*
G01*
X148707200Y-105915600D02*
X148707200Y-105615600D01*
G75*
G02*
X148857200Y-105465600I150000J0D01*
G01*
X150507200Y-105465600D01*
G75*
G02*
X150657200Y-105615600I0J-150000D01*
G01*
X150657200Y-105915600D01*
G75*
G02*
X150507200Y-106065600I-150000J0D01*
G01*
X148857200Y-106065600D01*
G75*
G02*
X148707200Y-105915600I0J150000D01*
G01*
G37*
G36*
G01*
X143757200Y-105915600D02*
X143757200Y-105615600D01*
G75*
G02*
X143907200Y-105465600I150000J0D01*
G01*
X145557200Y-105465600D01*
G75*
G02*
X145707200Y-105615600I0J-150000D01*
G01*
X145707200Y-105915600D01*
G75*
G02*
X145557200Y-106065600I-150000J0D01*
G01*
X143907200Y-106065600D01*
G75*
G02*
X143757200Y-105915600I0J150000D01*
G01*
G37*
G36*
G01*
X143757200Y-104645600D02*
X143757200Y-104345600D01*
G75*
G02*
X143907200Y-104195600I150000J0D01*
G01*
X145557200Y-104195600D01*
G75*
G02*
X145707200Y-104345600I0J-150000D01*
G01*
X145707200Y-104645600D01*
G75*
G02*
X145557200Y-104795600I-150000J0D01*
G01*
X143907200Y-104795600D01*
G75*
G02*
X143757200Y-104645600I0J150000D01*
G01*
G37*
G36*
G01*
X143757200Y-103375600D02*
X143757200Y-103075600D01*
G75*
G02*
X143907200Y-102925600I150000J0D01*
G01*
X145557200Y-102925600D01*
G75*
G02*
X145707200Y-103075600I0J-150000D01*
G01*
X145707200Y-103375600D01*
G75*
G02*
X145557200Y-103525600I-150000J0D01*
G01*
X143907200Y-103525600D01*
G75*
G02*
X143757200Y-103375600I0J150000D01*
G01*
G37*
G36*
G01*
X143757200Y-102105600D02*
X143757200Y-101805600D01*
G75*
G02*
X143907200Y-101655600I150000J0D01*
G01*
X145557200Y-101655600D01*
G75*
G02*
X145707200Y-101805600I0J-150000D01*
G01*
X145707200Y-102105600D01*
G75*
G02*
X145557200Y-102255600I-150000J0D01*
G01*
X143907200Y-102255600D01*
G75*
G02*
X143757200Y-102105600I0J150000D01*
G01*
G37*
D30*
X147789900Y-93103700D03*
G36*
G01*
X148702400Y-94553700D02*
X148827400Y-94553700D01*
G75*
G02*
X148889900Y-94616200I0J-62500D01*
G01*
X148889900Y-95391200D01*
G75*
G02*
X148827400Y-95453700I-62500J0D01*
G01*
X148702400Y-95453700D01*
G75*
G02*
X148639900Y-95391200I0J62500D01*
G01*
X148639900Y-94616200D01*
G75*
G02*
X148702400Y-94553700I62500J0D01*
G01*
G37*
G36*
G01*
X148052400Y-94553700D02*
X148177400Y-94553700D01*
G75*
G02*
X148239900Y-94616200I0J-62500D01*
G01*
X148239900Y-95391200D01*
G75*
G02*
X148177400Y-95453700I-62500J0D01*
G01*
X148052400Y-95453700D01*
G75*
G02*
X147989900Y-95391200I0J62500D01*
G01*
X147989900Y-94616200D01*
G75*
G02*
X148052400Y-94553700I62500J0D01*
G01*
G37*
G36*
G01*
X147402400Y-94553700D02*
X147527400Y-94553700D01*
G75*
G02*
X147589900Y-94616200I0J-62500D01*
G01*
X147589900Y-95391200D01*
G75*
G02*
X147527400Y-95453700I-62500J0D01*
G01*
X147402400Y-95453700D01*
G75*
G02*
X147339900Y-95391200I0J62500D01*
G01*
X147339900Y-94616200D01*
G75*
G02*
X147402400Y-94553700I62500J0D01*
G01*
G37*
G36*
G01*
X146752400Y-94553700D02*
X146877400Y-94553700D01*
G75*
G02*
X146939900Y-94616200I0J-62500D01*
G01*
X146939900Y-95391200D01*
G75*
G02*
X146877400Y-95453700I-62500J0D01*
G01*
X146752400Y-95453700D01*
G75*
G02*
X146689900Y-95391200I0J62500D01*
G01*
X146689900Y-94616200D01*
G75*
G02*
X146752400Y-94553700I62500J0D01*
G01*
G37*
G36*
G01*
X146752400Y-90753700D02*
X146877400Y-90753700D01*
G75*
G02*
X146939900Y-90816200I0J-62500D01*
G01*
X146939900Y-91591200D01*
G75*
G02*
X146877400Y-91653700I-62500J0D01*
G01*
X146752400Y-91653700D01*
G75*
G02*
X146689900Y-91591200I0J62500D01*
G01*
X146689900Y-90816200D01*
G75*
G02*
X146752400Y-90753700I62500J0D01*
G01*
G37*
G36*
G01*
X147402400Y-90753700D02*
X147527400Y-90753700D01*
G75*
G02*
X147589900Y-90816200I0J-62500D01*
G01*
X147589900Y-91591200D01*
G75*
G02*
X147527400Y-91653700I-62500J0D01*
G01*
X147402400Y-91653700D01*
G75*
G02*
X147339900Y-91591200I0J62500D01*
G01*
X147339900Y-90816200D01*
G75*
G02*
X147402400Y-90753700I62500J0D01*
G01*
G37*
G36*
G01*
X148052400Y-90753700D02*
X148177400Y-90753700D01*
G75*
G02*
X148239900Y-90816200I0J-62500D01*
G01*
X148239900Y-91591200D01*
G75*
G02*
X148177400Y-91653700I-62500J0D01*
G01*
X148052400Y-91653700D01*
G75*
G02*
X147989900Y-91591200I0J62500D01*
G01*
X147989900Y-90816200D01*
G75*
G02*
X148052400Y-90753700I62500J0D01*
G01*
G37*
G36*
G01*
X148702400Y-90753700D02*
X148827400Y-90753700D01*
G75*
G02*
X148889900Y-90816200I0J-62500D01*
G01*
X148889900Y-91591200D01*
G75*
G02*
X148827400Y-91653700I-62500J0D01*
G01*
X148702400Y-91653700D01*
G75*
G02*
X148639900Y-91591200I0J62500D01*
G01*
X148639900Y-90816200D01*
G75*
G02*
X148702400Y-90753700I62500J0D01*
G01*
G37*
G36*
G01*
X166546900Y-84859800D02*
X166546900Y-84659800D01*
G75*
G02*
X166646900Y-84559800I100000J0D01*
G01*
X167921900Y-84559800D01*
G75*
G02*
X168021900Y-84659800I0J-100000D01*
G01*
X168021900Y-84859800D01*
G75*
G02*
X167921900Y-84959800I-100000J0D01*
G01*
X166646900Y-84959800D01*
G75*
G02*
X166546900Y-84859800I0J100000D01*
G01*
G37*
G36*
G01*
X166546900Y-85509800D02*
X166546900Y-85309800D01*
G75*
G02*
X166646900Y-85209800I100000J0D01*
G01*
X167921900Y-85209800D01*
G75*
G02*
X168021900Y-85309800I0J-100000D01*
G01*
X168021900Y-85509800D01*
G75*
G02*
X167921900Y-85609800I-100000J0D01*
G01*
X166646900Y-85609800D01*
G75*
G02*
X166546900Y-85509800I0J100000D01*
G01*
G37*
G36*
G01*
X166546900Y-86159800D02*
X166546900Y-85959800D01*
G75*
G02*
X166646900Y-85859800I100000J0D01*
G01*
X167921900Y-85859800D01*
G75*
G02*
X168021900Y-85959800I0J-100000D01*
G01*
X168021900Y-86159800D01*
G75*
G02*
X167921900Y-86259800I-100000J0D01*
G01*
X166646900Y-86259800D01*
G75*
G02*
X166546900Y-86159800I0J100000D01*
G01*
G37*
G36*
G01*
X166546900Y-86809800D02*
X166546900Y-86609800D01*
G75*
G02*
X166646900Y-86509800I100000J0D01*
G01*
X167921900Y-86509800D01*
G75*
G02*
X168021900Y-86609800I0J-100000D01*
G01*
X168021900Y-86809800D01*
G75*
G02*
X167921900Y-86909800I-100000J0D01*
G01*
X166646900Y-86909800D01*
G75*
G02*
X166546900Y-86809800I0J100000D01*
G01*
G37*
G36*
G01*
X160821900Y-86809800D02*
X160821900Y-86609800D01*
G75*
G02*
X160921900Y-86509800I100000J0D01*
G01*
X162196900Y-86509800D01*
G75*
G02*
X162296900Y-86609800I0J-100000D01*
G01*
X162296900Y-86809800D01*
G75*
G02*
X162196900Y-86909800I-100000J0D01*
G01*
X160921900Y-86909800D01*
G75*
G02*
X160821900Y-86809800I0J100000D01*
G01*
G37*
G36*
G01*
X160821900Y-86159800D02*
X160821900Y-85959800D01*
G75*
G02*
X160921900Y-85859800I100000J0D01*
G01*
X162196900Y-85859800D01*
G75*
G02*
X162296900Y-85959800I0J-100000D01*
G01*
X162296900Y-86159800D01*
G75*
G02*
X162196900Y-86259800I-100000J0D01*
G01*
X160921900Y-86259800D01*
G75*
G02*
X160821900Y-86159800I0J100000D01*
G01*
G37*
G36*
G01*
X160821900Y-85509800D02*
X160821900Y-85309800D01*
G75*
G02*
X160921900Y-85209800I100000J0D01*
G01*
X162196900Y-85209800D01*
G75*
G02*
X162296900Y-85309800I0J-100000D01*
G01*
X162296900Y-85509800D01*
G75*
G02*
X162196900Y-85609800I-100000J0D01*
G01*
X160921900Y-85609800D01*
G75*
G02*
X160821900Y-85509800I0J100000D01*
G01*
G37*
G36*
G01*
X160821900Y-84859800D02*
X160821900Y-84659800D01*
G75*
G02*
X160921900Y-84559800I100000J0D01*
G01*
X162196900Y-84559800D01*
G75*
G02*
X162296900Y-84659800I0J-100000D01*
G01*
X162296900Y-84859800D01*
G75*
G02*
X162196900Y-84959800I-100000J0D01*
G01*
X160921900Y-84959800D01*
G75*
G02*
X160821900Y-84859800I0J100000D01*
G01*
G37*
G36*
G01*
X168995100Y-81678000D02*
X168520100Y-81678000D01*
G75*
G02*
X168282600Y-81440500I0J237500D01*
G01*
X168282600Y-80865500D01*
G75*
G02*
X168520100Y-80628000I237500J0D01*
G01*
X168995100Y-80628000D01*
G75*
G02*
X169232600Y-80865500I0J-237500D01*
G01*
X169232600Y-81440500D01*
G75*
G02*
X168995100Y-81678000I-237500J0D01*
G01*
G37*
G36*
G01*
X168995100Y-83428000D02*
X168520100Y-83428000D01*
G75*
G02*
X168282600Y-83190500I0J237500D01*
G01*
X168282600Y-82615500D01*
G75*
G02*
X168520100Y-82378000I237500J0D01*
G01*
X168995100Y-82378000D01*
G75*
G02*
X169232600Y-82615500I0J-237500D01*
G01*
X169232600Y-83190500D01*
G75*
G02*
X168995100Y-83428000I-237500J0D01*
G01*
G37*
G36*
G01*
X156930100Y-114853000D02*
X156455100Y-114853000D01*
G75*
G02*
X156217600Y-114615500I0J237500D01*
G01*
X156217600Y-114040500D01*
G75*
G02*
X156455100Y-113803000I237500J0D01*
G01*
X156930100Y-113803000D01*
G75*
G02*
X157167600Y-114040500I0J-237500D01*
G01*
X157167600Y-114615500D01*
G75*
G02*
X156930100Y-114853000I-237500J0D01*
G01*
G37*
G36*
G01*
X156930100Y-116603000D02*
X156455100Y-116603000D01*
G75*
G02*
X156217600Y-116365500I0J237500D01*
G01*
X156217600Y-115790500D01*
G75*
G02*
X156455100Y-115553000I237500J0D01*
G01*
X156930100Y-115553000D01*
G75*
G02*
X157167600Y-115790500I0J-237500D01*
G01*
X157167600Y-116365500D01*
G75*
G02*
X156930100Y-116603000I-237500J0D01*
G01*
G37*
G36*
G01*
X155152100Y-118536000D02*
X154677100Y-118536000D01*
G75*
G02*
X154439600Y-118298500I0J237500D01*
G01*
X154439600Y-117723500D01*
G75*
G02*
X154677100Y-117486000I237500J0D01*
G01*
X155152100Y-117486000D01*
G75*
G02*
X155389600Y-117723500I0J-237500D01*
G01*
X155389600Y-118298500D01*
G75*
G02*
X155152100Y-118536000I-237500J0D01*
G01*
G37*
G36*
G01*
X155152100Y-120286000D02*
X154677100Y-120286000D01*
G75*
G02*
X154439600Y-120048500I0J237500D01*
G01*
X154439600Y-119473500D01*
G75*
G02*
X154677100Y-119236000I237500J0D01*
G01*
X155152100Y-119236000D01*
G75*
G02*
X155389600Y-119473500I0J-237500D01*
G01*
X155389600Y-120048500D01*
G75*
G02*
X155152100Y-120286000I-237500J0D01*
G01*
G37*
G36*
G01*
X156201100Y-119236000D02*
X156676100Y-119236000D01*
G75*
G02*
X156913600Y-119473500I0J-237500D01*
G01*
X156913600Y-120048500D01*
G75*
G02*
X156676100Y-120286000I-237500J0D01*
G01*
X156201100Y-120286000D01*
G75*
G02*
X155963600Y-120048500I0J237500D01*
G01*
X155963600Y-119473500D01*
G75*
G02*
X156201100Y-119236000I237500J0D01*
G01*
G37*
G36*
G01*
X156201100Y-117486000D02*
X156676100Y-117486000D01*
G75*
G02*
X156913600Y-117723500I0J-237500D01*
G01*
X156913600Y-118298500D01*
G75*
G02*
X156676100Y-118536000I-237500J0D01*
G01*
X156201100Y-118536000D01*
G75*
G02*
X155963600Y-118298500I0J237500D01*
G01*
X155963600Y-117723500D01*
G75*
G02*
X156201100Y-117486000I237500J0D01*
G01*
G37*
G36*
G01*
X164608500Y-91458500D02*
X165083500Y-91458500D01*
G75*
G02*
X165321000Y-91696000I0J-237500D01*
G01*
X165321000Y-92271000D01*
G75*
G02*
X165083500Y-92508500I-237500J0D01*
G01*
X164608500Y-92508500D01*
G75*
G02*
X164371000Y-92271000I0J237500D01*
G01*
X164371000Y-91696000D01*
G75*
G02*
X164608500Y-91458500I237500J0D01*
G01*
G37*
G36*
G01*
X164608500Y-89708500D02*
X165083500Y-89708500D01*
G75*
G02*
X165321000Y-89946000I0J-237500D01*
G01*
X165321000Y-90521000D01*
G75*
G02*
X165083500Y-90758500I-237500J0D01*
G01*
X164608500Y-90758500D01*
G75*
G02*
X164371000Y-90521000I0J237500D01*
G01*
X164371000Y-89946000D01*
G75*
G02*
X164608500Y-89708500I237500J0D01*
G01*
G37*
G36*
G01*
X160392100Y-94979000D02*
X160867100Y-94979000D01*
G75*
G02*
X161104600Y-95216500I0J-237500D01*
G01*
X161104600Y-95791500D01*
G75*
G02*
X160867100Y-96029000I-237500J0D01*
G01*
X160392100Y-96029000D01*
G75*
G02*
X160154600Y-95791500I0J237500D01*
G01*
X160154600Y-95216500D01*
G75*
G02*
X160392100Y-94979000I237500J0D01*
G01*
G37*
G36*
G01*
X160392100Y-93229000D02*
X160867100Y-93229000D01*
G75*
G02*
X161104600Y-93466500I0J-237500D01*
G01*
X161104600Y-94041500D01*
G75*
G02*
X160867100Y-94279000I-237500J0D01*
G01*
X160392100Y-94279000D01*
G75*
G02*
X160154600Y-94041500I0J237500D01*
G01*
X160154600Y-93466500D01*
G75*
G02*
X160392100Y-93229000I237500J0D01*
G01*
G37*
G36*
G01*
X155439100Y-106522000D02*
X155914100Y-106522000D01*
G75*
G02*
X156151600Y-106759500I0J-237500D01*
G01*
X156151600Y-107334500D01*
G75*
G02*
X155914100Y-107572000I-237500J0D01*
G01*
X155439100Y-107572000D01*
G75*
G02*
X155201600Y-107334500I0J237500D01*
G01*
X155201600Y-106759500D01*
G75*
G02*
X155439100Y-106522000I237500J0D01*
G01*
G37*
G36*
G01*
X155439100Y-104772000D02*
X155914100Y-104772000D01*
G75*
G02*
X156151600Y-105009500I0J-237500D01*
G01*
X156151600Y-105584500D01*
G75*
G02*
X155914100Y-105822000I-237500J0D01*
G01*
X155439100Y-105822000D01*
G75*
G02*
X155201600Y-105584500I0J237500D01*
G01*
X155201600Y-105009500D01*
G75*
G02*
X155439100Y-104772000I237500J0D01*
G01*
G37*
G36*
G01*
X143872500Y-93120200D02*
X143872500Y-93595200D01*
G75*
G02*
X143635000Y-93832700I-237500J0D01*
G01*
X143060000Y-93832700D01*
G75*
G02*
X142822500Y-93595200I0J237500D01*
G01*
X142822500Y-93120200D01*
G75*
G02*
X143060000Y-92882700I237500J0D01*
G01*
X143635000Y-92882700D01*
G75*
G02*
X143872500Y-93120200I0J-237500D01*
G01*
G37*
G36*
G01*
X145622500Y-93120200D02*
X145622500Y-93595200D01*
G75*
G02*
X145385000Y-93832700I-237500J0D01*
G01*
X144810000Y-93832700D01*
G75*
G02*
X144572500Y-93595200I0J237500D01*
G01*
X144572500Y-93120200D01*
G75*
G02*
X144810000Y-92882700I237500J0D01*
G01*
X145385000Y-92882700D01*
G75*
G02*
X145622500Y-93120200I0J-237500D01*
G01*
G37*
G36*
G01*
X143872500Y-94745800D02*
X143872500Y-95220800D01*
G75*
G02*
X143635000Y-95458300I-237500J0D01*
G01*
X143060000Y-95458300D01*
G75*
G02*
X142822500Y-95220800I0J237500D01*
G01*
X142822500Y-94745800D01*
G75*
G02*
X143060000Y-94508300I237500J0D01*
G01*
X143635000Y-94508300D01*
G75*
G02*
X143872500Y-94745800I0J-237500D01*
G01*
G37*
G36*
G01*
X145622500Y-94745800D02*
X145622500Y-95220800D01*
G75*
G02*
X145385000Y-95458300I-237500J0D01*
G01*
X144810000Y-95458300D01*
G75*
G02*
X144572500Y-95220800I0J237500D01*
G01*
X144572500Y-94745800D01*
G75*
G02*
X144810000Y-94508300I237500J0D01*
G01*
X145385000Y-94508300D01*
G75*
G02*
X145622500Y-94745800I0J-237500D01*
G01*
G37*
G36*
G01*
X161027100Y-82406000D02*
X161502100Y-82406000D01*
G75*
G02*
X161739600Y-82643500I0J-237500D01*
G01*
X161739600Y-83218500D01*
G75*
G02*
X161502100Y-83456000I-237500J0D01*
G01*
X161027100Y-83456000D01*
G75*
G02*
X160789600Y-83218500I0J237500D01*
G01*
X160789600Y-82643500D01*
G75*
G02*
X161027100Y-82406000I237500J0D01*
G01*
G37*
G36*
G01*
X161027100Y-80656000D02*
X161502100Y-80656000D01*
G75*
G02*
X161739600Y-80893500I0J-237500D01*
G01*
X161739600Y-81468500D01*
G75*
G02*
X161502100Y-81706000I-237500J0D01*
G01*
X161027100Y-81706000D01*
G75*
G02*
X160789600Y-81468500I0J237500D01*
G01*
X160789600Y-80893500D01*
G75*
G02*
X161027100Y-80656000I237500J0D01*
G01*
G37*
D10*
X159613600Y-114300000D03*
X160563600Y-116300000D03*
X158663600Y-116300000D03*
D14*
X165201600Y-102108000D03*
X163201600Y-103058000D03*
X163201600Y-101158000D03*
D10*
X169326600Y-107029000D03*
X168376600Y-105029000D03*
X170276600Y-105029000D03*
D31*
X148463000Y-116408200D03*
X148463000Y-110958200D03*
D32*
X171450000Y-96291400D03*
G36*
G01*
X170700000Y-92941400D02*
X172200000Y-92941400D01*
G75*
G02*
X172450000Y-93191400I0J-250000D01*
G01*
X172450000Y-94391400D01*
G75*
G02*
X172200000Y-94641400I-250000J0D01*
G01*
X170700000Y-94641400D01*
G75*
G02*
X170450000Y-94391400I0J250000D01*
G01*
X170450000Y-93191400D01*
G75*
G02*
X170700000Y-92941400I250000J0D01*
G01*
G37*
D33*
X148564600Y-119354600D03*
X151864600Y-119354600D03*
X176987200Y-106553000D03*
X173687200Y-106553000D03*
G36*
G01*
X167798200Y-90585300D02*
X167798200Y-90110300D01*
G75*
G02*
X168035700Y-89872800I237500J0D01*
G01*
X168610700Y-89872800D01*
G75*
G02*
X168848200Y-90110300I0J-237500D01*
G01*
X168848200Y-90585300D01*
G75*
G02*
X168610700Y-90822800I-237500J0D01*
G01*
X168035700Y-90822800D01*
G75*
G02*
X167798200Y-90585300I0J237500D01*
G01*
G37*
G36*
G01*
X166048200Y-90585300D02*
X166048200Y-90110300D01*
G75*
G02*
X166285700Y-89872800I237500J0D01*
G01*
X166860700Y-89872800D01*
G75*
G02*
X167098200Y-90110300I0J-237500D01*
G01*
X167098200Y-90585300D01*
G75*
G02*
X166860700Y-90822800I-237500J0D01*
G01*
X166285700Y-90822800D01*
G75*
G02*
X166048200Y-90585300I0J237500D01*
G01*
G37*
G36*
G01*
X160203600Y-113013500D02*
X160203600Y-112538500D01*
G75*
G02*
X160441100Y-112301000I237500J0D01*
G01*
X161016100Y-112301000D01*
G75*
G02*
X161253600Y-112538500I0J-237500D01*
G01*
X161253600Y-113013500D01*
G75*
G02*
X161016100Y-113251000I-237500J0D01*
G01*
X160441100Y-113251000D01*
G75*
G02*
X160203600Y-113013500I0J237500D01*
G01*
G37*
G36*
G01*
X158453600Y-113013500D02*
X158453600Y-112538500D01*
G75*
G02*
X158691100Y-112301000I237500J0D01*
G01*
X159266100Y-112301000D01*
G75*
G02*
X159503600Y-112538500I0J-237500D01*
G01*
X159503600Y-113013500D01*
G75*
G02*
X159266100Y-113251000I-237500J0D01*
G01*
X158691100Y-113251000D01*
G75*
G02*
X158453600Y-113013500I0J237500D01*
G01*
G37*
G36*
G01*
X170171100Y-110572000D02*
X170646100Y-110572000D01*
G75*
G02*
X170883600Y-110809500I0J-237500D01*
G01*
X170883600Y-111384500D01*
G75*
G02*
X170646100Y-111622000I-237500J0D01*
G01*
X170171100Y-111622000D01*
G75*
G02*
X169933600Y-111384500I0J237500D01*
G01*
X169933600Y-110809500D01*
G75*
G02*
X170171100Y-110572000I237500J0D01*
G01*
G37*
G36*
G01*
X170171100Y-108822000D02*
X170646100Y-108822000D01*
G75*
G02*
X170883600Y-109059500I0J-237500D01*
G01*
X170883600Y-109634500D01*
G75*
G02*
X170646100Y-109872000I-237500J0D01*
G01*
X170171100Y-109872000D01*
G75*
G02*
X169933600Y-109634500I0J237500D01*
G01*
X169933600Y-109059500D01*
G75*
G02*
X170171100Y-108822000I237500J0D01*
G01*
G37*
G36*
G01*
X162645100Y-113428000D02*
X162170100Y-113428000D01*
G75*
G02*
X161932600Y-113190500I0J237500D01*
G01*
X161932600Y-112615500D01*
G75*
G02*
X162170100Y-112378000I237500J0D01*
G01*
X162645100Y-112378000D01*
G75*
G02*
X162882600Y-112615500I0J-237500D01*
G01*
X162882600Y-113190500D01*
G75*
G02*
X162645100Y-113428000I-237500J0D01*
G01*
G37*
G36*
G01*
X162645100Y-115178000D02*
X162170100Y-115178000D01*
G75*
G02*
X161932600Y-114940500I0J237500D01*
G01*
X161932600Y-114365500D01*
G75*
G02*
X162170100Y-114128000I237500J0D01*
G01*
X162645100Y-114128000D01*
G75*
G02*
X162882600Y-114365500I0J-237500D01*
G01*
X162882600Y-114940500D01*
G75*
G02*
X162645100Y-115178000I-237500J0D01*
G01*
G37*
G36*
G01*
X170646100Y-113428000D02*
X170171100Y-113428000D01*
G75*
G02*
X169933600Y-113190500I0J237500D01*
G01*
X169933600Y-112615500D01*
G75*
G02*
X170171100Y-112378000I237500J0D01*
G01*
X170646100Y-112378000D01*
G75*
G02*
X170883600Y-112615500I0J-237500D01*
G01*
X170883600Y-113190500D01*
G75*
G02*
X170646100Y-113428000I-237500J0D01*
G01*
G37*
G36*
G01*
X170646100Y-115178000D02*
X170171100Y-115178000D01*
G75*
G02*
X169933600Y-114940500I0J237500D01*
G01*
X169933600Y-114365500D01*
G75*
G02*
X170171100Y-114128000I237500J0D01*
G01*
X170646100Y-114128000D01*
G75*
G02*
X170883600Y-114365500I0J-237500D01*
G01*
X170883600Y-114940500D01*
G75*
G02*
X170646100Y-115178000I-237500J0D01*
G01*
G37*
G36*
G01*
X150359100Y-99523000D02*
X150834100Y-99523000D01*
G75*
G02*
X151071600Y-99760500I0J-237500D01*
G01*
X151071600Y-100335500D01*
G75*
G02*
X150834100Y-100573000I-237500J0D01*
G01*
X150359100Y-100573000D01*
G75*
G02*
X150121600Y-100335500I0J237500D01*
G01*
X150121600Y-99760500D01*
G75*
G02*
X150359100Y-99523000I237500J0D01*
G01*
G37*
G36*
G01*
X150359100Y-97773000D02*
X150834100Y-97773000D01*
G75*
G02*
X151071600Y-98010500I0J-237500D01*
G01*
X151071600Y-98585500D01*
G75*
G02*
X150834100Y-98823000I-237500J0D01*
G01*
X150359100Y-98823000D01*
G75*
G02*
X150121600Y-98585500I0J237500D01*
G01*
X150121600Y-98010500D01*
G75*
G02*
X150359100Y-97773000I237500J0D01*
G01*
G37*
G36*
G01*
X144572500Y-90394800D02*
X144572500Y-89919800D01*
G75*
G02*
X144810000Y-89682300I237500J0D01*
G01*
X145385000Y-89682300D01*
G75*
G02*
X145622500Y-89919800I0J-237500D01*
G01*
X145622500Y-90394800D01*
G75*
G02*
X145385000Y-90632300I-237500J0D01*
G01*
X144810000Y-90632300D01*
G75*
G02*
X144572500Y-90394800I0J237500D01*
G01*
G37*
G36*
G01*
X142822500Y-90394800D02*
X142822500Y-89919800D01*
G75*
G02*
X143060000Y-89682300I237500J0D01*
G01*
X143635000Y-89682300D01*
G75*
G02*
X143872500Y-89919800I0J-237500D01*
G01*
X143872500Y-90394800D01*
G75*
G02*
X143635000Y-90632300I-237500J0D01*
G01*
X143060000Y-90632300D01*
G75*
G02*
X142822500Y-90394800I0J237500D01*
G01*
G37*
G36*
G01*
X167344100Y-81678000D02*
X166869100Y-81678000D01*
G75*
G02*
X166631600Y-81440500I0J237500D01*
G01*
X166631600Y-80865500D01*
G75*
G02*
X166869100Y-80628000I237500J0D01*
G01*
X167344100Y-80628000D01*
G75*
G02*
X167581600Y-80865500I0J-237500D01*
G01*
X167581600Y-81440500D01*
G75*
G02*
X167344100Y-81678000I-237500J0D01*
G01*
G37*
G36*
G01*
X167344100Y-83428000D02*
X166869100Y-83428000D01*
G75*
G02*
X166631600Y-83190500I0J237500D01*
G01*
X166631600Y-82615500D01*
G75*
G02*
X166869100Y-82378000I237500J0D01*
G01*
X167344100Y-82378000D01*
G75*
G02*
X167581600Y-82615500I0J-237500D01*
G01*
X167581600Y-83190500D01*
G75*
G02*
X167344100Y-83428000I-237500J0D01*
G01*
G37*
M02*
