G04 #@! TF.GenerationSoftware,KiCad,Pcbnew,(5.1.8)-1*
G04 #@! TF.CreationDate,2021-09-05T10:08:22+02:00*
G04 #@! TF.ProjectId,SuperPower-uC-KiCad,53757065-7250-46f7-9765-722d75432d4b,rev?*
G04 #@! TF.SameCoordinates,Original*
G04 #@! TF.FileFunction,Copper,L4,Bot*
G04 #@! TF.FilePolarity,Positive*
%FSLAX46Y46*%
G04 Gerber Fmt 4.6, Leading zero omitted, Abs format (unit mm)*
G04 Created by KiCad (PCBNEW (5.1.8)-1) date 2021-09-05 10:08:22*
%MOMM*%
%LPD*%
G01*
G04 APERTURE LIST*
G04 #@! TA.AperFunction,SMDPad,CuDef*
%ADD10R,1.000000X1.500000*%
G04 #@! TD*
G04 #@! TA.AperFunction,ComponentPad*
%ADD11O,1.700000X1.700000*%
G04 #@! TD*
G04 #@! TA.AperFunction,ComponentPad*
%ADD12R,1.700000X1.700000*%
G04 #@! TD*
G04 #@! TA.AperFunction,ComponentPad*
%ADD13O,1.900000X1.200000*%
G04 #@! TD*
G04 #@! TA.AperFunction,ComponentPad*
%ADD14C,1.450000*%
G04 #@! TD*
G04 #@! TA.AperFunction,ComponentPad*
%ADD15O,1.750000X1.200000*%
G04 #@! TD*
G04 #@! TA.AperFunction,SMDPad,CuDef*
%ADD16R,1.500000X1.500000*%
G04 #@! TD*
G04 #@! TA.AperFunction,ComponentPad*
%ADD17O,2.000000X1.700000*%
G04 #@! TD*
G04 #@! TA.AperFunction,ViaPad*
%ADD18C,0.600000*%
G04 #@! TD*
G04 #@! TA.AperFunction,ViaPad*
%ADD19C,0.800000*%
G04 #@! TD*
G04 #@! TA.AperFunction,Conductor*
%ADD20C,0.250000*%
G04 #@! TD*
G04 #@! TA.AperFunction,Conductor*
%ADD21C,0.500000*%
G04 #@! TD*
G04 #@! TA.AperFunction,Conductor*
%ADD22C,0.200000*%
G04 #@! TD*
G04 #@! TA.AperFunction,Conductor*
%ADD23C,0.100000*%
G04 #@! TD*
G04 APERTURE END LIST*
D10*
X173822600Y-86233000D03*
X175122600Y-86233000D03*
X157708600Y-116078000D03*
X156408600Y-116078000D03*
X164088600Y-114554000D03*
X162788600Y-114554000D03*
X161488600Y-114554000D03*
D11*
X171043600Y-122047000D03*
X168503600Y-122047000D03*
X165963600Y-122047000D03*
X163423600Y-122047000D03*
X160883600Y-122047000D03*
X158343600Y-122047000D03*
X155803600Y-122047000D03*
X153263600Y-122047000D03*
X150723600Y-122047000D03*
X148183600Y-122047000D03*
X145643600Y-122047000D03*
X143103600Y-122047000D03*
D12*
X140563600Y-122047000D03*
D11*
X135483600Y-104267000D03*
D12*
X135483600Y-101727000D03*
D13*
X134670800Y-114202600D03*
X134670800Y-107202600D03*
D14*
X137370800Y-113202600D03*
X137370800Y-108202600D03*
D11*
X135483600Y-91567000D03*
D12*
X135483600Y-89027000D03*
D15*
X171907200Y-86258400D03*
G04 #@! TA.AperFunction,ComponentPad*
G36*
G01*
X172532201Y-88858400D02*
X171282199Y-88858400D01*
G75*
G02*
X171032200Y-88608401I0J249999D01*
G01*
X171032200Y-87908399D01*
G75*
G02*
X171282199Y-87658400I249999J0D01*
G01*
X172532201Y-87658400D01*
G75*
G02*
X172782200Y-87908399I0J-249999D01*
G01*
X172782200Y-88608401D01*
G75*
G02*
X172532201Y-88858400I-249999J0D01*
G01*
G37*
G04 #@! TD.AperFunction*
D16*
X162864800Y-96291400D03*
D10*
X146486400Y-88773000D03*
X145186400Y-88773000D03*
X143886400Y-88773000D03*
D17*
X171450000Y-96291400D03*
G04 #@! TA.AperFunction,ComponentPad*
G36*
G01*
X170700000Y-92941400D02*
X172200000Y-92941400D01*
G75*
G02*
X172450000Y-93191400I0J-250000D01*
G01*
X172450000Y-94391400D01*
G75*
G02*
X172200000Y-94641400I-250000J0D01*
G01*
X170700000Y-94641400D01*
G75*
G02*
X170450000Y-94391400I0J250000D01*
G01*
X170450000Y-93191400D01*
G75*
G02*
X170700000Y-92941400I250000J0D01*
G01*
G37*
G04 #@! TD.AperFunction*
D18*
X151765000Y-109397800D03*
X141163384Y-109843220D03*
D19*
X160172400Y-85217004D03*
X160193198Y-86059800D03*
D18*
X148399500Y-90208100D03*
X145910300Y-92494100D03*
X143327128Y-106334560D03*
X137261600Y-94615000D03*
X138633200Y-112522026D03*
X138277600Y-114300000D03*
X144881600Y-113665000D03*
X145643600Y-113665000D03*
X146405600Y-113665000D03*
X147167600Y-113665000D03*
X147929600Y-113665000D03*
D19*
X172313600Y-119634000D03*
X159232600Y-118618000D03*
X161391600Y-118491000D03*
X152374600Y-117983000D03*
D18*
X155676600Y-118872000D03*
D19*
X166725600Y-118872000D03*
X161518600Y-120650000D03*
D18*
X159867600Y-99314000D03*
X155295600Y-95504000D03*
D19*
X160121600Y-90932000D03*
D18*
X150723600Y-94361000D03*
X156311600Y-94361000D03*
X156311600Y-87122000D03*
X151485600Y-87122000D03*
D19*
X163221800Y-113104800D03*
X172241768Y-117972364D03*
X171222800Y-113104800D03*
D18*
X169392600Y-111125000D03*
D19*
X153263600Y-98298000D03*
D18*
X159613600Y-116332000D03*
X153918850Y-117495250D03*
D19*
X162052000Y-116001800D03*
D18*
X142341590Y-90170000D03*
X143865600Y-98552000D03*
X143357600Y-98552000D03*
X142595600Y-98425000D03*
X175488600Y-103505000D03*
X177139600Y-105410000D03*
X156057600Y-113411000D03*
X167487606Y-98425000D03*
X164312600Y-98425000D03*
D19*
X169519600Y-97536000D03*
X169519590Y-94996000D03*
D18*
X160756604Y-111125000D03*
X161442396Y-111125000D03*
X166268400Y-92989400D03*
X148844000Y-86690200D03*
X163169600Y-102108000D03*
X166217600Y-101981000D03*
X156438600Y-102870000D03*
X167553658Y-105851942D03*
X159232600Y-105664000D03*
X161772600Y-105536996D03*
X171932600Y-84074000D03*
X158038800Y-88722200D03*
X168323179Y-89659379D03*
X171297600Y-108712000D03*
X165836600Y-103251000D03*
X164084000Y-96291400D03*
X142452662Y-92062454D03*
X141935200Y-88773000D03*
X144030613Y-119126000D03*
X152755600Y-105029000D03*
X158066544Y-105357436D03*
X147391120Y-104874060D03*
X148377611Y-104051648D03*
X143230598Y-119126000D03*
X147405197Y-97011597D03*
X148764900Y-96974300D03*
X154251590Y-105791000D03*
X157327600Y-105663996D03*
X162251598Y-103251000D03*
X157708600Y-116078000D03*
X140055600Y-105346500D03*
X146342100Y-104775000D03*
X148193742Y-106410742D03*
X155854400Y-108229400D03*
X160756598Y-109410500D03*
X160629600Y-105664000D03*
X177808400Y-100139500D03*
X173634400Y-112141000D03*
X168605200Y-113106200D03*
X156464000Y-87960200D03*
X169926000Y-88265000D03*
X171602400Y-91109800D03*
X162915600Y-115747800D03*
X145135600Y-87807800D03*
D20*
X170707190Y-85299410D02*
X171932600Y-84074000D01*
X170707190Y-87058390D02*
X170707190Y-85299410D01*
X171907200Y-88258400D02*
X170707190Y-87058390D01*
D21*
X158038800Y-88722200D02*
X167386000Y-88722200D01*
X167386000Y-88722200D02*
X168323179Y-89659379D01*
D20*
X171297600Y-108712000D02*
X170997601Y-108412001D01*
X170997601Y-108412001D02*
X165836600Y-103251000D01*
X162864800Y-96291400D02*
X164084000Y-96291400D01*
D21*
X173797200Y-86258400D02*
X173822600Y-86233000D01*
X171907200Y-86258400D02*
X173797200Y-86258400D01*
D20*
X142440116Y-92075000D02*
X142452662Y-92062454D01*
X135991600Y-92075000D02*
X142440116Y-92075000D01*
X135483600Y-91567000D02*
X135991600Y-92075000D01*
D21*
X141935200Y-88773000D02*
X143886400Y-88773000D01*
D20*
X156408600Y-121442000D02*
X156408600Y-116078000D01*
X155803600Y-122047000D02*
X156408600Y-121442000D01*
X144030613Y-119341987D02*
X144030613Y-119126000D01*
X143103600Y-120269000D02*
X144030613Y-119341987D01*
X143103600Y-122047000D02*
X143103600Y-120269000D01*
X157748107Y-105038999D02*
X158066544Y-105357436D01*
X152755600Y-105029000D02*
X157738108Y-105029000D01*
X157738108Y-105029000D02*
X157748107Y-105038999D01*
X147555199Y-104874060D02*
X148377611Y-104051648D01*
X147391120Y-104874060D02*
X147555199Y-104874060D01*
X143230598Y-119380002D02*
X143230598Y-119126000D01*
X140563600Y-122047000D02*
X143230598Y-119380002D01*
D22*
X148727603Y-97011597D02*
X148764900Y-96974300D01*
X147405197Y-97011597D02*
X148727603Y-97011597D01*
D20*
X154251590Y-105791000D02*
X157200596Y-105791000D01*
X157200596Y-105791000D02*
X157327600Y-105663996D01*
X161488600Y-113497398D02*
X161488600Y-114554000D01*
X162788600Y-112197398D02*
X161488600Y-113497398D01*
X162788600Y-103788002D02*
X162788600Y-112197398D01*
X162251598Y-103251000D02*
X162788600Y-103788002D01*
X136563100Y-105346500D02*
X140055600Y-105346500D01*
X135483600Y-104267000D02*
X136563100Y-105346500D01*
X146367058Y-104775000D02*
X146342100Y-104775000D01*
X147091119Y-105499061D02*
X146367058Y-104775000D01*
X147282061Y-105499061D02*
X147091119Y-105499061D01*
X148193742Y-106410742D02*
X147282061Y-105499061D01*
X155854400Y-108229400D02*
X159575498Y-108229400D01*
X159575498Y-108229400D02*
X160756598Y-109410500D01*
X160629600Y-107175298D02*
X160629600Y-105664000D01*
X159575498Y-108229400D02*
X160629600Y-107175298D01*
X177808400Y-100139500D02*
X177901600Y-100232700D01*
X177901600Y-100232700D02*
X177901600Y-109956600D01*
X175717200Y-112141000D02*
X173634400Y-112141000D01*
X177901600Y-109956600D02*
X175717200Y-112141000D01*
X167157400Y-114554000D02*
X164088600Y-114554000D01*
X168605200Y-113106200D02*
X167157400Y-114554000D01*
D21*
X169926000Y-89433400D02*
X171602400Y-91109800D01*
X169926000Y-88265000D02*
X169926000Y-89433400D01*
X155651200Y-88773000D02*
X156464000Y-87960200D01*
X146486400Y-88773000D02*
X155651200Y-88773000D01*
D20*
X162915600Y-114681000D02*
X162788600Y-114554000D01*
X162915600Y-115747800D02*
X162915600Y-114681000D01*
D21*
X145135600Y-88722200D02*
X145186400Y-88773000D01*
X145135600Y-87807800D02*
X145135600Y-88722200D01*
D22*
X170414703Y-84976715D02*
X170398112Y-84990331D01*
X170343752Y-85056568D01*
X170303360Y-85132138D01*
X170278485Y-85214136D01*
X170270087Y-85299410D01*
X170272191Y-85320774D01*
X170272190Y-87037036D01*
X170270087Y-87058390D01*
X170272190Y-87079744D01*
X170272190Y-87079751D01*
X170278485Y-87143664D01*
X170303359Y-87225661D01*
X170343751Y-87301231D01*
X170398111Y-87367469D01*
X170414708Y-87381090D01*
X170754993Y-87721375D01*
X170731490Y-87798856D01*
X170720701Y-87908399D01*
X170720701Y-88608401D01*
X170731490Y-88717944D01*
X170763442Y-88823277D01*
X170815330Y-88920353D01*
X170885160Y-89005440D01*
X170970247Y-89075270D01*
X171067323Y-89127158D01*
X171172656Y-89159110D01*
X171282199Y-89169899D01*
X172532201Y-89169899D01*
X172641744Y-89159110D01*
X172747077Y-89127158D01*
X172844153Y-89075270D01*
X172929240Y-89005440D01*
X172999070Y-88920353D01*
X173050958Y-88823277D01*
X173082910Y-88717944D01*
X173093699Y-88608401D01*
X173093699Y-87908399D01*
X173082910Y-87798856D01*
X173050958Y-87693523D01*
X172999070Y-87596447D01*
X172929240Y-87511360D01*
X172844153Y-87441530D01*
X172747077Y-87389642D01*
X172641744Y-87357690D01*
X172532201Y-87346901D01*
X171610883Y-87346901D01*
X171404152Y-87140170D01*
X171453809Y-87155233D01*
X171587496Y-87168400D01*
X172226904Y-87168400D01*
X172360591Y-87155233D01*
X172532127Y-87103198D01*
X172690215Y-87018698D01*
X172828781Y-86904981D01*
X172899835Y-86818400D01*
X173011101Y-86818400D01*
X173011101Y-86983000D01*
X173017086Y-87043770D01*
X173034812Y-87102206D01*
X173063598Y-87156060D01*
X173102337Y-87203263D01*
X173149540Y-87242002D01*
X173203394Y-87270788D01*
X173261830Y-87288514D01*
X173322600Y-87294499D01*
X174322600Y-87294499D01*
X174383370Y-87288514D01*
X174441806Y-87270788D01*
X174483206Y-87248659D01*
X174507239Y-87261505D01*
X174563790Y-87278660D01*
X174622600Y-87284452D01*
X174997600Y-87283000D01*
X175072600Y-87208000D01*
X175072600Y-86283000D01*
X175172600Y-86283000D01*
X175172600Y-87208000D01*
X175247600Y-87283000D01*
X175622600Y-87284452D01*
X175681410Y-87278660D01*
X175737961Y-87261505D01*
X175790078Y-87233648D01*
X175835759Y-87196159D01*
X175873248Y-87150478D01*
X175901105Y-87098361D01*
X175918260Y-87041810D01*
X175924052Y-86983000D01*
X175922600Y-86358000D01*
X175847600Y-86283000D01*
X175172600Y-86283000D01*
X175072600Y-86283000D01*
X175052600Y-86283000D01*
X175052600Y-86183000D01*
X175072600Y-86183000D01*
X175072600Y-85258000D01*
X175172600Y-85258000D01*
X175172600Y-86183000D01*
X175847600Y-86183000D01*
X175922600Y-86108000D01*
X175924052Y-85483000D01*
X175918260Y-85424190D01*
X175901105Y-85367639D01*
X175873248Y-85315522D01*
X175835759Y-85269841D01*
X175790078Y-85232352D01*
X175737961Y-85204495D01*
X175681410Y-85187340D01*
X175622600Y-85181548D01*
X175247600Y-85183000D01*
X175172600Y-85258000D01*
X175072600Y-85258000D01*
X174997600Y-85183000D01*
X174622600Y-85181548D01*
X174563790Y-85187340D01*
X174507239Y-85204495D01*
X174483206Y-85217341D01*
X174441806Y-85195212D01*
X174383370Y-85177486D01*
X174322600Y-85171501D01*
X173322600Y-85171501D01*
X173261830Y-85177486D01*
X173203394Y-85195212D01*
X173149540Y-85223998D01*
X173102337Y-85262737D01*
X173063598Y-85309940D01*
X173034812Y-85363794D01*
X173017086Y-85422230D01*
X173011101Y-85483000D01*
X173011101Y-85698400D01*
X172899835Y-85698400D01*
X172828781Y-85611819D01*
X172690215Y-85498102D01*
X172532127Y-85413602D01*
X172360591Y-85361567D01*
X172226904Y-85348400D01*
X171587496Y-85348400D01*
X171453809Y-85361567D01*
X171282273Y-85413602D01*
X171142190Y-85488478D01*
X171142190Y-85479592D01*
X171685782Y-84936000D01*
X177998400Y-84936000D01*
X177998400Y-99557941D01*
X177986331Y-99552942D01*
X177868480Y-99529500D01*
X177748320Y-99529500D01*
X177630469Y-99552942D01*
X177519456Y-99598925D01*
X177419547Y-99665682D01*
X177334582Y-99750647D01*
X177267825Y-99850556D01*
X177221842Y-99961569D01*
X177198400Y-100079420D01*
X177198400Y-100199580D01*
X177221842Y-100317431D01*
X177267825Y-100428444D01*
X177334582Y-100528353D01*
X177419547Y-100613318D01*
X177466600Y-100644758D01*
X177466601Y-109776416D01*
X175537018Y-111706000D01*
X174062071Y-111706000D01*
X174023253Y-111667182D01*
X173923344Y-111600425D01*
X173812331Y-111554442D01*
X173694480Y-111531000D01*
X173574320Y-111531000D01*
X173456469Y-111554442D01*
X173345456Y-111600425D01*
X173245547Y-111667182D01*
X173160582Y-111752147D01*
X173093825Y-111852056D01*
X173047842Y-111963069D01*
X173024400Y-112080920D01*
X173024400Y-112201080D01*
X173047842Y-112318931D01*
X173093825Y-112429944D01*
X173160582Y-112529853D01*
X173245547Y-112614818D01*
X173345456Y-112681575D01*
X173456469Y-112727558D01*
X173574320Y-112751000D01*
X173694480Y-112751000D01*
X173812331Y-112727558D01*
X173923344Y-112681575D01*
X174023253Y-112614818D01*
X174062071Y-112576000D01*
X175695846Y-112576000D01*
X175717200Y-112578103D01*
X175738554Y-112576000D01*
X175738562Y-112576000D01*
X175802475Y-112569705D01*
X175884472Y-112544831D01*
X175960042Y-112504439D01*
X176026279Y-112450079D01*
X176039900Y-112433482D01*
X177998401Y-110474982D01*
X177998401Y-120811408D01*
X177953863Y-121265640D01*
X177826705Y-121686808D01*
X177620166Y-122075251D01*
X177342111Y-122416181D01*
X177003129Y-122696611D01*
X176616136Y-122905858D01*
X176195870Y-123035952D01*
X175742547Y-123083598D01*
X175742007Y-123083600D01*
X171572253Y-123083600D01*
X171593066Y-123074979D01*
X171783057Y-122948031D01*
X171944631Y-122786457D01*
X172071579Y-122596466D01*
X172159022Y-122385360D01*
X172203600Y-122161250D01*
X172203600Y-121932750D01*
X172159022Y-121708640D01*
X172071579Y-121497534D01*
X171944631Y-121307543D01*
X171783057Y-121145969D01*
X171593066Y-121019021D01*
X171381960Y-120931578D01*
X171157850Y-120887000D01*
X170929350Y-120887000D01*
X170705240Y-120931578D01*
X170494134Y-121019021D01*
X170304143Y-121145969D01*
X170142569Y-121307543D01*
X170015621Y-121497534D01*
X169928178Y-121708640D01*
X169883600Y-121932750D01*
X169883600Y-122161250D01*
X169928178Y-122385360D01*
X170015621Y-122596466D01*
X170142569Y-122786457D01*
X170304143Y-122948031D01*
X170494134Y-123074979D01*
X170514947Y-123083600D01*
X169032253Y-123083600D01*
X169053066Y-123074979D01*
X169243057Y-122948031D01*
X169404631Y-122786457D01*
X169531579Y-122596466D01*
X169619022Y-122385360D01*
X169663600Y-122161250D01*
X169663600Y-121932750D01*
X169619022Y-121708640D01*
X169531579Y-121497534D01*
X169404631Y-121307543D01*
X169243057Y-121145969D01*
X169053066Y-121019021D01*
X168841960Y-120931578D01*
X168617850Y-120887000D01*
X168389350Y-120887000D01*
X168165240Y-120931578D01*
X167954134Y-121019021D01*
X167764143Y-121145969D01*
X167602569Y-121307543D01*
X167475621Y-121497534D01*
X167388178Y-121708640D01*
X167343600Y-121932750D01*
X167343600Y-122161250D01*
X167388178Y-122385360D01*
X167475621Y-122596466D01*
X167602569Y-122786457D01*
X167764143Y-122948031D01*
X167954134Y-123074979D01*
X167974947Y-123083600D01*
X166451573Y-123083600D01*
X166598464Y-123005881D01*
X166773334Y-122863600D01*
X166917086Y-122689938D01*
X167024196Y-122491568D01*
X167090548Y-122276114D01*
X167037515Y-122097000D01*
X166013600Y-122097000D01*
X166013600Y-122117000D01*
X165913600Y-122117000D01*
X165913600Y-122097000D01*
X164889685Y-122097000D01*
X164836652Y-122276114D01*
X164903004Y-122491568D01*
X165010114Y-122689938D01*
X165153866Y-122863600D01*
X165328736Y-123005881D01*
X165475627Y-123083600D01*
X163952253Y-123083600D01*
X163973066Y-123074979D01*
X164163057Y-122948031D01*
X164324631Y-122786457D01*
X164451579Y-122596466D01*
X164539022Y-122385360D01*
X164583600Y-122161250D01*
X164583600Y-121932750D01*
X164560753Y-121817886D01*
X164836652Y-121817886D01*
X164889685Y-121997000D01*
X165913600Y-121997000D01*
X165913600Y-120973163D01*
X166013600Y-120973163D01*
X166013600Y-121997000D01*
X167037515Y-121997000D01*
X167090548Y-121817886D01*
X167024196Y-121602432D01*
X166917086Y-121404062D01*
X166773334Y-121230400D01*
X166598464Y-121088119D01*
X166399197Y-120982688D01*
X166192714Y-120920054D01*
X166013600Y-120973163D01*
X165913600Y-120973163D01*
X165734486Y-120920054D01*
X165528003Y-120982688D01*
X165328736Y-121088119D01*
X165153866Y-121230400D01*
X165010114Y-121404062D01*
X164903004Y-121602432D01*
X164836652Y-121817886D01*
X164560753Y-121817886D01*
X164539022Y-121708640D01*
X164451579Y-121497534D01*
X164324631Y-121307543D01*
X164163057Y-121145969D01*
X163973066Y-121019021D01*
X163761960Y-120931578D01*
X163537850Y-120887000D01*
X163309350Y-120887000D01*
X163085240Y-120931578D01*
X162874134Y-121019021D01*
X162684143Y-121145969D01*
X162522569Y-121307543D01*
X162395621Y-121497534D01*
X162308178Y-121708640D01*
X162263600Y-121932750D01*
X162263600Y-122161250D01*
X162308178Y-122385360D01*
X162395621Y-122596466D01*
X162522569Y-122786457D01*
X162684143Y-122948031D01*
X162874134Y-123074979D01*
X162894947Y-123083600D01*
X161412253Y-123083600D01*
X161433066Y-123074979D01*
X161623057Y-122948031D01*
X161784631Y-122786457D01*
X161911579Y-122596466D01*
X161999022Y-122385360D01*
X162043600Y-122161250D01*
X162043600Y-121932750D01*
X161999022Y-121708640D01*
X161911579Y-121497534D01*
X161784631Y-121307543D01*
X161623057Y-121145969D01*
X161433066Y-121019021D01*
X161221960Y-120931578D01*
X160997850Y-120887000D01*
X160769350Y-120887000D01*
X160545240Y-120931578D01*
X160334134Y-121019021D01*
X160144143Y-121145969D01*
X159982569Y-121307543D01*
X159855621Y-121497534D01*
X159768178Y-121708640D01*
X159723600Y-121932750D01*
X159723600Y-122161250D01*
X159768178Y-122385360D01*
X159855621Y-122596466D01*
X159982569Y-122786457D01*
X160144143Y-122948031D01*
X160334134Y-123074979D01*
X160354947Y-123083600D01*
X158872253Y-123083600D01*
X158893066Y-123074979D01*
X159083057Y-122948031D01*
X159244631Y-122786457D01*
X159371579Y-122596466D01*
X159459022Y-122385360D01*
X159503600Y-122161250D01*
X159503600Y-121932750D01*
X159459022Y-121708640D01*
X159371579Y-121497534D01*
X159244631Y-121307543D01*
X159083057Y-121145969D01*
X158893066Y-121019021D01*
X158681960Y-120931578D01*
X158457850Y-120887000D01*
X158229350Y-120887000D01*
X158005240Y-120931578D01*
X157794134Y-121019021D01*
X157604143Y-121145969D01*
X157442569Y-121307543D01*
X157315621Y-121497534D01*
X157228178Y-121708640D01*
X157183600Y-121932750D01*
X157183600Y-122161250D01*
X157228178Y-122385360D01*
X157315621Y-122596466D01*
X157442569Y-122786457D01*
X157604143Y-122948031D01*
X157794134Y-123074979D01*
X157814947Y-123083600D01*
X156332253Y-123083600D01*
X156353066Y-123074979D01*
X156543057Y-122948031D01*
X156704631Y-122786457D01*
X156831579Y-122596466D01*
X156919022Y-122385360D01*
X156963600Y-122161250D01*
X156963600Y-121932750D01*
X156919022Y-121708640D01*
X156838572Y-121514415D01*
X156840739Y-121492410D01*
X156843600Y-121463362D01*
X156843600Y-121463355D01*
X156845703Y-121442001D01*
X156843600Y-121420647D01*
X156843600Y-120689704D01*
X174108000Y-120689704D01*
X174108000Y-121016696D01*
X174171793Y-121337404D01*
X174296927Y-121639505D01*
X174478594Y-121911388D01*
X174709812Y-122142606D01*
X174981695Y-122324273D01*
X175283796Y-122449407D01*
X175604504Y-122513200D01*
X175931496Y-122513200D01*
X176252204Y-122449407D01*
X176554305Y-122324273D01*
X176826188Y-122142606D01*
X177057406Y-121911388D01*
X177239073Y-121639505D01*
X177364207Y-121337404D01*
X177428000Y-121016696D01*
X177428000Y-120689704D01*
X177364207Y-120368996D01*
X177239073Y-120066895D01*
X177057406Y-119795012D01*
X176826188Y-119563794D01*
X176554305Y-119382127D01*
X176252204Y-119256993D01*
X175931496Y-119193200D01*
X175604504Y-119193200D01*
X175283796Y-119256993D01*
X174981695Y-119382127D01*
X174709812Y-119563794D01*
X174478594Y-119795012D01*
X174296927Y-120066895D01*
X174171793Y-120368996D01*
X174108000Y-120689704D01*
X156843600Y-120689704D01*
X156843600Y-117139499D01*
X156908600Y-117139499D01*
X156969370Y-117133514D01*
X157027806Y-117115788D01*
X157058600Y-117099328D01*
X157089394Y-117115788D01*
X157147830Y-117133514D01*
X157208600Y-117139499D01*
X158208600Y-117139499D01*
X158269370Y-117133514D01*
X158327806Y-117115788D01*
X158381660Y-117087002D01*
X158428863Y-117048263D01*
X158467602Y-117001060D01*
X158496388Y-116947206D01*
X158514114Y-116888770D01*
X158520099Y-116828000D01*
X158520099Y-115328000D01*
X158514114Y-115267230D01*
X158496388Y-115208794D01*
X158467602Y-115154940D01*
X158428863Y-115107737D01*
X158381660Y-115068998D01*
X158327806Y-115040212D01*
X158269370Y-115022486D01*
X158208600Y-115016501D01*
X157208600Y-115016501D01*
X157147830Y-115022486D01*
X157089394Y-115040212D01*
X157058600Y-115056672D01*
X157027806Y-115040212D01*
X156969370Y-115022486D01*
X156908600Y-115016501D01*
X155908600Y-115016501D01*
X155847830Y-115022486D01*
X155789394Y-115040212D01*
X155735540Y-115068998D01*
X155688337Y-115107737D01*
X155649598Y-115154940D01*
X155620812Y-115208794D01*
X155603086Y-115267230D01*
X155597101Y-115328000D01*
X155597101Y-116828000D01*
X155603086Y-116888770D01*
X155620812Y-116947206D01*
X155649598Y-117001060D01*
X155688337Y-117048263D01*
X155735540Y-117087002D01*
X155789394Y-117115788D01*
X155847830Y-117133514D01*
X155908600Y-117139499D01*
X155973601Y-117139499D01*
X155973600Y-120898089D01*
X155917850Y-120887000D01*
X155689350Y-120887000D01*
X155465240Y-120931578D01*
X155254134Y-121019021D01*
X155064143Y-121145969D01*
X154902569Y-121307543D01*
X154775621Y-121497534D01*
X154688178Y-121708640D01*
X154643600Y-121932750D01*
X154643600Y-122161250D01*
X154688178Y-122385360D01*
X154775621Y-122596466D01*
X154902569Y-122786457D01*
X155064143Y-122948031D01*
X155254134Y-123074979D01*
X155274947Y-123083600D01*
X153792253Y-123083600D01*
X153813066Y-123074979D01*
X154003057Y-122948031D01*
X154164631Y-122786457D01*
X154291579Y-122596466D01*
X154379022Y-122385360D01*
X154423600Y-122161250D01*
X154423600Y-121932750D01*
X154379022Y-121708640D01*
X154291579Y-121497534D01*
X154164631Y-121307543D01*
X154003057Y-121145969D01*
X153813066Y-121019021D01*
X153601960Y-120931578D01*
X153377850Y-120887000D01*
X153149350Y-120887000D01*
X152925240Y-120931578D01*
X152714134Y-121019021D01*
X152524143Y-121145969D01*
X152362569Y-121307543D01*
X152235621Y-121497534D01*
X152148178Y-121708640D01*
X152103600Y-121932750D01*
X152103600Y-122161250D01*
X152148178Y-122385360D01*
X152235621Y-122596466D01*
X152362569Y-122786457D01*
X152524143Y-122948031D01*
X152714134Y-123074979D01*
X152734947Y-123083600D01*
X151252253Y-123083600D01*
X151273066Y-123074979D01*
X151463057Y-122948031D01*
X151624631Y-122786457D01*
X151751579Y-122596466D01*
X151839022Y-122385360D01*
X151883600Y-122161250D01*
X151883600Y-121932750D01*
X151839022Y-121708640D01*
X151751579Y-121497534D01*
X151624631Y-121307543D01*
X151463057Y-121145969D01*
X151273066Y-121019021D01*
X151061960Y-120931578D01*
X150837850Y-120887000D01*
X150609350Y-120887000D01*
X150385240Y-120931578D01*
X150174134Y-121019021D01*
X149984143Y-121145969D01*
X149822569Y-121307543D01*
X149695621Y-121497534D01*
X149608178Y-121708640D01*
X149563600Y-121932750D01*
X149563600Y-122161250D01*
X149608178Y-122385360D01*
X149695621Y-122596466D01*
X149822569Y-122786457D01*
X149984143Y-122948031D01*
X150174134Y-123074979D01*
X150194947Y-123083600D01*
X148712253Y-123083600D01*
X148733066Y-123074979D01*
X148923057Y-122948031D01*
X149084631Y-122786457D01*
X149211579Y-122596466D01*
X149299022Y-122385360D01*
X149343600Y-122161250D01*
X149343600Y-121932750D01*
X149299022Y-121708640D01*
X149211579Y-121497534D01*
X149084631Y-121307543D01*
X148923057Y-121145969D01*
X148733066Y-121019021D01*
X148521960Y-120931578D01*
X148297850Y-120887000D01*
X148069350Y-120887000D01*
X147845240Y-120931578D01*
X147634134Y-121019021D01*
X147444143Y-121145969D01*
X147282569Y-121307543D01*
X147155621Y-121497534D01*
X147068178Y-121708640D01*
X147023600Y-121932750D01*
X147023600Y-122161250D01*
X147068178Y-122385360D01*
X147155621Y-122596466D01*
X147282569Y-122786457D01*
X147444143Y-122948031D01*
X147634134Y-123074979D01*
X147654947Y-123083600D01*
X146131573Y-123083600D01*
X146278464Y-123005881D01*
X146453334Y-122863600D01*
X146597086Y-122689938D01*
X146704196Y-122491568D01*
X146770548Y-122276114D01*
X146717515Y-122097000D01*
X145693600Y-122097000D01*
X145693600Y-122117000D01*
X145593600Y-122117000D01*
X145593600Y-122097000D01*
X144569685Y-122097000D01*
X144516652Y-122276114D01*
X144583004Y-122491568D01*
X144690114Y-122689938D01*
X144833866Y-122863600D01*
X145008736Y-123005881D01*
X145155627Y-123083600D01*
X143632253Y-123083600D01*
X143653066Y-123074979D01*
X143843057Y-122948031D01*
X144004631Y-122786457D01*
X144131579Y-122596466D01*
X144219022Y-122385360D01*
X144263600Y-122161250D01*
X144263600Y-121932750D01*
X144240753Y-121817886D01*
X144516652Y-121817886D01*
X144569685Y-121997000D01*
X145593600Y-121997000D01*
X145593600Y-120973163D01*
X145693600Y-120973163D01*
X145693600Y-121997000D01*
X146717515Y-121997000D01*
X146770548Y-121817886D01*
X146704196Y-121602432D01*
X146597086Y-121404062D01*
X146453334Y-121230400D01*
X146278464Y-121088119D01*
X146079197Y-120982688D01*
X145872714Y-120920054D01*
X145693600Y-120973163D01*
X145593600Y-120973163D01*
X145414486Y-120920054D01*
X145208003Y-120982688D01*
X145008736Y-121088119D01*
X144833866Y-121230400D01*
X144690114Y-121404062D01*
X144583004Y-121602432D01*
X144516652Y-121817886D01*
X144240753Y-121817886D01*
X144219022Y-121708640D01*
X144131579Y-121497534D01*
X144004631Y-121307543D01*
X143843057Y-121145969D01*
X143653066Y-121019021D01*
X143538600Y-120971608D01*
X143538600Y-120449182D01*
X144323102Y-119664681D01*
X144326215Y-119662126D01*
X144419466Y-119599818D01*
X144504431Y-119514853D01*
X144571188Y-119414944D01*
X144617171Y-119303931D01*
X144640613Y-119186080D01*
X144640613Y-119065920D01*
X144617171Y-118948069D01*
X144571188Y-118837056D01*
X144504431Y-118737147D01*
X144419466Y-118652182D01*
X144319557Y-118585425D01*
X144208544Y-118539442D01*
X144090693Y-118516000D01*
X143970533Y-118516000D01*
X143852682Y-118539442D01*
X143741669Y-118585425D01*
X143641760Y-118652182D01*
X143630606Y-118663337D01*
X143619451Y-118652182D01*
X143519542Y-118585425D01*
X143408529Y-118539442D01*
X143290678Y-118516000D01*
X143170518Y-118516000D01*
X143052667Y-118539442D01*
X142941654Y-118585425D01*
X142841745Y-118652182D01*
X142756780Y-118737147D01*
X142690023Y-118837056D01*
X142644040Y-118948069D01*
X142620598Y-119065920D01*
X142620598Y-119186080D01*
X142644040Y-119303931D01*
X142657937Y-119337480D01*
X141109917Y-120885501D01*
X139713600Y-120885501D01*
X139652830Y-120891486D01*
X139594394Y-120909212D01*
X139540540Y-120937998D01*
X139493337Y-120976737D01*
X139454598Y-121023940D01*
X139425812Y-121077794D01*
X139408086Y-121136230D01*
X139402101Y-121197000D01*
X139402101Y-122897000D01*
X139408086Y-122957770D01*
X139425812Y-123016206D01*
X139454598Y-123070060D01*
X139465710Y-123083600D01*
X135779382Y-123083600D01*
X135335027Y-123040030D01*
X134923355Y-122915740D01*
X134543661Y-122713854D01*
X134210414Y-122442065D01*
X133936303Y-122110721D01*
X133731773Y-121732450D01*
X133604611Y-121321656D01*
X133558001Y-120878190D01*
X133557998Y-120877429D01*
X133557998Y-120877428D01*
X133557551Y-120689704D01*
X134103000Y-120689704D01*
X134103000Y-121016696D01*
X134166793Y-121337404D01*
X134291927Y-121639505D01*
X134473594Y-121911388D01*
X134704812Y-122142606D01*
X134976695Y-122324273D01*
X135278796Y-122449407D01*
X135599504Y-122513200D01*
X135926496Y-122513200D01*
X136247204Y-122449407D01*
X136549305Y-122324273D01*
X136821188Y-122142606D01*
X137052406Y-121911388D01*
X137234073Y-121639505D01*
X137359207Y-121337404D01*
X137423000Y-121016696D01*
X137423000Y-120689704D01*
X137359207Y-120368996D01*
X137234073Y-120066895D01*
X137052406Y-119795012D01*
X136821188Y-119563794D01*
X136549305Y-119382127D01*
X136247204Y-119256993D01*
X135926496Y-119193200D01*
X135599504Y-119193200D01*
X135278796Y-119256993D01*
X134976695Y-119382127D01*
X134704812Y-119563794D01*
X134473594Y-119795012D01*
X134291927Y-120066895D01*
X134166793Y-120368996D01*
X134103000Y-120689704D01*
X133557551Y-120689704D01*
X133552920Y-118745005D01*
X133557969Y-114705876D01*
X133560502Y-114710615D01*
X133674219Y-114849181D01*
X133812785Y-114962898D01*
X133970873Y-115047398D01*
X134142409Y-115099433D01*
X134276096Y-115112600D01*
X135065504Y-115112600D01*
X135199191Y-115099433D01*
X135370727Y-115047398D01*
X135528815Y-114962898D01*
X135667381Y-114849181D01*
X135781098Y-114710615D01*
X135865598Y-114552527D01*
X135917633Y-114380991D01*
X135935203Y-114202600D01*
X135917633Y-114024209D01*
X135865598Y-113852673D01*
X135781098Y-113694585D01*
X135667381Y-113556019D01*
X135528815Y-113442302D01*
X135370727Y-113357802D01*
X135199191Y-113305767D01*
X135065504Y-113292600D01*
X134276096Y-113292600D01*
X134142409Y-113305767D01*
X133970873Y-113357802D01*
X133812785Y-113442302D01*
X133674219Y-113556019D01*
X133560502Y-113694585D01*
X133558000Y-113699266D01*
X133558000Y-113100661D01*
X136335800Y-113100661D01*
X136335800Y-113304539D01*
X136375574Y-113504498D01*
X136453595Y-113692856D01*
X136566863Y-113862374D01*
X136711026Y-114006537D01*
X136880544Y-114119805D01*
X137068902Y-114197826D01*
X137268861Y-114237600D01*
X137472739Y-114237600D01*
X137672698Y-114197826D01*
X137861056Y-114119805D01*
X138030574Y-114006537D01*
X138174737Y-113862374D01*
X138213741Y-113804000D01*
X160677101Y-113804000D01*
X160677101Y-115304000D01*
X160683086Y-115364770D01*
X160700812Y-115423206D01*
X160729598Y-115477060D01*
X160768337Y-115524263D01*
X160815540Y-115563002D01*
X160869394Y-115591788D01*
X160927830Y-115609514D01*
X160988600Y-115615499D01*
X161988600Y-115615499D01*
X162049370Y-115609514D01*
X162107806Y-115591788D01*
X162138600Y-115575328D01*
X162169394Y-115591788D01*
X162227830Y-115609514D01*
X162288600Y-115615499D01*
X162319966Y-115615499D01*
X162305600Y-115687720D01*
X162305600Y-115807880D01*
X162329042Y-115925731D01*
X162375025Y-116036744D01*
X162441782Y-116136653D01*
X162526747Y-116221618D01*
X162626656Y-116288375D01*
X162737669Y-116334358D01*
X162855520Y-116357800D01*
X162975680Y-116357800D01*
X163093531Y-116334358D01*
X163204544Y-116288375D01*
X163304453Y-116221618D01*
X163389418Y-116136653D01*
X163456175Y-116036744D01*
X163502158Y-115925731D01*
X163525600Y-115807880D01*
X163525600Y-115687720D01*
X163508902Y-115603772D01*
X163527830Y-115609514D01*
X163588600Y-115615499D01*
X164588600Y-115615499D01*
X164649370Y-115609514D01*
X164707806Y-115591788D01*
X164761660Y-115563002D01*
X164808863Y-115524263D01*
X164847602Y-115477060D01*
X164876388Y-115423206D01*
X164894114Y-115364770D01*
X164900099Y-115304000D01*
X164900099Y-114989000D01*
X167136046Y-114989000D01*
X167157400Y-114991103D01*
X167178754Y-114989000D01*
X167178762Y-114989000D01*
X167242675Y-114982705D01*
X167324672Y-114957831D01*
X167400242Y-114917439D01*
X167466479Y-114863079D01*
X167480100Y-114846482D01*
X168610383Y-113716200D01*
X168665280Y-113716200D01*
X168783131Y-113692758D01*
X168894144Y-113646775D01*
X168994053Y-113580018D01*
X169079018Y-113495053D01*
X169145775Y-113395144D01*
X169191758Y-113284131D01*
X169215200Y-113166280D01*
X169215200Y-113046120D01*
X169191758Y-112928269D01*
X169145775Y-112817256D01*
X169079018Y-112717347D01*
X168994053Y-112632382D01*
X168894144Y-112565625D01*
X168783131Y-112519642D01*
X168665280Y-112496200D01*
X168545120Y-112496200D01*
X168427269Y-112519642D01*
X168316256Y-112565625D01*
X168216347Y-112632382D01*
X168131382Y-112717347D01*
X168064625Y-112817256D01*
X168018642Y-112928269D01*
X167995200Y-113046120D01*
X167995200Y-113101017D01*
X166977218Y-114119000D01*
X164900099Y-114119000D01*
X164900099Y-113804000D01*
X164894114Y-113743230D01*
X164876388Y-113684794D01*
X164847602Y-113630940D01*
X164808863Y-113583737D01*
X164761660Y-113544998D01*
X164707806Y-113516212D01*
X164649370Y-113498486D01*
X164588600Y-113492501D01*
X163588600Y-113492501D01*
X163527830Y-113498486D01*
X163469394Y-113516212D01*
X163438600Y-113532672D01*
X163407806Y-113516212D01*
X163349370Y-113498486D01*
X163288600Y-113492501D01*
X162288600Y-113492501D01*
X162227830Y-113498486D01*
X162169394Y-113516212D01*
X162138600Y-113532672D01*
X162107806Y-113516212D01*
X162090283Y-113510897D01*
X163081082Y-112520098D01*
X163097679Y-112506477D01*
X163152039Y-112440240D01*
X163182184Y-112383842D01*
X163192431Y-112364671D01*
X163217305Y-112282673D01*
X163223600Y-112218760D01*
X163223600Y-112218752D01*
X163225703Y-112197398D01*
X163223600Y-112176044D01*
X163223600Y-103809364D01*
X163225704Y-103788002D01*
X163217305Y-103702727D01*
X163192431Y-103620729D01*
X163152039Y-103545160D01*
X163111297Y-103495516D01*
X163111295Y-103495514D01*
X163097679Y-103478923D01*
X163081089Y-103465308D01*
X162861598Y-103245817D01*
X162861598Y-103190920D01*
X165226600Y-103190920D01*
X165226600Y-103311080D01*
X165250042Y-103428931D01*
X165296025Y-103539944D01*
X165362782Y-103639853D01*
X165447747Y-103724818D01*
X165547656Y-103791575D01*
X165658669Y-103837558D01*
X165776520Y-103861000D01*
X165831418Y-103861000D01*
X170687600Y-108717182D01*
X170687600Y-108772080D01*
X170711042Y-108889931D01*
X170757025Y-109000944D01*
X170823782Y-109100853D01*
X170908747Y-109185818D01*
X171008656Y-109252575D01*
X171119669Y-109298558D01*
X171237520Y-109322000D01*
X171357680Y-109322000D01*
X171475531Y-109298558D01*
X171586544Y-109252575D01*
X171686453Y-109185818D01*
X171771418Y-109100853D01*
X171838175Y-109000944D01*
X171884158Y-108889931D01*
X171907600Y-108772080D01*
X171907600Y-108651920D01*
X171884158Y-108534069D01*
X171838175Y-108423056D01*
X171771418Y-108323147D01*
X171686453Y-108238182D01*
X171586544Y-108171425D01*
X171475531Y-108125442D01*
X171357680Y-108102000D01*
X171302782Y-108102000D01*
X166446600Y-103245818D01*
X166446600Y-103190920D01*
X166423158Y-103073069D01*
X166377175Y-102962056D01*
X166310418Y-102862147D01*
X166225453Y-102777182D01*
X166125544Y-102710425D01*
X166014531Y-102664442D01*
X165896680Y-102641000D01*
X165776520Y-102641000D01*
X165658669Y-102664442D01*
X165547656Y-102710425D01*
X165447747Y-102777182D01*
X165362782Y-102862147D01*
X165296025Y-102962056D01*
X165250042Y-103073069D01*
X165226600Y-103190920D01*
X162861598Y-103190920D01*
X162838156Y-103073069D01*
X162792173Y-102962056D01*
X162725416Y-102862147D01*
X162640451Y-102777182D01*
X162540542Y-102710425D01*
X162429529Y-102664442D01*
X162311678Y-102641000D01*
X162191518Y-102641000D01*
X162073667Y-102664442D01*
X161962654Y-102710425D01*
X161862745Y-102777182D01*
X161777780Y-102862147D01*
X161711023Y-102962056D01*
X161665040Y-103073069D01*
X161641598Y-103190920D01*
X161641598Y-103311080D01*
X161665040Y-103428931D01*
X161711023Y-103539944D01*
X161777780Y-103639853D01*
X161862745Y-103724818D01*
X161962654Y-103791575D01*
X162073667Y-103837558D01*
X162191518Y-103861000D01*
X162246415Y-103861000D01*
X162353600Y-103968185D01*
X162353601Y-112017215D01*
X161196118Y-113174698D01*
X161179521Y-113188319D01*
X161125161Y-113254557D01*
X161084769Y-113330127D01*
X161059895Y-113412124D01*
X161053600Y-113476037D01*
X161053600Y-113476044D01*
X161051979Y-113492501D01*
X160988600Y-113492501D01*
X160927830Y-113498486D01*
X160869394Y-113516212D01*
X160815540Y-113544998D01*
X160768337Y-113583737D01*
X160729598Y-113630940D01*
X160700812Y-113684794D01*
X160683086Y-113743230D01*
X160677101Y-113804000D01*
X138213741Y-113804000D01*
X138288005Y-113692856D01*
X138366026Y-113504498D01*
X138405800Y-113304539D01*
X138405800Y-113100661D01*
X138366026Y-112900702D01*
X138288005Y-112712344D01*
X138174737Y-112542826D01*
X138030574Y-112398663D01*
X137861056Y-112285395D01*
X137672698Y-112207374D01*
X137472739Y-112167600D01*
X137268861Y-112167600D01*
X137068902Y-112207374D01*
X136880544Y-112285395D01*
X136711026Y-112398663D01*
X136566863Y-112542826D01*
X136453595Y-112712344D01*
X136375574Y-112900702D01*
X136335800Y-113100661D01*
X133558000Y-113100661D01*
X133558000Y-107705934D01*
X133560502Y-107710615D01*
X133674219Y-107849181D01*
X133812785Y-107962898D01*
X133970873Y-108047398D01*
X134142409Y-108099433D01*
X134276096Y-108112600D01*
X135065504Y-108112600D01*
X135186722Y-108100661D01*
X136335800Y-108100661D01*
X136335800Y-108304539D01*
X136375574Y-108504498D01*
X136453595Y-108692856D01*
X136566863Y-108862374D01*
X136711026Y-109006537D01*
X136880544Y-109119805D01*
X137068902Y-109197826D01*
X137268861Y-109237600D01*
X137472739Y-109237600D01*
X137672698Y-109197826D01*
X137861056Y-109119805D01*
X138030574Y-109006537D01*
X138174737Y-108862374D01*
X138288005Y-108692856D01*
X138366026Y-108504498D01*
X138405800Y-108304539D01*
X138405800Y-108169320D01*
X155244400Y-108169320D01*
X155244400Y-108289480D01*
X155267842Y-108407331D01*
X155313825Y-108518344D01*
X155380582Y-108618253D01*
X155465547Y-108703218D01*
X155565456Y-108769975D01*
X155676469Y-108815958D01*
X155794320Y-108839400D01*
X155914480Y-108839400D01*
X156032331Y-108815958D01*
X156143344Y-108769975D01*
X156243253Y-108703218D01*
X156282071Y-108664400D01*
X159395316Y-108664400D01*
X160146598Y-109415682D01*
X160146598Y-109470580D01*
X160170040Y-109588431D01*
X160216023Y-109699444D01*
X160282780Y-109799353D01*
X160367745Y-109884318D01*
X160467654Y-109951075D01*
X160578667Y-109997058D01*
X160696518Y-110020500D01*
X160816678Y-110020500D01*
X160934529Y-109997058D01*
X161045542Y-109951075D01*
X161145451Y-109884318D01*
X161230416Y-109799353D01*
X161297173Y-109699444D01*
X161343156Y-109588431D01*
X161366598Y-109470580D01*
X161366598Y-109350420D01*
X161343156Y-109232569D01*
X161297173Y-109121556D01*
X161230416Y-109021647D01*
X161145451Y-108936682D01*
X161045542Y-108869925D01*
X160934529Y-108823942D01*
X160816678Y-108800500D01*
X160761780Y-108800500D01*
X160190680Y-108229400D01*
X160922089Y-107497992D01*
X160938679Y-107484377D01*
X160993039Y-107418140D01*
X161033431Y-107342570D01*
X161058305Y-107260573D01*
X161064600Y-107196660D01*
X161064600Y-107196653D01*
X161066703Y-107175299D01*
X161064600Y-107153945D01*
X161064600Y-106091671D01*
X161103418Y-106052853D01*
X161170175Y-105952944D01*
X161216158Y-105841931D01*
X161239600Y-105724080D01*
X161239600Y-105603920D01*
X161216158Y-105486069D01*
X161170175Y-105375056D01*
X161103418Y-105275147D01*
X161018453Y-105190182D01*
X160918544Y-105123425D01*
X160807531Y-105077442D01*
X160689680Y-105054000D01*
X160569520Y-105054000D01*
X160451669Y-105077442D01*
X160340656Y-105123425D01*
X160240747Y-105190182D01*
X160155782Y-105275147D01*
X160089025Y-105375056D01*
X160043042Y-105486069D01*
X160019600Y-105603920D01*
X160019600Y-105724080D01*
X160043042Y-105841931D01*
X160089025Y-105952944D01*
X160155782Y-106052853D01*
X160194601Y-106091672D01*
X160194600Y-106995115D01*
X159395316Y-107794400D01*
X156282071Y-107794400D01*
X156243253Y-107755582D01*
X156143344Y-107688825D01*
X156032331Y-107642842D01*
X155914480Y-107619400D01*
X155794320Y-107619400D01*
X155676469Y-107642842D01*
X155565456Y-107688825D01*
X155465547Y-107755582D01*
X155380582Y-107840547D01*
X155313825Y-107940456D01*
X155267842Y-108051469D01*
X155244400Y-108169320D01*
X138405800Y-108169320D01*
X138405800Y-108100661D01*
X138366026Y-107900702D01*
X138288005Y-107712344D01*
X138174737Y-107542826D01*
X138030574Y-107398663D01*
X137861056Y-107285395D01*
X137672698Y-107207374D01*
X137472739Y-107167600D01*
X137268861Y-107167600D01*
X137068902Y-107207374D01*
X136880544Y-107285395D01*
X136711026Y-107398663D01*
X136566863Y-107542826D01*
X136453595Y-107712344D01*
X136375574Y-107900702D01*
X136335800Y-108100661D01*
X135186722Y-108100661D01*
X135199191Y-108099433D01*
X135370727Y-108047398D01*
X135528815Y-107962898D01*
X135667381Y-107849181D01*
X135781098Y-107710615D01*
X135865598Y-107552527D01*
X135917633Y-107380991D01*
X135935203Y-107202600D01*
X135917633Y-107024209D01*
X135865598Y-106852673D01*
X135781098Y-106694585D01*
X135667381Y-106556019D01*
X135528815Y-106442302D01*
X135370727Y-106357802D01*
X135199191Y-106305767D01*
X135065504Y-106292600D01*
X134276096Y-106292600D01*
X134142409Y-106305767D01*
X133970873Y-106357802D01*
X133812785Y-106442302D01*
X133674219Y-106556019D01*
X133560502Y-106694585D01*
X133558000Y-106699266D01*
X133558000Y-104152750D01*
X134323600Y-104152750D01*
X134323600Y-104381250D01*
X134368178Y-104605360D01*
X134455621Y-104816466D01*
X134582569Y-105006457D01*
X134744143Y-105168031D01*
X134934134Y-105294979D01*
X135145240Y-105382422D01*
X135369350Y-105427000D01*
X135597850Y-105427000D01*
X135821960Y-105382422D01*
X135936426Y-105335008D01*
X136240400Y-105638982D01*
X136254021Y-105655579D01*
X136283939Y-105680132D01*
X136320258Y-105709939D01*
X136395827Y-105750331D01*
X136477825Y-105775205D01*
X136563100Y-105783604D01*
X136584462Y-105781500D01*
X139627929Y-105781500D01*
X139666747Y-105820318D01*
X139766656Y-105887075D01*
X139877669Y-105933058D01*
X139995520Y-105956500D01*
X140115680Y-105956500D01*
X140233531Y-105933058D01*
X140344544Y-105887075D01*
X140444453Y-105820318D01*
X140529418Y-105735353D01*
X140596175Y-105635444D01*
X140642158Y-105524431D01*
X140665600Y-105406580D01*
X140665600Y-105286420D01*
X140642158Y-105168569D01*
X140596175Y-105057556D01*
X140529418Y-104957647D01*
X140444453Y-104872682D01*
X140344544Y-104805925D01*
X140233531Y-104759942D01*
X140115680Y-104736500D01*
X139995520Y-104736500D01*
X139877669Y-104759942D01*
X139766656Y-104805925D01*
X139666747Y-104872682D01*
X139627929Y-104911500D01*
X136743282Y-104911500D01*
X136551608Y-104719826D01*
X136553640Y-104714920D01*
X145732100Y-104714920D01*
X145732100Y-104835080D01*
X145755542Y-104952931D01*
X145801525Y-105063944D01*
X145868282Y-105163853D01*
X145953247Y-105248818D01*
X146053156Y-105315575D01*
X146164169Y-105361558D01*
X146282020Y-105385000D01*
X146361876Y-105385000D01*
X146768422Y-105791547D01*
X146782040Y-105808140D01*
X146848277Y-105862500D01*
X146923847Y-105902892D01*
X147005844Y-105927766D01*
X147069757Y-105934061D01*
X147069765Y-105934061D01*
X147091119Y-105936164D01*
X147102829Y-105935011D01*
X147583742Y-106415924D01*
X147583742Y-106470822D01*
X147607184Y-106588673D01*
X147653167Y-106699686D01*
X147719924Y-106799595D01*
X147804889Y-106884560D01*
X147904798Y-106951317D01*
X148015811Y-106997300D01*
X148133662Y-107020742D01*
X148253822Y-107020742D01*
X148371673Y-106997300D01*
X148482686Y-106951317D01*
X148582595Y-106884560D01*
X148667560Y-106799595D01*
X148734317Y-106699686D01*
X148780300Y-106588673D01*
X148803742Y-106470822D01*
X148803742Y-106350662D01*
X148780300Y-106232811D01*
X148734317Y-106121798D01*
X148667560Y-106021889D01*
X148582595Y-105936924D01*
X148482686Y-105870167D01*
X148371673Y-105824184D01*
X148253822Y-105800742D01*
X148198924Y-105800742D01*
X147759644Y-105361462D01*
X147779973Y-105347878D01*
X147864938Y-105262913D01*
X147931695Y-105163004D01*
X147967233Y-105077209D01*
X148075522Y-104968920D01*
X152145600Y-104968920D01*
X152145600Y-105089080D01*
X152169042Y-105206931D01*
X152215025Y-105317944D01*
X152281782Y-105417853D01*
X152366747Y-105502818D01*
X152466656Y-105569575D01*
X152577669Y-105615558D01*
X152695520Y-105639000D01*
X152815680Y-105639000D01*
X152933531Y-105615558D01*
X153044544Y-105569575D01*
X153144453Y-105502818D01*
X153183271Y-105464000D01*
X153736443Y-105464000D01*
X153711015Y-105502056D01*
X153665032Y-105613069D01*
X153641590Y-105730920D01*
X153641590Y-105851080D01*
X153665032Y-105968931D01*
X153711015Y-106079944D01*
X153777772Y-106179853D01*
X153862737Y-106264818D01*
X153962646Y-106331575D01*
X154073659Y-106377558D01*
X154191510Y-106401000D01*
X154311670Y-106401000D01*
X154429521Y-106377558D01*
X154540534Y-106331575D01*
X154640443Y-106264818D01*
X154679261Y-106226000D01*
X157090390Y-106226000D01*
X157149669Y-106250554D01*
X157267520Y-106273996D01*
X157387680Y-106273996D01*
X157505531Y-106250554D01*
X157616544Y-106204571D01*
X157716453Y-106137814D01*
X157801418Y-106052849D01*
X157868175Y-105952940D01*
X157874331Y-105938078D01*
X157888613Y-105943994D01*
X158006464Y-105967436D01*
X158126624Y-105967436D01*
X158244475Y-105943994D01*
X158355488Y-105898011D01*
X158455397Y-105831254D01*
X158540362Y-105746289D01*
X158607119Y-105646380D01*
X158653102Y-105535367D01*
X158676544Y-105417516D01*
X158676544Y-105297356D01*
X158653102Y-105179505D01*
X158607119Y-105068492D01*
X158540362Y-104968583D01*
X158455397Y-104883618D01*
X158355488Y-104816861D01*
X158244475Y-104770878D01*
X158126624Y-104747436D01*
X158071726Y-104747436D01*
X158060808Y-104736518D01*
X158047187Y-104719921D01*
X157980950Y-104665561D01*
X157905380Y-104625169D01*
X157823383Y-104600295D01*
X157759470Y-104594000D01*
X157759462Y-104594000D01*
X157738108Y-104591897D01*
X157716754Y-104594000D01*
X153183271Y-104594000D01*
X153144453Y-104555182D01*
X153044544Y-104488425D01*
X152933531Y-104442442D01*
X152815680Y-104419000D01*
X152695520Y-104419000D01*
X152577669Y-104442442D01*
X152466656Y-104488425D01*
X152366747Y-104555182D01*
X152281782Y-104640147D01*
X152215025Y-104740056D01*
X152169042Y-104851069D01*
X152145600Y-104968920D01*
X148075522Y-104968920D01*
X148382794Y-104661648D01*
X148437691Y-104661648D01*
X148555542Y-104638206D01*
X148666555Y-104592223D01*
X148766464Y-104525466D01*
X148851429Y-104440501D01*
X148918186Y-104340592D01*
X148964169Y-104229579D01*
X148987611Y-104111728D01*
X148987611Y-103991568D01*
X148964169Y-103873717D01*
X148918186Y-103762704D01*
X148851429Y-103662795D01*
X148766464Y-103577830D01*
X148666555Y-103511073D01*
X148555542Y-103465090D01*
X148437691Y-103441648D01*
X148317531Y-103441648D01*
X148199680Y-103465090D01*
X148088667Y-103511073D01*
X147988758Y-103577830D01*
X147903793Y-103662795D01*
X147837036Y-103762704D01*
X147791053Y-103873717D01*
X147767611Y-103991568D01*
X147767611Y-104046465D01*
X147533622Y-104280455D01*
X147451200Y-104264060D01*
X147331040Y-104264060D01*
X147213189Y-104287502D01*
X147102176Y-104333485D01*
X147002267Y-104400242D01*
X146917302Y-104485207D01*
X146895709Y-104517523D01*
X146882675Y-104486056D01*
X146815918Y-104386147D01*
X146730953Y-104301182D01*
X146631044Y-104234425D01*
X146520031Y-104188442D01*
X146402180Y-104165000D01*
X146282020Y-104165000D01*
X146164169Y-104188442D01*
X146053156Y-104234425D01*
X145953247Y-104301182D01*
X145868282Y-104386147D01*
X145801525Y-104486056D01*
X145755542Y-104597069D01*
X145732100Y-104714920D01*
X136553640Y-104714920D01*
X136599022Y-104605360D01*
X136643600Y-104381250D01*
X136643600Y-104152750D01*
X136599022Y-103928640D01*
X136511579Y-103717534D01*
X136384631Y-103527543D01*
X136223057Y-103365969D01*
X136033066Y-103239021D01*
X135821960Y-103151578D01*
X135597850Y-103107000D01*
X135369350Y-103107000D01*
X135145240Y-103151578D01*
X134934134Y-103239021D01*
X134744143Y-103365969D01*
X134582569Y-103527543D01*
X134455621Y-103717534D01*
X134368178Y-103928640D01*
X134323600Y-104152750D01*
X133558000Y-104152750D01*
X133558000Y-102577000D01*
X134332148Y-102577000D01*
X134337940Y-102635810D01*
X134355095Y-102692361D01*
X134382952Y-102744478D01*
X134420441Y-102790159D01*
X134466122Y-102827648D01*
X134518239Y-102855505D01*
X134574790Y-102872660D01*
X134633600Y-102878452D01*
X135358600Y-102877000D01*
X135433600Y-102802000D01*
X135433600Y-101777000D01*
X135533600Y-101777000D01*
X135533600Y-102802000D01*
X135608600Y-102877000D01*
X136333600Y-102878452D01*
X136392410Y-102872660D01*
X136448961Y-102855505D01*
X136501078Y-102827648D01*
X136546759Y-102790159D01*
X136584248Y-102744478D01*
X136612105Y-102692361D01*
X136629260Y-102635810D01*
X136635052Y-102577000D01*
X136633600Y-101852000D01*
X136558600Y-101777000D01*
X135533600Y-101777000D01*
X135433600Y-101777000D01*
X134408600Y-101777000D01*
X134333600Y-101852000D01*
X134332148Y-102577000D01*
X133558000Y-102577000D01*
X133558000Y-100877000D01*
X134332148Y-100877000D01*
X134333600Y-101602000D01*
X134408600Y-101677000D01*
X135433600Y-101677000D01*
X135433600Y-100652000D01*
X135533600Y-100652000D01*
X135533600Y-101677000D01*
X136558600Y-101677000D01*
X136633600Y-101602000D01*
X136635052Y-100877000D01*
X136629260Y-100818190D01*
X136612105Y-100761639D01*
X136584248Y-100709522D01*
X136546759Y-100663841D01*
X136501078Y-100626352D01*
X136448961Y-100598495D01*
X136392410Y-100581340D01*
X136333600Y-100575548D01*
X135608600Y-100577000D01*
X135533600Y-100652000D01*
X135433600Y-100652000D01*
X135358600Y-100577000D01*
X134633600Y-100575548D01*
X134574790Y-100581340D01*
X134518239Y-100598495D01*
X134466122Y-100626352D01*
X134420441Y-100663841D01*
X134382952Y-100709522D01*
X134355095Y-100761639D01*
X134337940Y-100818190D01*
X134332148Y-100877000D01*
X133558000Y-100877000D01*
X133558000Y-96951517D01*
X146795197Y-96951517D01*
X146795197Y-97071677D01*
X146818639Y-97189528D01*
X146864622Y-97300541D01*
X146931379Y-97400450D01*
X147016344Y-97485415D01*
X147116253Y-97552172D01*
X147227266Y-97598155D01*
X147345117Y-97621597D01*
X147465277Y-97621597D01*
X147583128Y-97598155D01*
X147694141Y-97552172D01*
X147794050Y-97485415D01*
X147857868Y-97421597D01*
X148349526Y-97421597D01*
X148376047Y-97448118D01*
X148475956Y-97514875D01*
X148586969Y-97560858D01*
X148704820Y-97584300D01*
X148824980Y-97584300D01*
X148942831Y-97560858D01*
X149053844Y-97514875D01*
X149153753Y-97448118D01*
X149238718Y-97363153D01*
X149305475Y-97263244D01*
X149351458Y-97152231D01*
X149374900Y-97034380D01*
X149374900Y-96914220D01*
X149351458Y-96796369D01*
X149305475Y-96685356D01*
X149238718Y-96585447D01*
X149153753Y-96500482D01*
X149053844Y-96433725D01*
X148942831Y-96387742D01*
X148824980Y-96364300D01*
X148704820Y-96364300D01*
X148586969Y-96387742D01*
X148475956Y-96433725D01*
X148376047Y-96500482D01*
X148291082Y-96585447D01*
X148280291Y-96601597D01*
X147857868Y-96601597D01*
X147794050Y-96537779D01*
X147694141Y-96471022D01*
X147583128Y-96425039D01*
X147465277Y-96401597D01*
X147345117Y-96401597D01*
X147227266Y-96425039D01*
X147116253Y-96471022D01*
X147016344Y-96537779D01*
X146931379Y-96622744D01*
X146864622Y-96722653D01*
X146818639Y-96833666D01*
X146795197Y-96951517D01*
X133558000Y-96951517D01*
X133558000Y-95541400D01*
X161803301Y-95541400D01*
X161803301Y-97041400D01*
X161809286Y-97102170D01*
X161827012Y-97160606D01*
X161855798Y-97214460D01*
X161894537Y-97261663D01*
X161941740Y-97300402D01*
X161995594Y-97329188D01*
X162054030Y-97346914D01*
X162114800Y-97352899D01*
X163614800Y-97352899D01*
X163675570Y-97346914D01*
X163734006Y-97329188D01*
X163787860Y-97300402D01*
X163835063Y-97261663D01*
X163873802Y-97214460D01*
X163902588Y-97160606D01*
X163920314Y-97102170D01*
X163926299Y-97041400D01*
X163926299Y-96881982D01*
X164023920Y-96901400D01*
X164144080Y-96901400D01*
X164261931Y-96877958D01*
X164372944Y-96831975D01*
X164472853Y-96765218D01*
X164557818Y-96680253D01*
X164624575Y-96580344D01*
X164670558Y-96469331D01*
X164694000Y-96351480D01*
X164694000Y-96291400D01*
X170134388Y-96291400D01*
X170156785Y-96518800D01*
X170223115Y-96737460D01*
X170330829Y-96938979D01*
X170475788Y-97115612D01*
X170652421Y-97260571D01*
X170853940Y-97368285D01*
X171072600Y-97434615D01*
X171243021Y-97451400D01*
X171656979Y-97451400D01*
X171827400Y-97434615D01*
X172046060Y-97368285D01*
X172247579Y-97260571D01*
X172424212Y-97115612D01*
X172569171Y-96938979D01*
X172676885Y-96737460D01*
X172743215Y-96518800D01*
X172765612Y-96291400D01*
X172743215Y-96064000D01*
X172676885Y-95845340D01*
X172569171Y-95643821D01*
X172424212Y-95467188D01*
X172247579Y-95322229D01*
X172046060Y-95214515D01*
X171827400Y-95148185D01*
X171656979Y-95131400D01*
X171243021Y-95131400D01*
X171072600Y-95148185D01*
X170853940Y-95214515D01*
X170652421Y-95322229D01*
X170475788Y-95467188D01*
X170330829Y-95643821D01*
X170223115Y-95845340D01*
X170156785Y-96064000D01*
X170134388Y-96291400D01*
X164694000Y-96291400D01*
X164694000Y-96231320D01*
X164670558Y-96113469D01*
X164624575Y-96002456D01*
X164557818Y-95902547D01*
X164472853Y-95817582D01*
X164372944Y-95750825D01*
X164261931Y-95704842D01*
X164144080Y-95681400D01*
X164023920Y-95681400D01*
X163926299Y-95700818D01*
X163926299Y-95541400D01*
X163920314Y-95480630D01*
X163902588Y-95422194D01*
X163873802Y-95368340D01*
X163835063Y-95321137D01*
X163787860Y-95282398D01*
X163734006Y-95253612D01*
X163675570Y-95235886D01*
X163614800Y-95229901D01*
X162114800Y-95229901D01*
X162054030Y-95235886D01*
X161995594Y-95253612D01*
X161941740Y-95282398D01*
X161894537Y-95321137D01*
X161855798Y-95368340D01*
X161827012Y-95422194D01*
X161809286Y-95480630D01*
X161803301Y-95541400D01*
X133558000Y-95541400D01*
X133558000Y-94641400D01*
X170148548Y-94641400D01*
X170154340Y-94700210D01*
X170171495Y-94756761D01*
X170199352Y-94808878D01*
X170236841Y-94854559D01*
X170282522Y-94892048D01*
X170334639Y-94919905D01*
X170391190Y-94937060D01*
X170450000Y-94942852D01*
X171325000Y-94941400D01*
X171400000Y-94866400D01*
X171400000Y-93841400D01*
X171500000Y-93841400D01*
X171500000Y-94866400D01*
X171575000Y-94941400D01*
X172450000Y-94942852D01*
X172508810Y-94937060D01*
X172565361Y-94919905D01*
X172617478Y-94892048D01*
X172663159Y-94854559D01*
X172700648Y-94808878D01*
X172728505Y-94756761D01*
X172745660Y-94700210D01*
X172751452Y-94641400D01*
X172750000Y-93916400D01*
X172675000Y-93841400D01*
X171500000Y-93841400D01*
X171400000Y-93841400D01*
X170225000Y-93841400D01*
X170150000Y-93916400D01*
X170148548Y-94641400D01*
X133558000Y-94641400D01*
X133558000Y-92941400D01*
X170148548Y-92941400D01*
X170150000Y-93666400D01*
X170225000Y-93741400D01*
X171400000Y-93741400D01*
X171400000Y-92716400D01*
X171500000Y-92716400D01*
X171500000Y-93741400D01*
X172675000Y-93741400D01*
X172750000Y-93666400D01*
X172751452Y-92941400D01*
X172745660Y-92882590D01*
X172728505Y-92826039D01*
X172700648Y-92773922D01*
X172663159Y-92728241D01*
X172617478Y-92690752D01*
X172565361Y-92662895D01*
X172508810Y-92645740D01*
X172450000Y-92639948D01*
X171575000Y-92641400D01*
X171500000Y-92716400D01*
X171400000Y-92716400D01*
X171325000Y-92641400D01*
X170450000Y-92639948D01*
X170391190Y-92645740D01*
X170334639Y-92662895D01*
X170282522Y-92690752D01*
X170236841Y-92728241D01*
X170199352Y-92773922D01*
X170171495Y-92826039D01*
X170154340Y-92882590D01*
X170148548Y-92941400D01*
X133558000Y-92941400D01*
X133558000Y-91452750D01*
X134323600Y-91452750D01*
X134323600Y-91681250D01*
X134368178Y-91905360D01*
X134455621Y-92116466D01*
X134582569Y-92306457D01*
X134744143Y-92468031D01*
X134934134Y-92594979D01*
X135145240Y-92682422D01*
X135369350Y-92727000D01*
X135597850Y-92727000D01*
X135821960Y-92682422D01*
X136033066Y-92594979D01*
X136160246Y-92510000D01*
X142037537Y-92510000D01*
X142063809Y-92536272D01*
X142163718Y-92603029D01*
X142274731Y-92649012D01*
X142392582Y-92672454D01*
X142512742Y-92672454D01*
X142630593Y-92649012D01*
X142741606Y-92603029D01*
X142841515Y-92536272D01*
X142926480Y-92451307D01*
X142993237Y-92351398D01*
X143039220Y-92240385D01*
X143062662Y-92122534D01*
X143062662Y-92002374D01*
X143039220Y-91884523D01*
X142993237Y-91773510D01*
X142926480Y-91673601D01*
X142841515Y-91588636D01*
X142741606Y-91521879D01*
X142630593Y-91475896D01*
X142512742Y-91452454D01*
X142392582Y-91452454D01*
X142274731Y-91475896D01*
X142163718Y-91521879D01*
X142063809Y-91588636D01*
X142012445Y-91640000D01*
X136643600Y-91640000D01*
X136643600Y-91452750D01*
X136599022Y-91228640D01*
X136511579Y-91017534D01*
X136384631Y-90827543D01*
X136223057Y-90665969D01*
X136033066Y-90539021D01*
X135821960Y-90451578D01*
X135597850Y-90407000D01*
X135369350Y-90407000D01*
X135145240Y-90451578D01*
X134934134Y-90539021D01*
X134744143Y-90665969D01*
X134582569Y-90827543D01*
X134455621Y-91017534D01*
X134368178Y-91228640D01*
X134323600Y-91452750D01*
X133558000Y-91452750D01*
X133558000Y-89877000D01*
X134332148Y-89877000D01*
X134337940Y-89935810D01*
X134355095Y-89992361D01*
X134382952Y-90044478D01*
X134420441Y-90090159D01*
X134466122Y-90127648D01*
X134518239Y-90155505D01*
X134574790Y-90172660D01*
X134633600Y-90178452D01*
X135358600Y-90177000D01*
X135433600Y-90102000D01*
X135433600Y-89077000D01*
X135533600Y-89077000D01*
X135533600Y-90102000D01*
X135608600Y-90177000D01*
X136333600Y-90178452D01*
X136392410Y-90172660D01*
X136448961Y-90155505D01*
X136501078Y-90127648D01*
X136546759Y-90090159D01*
X136584248Y-90044478D01*
X136612105Y-89992361D01*
X136629260Y-89935810D01*
X136635052Y-89877000D01*
X136633600Y-89152000D01*
X136558600Y-89077000D01*
X135533600Y-89077000D01*
X135433600Y-89077000D01*
X134408600Y-89077000D01*
X134333600Y-89152000D01*
X134332148Y-89877000D01*
X133558000Y-89877000D01*
X133558000Y-88177000D01*
X134332148Y-88177000D01*
X134333600Y-88902000D01*
X134408600Y-88977000D01*
X135433600Y-88977000D01*
X135433600Y-87952000D01*
X135533600Y-87952000D01*
X135533600Y-88977000D01*
X136558600Y-88977000D01*
X136633600Y-88902000D01*
X136633978Y-88712920D01*
X141325200Y-88712920D01*
X141325200Y-88833080D01*
X141348642Y-88950931D01*
X141394625Y-89061944D01*
X141461382Y-89161853D01*
X141546347Y-89246818D01*
X141646256Y-89313575D01*
X141757269Y-89359558D01*
X141875120Y-89383000D01*
X141995280Y-89383000D01*
X142113131Y-89359558D01*
X142177248Y-89333000D01*
X143074901Y-89333000D01*
X143074901Y-89523000D01*
X143080886Y-89583770D01*
X143098612Y-89642206D01*
X143127398Y-89696060D01*
X143166137Y-89743263D01*
X143213340Y-89782002D01*
X143267194Y-89810788D01*
X143325630Y-89828514D01*
X143386400Y-89834499D01*
X144386400Y-89834499D01*
X144447170Y-89828514D01*
X144505606Y-89810788D01*
X144536400Y-89794328D01*
X144567194Y-89810788D01*
X144625630Y-89828514D01*
X144686400Y-89834499D01*
X145686400Y-89834499D01*
X145747170Y-89828514D01*
X145805606Y-89810788D01*
X145836400Y-89794328D01*
X145867194Y-89810788D01*
X145925630Y-89828514D01*
X145986400Y-89834499D01*
X146986400Y-89834499D01*
X147047170Y-89828514D01*
X147105606Y-89810788D01*
X147159460Y-89782002D01*
X147206663Y-89743263D01*
X147245402Y-89696060D01*
X147274188Y-89642206D01*
X147291914Y-89583770D01*
X147297899Y-89523000D01*
X147297899Y-89333000D01*
X155623704Y-89333000D01*
X155651200Y-89335708D01*
X155678696Y-89333000D01*
X155678706Y-89333000D01*
X155760979Y-89324897D01*
X155866539Y-89292875D01*
X155963824Y-89240875D01*
X155991623Y-89218061D01*
X156027730Y-89188429D01*
X156027731Y-89188428D01*
X156049095Y-89170895D01*
X156066628Y-89149531D01*
X156554039Y-88662120D01*
X157428800Y-88662120D01*
X157428800Y-88782280D01*
X157452242Y-88900131D01*
X157498225Y-89011144D01*
X157564982Y-89111053D01*
X157649947Y-89196018D01*
X157749856Y-89262775D01*
X157860869Y-89308758D01*
X157978720Y-89332200D01*
X158098880Y-89332200D01*
X158216731Y-89308758D01*
X158280848Y-89282200D01*
X167154041Y-89282200D01*
X167756046Y-89884206D01*
X167782604Y-89948323D01*
X167849361Y-90048232D01*
X167934326Y-90133197D01*
X168034235Y-90199954D01*
X168145248Y-90245937D01*
X168263099Y-90269379D01*
X168383259Y-90269379D01*
X168501110Y-90245937D01*
X168612123Y-90199954D01*
X168712032Y-90133197D01*
X168796997Y-90048232D01*
X168863754Y-89948323D01*
X168909737Y-89837310D01*
X168933179Y-89719459D01*
X168933179Y-89599299D01*
X168909737Y-89481448D01*
X168863754Y-89370435D01*
X168796997Y-89270526D01*
X168712032Y-89185561D01*
X168612123Y-89118804D01*
X168548006Y-89092246D01*
X167801428Y-88345669D01*
X167783895Y-88324305D01*
X167753283Y-88299182D01*
X167698624Y-88254325D01*
X167667135Y-88237494D01*
X167606194Y-88204920D01*
X169316000Y-88204920D01*
X169316000Y-88325080D01*
X169339442Y-88442931D01*
X169366000Y-88507048D01*
X169366001Y-89405895D01*
X169363292Y-89433400D01*
X169374104Y-89543179D01*
X169406126Y-89648739D01*
X169458125Y-89746024D01*
X169510571Y-89809930D01*
X169510578Y-89809937D01*
X169528106Y-89831295D01*
X169549464Y-89848823D01*
X171035266Y-91334625D01*
X171061825Y-91398744D01*
X171128582Y-91498653D01*
X171213547Y-91583618D01*
X171313456Y-91650375D01*
X171424469Y-91696358D01*
X171542320Y-91719800D01*
X171662480Y-91719800D01*
X171780331Y-91696358D01*
X171891344Y-91650375D01*
X171991253Y-91583618D01*
X172076218Y-91498653D01*
X172142975Y-91398744D01*
X172188958Y-91287731D01*
X172212400Y-91169880D01*
X172212400Y-91049720D01*
X172188958Y-90931869D01*
X172142975Y-90820856D01*
X172076218Y-90720947D01*
X171991253Y-90635982D01*
X171891344Y-90569225D01*
X171827225Y-90542666D01*
X170486000Y-89201441D01*
X170486000Y-88507048D01*
X170512558Y-88442931D01*
X170536000Y-88325080D01*
X170536000Y-88204920D01*
X170512558Y-88087069D01*
X170466575Y-87976056D01*
X170399818Y-87876147D01*
X170314853Y-87791182D01*
X170214944Y-87724425D01*
X170103931Y-87678442D01*
X169986080Y-87655000D01*
X169865920Y-87655000D01*
X169748069Y-87678442D01*
X169637056Y-87724425D01*
X169537147Y-87791182D01*
X169452182Y-87876147D01*
X169385425Y-87976056D01*
X169339442Y-88087069D01*
X169316000Y-88204920D01*
X167606194Y-88204920D01*
X167601339Y-88202325D01*
X167495779Y-88170303D01*
X167413506Y-88162200D01*
X167413496Y-88162200D01*
X167386000Y-88159492D01*
X167358504Y-88162200D01*
X158280848Y-88162200D01*
X158216731Y-88135642D01*
X158098880Y-88112200D01*
X157978720Y-88112200D01*
X157860869Y-88135642D01*
X157749856Y-88181625D01*
X157649947Y-88248382D01*
X157564982Y-88333347D01*
X157498225Y-88433256D01*
X157452242Y-88544269D01*
X157428800Y-88662120D01*
X156554039Y-88662120D01*
X156688825Y-88527334D01*
X156752944Y-88500775D01*
X156852853Y-88434018D01*
X156937818Y-88349053D01*
X157004575Y-88249144D01*
X157050558Y-88138131D01*
X157074000Y-88020280D01*
X157074000Y-87900120D01*
X157050558Y-87782269D01*
X157004575Y-87671256D01*
X156937818Y-87571347D01*
X156852853Y-87486382D01*
X156752944Y-87419625D01*
X156641931Y-87373642D01*
X156524080Y-87350200D01*
X156403920Y-87350200D01*
X156286069Y-87373642D01*
X156175056Y-87419625D01*
X156075147Y-87486382D01*
X155990182Y-87571347D01*
X155923425Y-87671256D01*
X155896866Y-87735375D01*
X155419241Y-88213000D01*
X147297899Y-88213000D01*
X147297899Y-88023000D01*
X147291914Y-87962230D01*
X147274188Y-87903794D01*
X147245402Y-87849940D01*
X147206663Y-87802737D01*
X147159460Y-87763998D01*
X147105606Y-87735212D01*
X147047170Y-87717486D01*
X146986400Y-87711501D01*
X145986400Y-87711501D01*
X145925630Y-87717486D01*
X145867194Y-87735212D01*
X145836400Y-87751672D01*
X145805606Y-87735212D01*
X145747170Y-87717486D01*
X145739435Y-87716724D01*
X145722158Y-87629869D01*
X145676175Y-87518856D01*
X145609418Y-87418947D01*
X145524453Y-87333982D01*
X145424544Y-87267225D01*
X145313531Y-87221242D01*
X145195680Y-87197800D01*
X145075520Y-87197800D01*
X144957669Y-87221242D01*
X144846656Y-87267225D01*
X144746747Y-87333982D01*
X144661782Y-87418947D01*
X144595025Y-87518856D01*
X144549042Y-87629869D01*
X144525927Y-87746074D01*
X144505606Y-87735212D01*
X144447170Y-87717486D01*
X144386400Y-87711501D01*
X143386400Y-87711501D01*
X143325630Y-87717486D01*
X143267194Y-87735212D01*
X143213340Y-87763998D01*
X143166137Y-87802737D01*
X143127398Y-87849940D01*
X143098612Y-87903794D01*
X143080886Y-87962230D01*
X143074901Y-88023000D01*
X143074901Y-88213000D01*
X142177248Y-88213000D01*
X142113131Y-88186442D01*
X141995280Y-88163000D01*
X141875120Y-88163000D01*
X141757269Y-88186442D01*
X141646256Y-88232425D01*
X141546347Y-88299182D01*
X141461382Y-88384147D01*
X141394625Y-88484056D01*
X141348642Y-88595069D01*
X141325200Y-88712920D01*
X136633978Y-88712920D01*
X136635052Y-88177000D01*
X136629260Y-88118190D01*
X136612105Y-88061639D01*
X136584248Y-88009522D01*
X136546759Y-87963841D01*
X136501078Y-87926352D01*
X136448961Y-87898495D01*
X136392410Y-87881340D01*
X136333600Y-87875548D01*
X135608600Y-87877000D01*
X135533600Y-87952000D01*
X135433600Y-87952000D01*
X135358600Y-87877000D01*
X134633600Y-87875548D01*
X134574790Y-87881340D01*
X134518239Y-87898495D01*
X134466122Y-87926352D01*
X134420441Y-87963841D01*
X134382952Y-88009522D01*
X134355095Y-88061639D01*
X134337940Y-88118190D01*
X134332148Y-88177000D01*
X133558000Y-88177000D01*
X133558000Y-84936000D01*
X170455418Y-84936000D01*
X170414703Y-84976715D01*
G04 #@! TA.AperFunction,Conductor*
D23*
G36*
X170414703Y-84976715D02*
G01*
X170398112Y-84990331D01*
X170343752Y-85056568D01*
X170303360Y-85132138D01*
X170278485Y-85214136D01*
X170270087Y-85299410D01*
X170272191Y-85320774D01*
X170272190Y-87037036D01*
X170270087Y-87058390D01*
X170272190Y-87079744D01*
X170272190Y-87079751D01*
X170278485Y-87143664D01*
X170303359Y-87225661D01*
X170343751Y-87301231D01*
X170398111Y-87367469D01*
X170414708Y-87381090D01*
X170754993Y-87721375D01*
X170731490Y-87798856D01*
X170720701Y-87908399D01*
X170720701Y-88608401D01*
X170731490Y-88717944D01*
X170763442Y-88823277D01*
X170815330Y-88920353D01*
X170885160Y-89005440D01*
X170970247Y-89075270D01*
X171067323Y-89127158D01*
X171172656Y-89159110D01*
X171282199Y-89169899D01*
X172532201Y-89169899D01*
X172641744Y-89159110D01*
X172747077Y-89127158D01*
X172844153Y-89075270D01*
X172929240Y-89005440D01*
X172999070Y-88920353D01*
X173050958Y-88823277D01*
X173082910Y-88717944D01*
X173093699Y-88608401D01*
X173093699Y-87908399D01*
X173082910Y-87798856D01*
X173050958Y-87693523D01*
X172999070Y-87596447D01*
X172929240Y-87511360D01*
X172844153Y-87441530D01*
X172747077Y-87389642D01*
X172641744Y-87357690D01*
X172532201Y-87346901D01*
X171610883Y-87346901D01*
X171404152Y-87140170D01*
X171453809Y-87155233D01*
X171587496Y-87168400D01*
X172226904Y-87168400D01*
X172360591Y-87155233D01*
X172532127Y-87103198D01*
X172690215Y-87018698D01*
X172828781Y-86904981D01*
X172899835Y-86818400D01*
X173011101Y-86818400D01*
X173011101Y-86983000D01*
X173017086Y-87043770D01*
X173034812Y-87102206D01*
X173063598Y-87156060D01*
X173102337Y-87203263D01*
X173149540Y-87242002D01*
X173203394Y-87270788D01*
X173261830Y-87288514D01*
X173322600Y-87294499D01*
X174322600Y-87294499D01*
X174383370Y-87288514D01*
X174441806Y-87270788D01*
X174483206Y-87248659D01*
X174507239Y-87261505D01*
X174563790Y-87278660D01*
X174622600Y-87284452D01*
X174997600Y-87283000D01*
X175072600Y-87208000D01*
X175072600Y-86283000D01*
X175172600Y-86283000D01*
X175172600Y-87208000D01*
X175247600Y-87283000D01*
X175622600Y-87284452D01*
X175681410Y-87278660D01*
X175737961Y-87261505D01*
X175790078Y-87233648D01*
X175835759Y-87196159D01*
X175873248Y-87150478D01*
X175901105Y-87098361D01*
X175918260Y-87041810D01*
X175924052Y-86983000D01*
X175922600Y-86358000D01*
X175847600Y-86283000D01*
X175172600Y-86283000D01*
X175072600Y-86283000D01*
X175052600Y-86283000D01*
X175052600Y-86183000D01*
X175072600Y-86183000D01*
X175072600Y-85258000D01*
X175172600Y-85258000D01*
X175172600Y-86183000D01*
X175847600Y-86183000D01*
X175922600Y-86108000D01*
X175924052Y-85483000D01*
X175918260Y-85424190D01*
X175901105Y-85367639D01*
X175873248Y-85315522D01*
X175835759Y-85269841D01*
X175790078Y-85232352D01*
X175737961Y-85204495D01*
X175681410Y-85187340D01*
X175622600Y-85181548D01*
X175247600Y-85183000D01*
X175172600Y-85258000D01*
X175072600Y-85258000D01*
X174997600Y-85183000D01*
X174622600Y-85181548D01*
X174563790Y-85187340D01*
X174507239Y-85204495D01*
X174483206Y-85217341D01*
X174441806Y-85195212D01*
X174383370Y-85177486D01*
X174322600Y-85171501D01*
X173322600Y-85171501D01*
X173261830Y-85177486D01*
X173203394Y-85195212D01*
X173149540Y-85223998D01*
X173102337Y-85262737D01*
X173063598Y-85309940D01*
X173034812Y-85363794D01*
X173017086Y-85422230D01*
X173011101Y-85483000D01*
X173011101Y-85698400D01*
X172899835Y-85698400D01*
X172828781Y-85611819D01*
X172690215Y-85498102D01*
X172532127Y-85413602D01*
X172360591Y-85361567D01*
X172226904Y-85348400D01*
X171587496Y-85348400D01*
X171453809Y-85361567D01*
X171282273Y-85413602D01*
X171142190Y-85488478D01*
X171142190Y-85479592D01*
X171685782Y-84936000D01*
X177998400Y-84936000D01*
X177998400Y-99557941D01*
X177986331Y-99552942D01*
X177868480Y-99529500D01*
X177748320Y-99529500D01*
X177630469Y-99552942D01*
X177519456Y-99598925D01*
X177419547Y-99665682D01*
X177334582Y-99750647D01*
X177267825Y-99850556D01*
X177221842Y-99961569D01*
X177198400Y-100079420D01*
X177198400Y-100199580D01*
X177221842Y-100317431D01*
X177267825Y-100428444D01*
X177334582Y-100528353D01*
X177419547Y-100613318D01*
X177466600Y-100644758D01*
X177466601Y-109776416D01*
X175537018Y-111706000D01*
X174062071Y-111706000D01*
X174023253Y-111667182D01*
X173923344Y-111600425D01*
X173812331Y-111554442D01*
X173694480Y-111531000D01*
X173574320Y-111531000D01*
X173456469Y-111554442D01*
X173345456Y-111600425D01*
X173245547Y-111667182D01*
X173160582Y-111752147D01*
X173093825Y-111852056D01*
X173047842Y-111963069D01*
X173024400Y-112080920D01*
X173024400Y-112201080D01*
X173047842Y-112318931D01*
X173093825Y-112429944D01*
X173160582Y-112529853D01*
X173245547Y-112614818D01*
X173345456Y-112681575D01*
X173456469Y-112727558D01*
X173574320Y-112751000D01*
X173694480Y-112751000D01*
X173812331Y-112727558D01*
X173923344Y-112681575D01*
X174023253Y-112614818D01*
X174062071Y-112576000D01*
X175695846Y-112576000D01*
X175717200Y-112578103D01*
X175738554Y-112576000D01*
X175738562Y-112576000D01*
X175802475Y-112569705D01*
X175884472Y-112544831D01*
X175960042Y-112504439D01*
X176026279Y-112450079D01*
X176039900Y-112433482D01*
X177998401Y-110474982D01*
X177998401Y-120811408D01*
X177953863Y-121265640D01*
X177826705Y-121686808D01*
X177620166Y-122075251D01*
X177342111Y-122416181D01*
X177003129Y-122696611D01*
X176616136Y-122905858D01*
X176195870Y-123035952D01*
X175742547Y-123083598D01*
X175742007Y-123083600D01*
X171572253Y-123083600D01*
X171593066Y-123074979D01*
X171783057Y-122948031D01*
X171944631Y-122786457D01*
X172071579Y-122596466D01*
X172159022Y-122385360D01*
X172203600Y-122161250D01*
X172203600Y-121932750D01*
X172159022Y-121708640D01*
X172071579Y-121497534D01*
X171944631Y-121307543D01*
X171783057Y-121145969D01*
X171593066Y-121019021D01*
X171381960Y-120931578D01*
X171157850Y-120887000D01*
X170929350Y-120887000D01*
X170705240Y-120931578D01*
X170494134Y-121019021D01*
X170304143Y-121145969D01*
X170142569Y-121307543D01*
X170015621Y-121497534D01*
X169928178Y-121708640D01*
X169883600Y-121932750D01*
X169883600Y-122161250D01*
X169928178Y-122385360D01*
X170015621Y-122596466D01*
X170142569Y-122786457D01*
X170304143Y-122948031D01*
X170494134Y-123074979D01*
X170514947Y-123083600D01*
X169032253Y-123083600D01*
X169053066Y-123074979D01*
X169243057Y-122948031D01*
X169404631Y-122786457D01*
X169531579Y-122596466D01*
X169619022Y-122385360D01*
X169663600Y-122161250D01*
X169663600Y-121932750D01*
X169619022Y-121708640D01*
X169531579Y-121497534D01*
X169404631Y-121307543D01*
X169243057Y-121145969D01*
X169053066Y-121019021D01*
X168841960Y-120931578D01*
X168617850Y-120887000D01*
X168389350Y-120887000D01*
X168165240Y-120931578D01*
X167954134Y-121019021D01*
X167764143Y-121145969D01*
X167602569Y-121307543D01*
X167475621Y-121497534D01*
X167388178Y-121708640D01*
X167343600Y-121932750D01*
X167343600Y-122161250D01*
X167388178Y-122385360D01*
X167475621Y-122596466D01*
X167602569Y-122786457D01*
X167764143Y-122948031D01*
X167954134Y-123074979D01*
X167974947Y-123083600D01*
X166451573Y-123083600D01*
X166598464Y-123005881D01*
X166773334Y-122863600D01*
X166917086Y-122689938D01*
X167024196Y-122491568D01*
X167090548Y-122276114D01*
X167037515Y-122097000D01*
X166013600Y-122097000D01*
X166013600Y-122117000D01*
X165913600Y-122117000D01*
X165913600Y-122097000D01*
X164889685Y-122097000D01*
X164836652Y-122276114D01*
X164903004Y-122491568D01*
X165010114Y-122689938D01*
X165153866Y-122863600D01*
X165328736Y-123005881D01*
X165475627Y-123083600D01*
X163952253Y-123083600D01*
X163973066Y-123074979D01*
X164163057Y-122948031D01*
X164324631Y-122786457D01*
X164451579Y-122596466D01*
X164539022Y-122385360D01*
X164583600Y-122161250D01*
X164583600Y-121932750D01*
X164560753Y-121817886D01*
X164836652Y-121817886D01*
X164889685Y-121997000D01*
X165913600Y-121997000D01*
X165913600Y-120973163D01*
X166013600Y-120973163D01*
X166013600Y-121997000D01*
X167037515Y-121997000D01*
X167090548Y-121817886D01*
X167024196Y-121602432D01*
X166917086Y-121404062D01*
X166773334Y-121230400D01*
X166598464Y-121088119D01*
X166399197Y-120982688D01*
X166192714Y-120920054D01*
X166013600Y-120973163D01*
X165913600Y-120973163D01*
X165734486Y-120920054D01*
X165528003Y-120982688D01*
X165328736Y-121088119D01*
X165153866Y-121230400D01*
X165010114Y-121404062D01*
X164903004Y-121602432D01*
X164836652Y-121817886D01*
X164560753Y-121817886D01*
X164539022Y-121708640D01*
X164451579Y-121497534D01*
X164324631Y-121307543D01*
X164163057Y-121145969D01*
X163973066Y-121019021D01*
X163761960Y-120931578D01*
X163537850Y-120887000D01*
X163309350Y-120887000D01*
X163085240Y-120931578D01*
X162874134Y-121019021D01*
X162684143Y-121145969D01*
X162522569Y-121307543D01*
X162395621Y-121497534D01*
X162308178Y-121708640D01*
X162263600Y-121932750D01*
X162263600Y-122161250D01*
X162308178Y-122385360D01*
X162395621Y-122596466D01*
X162522569Y-122786457D01*
X162684143Y-122948031D01*
X162874134Y-123074979D01*
X162894947Y-123083600D01*
X161412253Y-123083600D01*
X161433066Y-123074979D01*
X161623057Y-122948031D01*
X161784631Y-122786457D01*
X161911579Y-122596466D01*
X161999022Y-122385360D01*
X162043600Y-122161250D01*
X162043600Y-121932750D01*
X161999022Y-121708640D01*
X161911579Y-121497534D01*
X161784631Y-121307543D01*
X161623057Y-121145969D01*
X161433066Y-121019021D01*
X161221960Y-120931578D01*
X160997850Y-120887000D01*
X160769350Y-120887000D01*
X160545240Y-120931578D01*
X160334134Y-121019021D01*
X160144143Y-121145969D01*
X159982569Y-121307543D01*
X159855621Y-121497534D01*
X159768178Y-121708640D01*
X159723600Y-121932750D01*
X159723600Y-122161250D01*
X159768178Y-122385360D01*
X159855621Y-122596466D01*
X159982569Y-122786457D01*
X160144143Y-122948031D01*
X160334134Y-123074979D01*
X160354947Y-123083600D01*
X158872253Y-123083600D01*
X158893066Y-123074979D01*
X159083057Y-122948031D01*
X159244631Y-122786457D01*
X159371579Y-122596466D01*
X159459022Y-122385360D01*
X159503600Y-122161250D01*
X159503600Y-121932750D01*
X159459022Y-121708640D01*
X159371579Y-121497534D01*
X159244631Y-121307543D01*
X159083057Y-121145969D01*
X158893066Y-121019021D01*
X158681960Y-120931578D01*
X158457850Y-120887000D01*
X158229350Y-120887000D01*
X158005240Y-120931578D01*
X157794134Y-121019021D01*
X157604143Y-121145969D01*
X157442569Y-121307543D01*
X157315621Y-121497534D01*
X157228178Y-121708640D01*
X157183600Y-121932750D01*
X157183600Y-122161250D01*
X157228178Y-122385360D01*
X157315621Y-122596466D01*
X157442569Y-122786457D01*
X157604143Y-122948031D01*
X157794134Y-123074979D01*
X157814947Y-123083600D01*
X156332253Y-123083600D01*
X156353066Y-123074979D01*
X156543057Y-122948031D01*
X156704631Y-122786457D01*
X156831579Y-122596466D01*
X156919022Y-122385360D01*
X156963600Y-122161250D01*
X156963600Y-121932750D01*
X156919022Y-121708640D01*
X156838572Y-121514415D01*
X156840739Y-121492410D01*
X156843600Y-121463362D01*
X156843600Y-121463355D01*
X156845703Y-121442001D01*
X156843600Y-121420647D01*
X156843600Y-120689704D01*
X174108000Y-120689704D01*
X174108000Y-121016696D01*
X174171793Y-121337404D01*
X174296927Y-121639505D01*
X174478594Y-121911388D01*
X174709812Y-122142606D01*
X174981695Y-122324273D01*
X175283796Y-122449407D01*
X175604504Y-122513200D01*
X175931496Y-122513200D01*
X176252204Y-122449407D01*
X176554305Y-122324273D01*
X176826188Y-122142606D01*
X177057406Y-121911388D01*
X177239073Y-121639505D01*
X177364207Y-121337404D01*
X177428000Y-121016696D01*
X177428000Y-120689704D01*
X177364207Y-120368996D01*
X177239073Y-120066895D01*
X177057406Y-119795012D01*
X176826188Y-119563794D01*
X176554305Y-119382127D01*
X176252204Y-119256993D01*
X175931496Y-119193200D01*
X175604504Y-119193200D01*
X175283796Y-119256993D01*
X174981695Y-119382127D01*
X174709812Y-119563794D01*
X174478594Y-119795012D01*
X174296927Y-120066895D01*
X174171793Y-120368996D01*
X174108000Y-120689704D01*
X156843600Y-120689704D01*
X156843600Y-117139499D01*
X156908600Y-117139499D01*
X156969370Y-117133514D01*
X157027806Y-117115788D01*
X157058600Y-117099328D01*
X157089394Y-117115788D01*
X157147830Y-117133514D01*
X157208600Y-117139499D01*
X158208600Y-117139499D01*
X158269370Y-117133514D01*
X158327806Y-117115788D01*
X158381660Y-117087002D01*
X158428863Y-117048263D01*
X158467602Y-117001060D01*
X158496388Y-116947206D01*
X158514114Y-116888770D01*
X158520099Y-116828000D01*
X158520099Y-115328000D01*
X158514114Y-115267230D01*
X158496388Y-115208794D01*
X158467602Y-115154940D01*
X158428863Y-115107737D01*
X158381660Y-115068998D01*
X158327806Y-115040212D01*
X158269370Y-115022486D01*
X158208600Y-115016501D01*
X157208600Y-115016501D01*
X157147830Y-115022486D01*
X157089394Y-115040212D01*
X157058600Y-115056672D01*
X157027806Y-115040212D01*
X156969370Y-115022486D01*
X156908600Y-115016501D01*
X155908600Y-115016501D01*
X155847830Y-115022486D01*
X155789394Y-115040212D01*
X155735540Y-115068998D01*
X155688337Y-115107737D01*
X155649598Y-115154940D01*
X155620812Y-115208794D01*
X155603086Y-115267230D01*
X155597101Y-115328000D01*
X155597101Y-116828000D01*
X155603086Y-116888770D01*
X155620812Y-116947206D01*
X155649598Y-117001060D01*
X155688337Y-117048263D01*
X155735540Y-117087002D01*
X155789394Y-117115788D01*
X155847830Y-117133514D01*
X155908600Y-117139499D01*
X155973601Y-117139499D01*
X155973600Y-120898089D01*
X155917850Y-120887000D01*
X155689350Y-120887000D01*
X155465240Y-120931578D01*
X155254134Y-121019021D01*
X155064143Y-121145969D01*
X154902569Y-121307543D01*
X154775621Y-121497534D01*
X154688178Y-121708640D01*
X154643600Y-121932750D01*
X154643600Y-122161250D01*
X154688178Y-122385360D01*
X154775621Y-122596466D01*
X154902569Y-122786457D01*
X155064143Y-122948031D01*
X155254134Y-123074979D01*
X155274947Y-123083600D01*
X153792253Y-123083600D01*
X153813066Y-123074979D01*
X154003057Y-122948031D01*
X154164631Y-122786457D01*
X154291579Y-122596466D01*
X154379022Y-122385360D01*
X154423600Y-122161250D01*
X154423600Y-121932750D01*
X154379022Y-121708640D01*
X154291579Y-121497534D01*
X154164631Y-121307543D01*
X154003057Y-121145969D01*
X153813066Y-121019021D01*
X153601960Y-120931578D01*
X153377850Y-120887000D01*
X153149350Y-120887000D01*
X152925240Y-120931578D01*
X152714134Y-121019021D01*
X152524143Y-121145969D01*
X152362569Y-121307543D01*
X152235621Y-121497534D01*
X152148178Y-121708640D01*
X152103600Y-121932750D01*
X152103600Y-122161250D01*
X152148178Y-122385360D01*
X152235621Y-122596466D01*
X152362569Y-122786457D01*
X152524143Y-122948031D01*
X152714134Y-123074979D01*
X152734947Y-123083600D01*
X151252253Y-123083600D01*
X151273066Y-123074979D01*
X151463057Y-122948031D01*
X151624631Y-122786457D01*
X151751579Y-122596466D01*
X151839022Y-122385360D01*
X151883600Y-122161250D01*
X151883600Y-121932750D01*
X151839022Y-121708640D01*
X151751579Y-121497534D01*
X151624631Y-121307543D01*
X151463057Y-121145969D01*
X151273066Y-121019021D01*
X151061960Y-120931578D01*
X150837850Y-120887000D01*
X150609350Y-120887000D01*
X150385240Y-120931578D01*
X150174134Y-121019021D01*
X149984143Y-121145969D01*
X149822569Y-121307543D01*
X149695621Y-121497534D01*
X149608178Y-121708640D01*
X149563600Y-121932750D01*
X149563600Y-122161250D01*
X149608178Y-122385360D01*
X149695621Y-122596466D01*
X149822569Y-122786457D01*
X149984143Y-122948031D01*
X150174134Y-123074979D01*
X150194947Y-123083600D01*
X148712253Y-123083600D01*
X148733066Y-123074979D01*
X148923057Y-122948031D01*
X149084631Y-122786457D01*
X149211579Y-122596466D01*
X149299022Y-122385360D01*
X149343600Y-122161250D01*
X149343600Y-121932750D01*
X149299022Y-121708640D01*
X149211579Y-121497534D01*
X149084631Y-121307543D01*
X148923057Y-121145969D01*
X148733066Y-121019021D01*
X148521960Y-120931578D01*
X148297850Y-120887000D01*
X148069350Y-120887000D01*
X147845240Y-120931578D01*
X147634134Y-121019021D01*
X147444143Y-121145969D01*
X147282569Y-121307543D01*
X147155621Y-121497534D01*
X147068178Y-121708640D01*
X147023600Y-121932750D01*
X147023600Y-122161250D01*
X147068178Y-122385360D01*
X147155621Y-122596466D01*
X147282569Y-122786457D01*
X147444143Y-122948031D01*
X147634134Y-123074979D01*
X147654947Y-123083600D01*
X146131573Y-123083600D01*
X146278464Y-123005881D01*
X146453334Y-122863600D01*
X146597086Y-122689938D01*
X146704196Y-122491568D01*
X146770548Y-122276114D01*
X146717515Y-122097000D01*
X145693600Y-122097000D01*
X145693600Y-122117000D01*
X145593600Y-122117000D01*
X145593600Y-122097000D01*
X144569685Y-122097000D01*
X144516652Y-122276114D01*
X144583004Y-122491568D01*
X144690114Y-122689938D01*
X144833866Y-122863600D01*
X145008736Y-123005881D01*
X145155627Y-123083600D01*
X143632253Y-123083600D01*
X143653066Y-123074979D01*
X143843057Y-122948031D01*
X144004631Y-122786457D01*
X144131579Y-122596466D01*
X144219022Y-122385360D01*
X144263600Y-122161250D01*
X144263600Y-121932750D01*
X144240753Y-121817886D01*
X144516652Y-121817886D01*
X144569685Y-121997000D01*
X145593600Y-121997000D01*
X145593600Y-120973163D01*
X145693600Y-120973163D01*
X145693600Y-121997000D01*
X146717515Y-121997000D01*
X146770548Y-121817886D01*
X146704196Y-121602432D01*
X146597086Y-121404062D01*
X146453334Y-121230400D01*
X146278464Y-121088119D01*
X146079197Y-120982688D01*
X145872714Y-120920054D01*
X145693600Y-120973163D01*
X145593600Y-120973163D01*
X145414486Y-120920054D01*
X145208003Y-120982688D01*
X145008736Y-121088119D01*
X144833866Y-121230400D01*
X144690114Y-121404062D01*
X144583004Y-121602432D01*
X144516652Y-121817886D01*
X144240753Y-121817886D01*
X144219022Y-121708640D01*
X144131579Y-121497534D01*
X144004631Y-121307543D01*
X143843057Y-121145969D01*
X143653066Y-121019021D01*
X143538600Y-120971608D01*
X143538600Y-120449182D01*
X144323102Y-119664681D01*
X144326215Y-119662126D01*
X144419466Y-119599818D01*
X144504431Y-119514853D01*
X144571188Y-119414944D01*
X144617171Y-119303931D01*
X144640613Y-119186080D01*
X144640613Y-119065920D01*
X144617171Y-118948069D01*
X144571188Y-118837056D01*
X144504431Y-118737147D01*
X144419466Y-118652182D01*
X144319557Y-118585425D01*
X144208544Y-118539442D01*
X144090693Y-118516000D01*
X143970533Y-118516000D01*
X143852682Y-118539442D01*
X143741669Y-118585425D01*
X143641760Y-118652182D01*
X143630606Y-118663337D01*
X143619451Y-118652182D01*
X143519542Y-118585425D01*
X143408529Y-118539442D01*
X143290678Y-118516000D01*
X143170518Y-118516000D01*
X143052667Y-118539442D01*
X142941654Y-118585425D01*
X142841745Y-118652182D01*
X142756780Y-118737147D01*
X142690023Y-118837056D01*
X142644040Y-118948069D01*
X142620598Y-119065920D01*
X142620598Y-119186080D01*
X142644040Y-119303931D01*
X142657937Y-119337480D01*
X141109917Y-120885501D01*
X139713600Y-120885501D01*
X139652830Y-120891486D01*
X139594394Y-120909212D01*
X139540540Y-120937998D01*
X139493337Y-120976737D01*
X139454598Y-121023940D01*
X139425812Y-121077794D01*
X139408086Y-121136230D01*
X139402101Y-121197000D01*
X139402101Y-122897000D01*
X139408086Y-122957770D01*
X139425812Y-123016206D01*
X139454598Y-123070060D01*
X139465710Y-123083600D01*
X135779382Y-123083600D01*
X135335027Y-123040030D01*
X134923355Y-122915740D01*
X134543661Y-122713854D01*
X134210414Y-122442065D01*
X133936303Y-122110721D01*
X133731773Y-121732450D01*
X133604611Y-121321656D01*
X133558001Y-120878190D01*
X133557998Y-120877429D01*
X133557998Y-120877428D01*
X133557551Y-120689704D01*
X134103000Y-120689704D01*
X134103000Y-121016696D01*
X134166793Y-121337404D01*
X134291927Y-121639505D01*
X134473594Y-121911388D01*
X134704812Y-122142606D01*
X134976695Y-122324273D01*
X135278796Y-122449407D01*
X135599504Y-122513200D01*
X135926496Y-122513200D01*
X136247204Y-122449407D01*
X136549305Y-122324273D01*
X136821188Y-122142606D01*
X137052406Y-121911388D01*
X137234073Y-121639505D01*
X137359207Y-121337404D01*
X137423000Y-121016696D01*
X137423000Y-120689704D01*
X137359207Y-120368996D01*
X137234073Y-120066895D01*
X137052406Y-119795012D01*
X136821188Y-119563794D01*
X136549305Y-119382127D01*
X136247204Y-119256993D01*
X135926496Y-119193200D01*
X135599504Y-119193200D01*
X135278796Y-119256993D01*
X134976695Y-119382127D01*
X134704812Y-119563794D01*
X134473594Y-119795012D01*
X134291927Y-120066895D01*
X134166793Y-120368996D01*
X134103000Y-120689704D01*
X133557551Y-120689704D01*
X133552920Y-118745005D01*
X133557969Y-114705876D01*
X133560502Y-114710615D01*
X133674219Y-114849181D01*
X133812785Y-114962898D01*
X133970873Y-115047398D01*
X134142409Y-115099433D01*
X134276096Y-115112600D01*
X135065504Y-115112600D01*
X135199191Y-115099433D01*
X135370727Y-115047398D01*
X135528815Y-114962898D01*
X135667381Y-114849181D01*
X135781098Y-114710615D01*
X135865598Y-114552527D01*
X135917633Y-114380991D01*
X135935203Y-114202600D01*
X135917633Y-114024209D01*
X135865598Y-113852673D01*
X135781098Y-113694585D01*
X135667381Y-113556019D01*
X135528815Y-113442302D01*
X135370727Y-113357802D01*
X135199191Y-113305767D01*
X135065504Y-113292600D01*
X134276096Y-113292600D01*
X134142409Y-113305767D01*
X133970873Y-113357802D01*
X133812785Y-113442302D01*
X133674219Y-113556019D01*
X133560502Y-113694585D01*
X133558000Y-113699266D01*
X133558000Y-113100661D01*
X136335800Y-113100661D01*
X136335800Y-113304539D01*
X136375574Y-113504498D01*
X136453595Y-113692856D01*
X136566863Y-113862374D01*
X136711026Y-114006537D01*
X136880544Y-114119805D01*
X137068902Y-114197826D01*
X137268861Y-114237600D01*
X137472739Y-114237600D01*
X137672698Y-114197826D01*
X137861056Y-114119805D01*
X138030574Y-114006537D01*
X138174737Y-113862374D01*
X138213741Y-113804000D01*
X160677101Y-113804000D01*
X160677101Y-115304000D01*
X160683086Y-115364770D01*
X160700812Y-115423206D01*
X160729598Y-115477060D01*
X160768337Y-115524263D01*
X160815540Y-115563002D01*
X160869394Y-115591788D01*
X160927830Y-115609514D01*
X160988600Y-115615499D01*
X161988600Y-115615499D01*
X162049370Y-115609514D01*
X162107806Y-115591788D01*
X162138600Y-115575328D01*
X162169394Y-115591788D01*
X162227830Y-115609514D01*
X162288600Y-115615499D01*
X162319966Y-115615499D01*
X162305600Y-115687720D01*
X162305600Y-115807880D01*
X162329042Y-115925731D01*
X162375025Y-116036744D01*
X162441782Y-116136653D01*
X162526747Y-116221618D01*
X162626656Y-116288375D01*
X162737669Y-116334358D01*
X162855520Y-116357800D01*
X162975680Y-116357800D01*
X163093531Y-116334358D01*
X163204544Y-116288375D01*
X163304453Y-116221618D01*
X163389418Y-116136653D01*
X163456175Y-116036744D01*
X163502158Y-115925731D01*
X163525600Y-115807880D01*
X163525600Y-115687720D01*
X163508902Y-115603772D01*
X163527830Y-115609514D01*
X163588600Y-115615499D01*
X164588600Y-115615499D01*
X164649370Y-115609514D01*
X164707806Y-115591788D01*
X164761660Y-115563002D01*
X164808863Y-115524263D01*
X164847602Y-115477060D01*
X164876388Y-115423206D01*
X164894114Y-115364770D01*
X164900099Y-115304000D01*
X164900099Y-114989000D01*
X167136046Y-114989000D01*
X167157400Y-114991103D01*
X167178754Y-114989000D01*
X167178762Y-114989000D01*
X167242675Y-114982705D01*
X167324672Y-114957831D01*
X167400242Y-114917439D01*
X167466479Y-114863079D01*
X167480100Y-114846482D01*
X168610383Y-113716200D01*
X168665280Y-113716200D01*
X168783131Y-113692758D01*
X168894144Y-113646775D01*
X168994053Y-113580018D01*
X169079018Y-113495053D01*
X169145775Y-113395144D01*
X169191758Y-113284131D01*
X169215200Y-113166280D01*
X169215200Y-113046120D01*
X169191758Y-112928269D01*
X169145775Y-112817256D01*
X169079018Y-112717347D01*
X168994053Y-112632382D01*
X168894144Y-112565625D01*
X168783131Y-112519642D01*
X168665280Y-112496200D01*
X168545120Y-112496200D01*
X168427269Y-112519642D01*
X168316256Y-112565625D01*
X168216347Y-112632382D01*
X168131382Y-112717347D01*
X168064625Y-112817256D01*
X168018642Y-112928269D01*
X167995200Y-113046120D01*
X167995200Y-113101017D01*
X166977218Y-114119000D01*
X164900099Y-114119000D01*
X164900099Y-113804000D01*
X164894114Y-113743230D01*
X164876388Y-113684794D01*
X164847602Y-113630940D01*
X164808863Y-113583737D01*
X164761660Y-113544998D01*
X164707806Y-113516212D01*
X164649370Y-113498486D01*
X164588600Y-113492501D01*
X163588600Y-113492501D01*
X163527830Y-113498486D01*
X163469394Y-113516212D01*
X163438600Y-113532672D01*
X163407806Y-113516212D01*
X163349370Y-113498486D01*
X163288600Y-113492501D01*
X162288600Y-113492501D01*
X162227830Y-113498486D01*
X162169394Y-113516212D01*
X162138600Y-113532672D01*
X162107806Y-113516212D01*
X162090283Y-113510897D01*
X163081082Y-112520098D01*
X163097679Y-112506477D01*
X163152039Y-112440240D01*
X163182184Y-112383842D01*
X163192431Y-112364671D01*
X163217305Y-112282673D01*
X163223600Y-112218760D01*
X163223600Y-112218752D01*
X163225703Y-112197398D01*
X163223600Y-112176044D01*
X163223600Y-103809364D01*
X163225704Y-103788002D01*
X163217305Y-103702727D01*
X163192431Y-103620729D01*
X163152039Y-103545160D01*
X163111297Y-103495516D01*
X163111295Y-103495514D01*
X163097679Y-103478923D01*
X163081089Y-103465308D01*
X162861598Y-103245817D01*
X162861598Y-103190920D01*
X165226600Y-103190920D01*
X165226600Y-103311080D01*
X165250042Y-103428931D01*
X165296025Y-103539944D01*
X165362782Y-103639853D01*
X165447747Y-103724818D01*
X165547656Y-103791575D01*
X165658669Y-103837558D01*
X165776520Y-103861000D01*
X165831418Y-103861000D01*
X170687600Y-108717182D01*
X170687600Y-108772080D01*
X170711042Y-108889931D01*
X170757025Y-109000944D01*
X170823782Y-109100853D01*
X170908747Y-109185818D01*
X171008656Y-109252575D01*
X171119669Y-109298558D01*
X171237520Y-109322000D01*
X171357680Y-109322000D01*
X171475531Y-109298558D01*
X171586544Y-109252575D01*
X171686453Y-109185818D01*
X171771418Y-109100853D01*
X171838175Y-109000944D01*
X171884158Y-108889931D01*
X171907600Y-108772080D01*
X171907600Y-108651920D01*
X171884158Y-108534069D01*
X171838175Y-108423056D01*
X171771418Y-108323147D01*
X171686453Y-108238182D01*
X171586544Y-108171425D01*
X171475531Y-108125442D01*
X171357680Y-108102000D01*
X171302782Y-108102000D01*
X166446600Y-103245818D01*
X166446600Y-103190920D01*
X166423158Y-103073069D01*
X166377175Y-102962056D01*
X166310418Y-102862147D01*
X166225453Y-102777182D01*
X166125544Y-102710425D01*
X166014531Y-102664442D01*
X165896680Y-102641000D01*
X165776520Y-102641000D01*
X165658669Y-102664442D01*
X165547656Y-102710425D01*
X165447747Y-102777182D01*
X165362782Y-102862147D01*
X165296025Y-102962056D01*
X165250042Y-103073069D01*
X165226600Y-103190920D01*
X162861598Y-103190920D01*
X162838156Y-103073069D01*
X162792173Y-102962056D01*
X162725416Y-102862147D01*
X162640451Y-102777182D01*
X162540542Y-102710425D01*
X162429529Y-102664442D01*
X162311678Y-102641000D01*
X162191518Y-102641000D01*
X162073667Y-102664442D01*
X161962654Y-102710425D01*
X161862745Y-102777182D01*
X161777780Y-102862147D01*
X161711023Y-102962056D01*
X161665040Y-103073069D01*
X161641598Y-103190920D01*
X161641598Y-103311080D01*
X161665040Y-103428931D01*
X161711023Y-103539944D01*
X161777780Y-103639853D01*
X161862745Y-103724818D01*
X161962654Y-103791575D01*
X162073667Y-103837558D01*
X162191518Y-103861000D01*
X162246415Y-103861000D01*
X162353600Y-103968185D01*
X162353601Y-112017215D01*
X161196118Y-113174698D01*
X161179521Y-113188319D01*
X161125161Y-113254557D01*
X161084769Y-113330127D01*
X161059895Y-113412124D01*
X161053600Y-113476037D01*
X161053600Y-113476044D01*
X161051979Y-113492501D01*
X160988600Y-113492501D01*
X160927830Y-113498486D01*
X160869394Y-113516212D01*
X160815540Y-113544998D01*
X160768337Y-113583737D01*
X160729598Y-113630940D01*
X160700812Y-113684794D01*
X160683086Y-113743230D01*
X160677101Y-113804000D01*
X138213741Y-113804000D01*
X138288005Y-113692856D01*
X138366026Y-113504498D01*
X138405800Y-113304539D01*
X138405800Y-113100661D01*
X138366026Y-112900702D01*
X138288005Y-112712344D01*
X138174737Y-112542826D01*
X138030574Y-112398663D01*
X137861056Y-112285395D01*
X137672698Y-112207374D01*
X137472739Y-112167600D01*
X137268861Y-112167600D01*
X137068902Y-112207374D01*
X136880544Y-112285395D01*
X136711026Y-112398663D01*
X136566863Y-112542826D01*
X136453595Y-112712344D01*
X136375574Y-112900702D01*
X136335800Y-113100661D01*
X133558000Y-113100661D01*
X133558000Y-107705934D01*
X133560502Y-107710615D01*
X133674219Y-107849181D01*
X133812785Y-107962898D01*
X133970873Y-108047398D01*
X134142409Y-108099433D01*
X134276096Y-108112600D01*
X135065504Y-108112600D01*
X135186722Y-108100661D01*
X136335800Y-108100661D01*
X136335800Y-108304539D01*
X136375574Y-108504498D01*
X136453595Y-108692856D01*
X136566863Y-108862374D01*
X136711026Y-109006537D01*
X136880544Y-109119805D01*
X137068902Y-109197826D01*
X137268861Y-109237600D01*
X137472739Y-109237600D01*
X137672698Y-109197826D01*
X137861056Y-109119805D01*
X138030574Y-109006537D01*
X138174737Y-108862374D01*
X138288005Y-108692856D01*
X138366026Y-108504498D01*
X138405800Y-108304539D01*
X138405800Y-108169320D01*
X155244400Y-108169320D01*
X155244400Y-108289480D01*
X155267842Y-108407331D01*
X155313825Y-108518344D01*
X155380582Y-108618253D01*
X155465547Y-108703218D01*
X155565456Y-108769975D01*
X155676469Y-108815958D01*
X155794320Y-108839400D01*
X155914480Y-108839400D01*
X156032331Y-108815958D01*
X156143344Y-108769975D01*
X156243253Y-108703218D01*
X156282071Y-108664400D01*
X159395316Y-108664400D01*
X160146598Y-109415682D01*
X160146598Y-109470580D01*
X160170040Y-109588431D01*
X160216023Y-109699444D01*
X160282780Y-109799353D01*
X160367745Y-109884318D01*
X160467654Y-109951075D01*
X160578667Y-109997058D01*
X160696518Y-110020500D01*
X160816678Y-110020500D01*
X160934529Y-109997058D01*
X161045542Y-109951075D01*
X161145451Y-109884318D01*
X161230416Y-109799353D01*
X161297173Y-109699444D01*
X161343156Y-109588431D01*
X161366598Y-109470580D01*
X161366598Y-109350420D01*
X161343156Y-109232569D01*
X161297173Y-109121556D01*
X161230416Y-109021647D01*
X161145451Y-108936682D01*
X161045542Y-108869925D01*
X160934529Y-108823942D01*
X160816678Y-108800500D01*
X160761780Y-108800500D01*
X160190680Y-108229400D01*
X160922089Y-107497992D01*
X160938679Y-107484377D01*
X160993039Y-107418140D01*
X161033431Y-107342570D01*
X161058305Y-107260573D01*
X161064600Y-107196660D01*
X161064600Y-107196653D01*
X161066703Y-107175299D01*
X161064600Y-107153945D01*
X161064600Y-106091671D01*
X161103418Y-106052853D01*
X161170175Y-105952944D01*
X161216158Y-105841931D01*
X161239600Y-105724080D01*
X161239600Y-105603920D01*
X161216158Y-105486069D01*
X161170175Y-105375056D01*
X161103418Y-105275147D01*
X161018453Y-105190182D01*
X160918544Y-105123425D01*
X160807531Y-105077442D01*
X160689680Y-105054000D01*
X160569520Y-105054000D01*
X160451669Y-105077442D01*
X160340656Y-105123425D01*
X160240747Y-105190182D01*
X160155782Y-105275147D01*
X160089025Y-105375056D01*
X160043042Y-105486069D01*
X160019600Y-105603920D01*
X160019600Y-105724080D01*
X160043042Y-105841931D01*
X160089025Y-105952944D01*
X160155782Y-106052853D01*
X160194601Y-106091672D01*
X160194600Y-106995115D01*
X159395316Y-107794400D01*
X156282071Y-107794400D01*
X156243253Y-107755582D01*
X156143344Y-107688825D01*
X156032331Y-107642842D01*
X155914480Y-107619400D01*
X155794320Y-107619400D01*
X155676469Y-107642842D01*
X155565456Y-107688825D01*
X155465547Y-107755582D01*
X155380582Y-107840547D01*
X155313825Y-107940456D01*
X155267842Y-108051469D01*
X155244400Y-108169320D01*
X138405800Y-108169320D01*
X138405800Y-108100661D01*
X138366026Y-107900702D01*
X138288005Y-107712344D01*
X138174737Y-107542826D01*
X138030574Y-107398663D01*
X137861056Y-107285395D01*
X137672698Y-107207374D01*
X137472739Y-107167600D01*
X137268861Y-107167600D01*
X137068902Y-107207374D01*
X136880544Y-107285395D01*
X136711026Y-107398663D01*
X136566863Y-107542826D01*
X136453595Y-107712344D01*
X136375574Y-107900702D01*
X136335800Y-108100661D01*
X135186722Y-108100661D01*
X135199191Y-108099433D01*
X135370727Y-108047398D01*
X135528815Y-107962898D01*
X135667381Y-107849181D01*
X135781098Y-107710615D01*
X135865598Y-107552527D01*
X135917633Y-107380991D01*
X135935203Y-107202600D01*
X135917633Y-107024209D01*
X135865598Y-106852673D01*
X135781098Y-106694585D01*
X135667381Y-106556019D01*
X135528815Y-106442302D01*
X135370727Y-106357802D01*
X135199191Y-106305767D01*
X135065504Y-106292600D01*
X134276096Y-106292600D01*
X134142409Y-106305767D01*
X133970873Y-106357802D01*
X133812785Y-106442302D01*
X133674219Y-106556019D01*
X133560502Y-106694585D01*
X133558000Y-106699266D01*
X133558000Y-104152750D01*
X134323600Y-104152750D01*
X134323600Y-104381250D01*
X134368178Y-104605360D01*
X134455621Y-104816466D01*
X134582569Y-105006457D01*
X134744143Y-105168031D01*
X134934134Y-105294979D01*
X135145240Y-105382422D01*
X135369350Y-105427000D01*
X135597850Y-105427000D01*
X135821960Y-105382422D01*
X135936426Y-105335008D01*
X136240400Y-105638982D01*
X136254021Y-105655579D01*
X136283939Y-105680132D01*
X136320258Y-105709939D01*
X136395827Y-105750331D01*
X136477825Y-105775205D01*
X136563100Y-105783604D01*
X136584462Y-105781500D01*
X139627929Y-105781500D01*
X139666747Y-105820318D01*
X139766656Y-105887075D01*
X139877669Y-105933058D01*
X139995520Y-105956500D01*
X140115680Y-105956500D01*
X140233531Y-105933058D01*
X140344544Y-105887075D01*
X140444453Y-105820318D01*
X140529418Y-105735353D01*
X140596175Y-105635444D01*
X140642158Y-105524431D01*
X140665600Y-105406580D01*
X140665600Y-105286420D01*
X140642158Y-105168569D01*
X140596175Y-105057556D01*
X140529418Y-104957647D01*
X140444453Y-104872682D01*
X140344544Y-104805925D01*
X140233531Y-104759942D01*
X140115680Y-104736500D01*
X139995520Y-104736500D01*
X139877669Y-104759942D01*
X139766656Y-104805925D01*
X139666747Y-104872682D01*
X139627929Y-104911500D01*
X136743282Y-104911500D01*
X136551608Y-104719826D01*
X136553640Y-104714920D01*
X145732100Y-104714920D01*
X145732100Y-104835080D01*
X145755542Y-104952931D01*
X145801525Y-105063944D01*
X145868282Y-105163853D01*
X145953247Y-105248818D01*
X146053156Y-105315575D01*
X146164169Y-105361558D01*
X146282020Y-105385000D01*
X146361876Y-105385000D01*
X146768422Y-105791547D01*
X146782040Y-105808140D01*
X146848277Y-105862500D01*
X146923847Y-105902892D01*
X147005844Y-105927766D01*
X147069757Y-105934061D01*
X147069765Y-105934061D01*
X147091119Y-105936164D01*
X147102829Y-105935011D01*
X147583742Y-106415924D01*
X147583742Y-106470822D01*
X147607184Y-106588673D01*
X147653167Y-106699686D01*
X147719924Y-106799595D01*
X147804889Y-106884560D01*
X147904798Y-106951317D01*
X148015811Y-106997300D01*
X148133662Y-107020742D01*
X148253822Y-107020742D01*
X148371673Y-106997300D01*
X148482686Y-106951317D01*
X148582595Y-106884560D01*
X148667560Y-106799595D01*
X148734317Y-106699686D01*
X148780300Y-106588673D01*
X148803742Y-106470822D01*
X148803742Y-106350662D01*
X148780300Y-106232811D01*
X148734317Y-106121798D01*
X148667560Y-106021889D01*
X148582595Y-105936924D01*
X148482686Y-105870167D01*
X148371673Y-105824184D01*
X148253822Y-105800742D01*
X148198924Y-105800742D01*
X147759644Y-105361462D01*
X147779973Y-105347878D01*
X147864938Y-105262913D01*
X147931695Y-105163004D01*
X147967233Y-105077209D01*
X148075522Y-104968920D01*
X152145600Y-104968920D01*
X152145600Y-105089080D01*
X152169042Y-105206931D01*
X152215025Y-105317944D01*
X152281782Y-105417853D01*
X152366747Y-105502818D01*
X152466656Y-105569575D01*
X152577669Y-105615558D01*
X152695520Y-105639000D01*
X152815680Y-105639000D01*
X152933531Y-105615558D01*
X153044544Y-105569575D01*
X153144453Y-105502818D01*
X153183271Y-105464000D01*
X153736443Y-105464000D01*
X153711015Y-105502056D01*
X153665032Y-105613069D01*
X153641590Y-105730920D01*
X153641590Y-105851080D01*
X153665032Y-105968931D01*
X153711015Y-106079944D01*
X153777772Y-106179853D01*
X153862737Y-106264818D01*
X153962646Y-106331575D01*
X154073659Y-106377558D01*
X154191510Y-106401000D01*
X154311670Y-106401000D01*
X154429521Y-106377558D01*
X154540534Y-106331575D01*
X154640443Y-106264818D01*
X154679261Y-106226000D01*
X157090390Y-106226000D01*
X157149669Y-106250554D01*
X157267520Y-106273996D01*
X157387680Y-106273996D01*
X157505531Y-106250554D01*
X157616544Y-106204571D01*
X157716453Y-106137814D01*
X157801418Y-106052849D01*
X157868175Y-105952940D01*
X157874331Y-105938078D01*
X157888613Y-105943994D01*
X158006464Y-105967436D01*
X158126624Y-105967436D01*
X158244475Y-105943994D01*
X158355488Y-105898011D01*
X158455397Y-105831254D01*
X158540362Y-105746289D01*
X158607119Y-105646380D01*
X158653102Y-105535367D01*
X158676544Y-105417516D01*
X158676544Y-105297356D01*
X158653102Y-105179505D01*
X158607119Y-105068492D01*
X158540362Y-104968583D01*
X158455397Y-104883618D01*
X158355488Y-104816861D01*
X158244475Y-104770878D01*
X158126624Y-104747436D01*
X158071726Y-104747436D01*
X158060808Y-104736518D01*
X158047187Y-104719921D01*
X157980950Y-104665561D01*
X157905380Y-104625169D01*
X157823383Y-104600295D01*
X157759470Y-104594000D01*
X157759462Y-104594000D01*
X157738108Y-104591897D01*
X157716754Y-104594000D01*
X153183271Y-104594000D01*
X153144453Y-104555182D01*
X153044544Y-104488425D01*
X152933531Y-104442442D01*
X152815680Y-104419000D01*
X152695520Y-104419000D01*
X152577669Y-104442442D01*
X152466656Y-104488425D01*
X152366747Y-104555182D01*
X152281782Y-104640147D01*
X152215025Y-104740056D01*
X152169042Y-104851069D01*
X152145600Y-104968920D01*
X148075522Y-104968920D01*
X148382794Y-104661648D01*
X148437691Y-104661648D01*
X148555542Y-104638206D01*
X148666555Y-104592223D01*
X148766464Y-104525466D01*
X148851429Y-104440501D01*
X148918186Y-104340592D01*
X148964169Y-104229579D01*
X148987611Y-104111728D01*
X148987611Y-103991568D01*
X148964169Y-103873717D01*
X148918186Y-103762704D01*
X148851429Y-103662795D01*
X148766464Y-103577830D01*
X148666555Y-103511073D01*
X148555542Y-103465090D01*
X148437691Y-103441648D01*
X148317531Y-103441648D01*
X148199680Y-103465090D01*
X148088667Y-103511073D01*
X147988758Y-103577830D01*
X147903793Y-103662795D01*
X147837036Y-103762704D01*
X147791053Y-103873717D01*
X147767611Y-103991568D01*
X147767611Y-104046465D01*
X147533622Y-104280455D01*
X147451200Y-104264060D01*
X147331040Y-104264060D01*
X147213189Y-104287502D01*
X147102176Y-104333485D01*
X147002267Y-104400242D01*
X146917302Y-104485207D01*
X146895709Y-104517523D01*
X146882675Y-104486056D01*
X146815918Y-104386147D01*
X146730953Y-104301182D01*
X146631044Y-104234425D01*
X146520031Y-104188442D01*
X146402180Y-104165000D01*
X146282020Y-104165000D01*
X146164169Y-104188442D01*
X146053156Y-104234425D01*
X145953247Y-104301182D01*
X145868282Y-104386147D01*
X145801525Y-104486056D01*
X145755542Y-104597069D01*
X145732100Y-104714920D01*
X136553640Y-104714920D01*
X136599022Y-104605360D01*
X136643600Y-104381250D01*
X136643600Y-104152750D01*
X136599022Y-103928640D01*
X136511579Y-103717534D01*
X136384631Y-103527543D01*
X136223057Y-103365969D01*
X136033066Y-103239021D01*
X135821960Y-103151578D01*
X135597850Y-103107000D01*
X135369350Y-103107000D01*
X135145240Y-103151578D01*
X134934134Y-103239021D01*
X134744143Y-103365969D01*
X134582569Y-103527543D01*
X134455621Y-103717534D01*
X134368178Y-103928640D01*
X134323600Y-104152750D01*
X133558000Y-104152750D01*
X133558000Y-102577000D01*
X134332148Y-102577000D01*
X134337940Y-102635810D01*
X134355095Y-102692361D01*
X134382952Y-102744478D01*
X134420441Y-102790159D01*
X134466122Y-102827648D01*
X134518239Y-102855505D01*
X134574790Y-102872660D01*
X134633600Y-102878452D01*
X135358600Y-102877000D01*
X135433600Y-102802000D01*
X135433600Y-101777000D01*
X135533600Y-101777000D01*
X135533600Y-102802000D01*
X135608600Y-102877000D01*
X136333600Y-102878452D01*
X136392410Y-102872660D01*
X136448961Y-102855505D01*
X136501078Y-102827648D01*
X136546759Y-102790159D01*
X136584248Y-102744478D01*
X136612105Y-102692361D01*
X136629260Y-102635810D01*
X136635052Y-102577000D01*
X136633600Y-101852000D01*
X136558600Y-101777000D01*
X135533600Y-101777000D01*
X135433600Y-101777000D01*
X134408600Y-101777000D01*
X134333600Y-101852000D01*
X134332148Y-102577000D01*
X133558000Y-102577000D01*
X133558000Y-100877000D01*
X134332148Y-100877000D01*
X134333600Y-101602000D01*
X134408600Y-101677000D01*
X135433600Y-101677000D01*
X135433600Y-100652000D01*
X135533600Y-100652000D01*
X135533600Y-101677000D01*
X136558600Y-101677000D01*
X136633600Y-101602000D01*
X136635052Y-100877000D01*
X136629260Y-100818190D01*
X136612105Y-100761639D01*
X136584248Y-100709522D01*
X136546759Y-100663841D01*
X136501078Y-100626352D01*
X136448961Y-100598495D01*
X136392410Y-100581340D01*
X136333600Y-100575548D01*
X135608600Y-100577000D01*
X135533600Y-100652000D01*
X135433600Y-100652000D01*
X135358600Y-100577000D01*
X134633600Y-100575548D01*
X134574790Y-100581340D01*
X134518239Y-100598495D01*
X134466122Y-100626352D01*
X134420441Y-100663841D01*
X134382952Y-100709522D01*
X134355095Y-100761639D01*
X134337940Y-100818190D01*
X134332148Y-100877000D01*
X133558000Y-100877000D01*
X133558000Y-96951517D01*
X146795197Y-96951517D01*
X146795197Y-97071677D01*
X146818639Y-97189528D01*
X146864622Y-97300541D01*
X146931379Y-97400450D01*
X147016344Y-97485415D01*
X147116253Y-97552172D01*
X147227266Y-97598155D01*
X147345117Y-97621597D01*
X147465277Y-97621597D01*
X147583128Y-97598155D01*
X147694141Y-97552172D01*
X147794050Y-97485415D01*
X147857868Y-97421597D01*
X148349526Y-97421597D01*
X148376047Y-97448118D01*
X148475956Y-97514875D01*
X148586969Y-97560858D01*
X148704820Y-97584300D01*
X148824980Y-97584300D01*
X148942831Y-97560858D01*
X149053844Y-97514875D01*
X149153753Y-97448118D01*
X149238718Y-97363153D01*
X149305475Y-97263244D01*
X149351458Y-97152231D01*
X149374900Y-97034380D01*
X149374900Y-96914220D01*
X149351458Y-96796369D01*
X149305475Y-96685356D01*
X149238718Y-96585447D01*
X149153753Y-96500482D01*
X149053844Y-96433725D01*
X148942831Y-96387742D01*
X148824980Y-96364300D01*
X148704820Y-96364300D01*
X148586969Y-96387742D01*
X148475956Y-96433725D01*
X148376047Y-96500482D01*
X148291082Y-96585447D01*
X148280291Y-96601597D01*
X147857868Y-96601597D01*
X147794050Y-96537779D01*
X147694141Y-96471022D01*
X147583128Y-96425039D01*
X147465277Y-96401597D01*
X147345117Y-96401597D01*
X147227266Y-96425039D01*
X147116253Y-96471022D01*
X147016344Y-96537779D01*
X146931379Y-96622744D01*
X146864622Y-96722653D01*
X146818639Y-96833666D01*
X146795197Y-96951517D01*
X133558000Y-96951517D01*
X133558000Y-95541400D01*
X161803301Y-95541400D01*
X161803301Y-97041400D01*
X161809286Y-97102170D01*
X161827012Y-97160606D01*
X161855798Y-97214460D01*
X161894537Y-97261663D01*
X161941740Y-97300402D01*
X161995594Y-97329188D01*
X162054030Y-97346914D01*
X162114800Y-97352899D01*
X163614800Y-97352899D01*
X163675570Y-97346914D01*
X163734006Y-97329188D01*
X163787860Y-97300402D01*
X163835063Y-97261663D01*
X163873802Y-97214460D01*
X163902588Y-97160606D01*
X163920314Y-97102170D01*
X163926299Y-97041400D01*
X163926299Y-96881982D01*
X164023920Y-96901400D01*
X164144080Y-96901400D01*
X164261931Y-96877958D01*
X164372944Y-96831975D01*
X164472853Y-96765218D01*
X164557818Y-96680253D01*
X164624575Y-96580344D01*
X164670558Y-96469331D01*
X164694000Y-96351480D01*
X164694000Y-96291400D01*
X170134388Y-96291400D01*
X170156785Y-96518800D01*
X170223115Y-96737460D01*
X170330829Y-96938979D01*
X170475788Y-97115612D01*
X170652421Y-97260571D01*
X170853940Y-97368285D01*
X171072600Y-97434615D01*
X171243021Y-97451400D01*
X171656979Y-97451400D01*
X171827400Y-97434615D01*
X172046060Y-97368285D01*
X172247579Y-97260571D01*
X172424212Y-97115612D01*
X172569171Y-96938979D01*
X172676885Y-96737460D01*
X172743215Y-96518800D01*
X172765612Y-96291400D01*
X172743215Y-96064000D01*
X172676885Y-95845340D01*
X172569171Y-95643821D01*
X172424212Y-95467188D01*
X172247579Y-95322229D01*
X172046060Y-95214515D01*
X171827400Y-95148185D01*
X171656979Y-95131400D01*
X171243021Y-95131400D01*
X171072600Y-95148185D01*
X170853940Y-95214515D01*
X170652421Y-95322229D01*
X170475788Y-95467188D01*
X170330829Y-95643821D01*
X170223115Y-95845340D01*
X170156785Y-96064000D01*
X170134388Y-96291400D01*
X164694000Y-96291400D01*
X164694000Y-96231320D01*
X164670558Y-96113469D01*
X164624575Y-96002456D01*
X164557818Y-95902547D01*
X164472853Y-95817582D01*
X164372944Y-95750825D01*
X164261931Y-95704842D01*
X164144080Y-95681400D01*
X164023920Y-95681400D01*
X163926299Y-95700818D01*
X163926299Y-95541400D01*
X163920314Y-95480630D01*
X163902588Y-95422194D01*
X163873802Y-95368340D01*
X163835063Y-95321137D01*
X163787860Y-95282398D01*
X163734006Y-95253612D01*
X163675570Y-95235886D01*
X163614800Y-95229901D01*
X162114800Y-95229901D01*
X162054030Y-95235886D01*
X161995594Y-95253612D01*
X161941740Y-95282398D01*
X161894537Y-95321137D01*
X161855798Y-95368340D01*
X161827012Y-95422194D01*
X161809286Y-95480630D01*
X161803301Y-95541400D01*
X133558000Y-95541400D01*
X133558000Y-94641400D01*
X170148548Y-94641400D01*
X170154340Y-94700210D01*
X170171495Y-94756761D01*
X170199352Y-94808878D01*
X170236841Y-94854559D01*
X170282522Y-94892048D01*
X170334639Y-94919905D01*
X170391190Y-94937060D01*
X170450000Y-94942852D01*
X171325000Y-94941400D01*
X171400000Y-94866400D01*
X171400000Y-93841400D01*
X171500000Y-93841400D01*
X171500000Y-94866400D01*
X171575000Y-94941400D01*
X172450000Y-94942852D01*
X172508810Y-94937060D01*
X172565361Y-94919905D01*
X172617478Y-94892048D01*
X172663159Y-94854559D01*
X172700648Y-94808878D01*
X172728505Y-94756761D01*
X172745660Y-94700210D01*
X172751452Y-94641400D01*
X172750000Y-93916400D01*
X172675000Y-93841400D01*
X171500000Y-93841400D01*
X171400000Y-93841400D01*
X170225000Y-93841400D01*
X170150000Y-93916400D01*
X170148548Y-94641400D01*
X133558000Y-94641400D01*
X133558000Y-92941400D01*
X170148548Y-92941400D01*
X170150000Y-93666400D01*
X170225000Y-93741400D01*
X171400000Y-93741400D01*
X171400000Y-92716400D01*
X171500000Y-92716400D01*
X171500000Y-93741400D01*
X172675000Y-93741400D01*
X172750000Y-93666400D01*
X172751452Y-92941400D01*
X172745660Y-92882590D01*
X172728505Y-92826039D01*
X172700648Y-92773922D01*
X172663159Y-92728241D01*
X172617478Y-92690752D01*
X172565361Y-92662895D01*
X172508810Y-92645740D01*
X172450000Y-92639948D01*
X171575000Y-92641400D01*
X171500000Y-92716400D01*
X171400000Y-92716400D01*
X171325000Y-92641400D01*
X170450000Y-92639948D01*
X170391190Y-92645740D01*
X170334639Y-92662895D01*
X170282522Y-92690752D01*
X170236841Y-92728241D01*
X170199352Y-92773922D01*
X170171495Y-92826039D01*
X170154340Y-92882590D01*
X170148548Y-92941400D01*
X133558000Y-92941400D01*
X133558000Y-91452750D01*
X134323600Y-91452750D01*
X134323600Y-91681250D01*
X134368178Y-91905360D01*
X134455621Y-92116466D01*
X134582569Y-92306457D01*
X134744143Y-92468031D01*
X134934134Y-92594979D01*
X135145240Y-92682422D01*
X135369350Y-92727000D01*
X135597850Y-92727000D01*
X135821960Y-92682422D01*
X136033066Y-92594979D01*
X136160246Y-92510000D01*
X142037537Y-92510000D01*
X142063809Y-92536272D01*
X142163718Y-92603029D01*
X142274731Y-92649012D01*
X142392582Y-92672454D01*
X142512742Y-92672454D01*
X142630593Y-92649012D01*
X142741606Y-92603029D01*
X142841515Y-92536272D01*
X142926480Y-92451307D01*
X142993237Y-92351398D01*
X143039220Y-92240385D01*
X143062662Y-92122534D01*
X143062662Y-92002374D01*
X143039220Y-91884523D01*
X142993237Y-91773510D01*
X142926480Y-91673601D01*
X142841515Y-91588636D01*
X142741606Y-91521879D01*
X142630593Y-91475896D01*
X142512742Y-91452454D01*
X142392582Y-91452454D01*
X142274731Y-91475896D01*
X142163718Y-91521879D01*
X142063809Y-91588636D01*
X142012445Y-91640000D01*
X136643600Y-91640000D01*
X136643600Y-91452750D01*
X136599022Y-91228640D01*
X136511579Y-91017534D01*
X136384631Y-90827543D01*
X136223057Y-90665969D01*
X136033066Y-90539021D01*
X135821960Y-90451578D01*
X135597850Y-90407000D01*
X135369350Y-90407000D01*
X135145240Y-90451578D01*
X134934134Y-90539021D01*
X134744143Y-90665969D01*
X134582569Y-90827543D01*
X134455621Y-91017534D01*
X134368178Y-91228640D01*
X134323600Y-91452750D01*
X133558000Y-91452750D01*
X133558000Y-89877000D01*
X134332148Y-89877000D01*
X134337940Y-89935810D01*
X134355095Y-89992361D01*
X134382952Y-90044478D01*
X134420441Y-90090159D01*
X134466122Y-90127648D01*
X134518239Y-90155505D01*
X134574790Y-90172660D01*
X134633600Y-90178452D01*
X135358600Y-90177000D01*
X135433600Y-90102000D01*
X135433600Y-89077000D01*
X135533600Y-89077000D01*
X135533600Y-90102000D01*
X135608600Y-90177000D01*
X136333600Y-90178452D01*
X136392410Y-90172660D01*
X136448961Y-90155505D01*
X136501078Y-90127648D01*
X136546759Y-90090159D01*
X136584248Y-90044478D01*
X136612105Y-89992361D01*
X136629260Y-89935810D01*
X136635052Y-89877000D01*
X136633600Y-89152000D01*
X136558600Y-89077000D01*
X135533600Y-89077000D01*
X135433600Y-89077000D01*
X134408600Y-89077000D01*
X134333600Y-89152000D01*
X134332148Y-89877000D01*
X133558000Y-89877000D01*
X133558000Y-88177000D01*
X134332148Y-88177000D01*
X134333600Y-88902000D01*
X134408600Y-88977000D01*
X135433600Y-88977000D01*
X135433600Y-87952000D01*
X135533600Y-87952000D01*
X135533600Y-88977000D01*
X136558600Y-88977000D01*
X136633600Y-88902000D01*
X136633978Y-88712920D01*
X141325200Y-88712920D01*
X141325200Y-88833080D01*
X141348642Y-88950931D01*
X141394625Y-89061944D01*
X141461382Y-89161853D01*
X141546347Y-89246818D01*
X141646256Y-89313575D01*
X141757269Y-89359558D01*
X141875120Y-89383000D01*
X141995280Y-89383000D01*
X142113131Y-89359558D01*
X142177248Y-89333000D01*
X143074901Y-89333000D01*
X143074901Y-89523000D01*
X143080886Y-89583770D01*
X143098612Y-89642206D01*
X143127398Y-89696060D01*
X143166137Y-89743263D01*
X143213340Y-89782002D01*
X143267194Y-89810788D01*
X143325630Y-89828514D01*
X143386400Y-89834499D01*
X144386400Y-89834499D01*
X144447170Y-89828514D01*
X144505606Y-89810788D01*
X144536400Y-89794328D01*
X144567194Y-89810788D01*
X144625630Y-89828514D01*
X144686400Y-89834499D01*
X145686400Y-89834499D01*
X145747170Y-89828514D01*
X145805606Y-89810788D01*
X145836400Y-89794328D01*
X145867194Y-89810788D01*
X145925630Y-89828514D01*
X145986400Y-89834499D01*
X146986400Y-89834499D01*
X147047170Y-89828514D01*
X147105606Y-89810788D01*
X147159460Y-89782002D01*
X147206663Y-89743263D01*
X147245402Y-89696060D01*
X147274188Y-89642206D01*
X147291914Y-89583770D01*
X147297899Y-89523000D01*
X147297899Y-89333000D01*
X155623704Y-89333000D01*
X155651200Y-89335708D01*
X155678696Y-89333000D01*
X155678706Y-89333000D01*
X155760979Y-89324897D01*
X155866539Y-89292875D01*
X155963824Y-89240875D01*
X155991623Y-89218061D01*
X156027730Y-89188429D01*
X156027731Y-89188428D01*
X156049095Y-89170895D01*
X156066628Y-89149531D01*
X156554039Y-88662120D01*
X157428800Y-88662120D01*
X157428800Y-88782280D01*
X157452242Y-88900131D01*
X157498225Y-89011144D01*
X157564982Y-89111053D01*
X157649947Y-89196018D01*
X157749856Y-89262775D01*
X157860869Y-89308758D01*
X157978720Y-89332200D01*
X158098880Y-89332200D01*
X158216731Y-89308758D01*
X158280848Y-89282200D01*
X167154041Y-89282200D01*
X167756046Y-89884206D01*
X167782604Y-89948323D01*
X167849361Y-90048232D01*
X167934326Y-90133197D01*
X168034235Y-90199954D01*
X168145248Y-90245937D01*
X168263099Y-90269379D01*
X168383259Y-90269379D01*
X168501110Y-90245937D01*
X168612123Y-90199954D01*
X168712032Y-90133197D01*
X168796997Y-90048232D01*
X168863754Y-89948323D01*
X168909737Y-89837310D01*
X168933179Y-89719459D01*
X168933179Y-89599299D01*
X168909737Y-89481448D01*
X168863754Y-89370435D01*
X168796997Y-89270526D01*
X168712032Y-89185561D01*
X168612123Y-89118804D01*
X168548006Y-89092246D01*
X167801428Y-88345669D01*
X167783895Y-88324305D01*
X167753283Y-88299182D01*
X167698624Y-88254325D01*
X167667135Y-88237494D01*
X167606194Y-88204920D01*
X169316000Y-88204920D01*
X169316000Y-88325080D01*
X169339442Y-88442931D01*
X169366000Y-88507048D01*
X169366001Y-89405895D01*
X169363292Y-89433400D01*
X169374104Y-89543179D01*
X169406126Y-89648739D01*
X169458125Y-89746024D01*
X169510571Y-89809930D01*
X169510578Y-89809937D01*
X169528106Y-89831295D01*
X169549464Y-89848823D01*
X171035266Y-91334625D01*
X171061825Y-91398744D01*
X171128582Y-91498653D01*
X171213547Y-91583618D01*
X171313456Y-91650375D01*
X171424469Y-91696358D01*
X171542320Y-91719800D01*
X171662480Y-91719800D01*
X171780331Y-91696358D01*
X171891344Y-91650375D01*
X171991253Y-91583618D01*
X172076218Y-91498653D01*
X172142975Y-91398744D01*
X172188958Y-91287731D01*
X172212400Y-91169880D01*
X172212400Y-91049720D01*
X172188958Y-90931869D01*
X172142975Y-90820856D01*
X172076218Y-90720947D01*
X171991253Y-90635982D01*
X171891344Y-90569225D01*
X171827225Y-90542666D01*
X170486000Y-89201441D01*
X170486000Y-88507048D01*
X170512558Y-88442931D01*
X170536000Y-88325080D01*
X170536000Y-88204920D01*
X170512558Y-88087069D01*
X170466575Y-87976056D01*
X170399818Y-87876147D01*
X170314853Y-87791182D01*
X170214944Y-87724425D01*
X170103931Y-87678442D01*
X169986080Y-87655000D01*
X169865920Y-87655000D01*
X169748069Y-87678442D01*
X169637056Y-87724425D01*
X169537147Y-87791182D01*
X169452182Y-87876147D01*
X169385425Y-87976056D01*
X169339442Y-88087069D01*
X169316000Y-88204920D01*
X167606194Y-88204920D01*
X167601339Y-88202325D01*
X167495779Y-88170303D01*
X167413506Y-88162200D01*
X167413496Y-88162200D01*
X167386000Y-88159492D01*
X167358504Y-88162200D01*
X158280848Y-88162200D01*
X158216731Y-88135642D01*
X158098880Y-88112200D01*
X157978720Y-88112200D01*
X157860869Y-88135642D01*
X157749856Y-88181625D01*
X157649947Y-88248382D01*
X157564982Y-88333347D01*
X157498225Y-88433256D01*
X157452242Y-88544269D01*
X157428800Y-88662120D01*
X156554039Y-88662120D01*
X156688825Y-88527334D01*
X156752944Y-88500775D01*
X156852853Y-88434018D01*
X156937818Y-88349053D01*
X157004575Y-88249144D01*
X157050558Y-88138131D01*
X157074000Y-88020280D01*
X157074000Y-87900120D01*
X157050558Y-87782269D01*
X157004575Y-87671256D01*
X156937818Y-87571347D01*
X156852853Y-87486382D01*
X156752944Y-87419625D01*
X156641931Y-87373642D01*
X156524080Y-87350200D01*
X156403920Y-87350200D01*
X156286069Y-87373642D01*
X156175056Y-87419625D01*
X156075147Y-87486382D01*
X155990182Y-87571347D01*
X155923425Y-87671256D01*
X155896866Y-87735375D01*
X155419241Y-88213000D01*
X147297899Y-88213000D01*
X147297899Y-88023000D01*
X147291914Y-87962230D01*
X147274188Y-87903794D01*
X147245402Y-87849940D01*
X147206663Y-87802737D01*
X147159460Y-87763998D01*
X147105606Y-87735212D01*
X147047170Y-87717486D01*
X146986400Y-87711501D01*
X145986400Y-87711501D01*
X145925630Y-87717486D01*
X145867194Y-87735212D01*
X145836400Y-87751672D01*
X145805606Y-87735212D01*
X145747170Y-87717486D01*
X145739435Y-87716724D01*
X145722158Y-87629869D01*
X145676175Y-87518856D01*
X145609418Y-87418947D01*
X145524453Y-87333982D01*
X145424544Y-87267225D01*
X145313531Y-87221242D01*
X145195680Y-87197800D01*
X145075520Y-87197800D01*
X144957669Y-87221242D01*
X144846656Y-87267225D01*
X144746747Y-87333982D01*
X144661782Y-87418947D01*
X144595025Y-87518856D01*
X144549042Y-87629869D01*
X144525927Y-87746074D01*
X144505606Y-87735212D01*
X144447170Y-87717486D01*
X144386400Y-87711501D01*
X143386400Y-87711501D01*
X143325630Y-87717486D01*
X143267194Y-87735212D01*
X143213340Y-87763998D01*
X143166137Y-87802737D01*
X143127398Y-87849940D01*
X143098612Y-87903794D01*
X143080886Y-87962230D01*
X143074901Y-88023000D01*
X143074901Y-88213000D01*
X142177248Y-88213000D01*
X142113131Y-88186442D01*
X141995280Y-88163000D01*
X141875120Y-88163000D01*
X141757269Y-88186442D01*
X141646256Y-88232425D01*
X141546347Y-88299182D01*
X141461382Y-88384147D01*
X141394625Y-88484056D01*
X141348642Y-88595069D01*
X141325200Y-88712920D01*
X136633978Y-88712920D01*
X136635052Y-88177000D01*
X136629260Y-88118190D01*
X136612105Y-88061639D01*
X136584248Y-88009522D01*
X136546759Y-87963841D01*
X136501078Y-87926352D01*
X136448961Y-87898495D01*
X136392410Y-87881340D01*
X136333600Y-87875548D01*
X135608600Y-87877000D01*
X135533600Y-87952000D01*
X135433600Y-87952000D01*
X135358600Y-87877000D01*
X134633600Y-87875548D01*
X134574790Y-87881340D01*
X134518239Y-87898495D01*
X134466122Y-87926352D01*
X134420441Y-87963841D01*
X134382952Y-88009522D01*
X134355095Y-88061639D01*
X134337940Y-88118190D01*
X134332148Y-88177000D01*
X133558000Y-88177000D01*
X133558000Y-84936000D01*
X170455418Y-84936000D01*
X170414703Y-84976715D01*
G37*
G04 #@! TD.AperFunction*
M02*
