G04 #@! TF.GenerationSoftware,KiCad,Pcbnew,(5.1.8)-1*
G04 #@! TF.CreationDate,2021-08-02T21:41:25+02:00*
G04 #@! TF.ProjectId,SuperPower-uC-KiCad,53757065-7250-46f7-9765-722d75432d4b,rev?*
G04 #@! TF.SameCoordinates,Original*
G04 #@! TF.FileFunction,Copper,L4,Bot*
G04 #@! TF.FilePolarity,Positive*
%FSLAX46Y46*%
G04 Gerber Fmt 4.6, Leading zero omitted, Abs format (unit mm)*
G04 Created by KiCad (PCBNEW (5.1.8)-1) date 2021-08-02 21:41:25*
%MOMM*%
%LPD*%
G01*
G04 APERTURE LIST*
G04 #@! TA.AperFunction,SMDPad,CuDef*
%ADD10R,1.000000X1.500000*%
G04 #@! TD*
G04 #@! TA.AperFunction,ComponentPad*
%ADD11O,1.700000X1.700000*%
G04 #@! TD*
G04 #@! TA.AperFunction,ComponentPad*
%ADD12R,1.700000X1.700000*%
G04 #@! TD*
G04 #@! TA.AperFunction,ComponentPad*
%ADD13O,1.900000X1.200000*%
G04 #@! TD*
G04 #@! TA.AperFunction,ComponentPad*
%ADD14C,1.450000*%
G04 #@! TD*
G04 #@! TA.AperFunction,ComponentPad*
%ADD15O,1.750000X1.200000*%
G04 #@! TD*
G04 #@! TA.AperFunction,SMDPad,CuDef*
%ADD16R,1.500000X1.500000*%
G04 #@! TD*
G04 #@! TA.AperFunction,ComponentPad*
%ADD17O,2.000000X1.700000*%
G04 #@! TD*
G04 #@! TA.AperFunction,ViaPad*
%ADD18C,0.600000*%
G04 #@! TD*
G04 #@! TA.AperFunction,ViaPad*
%ADD19C,0.800000*%
G04 #@! TD*
G04 #@! TA.AperFunction,Conductor*
%ADD20C,0.250000*%
G04 #@! TD*
G04 #@! TA.AperFunction,Conductor*
%ADD21C,0.500000*%
G04 #@! TD*
G04 #@! TA.AperFunction,Conductor*
%ADD22C,0.200000*%
G04 #@! TD*
G04 #@! TA.AperFunction,Conductor*
%ADD23C,0.100000*%
G04 #@! TD*
G04 APERTURE END LIST*
D10*
X173822600Y-86233000D03*
X175122600Y-86233000D03*
X157708600Y-116078000D03*
X156408600Y-116078000D03*
X164088600Y-114554000D03*
X162788600Y-114554000D03*
X161488600Y-114554000D03*
D11*
X171043600Y-122047000D03*
X168503600Y-122047000D03*
X165963600Y-122047000D03*
X163423600Y-122047000D03*
X160883600Y-122047000D03*
X158343600Y-122047000D03*
X155803600Y-122047000D03*
X153263600Y-122047000D03*
X150723600Y-122047000D03*
X148183600Y-122047000D03*
X145643600Y-122047000D03*
X143103600Y-122047000D03*
D12*
X140563600Y-122047000D03*
D11*
X135483600Y-104267000D03*
D12*
X135483600Y-101727000D03*
D13*
X134670800Y-114202600D03*
X134670800Y-107202600D03*
D14*
X137370800Y-113202600D03*
X137370800Y-108202600D03*
D11*
X135483600Y-91567000D03*
D12*
X135483600Y-89027000D03*
D15*
X171907200Y-86258400D03*
G04 #@! TA.AperFunction,ComponentPad*
G36*
G01*
X172532201Y-88858400D02*
X171282199Y-88858400D01*
G75*
G02*
X171032200Y-88608401I0J249999D01*
G01*
X171032200Y-87908399D01*
G75*
G02*
X171282199Y-87658400I249999J0D01*
G01*
X172532201Y-87658400D01*
G75*
G02*
X172782200Y-87908399I0J-249999D01*
G01*
X172782200Y-88608401D01*
G75*
G02*
X172532201Y-88858400I-249999J0D01*
G01*
G37*
G04 #@! TD.AperFunction*
D16*
X162864800Y-96291400D03*
D10*
X170438600Y-90424000D03*
X169138600Y-90424000D03*
X167838600Y-90424000D03*
D17*
X171450000Y-96291400D03*
G04 #@! TA.AperFunction,ComponentPad*
G36*
G01*
X170700000Y-92941400D02*
X172200000Y-92941400D01*
G75*
G02*
X172450000Y-93191400I0J-250000D01*
G01*
X172450000Y-94391400D01*
G75*
G02*
X172200000Y-94641400I-250000J0D01*
G01*
X170700000Y-94641400D01*
G75*
G02*
X170450000Y-94391400I0J250000D01*
G01*
X170450000Y-93191400D01*
G75*
G02*
X170700000Y-92941400I250000J0D01*
G01*
G37*
G04 #@! TD.AperFunction*
D18*
X151765000Y-109397800D03*
X141163384Y-109843220D03*
D19*
X160172400Y-85217004D03*
X160193198Y-86059800D03*
D18*
X163982400Y-102844600D03*
X148399500Y-90208100D03*
X145910300Y-92494100D03*
X143327128Y-106334560D03*
X137261600Y-94615000D03*
X138633200Y-112522026D03*
X142586521Y-90852077D03*
X138277600Y-114300000D03*
X144881600Y-113665000D03*
X145643600Y-113665000D03*
X146405600Y-113665000D03*
X147167600Y-113665000D03*
X147929600Y-113665000D03*
X171805600Y-104394000D03*
X173329600Y-104394000D03*
D19*
X172313600Y-119634000D03*
X159232600Y-118618000D03*
X161391600Y-118491000D03*
X152374600Y-117983000D03*
D18*
X155676600Y-118872000D03*
X166217600Y-106172006D03*
D19*
X152374600Y-107061000D03*
X169646600Y-94996000D03*
D18*
X168503600Y-89154000D03*
D19*
X166725600Y-118872000D03*
X161518600Y-120650000D03*
D18*
X159867600Y-99314000D03*
X159613600Y-102235000D03*
X155295600Y-95504000D03*
D19*
X160121600Y-90932000D03*
D18*
X176695100Y-102933500D03*
X169773600Y-104267000D03*
X168249600Y-100330000D03*
X165328600Y-99314000D03*
D19*
X169265614Y-98298000D03*
D18*
X162534600Y-100457000D03*
X166090600Y-100457000D03*
X150723600Y-94361000D03*
X156311600Y-94361000D03*
X156311600Y-87122000D03*
X151485600Y-87122000D03*
D19*
X163221800Y-113104800D03*
X172241768Y-117972364D03*
X171222800Y-113104800D03*
D18*
X169392600Y-111125000D03*
D19*
X153263600Y-98298000D03*
D18*
X159613600Y-116332000D03*
X153918850Y-117495250D03*
X156692600Y-113284000D03*
D19*
X162052000Y-116001800D03*
D18*
X161594802Y-110871000D03*
X171932600Y-84074000D03*
X169138600Y-91440000D03*
X172821600Y-102362000D03*
X173710572Y-108458000D03*
X164338000Y-96266000D03*
X142341600Y-91757500D03*
X166471591Y-88772991D03*
X144030613Y-119126000D03*
X147391120Y-104874060D03*
X148377611Y-104051648D03*
X143230598Y-119126000D03*
X161535860Y-104770550D03*
X160883600Y-104013000D03*
X157708600Y-116078000D03*
X157962600Y-112141000D03*
X140055600Y-105346500D03*
X168122600Y-106934000D03*
X155621533Y-104994733D03*
X146342100Y-104775000D03*
X160502591Y-106553009D03*
X161391600Y-109347000D03*
X167106600Y-108585000D03*
X177808400Y-100139500D03*
X173634400Y-112141000D03*
X168605200Y-113106200D03*
X166217600Y-104393994D03*
X161678105Y-105557808D03*
X162915600Y-115747800D03*
X155803600Y-102806500D03*
X155041600Y-100838000D03*
D20*
X170707190Y-85299410D02*
X171932600Y-84074000D01*
X170707190Y-87058390D02*
X170707190Y-85299410D01*
X171907200Y-88258400D02*
X170707190Y-87058390D01*
D21*
X169138600Y-90424000D02*
X169138600Y-91440000D01*
D20*
X172669200Y-107416628D02*
X173710572Y-108458000D01*
X172669200Y-102514400D02*
X172669200Y-107416628D01*
X172821600Y-102362000D02*
X172669200Y-102514400D01*
X162890200Y-96266000D02*
X162864800Y-96291400D01*
X164338000Y-96266000D02*
X162890200Y-96266000D01*
D21*
X173797200Y-86258400D02*
X173822600Y-86233000D01*
X171907200Y-86258400D02*
X173797200Y-86258400D01*
D20*
X142151100Y-91567000D02*
X135483600Y-91567000D01*
X142341600Y-91757500D02*
X142151100Y-91567000D01*
D21*
X167838600Y-90140000D02*
X166471591Y-88772991D01*
X167838600Y-90424000D02*
X167838600Y-90140000D01*
D20*
X156408600Y-121442000D02*
X156408600Y-116078000D01*
X155803600Y-122047000D02*
X156408600Y-121442000D01*
X144030613Y-119341987D02*
X144030613Y-119126000D01*
X143103600Y-120269000D02*
X144030613Y-119341987D01*
X143103600Y-122047000D02*
X143103600Y-120269000D01*
X147555199Y-104874060D02*
X148377611Y-104051648D01*
X147391120Y-104874060D02*
X147555199Y-104874060D01*
X143230598Y-119380002D02*
X143230598Y-119126000D01*
X140563600Y-122047000D02*
X143230598Y-119380002D01*
X159814099Y-106137123D02*
X161180672Y-104770550D01*
X159814099Y-111822897D02*
X159814099Y-106137123D01*
X161488600Y-114554000D02*
X161488600Y-113497398D01*
X161180672Y-104770550D02*
X161535860Y-104770550D01*
X161488600Y-113497398D02*
X159814099Y-111822897D01*
X159364088Y-105532512D02*
X160883600Y-104013000D01*
X159364088Y-110739512D02*
X159364088Y-110612512D01*
X157962600Y-112141000D02*
X159364088Y-110739512D01*
X159364088Y-110612512D02*
X159364088Y-105532512D01*
X136563100Y-105346500D02*
X140055600Y-105346500D01*
X135483600Y-104267000D02*
X136563100Y-105346500D01*
X153820835Y-104994733D02*
X153316507Y-105499061D01*
X155621533Y-104994733D02*
X153820835Y-104994733D01*
X146367058Y-104775000D02*
X146342100Y-104775000D01*
X147091119Y-105499061D02*
X146367058Y-104775000D01*
X153316507Y-105499061D02*
X147091119Y-105499061D01*
X160502591Y-106553009D02*
X160502591Y-108457991D01*
X160502591Y-108457991D02*
X161391600Y-109347000D01*
X167106600Y-107950000D02*
X167106600Y-108585000D01*
X168122600Y-106934000D02*
X167106600Y-107950000D01*
X177808400Y-100139500D02*
X177901600Y-100232700D01*
X177901600Y-100232700D02*
X177901600Y-109956600D01*
X175717200Y-112141000D02*
X173634400Y-112141000D01*
X177901600Y-109956600D02*
X175717200Y-112141000D01*
X167157400Y-114554000D02*
X164088600Y-114554000D01*
X168605200Y-113106200D02*
X167157400Y-114554000D01*
X165053786Y-105557808D02*
X161678105Y-105557808D01*
X166217600Y-104393994D02*
X165053786Y-105557808D01*
D21*
X172948600Y-92934000D02*
X170438600Y-90424000D01*
X172948600Y-94792800D02*
X172948600Y-92934000D01*
X171450000Y-96291400D02*
X172948600Y-94792800D01*
D20*
X162915600Y-114681000D02*
X162788600Y-114554000D01*
X162915600Y-115747800D02*
X162915600Y-114681000D01*
X155803600Y-102806500D02*
X155041600Y-102044500D01*
X155041600Y-102044500D02*
X155041600Y-100838000D01*
D22*
X170414703Y-84976715D02*
X170398112Y-84990331D01*
X170343752Y-85056568D01*
X170303360Y-85132138D01*
X170278485Y-85214136D01*
X170270087Y-85299410D01*
X170272191Y-85320774D01*
X170272190Y-87037036D01*
X170270087Y-87058390D01*
X170272190Y-87079744D01*
X170272190Y-87079751D01*
X170278485Y-87143664D01*
X170303359Y-87225661D01*
X170343751Y-87301231D01*
X170398111Y-87367469D01*
X170414708Y-87381090D01*
X170754993Y-87721375D01*
X170731490Y-87798856D01*
X170720701Y-87908399D01*
X170720701Y-88608401D01*
X170731490Y-88717944D01*
X170763442Y-88823277D01*
X170815330Y-88920353D01*
X170885160Y-89005440D01*
X170970247Y-89075270D01*
X171067323Y-89127158D01*
X171172656Y-89159110D01*
X171282199Y-89169899D01*
X172532201Y-89169899D01*
X172641744Y-89159110D01*
X172747077Y-89127158D01*
X172844153Y-89075270D01*
X172929240Y-89005440D01*
X172999070Y-88920353D01*
X173050958Y-88823277D01*
X173082910Y-88717944D01*
X173093699Y-88608401D01*
X173093699Y-87908399D01*
X173082910Y-87798856D01*
X173050958Y-87693523D01*
X172999070Y-87596447D01*
X172929240Y-87511360D01*
X172844153Y-87441530D01*
X172747077Y-87389642D01*
X172641744Y-87357690D01*
X172532201Y-87346901D01*
X171610883Y-87346901D01*
X171404152Y-87140170D01*
X171453809Y-87155233D01*
X171587496Y-87168400D01*
X172226904Y-87168400D01*
X172360591Y-87155233D01*
X172532127Y-87103198D01*
X172690215Y-87018698D01*
X172828781Y-86904981D01*
X172899835Y-86818400D01*
X173011101Y-86818400D01*
X173011101Y-86983000D01*
X173017086Y-87043770D01*
X173034812Y-87102206D01*
X173063598Y-87156060D01*
X173102337Y-87203263D01*
X173149540Y-87242002D01*
X173203394Y-87270788D01*
X173261830Y-87288514D01*
X173322600Y-87294499D01*
X174322600Y-87294499D01*
X174383370Y-87288514D01*
X174441806Y-87270788D01*
X174483206Y-87248659D01*
X174507239Y-87261505D01*
X174563790Y-87278660D01*
X174622600Y-87284452D01*
X174997600Y-87283000D01*
X175072600Y-87208000D01*
X175072600Y-86283000D01*
X175172600Y-86283000D01*
X175172600Y-87208000D01*
X175247600Y-87283000D01*
X175622600Y-87284452D01*
X175681410Y-87278660D01*
X175737961Y-87261505D01*
X175790078Y-87233648D01*
X175835759Y-87196159D01*
X175873248Y-87150478D01*
X175901105Y-87098361D01*
X175918260Y-87041810D01*
X175924052Y-86983000D01*
X175922600Y-86358000D01*
X175847600Y-86283000D01*
X175172600Y-86283000D01*
X175072600Y-86283000D01*
X175052600Y-86283000D01*
X175052600Y-86183000D01*
X175072600Y-86183000D01*
X175072600Y-85258000D01*
X175172600Y-85258000D01*
X175172600Y-86183000D01*
X175847600Y-86183000D01*
X175922600Y-86108000D01*
X175924052Y-85483000D01*
X175918260Y-85424190D01*
X175901105Y-85367639D01*
X175873248Y-85315522D01*
X175835759Y-85269841D01*
X175790078Y-85232352D01*
X175737961Y-85204495D01*
X175681410Y-85187340D01*
X175622600Y-85181548D01*
X175247600Y-85183000D01*
X175172600Y-85258000D01*
X175072600Y-85258000D01*
X174997600Y-85183000D01*
X174622600Y-85181548D01*
X174563790Y-85187340D01*
X174507239Y-85204495D01*
X174483206Y-85217341D01*
X174441806Y-85195212D01*
X174383370Y-85177486D01*
X174322600Y-85171501D01*
X173322600Y-85171501D01*
X173261830Y-85177486D01*
X173203394Y-85195212D01*
X173149540Y-85223998D01*
X173102337Y-85262737D01*
X173063598Y-85309940D01*
X173034812Y-85363794D01*
X173017086Y-85422230D01*
X173011101Y-85483000D01*
X173011101Y-85698400D01*
X172899835Y-85698400D01*
X172828781Y-85611819D01*
X172690215Y-85498102D01*
X172532127Y-85413602D01*
X172360591Y-85361567D01*
X172226904Y-85348400D01*
X171587496Y-85348400D01*
X171453809Y-85361567D01*
X171282273Y-85413602D01*
X171142190Y-85488478D01*
X171142190Y-85479592D01*
X171685782Y-84936000D01*
X177998400Y-84936000D01*
X177998400Y-99557941D01*
X177986331Y-99552942D01*
X177868480Y-99529500D01*
X177748320Y-99529500D01*
X177630469Y-99552942D01*
X177519456Y-99598925D01*
X177419547Y-99665682D01*
X177334582Y-99750647D01*
X177267825Y-99850556D01*
X177221842Y-99961569D01*
X177198400Y-100079420D01*
X177198400Y-100199580D01*
X177221842Y-100317431D01*
X177267825Y-100428444D01*
X177334582Y-100528353D01*
X177419547Y-100613318D01*
X177466600Y-100644758D01*
X177466601Y-109776416D01*
X175537018Y-111706000D01*
X174062071Y-111706000D01*
X174023253Y-111667182D01*
X173923344Y-111600425D01*
X173812331Y-111554442D01*
X173694480Y-111531000D01*
X173574320Y-111531000D01*
X173456469Y-111554442D01*
X173345456Y-111600425D01*
X173245547Y-111667182D01*
X173160582Y-111752147D01*
X173093825Y-111852056D01*
X173047842Y-111963069D01*
X173024400Y-112080920D01*
X173024400Y-112201080D01*
X173047842Y-112318931D01*
X173093825Y-112429944D01*
X173160582Y-112529853D01*
X173245547Y-112614818D01*
X173345456Y-112681575D01*
X173456469Y-112727558D01*
X173574320Y-112751000D01*
X173694480Y-112751000D01*
X173812331Y-112727558D01*
X173923344Y-112681575D01*
X174023253Y-112614818D01*
X174062071Y-112576000D01*
X175695846Y-112576000D01*
X175717200Y-112578103D01*
X175738554Y-112576000D01*
X175738562Y-112576000D01*
X175802475Y-112569705D01*
X175884472Y-112544831D01*
X175960042Y-112504439D01*
X176026279Y-112450079D01*
X176039900Y-112433482D01*
X177998401Y-110474982D01*
X177998401Y-120811408D01*
X177953863Y-121265640D01*
X177826705Y-121686808D01*
X177620166Y-122075251D01*
X177342111Y-122416181D01*
X177003129Y-122696611D01*
X176616136Y-122905858D01*
X176195870Y-123035952D01*
X175742547Y-123083598D01*
X175742007Y-123083600D01*
X171572253Y-123083600D01*
X171593066Y-123074979D01*
X171783057Y-122948031D01*
X171944631Y-122786457D01*
X172071579Y-122596466D01*
X172159022Y-122385360D01*
X172203600Y-122161250D01*
X172203600Y-121932750D01*
X172159022Y-121708640D01*
X172071579Y-121497534D01*
X171944631Y-121307543D01*
X171783057Y-121145969D01*
X171593066Y-121019021D01*
X171381960Y-120931578D01*
X171157850Y-120887000D01*
X170929350Y-120887000D01*
X170705240Y-120931578D01*
X170494134Y-121019021D01*
X170304143Y-121145969D01*
X170142569Y-121307543D01*
X170015621Y-121497534D01*
X169928178Y-121708640D01*
X169883600Y-121932750D01*
X169883600Y-122161250D01*
X169928178Y-122385360D01*
X170015621Y-122596466D01*
X170142569Y-122786457D01*
X170304143Y-122948031D01*
X170494134Y-123074979D01*
X170514947Y-123083600D01*
X169032253Y-123083600D01*
X169053066Y-123074979D01*
X169243057Y-122948031D01*
X169404631Y-122786457D01*
X169531579Y-122596466D01*
X169619022Y-122385360D01*
X169663600Y-122161250D01*
X169663600Y-121932750D01*
X169619022Y-121708640D01*
X169531579Y-121497534D01*
X169404631Y-121307543D01*
X169243057Y-121145969D01*
X169053066Y-121019021D01*
X168841960Y-120931578D01*
X168617850Y-120887000D01*
X168389350Y-120887000D01*
X168165240Y-120931578D01*
X167954134Y-121019021D01*
X167764143Y-121145969D01*
X167602569Y-121307543D01*
X167475621Y-121497534D01*
X167388178Y-121708640D01*
X167343600Y-121932750D01*
X167343600Y-122161250D01*
X167388178Y-122385360D01*
X167475621Y-122596466D01*
X167602569Y-122786457D01*
X167764143Y-122948031D01*
X167954134Y-123074979D01*
X167974947Y-123083600D01*
X166451573Y-123083600D01*
X166598464Y-123005881D01*
X166773334Y-122863600D01*
X166917086Y-122689938D01*
X167024196Y-122491568D01*
X167090548Y-122276114D01*
X167037515Y-122097000D01*
X166013600Y-122097000D01*
X166013600Y-122117000D01*
X165913600Y-122117000D01*
X165913600Y-122097000D01*
X164889685Y-122097000D01*
X164836652Y-122276114D01*
X164903004Y-122491568D01*
X165010114Y-122689938D01*
X165153866Y-122863600D01*
X165328736Y-123005881D01*
X165475627Y-123083600D01*
X163952253Y-123083600D01*
X163973066Y-123074979D01*
X164163057Y-122948031D01*
X164324631Y-122786457D01*
X164451579Y-122596466D01*
X164539022Y-122385360D01*
X164583600Y-122161250D01*
X164583600Y-121932750D01*
X164560753Y-121817886D01*
X164836652Y-121817886D01*
X164889685Y-121997000D01*
X165913600Y-121997000D01*
X165913600Y-120973163D01*
X166013600Y-120973163D01*
X166013600Y-121997000D01*
X167037515Y-121997000D01*
X167090548Y-121817886D01*
X167024196Y-121602432D01*
X166917086Y-121404062D01*
X166773334Y-121230400D01*
X166598464Y-121088119D01*
X166399197Y-120982688D01*
X166192714Y-120920054D01*
X166013600Y-120973163D01*
X165913600Y-120973163D01*
X165734486Y-120920054D01*
X165528003Y-120982688D01*
X165328736Y-121088119D01*
X165153866Y-121230400D01*
X165010114Y-121404062D01*
X164903004Y-121602432D01*
X164836652Y-121817886D01*
X164560753Y-121817886D01*
X164539022Y-121708640D01*
X164451579Y-121497534D01*
X164324631Y-121307543D01*
X164163057Y-121145969D01*
X163973066Y-121019021D01*
X163761960Y-120931578D01*
X163537850Y-120887000D01*
X163309350Y-120887000D01*
X163085240Y-120931578D01*
X162874134Y-121019021D01*
X162684143Y-121145969D01*
X162522569Y-121307543D01*
X162395621Y-121497534D01*
X162308178Y-121708640D01*
X162263600Y-121932750D01*
X162263600Y-122161250D01*
X162308178Y-122385360D01*
X162395621Y-122596466D01*
X162522569Y-122786457D01*
X162684143Y-122948031D01*
X162874134Y-123074979D01*
X162894947Y-123083600D01*
X161412253Y-123083600D01*
X161433066Y-123074979D01*
X161623057Y-122948031D01*
X161784631Y-122786457D01*
X161911579Y-122596466D01*
X161999022Y-122385360D01*
X162043600Y-122161250D01*
X162043600Y-121932750D01*
X161999022Y-121708640D01*
X161911579Y-121497534D01*
X161784631Y-121307543D01*
X161623057Y-121145969D01*
X161433066Y-121019021D01*
X161221960Y-120931578D01*
X160997850Y-120887000D01*
X160769350Y-120887000D01*
X160545240Y-120931578D01*
X160334134Y-121019021D01*
X160144143Y-121145969D01*
X159982569Y-121307543D01*
X159855621Y-121497534D01*
X159768178Y-121708640D01*
X159723600Y-121932750D01*
X159723600Y-122161250D01*
X159768178Y-122385360D01*
X159855621Y-122596466D01*
X159982569Y-122786457D01*
X160144143Y-122948031D01*
X160334134Y-123074979D01*
X160354947Y-123083600D01*
X158872253Y-123083600D01*
X158893066Y-123074979D01*
X159083057Y-122948031D01*
X159244631Y-122786457D01*
X159371579Y-122596466D01*
X159459022Y-122385360D01*
X159503600Y-122161250D01*
X159503600Y-121932750D01*
X159459022Y-121708640D01*
X159371579Y-121497534D01*
X159244631Y-121307543D01*
X159083057Y-121145969D01*
X158893066Y-121019021D01*
X158681960Y-120931578D01*
X158457850Y-120887000D01*
X158229350Y-120887000D01*
X158005240Y-120931578D01*
X157794134Y-121019021D01*
X157604143Y-121145969D01*
X157442569Y-121307543D01*
X157315621Y-121497534D01*
X157228178Y-121708640D01*
X157183600Y-121932750D01*
X157183600Y-122161250D01*
X157228178Y-122385360D01*
X157315621Y-122596466D01*
X157442569Y-122786457D01*
X157604143Y-122948031D01*
X157794134Y-123074979D01*
X157814947Y-123083600D01*
X156332253Y-123083600D01*
X156353066Y-123074979D01*
X156543057Y-122948031D01*
X156704631Y-122786457D01*
X156831579Y-122596466D01*
X156919022Y-122385360D01*
X156963600Y-122161250D01*
X156963600Y-121932750D01*
X156919022Y-121708640D01*
X156838572Y-121514415D01*
X156840739Y-121492410D01*
X156843600Y-121463362D01*
X156843600Y-121463355D01*
X156845703Y-121442001D01*
X156843600Y-121420647D01*
X156843600Y-120689704D01*
X174108000Y-120689704D01*
X174108000Y-121016696D01*
X174171793Y-121337404D01*
X174296927Y-121639505D01*
X174478594Y-121911388D01*
X174709812Y-122142606D01*
X174981695Y-122324273D01*
X175283796Y-122449407D01*
X175604504Y-122513200D01*
X175931496Y-122513200D01*
X176252204Y-122449407D01*
X176554305Y-122324273D01*
X176826188Y-122142606D01*
X177057406Y-121911388D01*
X177239073Y-121639505D01*
X177364207Y-121337404D01*
X177428000Y-121016696D01*
X177428000Y-120689704D01*
X177364207Y-120368996D01*
X177239073Y-120066895D01*
X177057406Y-119795012D01*
X176826188Y-119563794D01*
X176554305Y-119382127D01*
X176252204Y-119256993D01*
X175931496Y-119193200D01*
X175604504Y-119193200D01*
X175283796Y-119256993D01*
X174981695Y-119382127D01*
X174709812Y-119563794D01*
X174478594Y-119795012D01*
X174296927Y-120066895D01*
X174171793Y-120368996D01*
X174108000Y-120689704D01*
X156843600Y-120689704D01*
X156843600Y-117139499D01*
X156908600Y-117139499D01*
X156969370Y-117133514D01*
X157027806Y-117115788D01*
X157058600Y-117099328D01*
X157089394Y-117115788D01*
X157147830Y-117133514D01*
X157208600Y-117139499D01*
X158208600Y-117139499D01*
X158269370Y-117133514D01*
X158327806Y-117115788D01*
X158381660Y-117087002D01*
X158428863Y-117048263D01*
X158467602Y-117001060D01*
X158496388Y-116947206D01*
X158514114Y-116888770D01*
X158520099Y-116828000D01*
X158520099Y-115328000D01*
X158514114Y-115267230D01*
X158496388Y-115208794D01*
X158467602Y-115154940D01*
X158428863Y-115107737D01*
X158381660Y-115068998D01*
X158327806Y-115040212D01*
X158269370Y-115022486D01*
X158208600Y-115016501D01*
X157208600Y-115016501D01*
X157147830Y-115022486D01*
X157089394Y-115040212D01*
X157058600Y-115056672D01*
X157027806Y-115040212D01*
X156969370Y-115022486D01*
X156908600Y-115016501D01*
X155908600Y-115016501D01*
X155847830Y-115022486D01*
X155789394Y-115040212D01*
X155735540Y-115068998D01*
X155688337Y-115107737D01*
X155649598Y-115154940D01*
X155620812Y-115208794D01*
X155603086Y-115267230D01*
X155597101Y-115328000D01*
X155597101Y-116828000D01*
X155603086Y-116888770D01*
X155620812Y-116947206D01*
X155649598Y-117001060D01*
X155688337Y-117048263D01*
X155735540Y-117087002D01*
X155789394Y-117115788D01*
X155847830Y-117133514D01*
X155908600Y-117139499D01*
X155973601Y-117139499D01*
X155973600Y-120898089D01*
X155917850Y-120887000D01*
X155689350Y-120887000D01*
X155465240Y-120931578D01*
X155254134Y-121019021D01*
X155064143Y-121145969D01*
X154902569Y-121307543D01*
X154775621Y-121497534D01*
X154688178Y-121708640D01*
X154643600Y-121932750D01*
X154643600Y-122161250D01*
X154688178Y-122385360D01*
X154775621Y-122596466D01*
X154902569Y-122786457D01*
X155064143Y-122948031D01*
X155254134Y-123074979D01*
X155274947Y-123083600D01*
X153792253Y-123083600D01*
X153813066Y-123074979D01*
X154003057Y-122948031D01*
X154164631Y-122786457D01*
X154291579Y-122596466D01*
X154379022Y-122385360D01*
X154423600Y-122161250D01*
X154423600Y-121932750D01*
X154379022Y-121708640D01*
X154291579Y-121497534D01*
X154164631Y-121307543D01*
X154003057Y-121145969D01*
X153813066Y-121019021D01*
X153601960Y-120931578D01*
X153377850Y-120887000D01*
X153149350Y-120887000D01*
X152925240Y-120931578D01*
X152714134Y-121019021D01*
X152524143Y-121145969D01*
X152362569Y-121307543D01*
X152235621Y-121497534D01*
X152148178Y-121708640D01*
X152103600Y-121932750D01*
X152103600Y-122161250D01*
X152148178Y-122385360D01*
X152235621Y-122596466D01*
X152362569Y-122786457D01*
X152524143Y-122948031D01*
X152714134Y-123074979D01*
X152734947Y-123083600D01*
X151252253Y-123083600D01*
X151273066Y-123074979D01*
X151463057Y-122948031D01*
X151624631Y-122786457D01*
X151751579Y-122596466D01*
X151839022Y-122385360D01*
X151883600Y-122161250D01*
X151883600Y-121932750D01*
X151839022Y-121708640D01*
X151751579Y-121497534D01*
X151624631Y-121307543D01*
X151463057Y-121145969D01*
X151273066Y-121019021D01*
X151061960Y-120931578D01*
X150837850Y-120887000D01*
X150609350Y-120887000D01*
X150385240Y-120931578D01*
X150174134Y-121019021D01*
X149984143Y-121145969D01*
X149822569Y-121307543D01*
X149695621Y-121497534D01*
X149608178Y-121708640D01*
X149563600Y-121932750D01*
X149563600Y-122161250D01*
X149608178Y-122385360D01*
X149695621Y-122596466D01*
X149822569Y-122786457D01*
X149984143Y-122948031D01*
X150174134Y-123074979D01*
X150194947Y-123083600D01*
X148712253Y-123083600D01*
X148733066Y-123074979D01*
X148923057Y-122948031D01*
X149084631Y-122786457D01*
X149211579Y-122596466D01*
X149299022Y-122385360D01*
X149343600Y-122161250D01*
X149343600Y-121932750D01*
X149299022Y-121708640D01*
X149211579Y-121497534D01*
X149084631Y-121307543D01*
X148923057Y-121145969D01*
X148733066Y-121019021D01*
X148521960Y-120931578D01*
X148297850Y-120887000D01*
X148069350Y-120887000D01*
X147845240Y-120931578D01*
X147634134Y-121019021D01*
X147444143Y-121145969D01*
X147282569Y-121307543D01*
X147155621Y-121497534D01*
X147068178Y-121708640D01*
X147023600Y-121932750D01*
X147023600Y-122161250D01*
X147068178Y-122385360D01*
X147155621Y-122596466D01*
X147282569Y-122786457D01*
X147444143Y-122948031D01*
X147634134Y-123074979D01*
X147654947Y-123083600D01*
X146131573Y-123083600D01*
X146278464Y-123005881D01*
X146453334Y-122863600D01*
X146597086Y-122689938D01*
X146704196Y-122491568D01*
X146770548Y-122276114D01*
X146717515Y-122097000D01*
X145693600Y-122097000D01*
X145693600Y-122117000D01*
X145593600Y-122117000D01*
X145593600Y-122097000D01*
X144569685Y-122097000D01*
X144516652Y-122276114D01*
X144583004Y-122491568D01*
X144690114Y-122689938D01*
X144833866Y-122863600D01*
X145008736Y-123005881D01*
X145155627Y-123083600D01*
X143632253Y-123083600D01*
X143653066Y-123074979D01*
X143843057Y-122948031D01*
X144004631Y-122786457D01*
X144131579Y-122596466D01*
X144219022Y-122385360D01*
X144263600Y-122161250D01*
X144263600Y-121932750D01*
X144240753Y-121817886D01*
X144516652Y-121817886D01*
X144569685Y-121997000D01*
X145593600Y-121997000D01*
X145593600Y-120973163D01*
X145693600Y-120973163D01*
X145693600Y-121997000D01*
X146717515Y-121997000D01*
X146770548Y-121817886D01*
X146704196Y-121602432D01*
X146597086Y-121404062D01*
X146453334Y-121230400D01*
X146278464Y-121088119D01*
X146079197Y-120982688D01*
X145872714Y-120920054D01*
X145693600Y-120973163D01*
X145593600Y-120973163D01*
X145414486Y-120920054D01*
X145208003Y-120982688D01*
X145008736Y-121088119D01*
X144833866Y-121230400D01*
X144690114Y-121404062D01*
X144583004Y-121602432D01*
X144516652Y-121817886D01*
X144240753Y-121817886D01*
X144219022Y-121708640D01*
X144131579Y-121497534D01*
X144004631Y-121307543D01*
X143843057Y-121145969D01*
X143653066Y-121019021D01*
X143538600Y-120971608D01*
X143538600Y-120449182D01*
X144323102Y-119664681D01*
X144326215Y-119662126D01*
X144419466Y-119599818D01*
X144504431Y-119514853D01*
X144571188Y-119414944D01*
X144617171Y-119303931D01*
X144640613Y-119186080D01*
X144640613Y-119065920D01*
X144617171Y-118948069D01*
X144571188Y-118837056D01*
X144504431Y-118737147D01*
X144419466Y-118652182D01*
X144319557Y-118585425D01*
X144208544Y-118539442D01*
X144090693Y-118516000D01*
X143970533Y-118516000D01*
X143852682Y-118539442D01*
X143741669Y-118585425D01*
X143641760Y-118652182D01*
X143630606Y-118663337D01*
X143619451Y-118652182D01*
X143519542Y-118585425D01*
X143408529Y-118539442D01*
X143290678Y-118516000D01*
X143170518Y-118516000D01*
X143052667Y-118539442D01*
X142941654Y-118585425D01*
X142841745Y-118652182D01*
X142756780Y-118737147D01*
X142690023Y-118837056D01*
X142644040Y-118948069D01*
X142620598Y-119065920D01*
X142620598Y-119186080D01*
X142644040Y-119303931D01*
X142657937Y-119337480D01*
X141109917Y-120885501D01*
X139713600Y-120885501D01*
X139652830Y-120891486D01*
X139594394Y-120909212D01*
X139540540Y-120937998D01*
X139493337Y-120976737D01*
X139454598Y-121023940D01*
X139425812Y-121077794D01*
X139408086Y-121136230D01*
X139402101Y-121197000D01*
X139402101Y-122897000D01*
X139408086Y-122957770D01*
X139425812Y-123016206D01*
X139454598Y-123070060D01*
X139465710Y-123083600D01*
X135779382Y-123083600D01*
X135335027Y-123040030D01*
X134923355Y-122915740D01*
X134543661Y-122713854D01*
X134210414Y-122442065D01*
X133936303Y-122110721D01*
X133731773Y-121732450D01*
X133604611Y-121321656D01*
X133558001Y-120878190D01*
X133557998Y-120877429D01*
X133557998Y-120877428D01*
X133557551Y-120689704D01*
X134103000Y-120689704D01*
X134103000Y-121016696D01*
X134166793Y-121337404D01*
X134291927Y-121639505D01*
X134473594Y-121911388D01*
X134704812Y-122142606D01*
X134976695Y-122324273D01*
X135278796Y-122449407D01*
X135599504Y-122513200D01*
X135926496Y-122513200D01*
X136247204Y-122449407D01*
X136549305Y-122324273D01*
X136821188Y-122142606D01*
X137052406Y-121911388D01*
X137234073Y-121639505D01*
X137359207Y-121337404D01*
X137423000Y-121016696D01*
X137423000Y-120689704D01*
X137359207Y-120368996D01*
X137234073Y-120066895D01*
X137052406Y-119795012D01*
X136821188Y-119563794D01*
X136549305Y-119382127D01*
X136247204Y-119256993D01*
X135926496Y-119193200D01*
X135599504Y-119193200D01*
X135278796Y-119256993D01*
X134976695Y-119382127D01*
X134704812Y-119563794D01*
X134473594Y-119795012D01*
X134291927Y-120066895D01*
X134166793Y-120368996D01*
X134103000Y-120689704D01*
X133557551Y-120689704D01*
X133552920Y-118745005D01*
X133557969Y-114705876D01*
X133560502Y-114710615D01*
X133674219Y-114849181D01*
X133812785Y-114962898D01*
X133970873Y-115047398D01*
X134142409Y-115099433D01*
X134276096Y-115112600D01*
X135065504Y-115112600D01*
X135199191Y-115099433D01*
X135370727Y-115047398D01*
X135528815Y-114962898D01*
X135667381Y-114849181D01*
X135781098Y-114710615D01*
X135865598Y-114552527D01*
X135917633Y-114380991D01*
X135935203Y-114202600D01*
X135917633Y-114024209D01*
X135865598Y-113852673D01*
X135781098Y-113694585D01*
X135667381Y-113556019D01*
X135528815Y-113442302D01*
X135370727Y-113357802D01*
X135199191Y-113305767D01*
X135065504Y-113292600D01*
X134276096Y-113292600D01*
X134142409Y-113305767D01*
X133970873Y-113357802D01*
X133812785Y-113442302D01*
X133674219Y-113556019D01*
X133560502Y-113694585D01*
X133558000Y-113699266D01*
X133558000Y-113100661D01*
X136335800Y-113100661D01*
X136335800Y-113304539D01*
X136375574Y-113504498D01*
X136453595Y-113692856D01*
X136566863Y-113862374D01*
X136711026Y-114006537D01*
X136880544Y-114119805D01*
X137068902Y-114197826D01*
X137268861Y-114237600D01*
X137472739Y-114237600D01*
X137672698Y-114197826D01*
X137861056Y-114119805D01*
X138030574Y-114006537D01*
X138174737Y-113862374D01*
X138288005Y-113692856D01*
X138366026Y-113504498D01*
X138405800Y-113304539D01*
X138405800Y-113100661D01*
X138366026Y-112900702D01*
X138288005Y-112712344D01*
X138174737Y-112542826D01*
X138030574Y-112398663D01*
X137861056Y-112285395D01*
X137672698Y-112207374D01*
X137472739Y-112167600D01*
X137268861Y-112167600D01*
X137068902Y-112207374D01*
X136880544Y-112285395D01*
X136711026Y-112398663D01*
X136566863Y-112542826D01*
X136453595Y-112712344D01*
X136375574Y-112900702D01*
X136335800Y-113100661D01*
X133558000Y-113100661D01*
X133558000Y-112080920D01*
X157352600Y-112080920D01*
X157352600Y-112201080D01*
X157376042Y-112318931D01*
X157422025Y-112429944D01*
X157488782Y-112529853D01*
X157573747Y-112614818D01*
X157673656Y-112681575D01*
X157784669Y-112727558D01*
X157902520Y-112751000D01*
X158022680Y-112751000D01*
X158140531Y-112727558D01*
X158251544Y-112681575D01*
X158351453Y-112614818D01*
X158436418Y-112529853D01*
X158503175Y-112429944D01*
X158549158Y-112318931D01*
X158572600Y-112201080D01*
X158572600Y-112146182D01*
X159379099Y-111339684D01*
X159379099Y-111801543D01*
X159376996Y-111822897D01*
X159379099Y-111844251D01*
X159379099Y-111844258D01*
X159385394Y-111908171D01*
X159410268Y-111990168D01*
X159450660Y-112065738D01*
X159505020Y-112131976D01*
X159521617Y-112145597D01*
X160886916Y-113510897D01*
X160869394Y-113516212D01*
X160815540Y-113544998D01*
X160768337Y-113583737D01*
X160729598Y-113630940D01*
X160700812Y-113684794D01*
X160683086Y-113743230D01*
X160677101Y-113804000D01*
X160677101Y-115304000D01*
X160683086Y-115364770D01*
X160700812Y-115423206D01*
X160729598Y-115477060D01*
X160768337Y-115524263D01*
X160815540Y-115563002D01*
X160869394Y-115591788D01*
X160927830Y-115609514D01*
X160988600Y-115615499D01*
X161988600Y-115615499D01*
X162049370Y-115609514D01*
X162107806Y-115591788D01*
X162138600Y-115575328D01*
X162169394Y-115591788D01*
X162227830Y-115609514D01*
X162288600Y-115615499D01*
X162319966Y-115615499D01*
X162305600Y-115687720D01*
X162305600Y-115807880D01*
X162329042Y-115925731D01*
X162375025Y-116036744D01*
X162441782Y-116136653D01*
X162526747Y-116221618D01*
X162626656Y-116288375D01*
X162737669Y-116334358D01*
X162855520Y-116357800D01*
X162975680Y-116357800D01*
X163093531Y-116334358D01*
X163204544Y-116288375D01*
X163304453Y-116221618D01*
X163389418Y-116136653D01*
X163456175Y-116036744D01*
X163502158Y-115925731D01*
X163525600Y-115807880D01*
X163525600Y-115687720D01*
X163508902Y-115603772D01*
X163527830Y-115609514D01*
X163588600Y-115615499D01*
X164588600Y-115615499D01*
X164649370Y-115609514D01*
X164707806Y-115591788D01*
X164761660Y-115563002D01*
X164808863Y-115524263D01*
X164847602Y-115477060D01*
X164876388Y-115423206D01*
X164894114Y-115364770D01*
X164900099Y-115304000D01*
X164900099Y-114989000D01*
X167136046Y-114989000D01*
X167157400Y-114991103D01*
X167178754Y-114989000D01*
X167178762Y-114989000D01*
X167242675Y-114982705D01*
X167324672Y-114957831D01*
X167400242Y-114917439D01*
X167466479Y-114863079D01*
X167480100Y-114846482D01*
X168610383Y-113716200D01*
X168665280Y-113716200D01*
X168783131Y-113692758D01*
X168894144Y-113646775D01*
X168994053Y-113580018D01*
X169079018Y-113495053D01*
X169145775Y-113395144D01*
X169191758Y-113284131D01*
X169215200Y-113166280D01*
X169215200Y-113046120D01*
X169191758Y-112928269D01*
X169145775Y-112817256D01*
X169079018Y-112717347D01*
X168994053Y-112632382D01*
X168894144Y-112565625D01*
X168783131Y-112519642D01*
X168665280Y-112496200D01*
X168545120Y-112496200D01*
X168427269Y-112519642D01*
X168316256Y-112565625D01*
X168216347Y-112632382D01*
X168131382Y-112717347D01*
X168064625Y-112817256D01*
X168018642Y-112928269D01*
X167995200Y-113046120D01*
X167995200Y-113101017D01*
X166977218Y-114119000D01*
X164900099Y-114119000D01*
X164900099Y-113804000D01*
X164894114Y-113743230D01*
X164876388Y-113684794D01*
X164847602Y-113630940D01*
X164808863Y-113583737D01*
X164761660Y-113544998D01*
X164707806Y-113516212D01*
X164649370Y-113498486D01*
X164588600Y-113492501D01*
X163588600Y-113492501D01*
X163527830Y-113498486D01*
X163469394Y-113516212D01*
X163438600Y-113532672D01*
X163407806Y-113516212D01*
X163349370Y-113498486D01*
X163288600Y-113492501D01*
X162288600Y-113492501D01*
X162227830Y-113498486D01*
X162169394Y-113516212D01*
X162138600Y-113532672D01*
X162107806Y-113516212D01*
X162049370Y-113498486D01*
X161988600Y-113492501D01*
X161925221Y-113492501D01*
X161923600Y-113476043D01*
X161923600Y-113476036D01*
X161917305Y-113412123D01*
X161892431Y-113330126D01*
X161852039Y-113254556D01*
X161797679Y-113188319D01*
X161781088Y-113174703D01*
X160249099Y-111642715D01*
X160249099Y-108819681D01*
X160781600Y-109352182D01*
X160781600Y-109407080D01*
X160805042Y-109524931D01*
X160851025Y-109635944D01*
X160917782Y-109735853D01*
X161002747Y-109820818D01*
X161102656Y-109887575D01*
X161213669Y-109933558D01*
X161331520Y-109957000D01*
X161451680Y-109957000D01*
X161569531Y-109933558D01*
X161680544Y-109887575D01*
X161780453Y-109820818D01*
X161865418Y-109735853D01*
X161932175Y-109635944D01*
X161978158Y-109524931D01*
X162001600Y-109407080D01*
X162001600Y-109286920D01*
X161978158Y-109169069D01*
X161932175Y-109058056D01*
X161865418Y-108958147D01*
X161780453Y-108873182D01*
X161680544Y-108806425D01*
X161569531Y-108760442D01*
X161451680Y-108737000D01*
X161396782Y-108737000D01*
X161184702Y-108524920D01*
X166496600Y-108524920D01*
X166496600Y-108645080D01*
X166520042Y-108762931D01*
X166566025Y-108873944D01*
X166632782Y-108973853D01*
X166717747Y-109058818D01*
X166817656Y-109125575D01*
X166928669Y-109171558D01*
X167046520Y-109195000D01*
X167166680Y-109195000D01*
X167284531Y-109171558D01*
X167395544Y-109125575D01*
X167495453Y-109058818D01*
X167580418Y-108973853D01*
X167647175Y-108873944D01*
X167693158Y-108762931D01*
X167716600Y-108645080D01*
X167716600Y-108524920D01*
X167693158Y-108407069D01*
X167647175Y-108296056D01*
X167580418Y-108196147D01*
X167541600Y-108157329D01*
X167541600Y-108130182D01*
X168127783Y-107544000D01*
X168182680Y-107544000D01*
X168300531Y-107520558D01*
X168411544Y-107474575D01*
X168511453Y-107407818D01*
X168596418Y-107322853D01*
X168663175Y-107222944D01*
X168709158Y-107111931D01*
X168732600Y-106994080D01*
X168732600Y-106873920D01*
X168709158Y-106756069D01*
X168663175Y-106645056D01*
X168596418Y-106545147D01*
X168511453Y-106460182D01*
X168411544Y-106393425D01*
X168300531Y-106347442D01*
X168182680Y-106324000D01*
X168062520Y-106324000D01*
X167944669Y-106347442D01*
X167833656Y-106393425D01*
X167733747Y-106460182D01*
X167648782Y-106545147D01*
X167582025Y-106645056D01*
X167536042Y-106756069D01*
X167512600Y-106873920D01*
X167512600Y-106928817D01*
X166814118Y-107627300D01*
X166797521Y-107640921D01*
X166743161Y-107707159D01*
X166702769Y-107782729D01*
X166677895Y-107864726D01*
X166671600Y-107928639D01*
X166671600Y-107928646D01*
X166669497Y-107950000D01*
X166671600Y-107971355D01*
X166671600Y-108157329D01*
X166632782Y-108196147D01*
X166566025Y-108296056D01*
X166520042Y-108407069D01*
X166496600Y-108524920D01*
X161184702Y-108524920D01*
X160937591Y-108277809D01*
X160937591Y-106980680D01*
X160976409Y-106941862D01*
X161043166Y-106841953D01*
X161089149Y-106730940D01*
X161112591Y-106613089D01*
X161112591Y-106492929D01*
X161089149Y-106375078D01*
X161043166Y-106264065D01*
X160976409Y-106164156D01*
X160891444Y-106079191D01*
X160791535Y-106012434D01*
X160680522Y-105966451D01*
X160613321Y-105953084D01*
X161068105Y-105498300D01*
X161068105Y-105617888D01*
X161091547Y-105735739D01*
X161137530Y-105846752D01*
X161204287Y-105946661D01*
X161289252Y-106031626D01*
X161389161Y-106098383D01*
X161500174Y-106144366D01*
X161618025Y-106167808D01*
X161738185Y-106167808D01*
X161856036Y-106144366D01*
X161967049Y-106098383D01*
X162066958Y-106031626D01*
X162105776Y-105992808D01*
X165032432Y-105992808D01*
X165053786Y-105994911D01*
X165075140Y-105992808D01*
X165075148Y-105992808D01*
X165139061Y-105986513D01*
X165221058Y-105961639D01*
X165296628Y-105921247D01*
X165362865Y-105866887D01*
X165376486Y-105850290D01*
X166222782Y-105003994D01*
X166277680Y-105003994D01*
X166395531Y-104980552D01*
X166506544Y-104934569D01*
X166606453Y-104867812D01*
X166691418Y-104782847D01*
X166758175Y-104682938D01*
X166804158Y-104571925D01*
X166827600Y-104454074D01*
X166827600Y-104333914D01*
X166804158Y-104216063D01*
X166758175Y-104105050D01*
X166691418Y-104005141D01*
X166606453Y-103920176D01*
X166506544Y-103853419D01*
X166395531Y-103807436D01*
X166277680Y-103783994D01*
X166157520Y-103783994D01*
X166039669Y-103807436D01*
X165928656Y-103853419D01*
X165828747Y-103920176D01*
X165743782Y-104005141D01*
X165677025Y-104105050D01*
X165631042Y-104216063D01*
X165607600Y-104333914D01*
X165607600Y-104388812D01*
X164873604Y-105122808D01*
X162105776Y-105122808D01*
X162066958Y-105083990D01*
X162062194Y-105080807D01*
X162076435Y-105059494D01*
X162122418Y-104948481D01*
X162145860Y-104830630D01*
X162145860Y-104710470D01*
X162122418Y-104592619D01*
X162076435Y-104481606D01*
X162009678Y-104381697D01*
X161924713Y-104296732D01*
X161824804Y-104229975D01*
X161713791Y-104183992D01*
X161595940Y-104160550D01*
X161476201Y-104160550D01*
X161493600Y-104073080D01*
X161493600Y-103952920D01*
X161470158Y-103835069D01*
X161424175Y-103724056D01*
X161357418Y-103624147D01*
X161272453Y-103539182D01*
X161172544Y-103472425D01*
X161061531Y-103426442D01*
X160943680Y-103403000D01*
X160823520Y-103403000D01*
X160705669Y-103426442D01*
X160594656Y-103472425D01*
X160494747Y-103539182D01*
X160409782Y-103624147D01*
X160343025Y-103724056D01*
X160297042Y-103835069D01*
X160273600Y-103952920D01*
X160273600Y-104007817D01*
X159071601Y-105209817D01*
X159055010Y-105223433D01*
X159000650Y-105289670D01*
X158969538Y-105347878D01*
X158960258Y-105365240D01*
X158935383Y-105447238D01*
X158926985Y-105532512D01*
X158929089Y-105553876D01*
X158929088Y-110559329D01*
X157957418Y-111531000D01*
X157902520Y-111531000D01*
X157784669Y-111554442D01*
X157673656Y-111600425D01*
X157573747Y-111667182D01*
X157488782Y-111752147D01*
X157422025Y-111852056D01*
X157376042Y-111963069D01*
X157352600Y-112080920D01*
X133558000Y-112080920D01*
X133558000Y-107705934D01*
X133560502Y-107710615D01*
X133674219Y-107849181D01*
X133812785Y-107962898D01*
X133970873Y-108047398D01*
X134142409Y-108099433D01*
X134276096Y-108112600D01*
X135065504Y-108112600D01*
X135186722Y-108100661D01*
X136335800Y-108100661D01*
X136335800Y-108304539D01*
X136375574Y-108504498D01*
X136453595Y-108692856D01*
X136566863Y-108862374D01*
X136711026Y-109006537D01*
X136880544Y-109119805D01*
X137068902Y-109197826D01*
X137268861Y-109237600D01*
X137472739Y-109237600D01*
X137672698Y-109197826D01*
X137861056Y-109119805D01*
X138030574Y-109006537D01*
X138174737Y-108862374D01*
X138288005Y-108692856D01*
X138366026Y-108504498D01*
X138405800Y-108304539D01*
X138405800Y-108100661D01*
X138366026Y-107900702D01*
X138288005Y-107712344D01*
X138174737Y-107542826D01*
X138030574Y-107398663D01*
X137861056Y-107285395D01*
X137672698Y-107207374D01*
X137472739Y-107167600D01*
X137268861Y-107167600D01*
X137068902Y-107207374D01*
X136880544Y-107285395D01*
X136711026Y-107398663D01*
X136566863Y-107542826D01*
X136453595Y-107712344D01*
X136375574Y-107900702D01*
X136335800Y-108100661D01*
X135186722Y-108100661D01*
X135199191Y-108099433D01*
X135370727Y-108047398D01*
X135528815Y-107962898D01*
X135667381Y-107849181D01*
X135781098Y-107710615D01*
X135865598Y-107552527D01*
X135917633Y-107380991D01*
X135935203Y-107202600D01*
X135917633Y-107024209D01*
X135865598Y-106852673D01*
X135781098Y-106694585D01*
X135667381Y-106556019D01*
X135528815Y-106442302D01*
X135370727Y-106357802D01*
X135199191Y-106305767D01*
X135065504Y-106292600D01*
X134276096Y-106292600D01*
X134142409Y-106305767D01*
X133970873Y-106357802D01*
X133812785Y-106442302D01*
X133674219Y-106556019D01*
X133560502Y-106694585D01*
X133558000Y-106699266D01*
X133558000Y-104152750D01*
X134323600Y-104152750D01*
X134323600Y-104381250D01*
X134368178Y-104605360D01*
X134455621Y-104816466D01*
X134582569Y-105006457D01*
X134744143Y-105168031D01*
X134934134Y-105294979D01*
X135145240Y-105382422D01*
X135369350Y-105427000D01*
X135597850Y-105427000D01*
X135821960Y-105382422D01*
X135936426Y-105335008D01*
X136240400Y-105638982D01*
X136254021Y-105655579D01*
X136307884Y-105699784D01*
X136320258Y-105709939D01*
X136395827Y-105750331D01*
X136477825Y-105775205D01*
X136563100Y-105783604D01*
X136584462Y-105781500D01*
X139627929Y-105781500D01*
X139666747Y-105820318D01*
X139766656Y-105887075D01*
X139877669Y-105933058D01*
X139995520Y-105956500D01*
X140115680Y-105956500D01*
X140233531Y-105933058D01*
X140344544Y-105887075D01*
X140444453Y-105820318D01*
X140529418Y-105735353D01*
X140596175Y-105635444D01*
X140642158Y-105524431D01*
X140665600Y-105406580D01*
X140665600Y-105286420D01*
X140642158Y-105168569D01*
X140596175Y-105057556D01*
X140529418Y-104957647D01*
X140444453Y-104872682D01*
X140344544Y-104805925D01*
X140233531Y-104759942D01*
X140115680Y-104736500D01*
X139995520Y-104736500D01*
X139877669Y-104759942D01*
X139766656Y-104805925D01*
X139666747Y-104872682D01*
X139627929Y-104911500D01*
X136743282Y-104911500D01*
X136551608Y-104719826D01*
X136553640Y-104714920D01*
X145732100Y-104714920D01*
X145732100Y-104835080D01*
X145755542Y-104952931D01*
X145801525Y-105063944D01*
X145868282Y-105163853D01*
X145953247Y-105248818D01*
X146053156Y-105315575D01*
X146164169Y-105361558D01*
X146282020Y-105385000D01*
X146361876Y-105385000D01*
X146768423Y-105791548D01*
X146782040Y-105808140D01*
X146848277Y-105862500D01*
X146923847Y-105902892D01*
X147005844Y-105927766D01*
X147069757Y-105934061D01*
X147069765Y-105934061D01*
X147091119Y-105936164D01*
X147112473Y-105934061D01*
X153295153Y-105934061D01*
X153316507Y-105936164D01*
X153337861Y-105934061D01*
X153337869Y-105934061D01*
X153401782Y-105927766D01*
X153483779Y-105902892D01*
X153559349Y-105862500D01*
X153625586Y-105808140D01*
X153639207Y-105791543D01*
X154001018Y-105429733D01*
X155193862Y-105429733D01*
X155232680Y-105468551D01*
X155332589Y-105535308D01*
X155443602Y-105581291D01*
X155561453Y-105604733D01*
X155681613Y-105604733D01*
X155799464Y-105581291D01*
X155910477Y-105535308D01*
X156010386Y-105468551D01*
X156095351Y-105383586D01*
X156162108Y-105283677D01*
X156208091Y-105172664D01*
X156231533Y-105054813D01*
X156231533Y-104934653D01*
X156208091Y-104816802D01*
X156162108Y-104705789D01*
X156095351Y-104605880D01*
X156010386Y-104520915D01*
X155910477Y-104454158D01*
X155799464Y-104408175D01*
X155681613Y-104384733D01*
X155561453Y-104384733D01*
X155443602Y-104408175D01*
X155332589Y-104454158D01*
X155232680Y-104520915D01*
X155193862Y-104559733D01*
X153842188Y-104559733D01*
X153820834Y-104557630D01*
X153799480Y-104559733D01*
X153799473Y-104559733D01*
X153746190Y-104564981D01*
X153735559Y-104566028D01*
X153710685Y-104573574D01*
X153653563Y-104590902D01*
X153577993Y-104631294D01*
X153511756Y-104685654D01*
X153498139Y-104702246D01*
X153136325Y-105064061D01*
X147980380Y-105064061D01*
X148382794Y-104661648D01*
X148437691Y-104661648D01*
X148555542Y-104638206D01*
X148666555Y-104592223D01*
X148766464Y-104525466D01*
X148851429Y-104440501D01*
X148918186Y-104340592D01*
X148964169Y-104229579D01*
X148987611Y-104111728D01*
X148987611Y-103991568D01*
X148964169Y-103873717D01*
X148918186Y-103762704D01*
X148851429Y-103662795D01*
X148766464Y-103577830D01*
X148666555Y-103511073D01*
X148555542Y-103465090D01*
X148437691Y-103441648D01*
X148317531Y-103441648D01*
X148199680Y-103465090D01*
X148088667Y-103511073D01*
X147988758Y-103577830D01*
X147903793Y-103662795D01*
X147837036Y-103762704D01*
X147791053Y-103873717D01*
X147767611Y-103991568D01*
X147767611Y-104046465D01*
X147533622Y-104280455D01*
X147451200Y-104264060D01*
X147331040Y-104264060D01*
X147213189Y-104287502D01*
X147102176Y-104333485D01*
X147002267Y-104400242D01*
X146917302Y-104485207D01*
X146895709Y-104517523D01*
X146882675Y-104486056D01*
X146815918Y-104386147D01*
X146730953Y-104301182D01*
X146631044Y-104234425D01*
X146520031Y-104188442D01*
X146402180Y-104165000D01*
X146282020Y-104165000D01*
X146164169Y-104188442D01*
X146053156Y-104234425D01*
X145953247Y-104301182D01*
X145868282Y-104386147D01*
X145801525Y-104486056D01*
X145755542Y-104597069D01*
X145732100Y-104714920D01*
X136553640Y-104714920D01*
X136599022Y-104605360D01*
X136643600Y-104381250D01*
X136643600Y-104152750D01*
X136599022Y-103928640D01*
X136511579Y-103717534D01*
X136384631Y-103527543D01*
X136223057Y-103365969D01*
X136033066Y-103239021D01*
X135821960Y-103151578D01*
X135597850Y-103107000D01*
X135369350Y-103107000D01*
X135145240Y-103151578D01*
X134934134Y-103239021D01*
X134744143Y-103365969D01*
X134582569Y-103527543D01*
X134455621Y-103717534D01*
X134368178Y-103928640D01*
X134323600Y-104152750D01*
X133558000Y-104152750D01*
X133558000Y-102577000D01*
X134332148Y-102577000D01*
X134337940Y-102635810D01*
X134355095Y-102692361D01*
X134382952Y-102744478D01*
X134420441Y-102790159D01*
X134466122Y-102827648D01*
X134518239Y-102855505D01*
X134574790Y-102872660D01*
X134633600Y-102878452D01*
X135358600Y-102877000D01*
X135433600Y-102802000D01*
X135433600Y-101777000D01*
X135533600Y-101777000D01*
X135533600Y-102802000D01*
X135608600Y-102877000D01*
X136333600Y-102878452D01*
X136392410Y-102872660D01*
X136448961Y-102855505D01*
X136501078Y-102827648D01*
X136546759Y-102790159D01*
X136584248Y-102744478D01*
X136612105Y-102692361D01*
X136629260Y-102635810D01*
X136635052Y-102577000D01*
X136633600Y-101852000D01*
X136558600Y-101777000D01*
X135533600Y-101777000D01*
X135433600Y-101777000D01*
X134408600Y-101777000D01*
X134333600Y-101852000D01*
X134332148Y-102577000D01*
X133558000Y-102577000D01*
X133558000Y-100877000D01*
X134332148Y-100877000D01*
X134333600Y-101602000D01*
X134408600Y-101677000D01*
X135433600Y-101677000D01*
X135433600Y-100652000D01*
X135533600Y-100652000D01*
X135533600Y-101677000D01*
X136558600Y-101677000D01*
X136633600Y-101602000D01*
X136635052Y-100877000D01*
X136629260Y-100818190D01*
X136617044Y-100777920D01*
X154431600Y-100777920D01*
X154431600Y-100898080D01*
X154455042Y-101015931D01*
X154501025Y-101126944D01*
X154567782Y-101226853D01*
X154606601Y-101265672D01*
X154606600Y-102023146D01*
X154604497Y-102044500D01*
X154606600Y-102065854D01*
X154606600Y-102065861D01*
X154612895Y-102129774D01*
X154637769Y-102211771D01*
X154678161Y-102287341D01*
X154732521Y-102353579D01*
X154749118Y-102367200D01*
X155193600Y-102811683D01*
X155193600Y-102866580D01*
X155217042Y-102984431D01*
X155263025Y-103095444D01*
X155329782Y-103195353D01*
X155414747Y-103280318D01*
X155514656Y-103347075D01*
X155625669Y-103393058D01*
X155743520Y-103416500D01*
X155863680Y-103416500D01*
X155981531Y-103393058D01*
X156092544Y-103347075D01*
X156192453Y-103280318D01*
X156277418Y-103195353D01*
X156344175Y-103095444D01*
X156390158Y-102984431D01*
X156413600Y-102866580D01*
X156413600Y-102746420D01*
X156390158Y-102628569D01*
X156344175Y-102517556D01*
X156277418Y-102417647D01*
X156192453Y-102332682D01*
X156146415Y-102301920D01*
X172211600Y-102301920D01*
X172211600Y-102422080D01*
X172234189Y-102535643D01*
X172234200Y-102535754D01*
X172234201Y-107395264D01*
X172232097Y-107416628D01*
X172240495Y-107501902D01*
X172252910Y-107542826D01*
X172265370Y-107583900D01*
X172305762Y-107659470D01*
X172360122Y-107725707D01*
X172376713Y-107739323D01*
X173100572Y-108463183D01*
X173100572Y-108518080D01*
X173124014Y-108635931D01*
X173169997Y-108746944D01*
X173236754Y-108846853D01*
X173321719Y-108931818D01*
X173421628Y-108998575D01*
X173532641Y-109044558D01*
X173650492Y-109068000D01*
X173770652Y-109068000D01*
X173888503Y-109044558D01*
X173999516Y-108998575D01*
X174099425Y-108931818D01*
X174184390Y-108846853D01*
X174251147Y-108746944D01*
X174297130Y-108635931D01*
X174320572Y-108518080D01*
X174320572Y-108397920D01*
X174297130Y-108280069D01*
X174251147Y-108169056D01*
X174184390Y-108069147D01*
X174099425Y-107984182D01*
X173999516Y-107917425D01*
X173888503Y-107871442D01*
X173770652Y-107848000D01*
X173715755Y-107848000D01*
X173104200Y-107236446D01*
X173104200Y-102905203D01*
X173110544Y-102902575D01*
X173210453Y-102835818D01*
X173295418Y-102750853D01*
X173362175Y-102650944D01*
X173408158Y-102539931D01*
X173431600Y-102422080D01*
X173431600Y-102301920D01*
X173408158Y-102184069D01*
X173362175Y-102073056D01*
X173295418Y-101973147D01*
X173210453Y-101888182D01*
X173110544Y-101821425D01*
X172999531Y-101775442D01*
X172881680Y-101752000D01*
X172761520Y-101752000D01*
X172643669Y-101775442D01*
X172532656Y-101821425D01*
X172432747Y-101888182D01*
X172347782Y-101973147D01*
X172281025Y-102073056D01*
X172235042Y-102184069D01*
X172211600Y-102301920D01*
X156146415Y-102301920D01*
X156092544Y-102265925D01*
X155981531Y-102219942D01*
X155863680Y-102196500D01*
X155808783Y-102196500D01*
X155476600Y-101864318D01*
X155476600Y-101265671D01*
X155515418Y-101226853D01*
X155582175Y-101126944D01*
X155628158Y-101015931D01*
X155651600Y-100898080D01*
X155651600Y-100777920D01*
X155628158Y-100660069D01*
X155582175Y-100549056D01*
X155515418Y-100449147D01*
X155430453Y-100364182D01*
X155330544Y-100297425D01*
X155219531Y-100251442D01*
X155101680Y-100228000D01*
X154981520Y-100228000D01*
X154863669Y-100251442D01*
X154752656Y-100297425D01*
X154652747Y-100364182D01*
X154567782Y-100449147D01*
X154501025Y-100549056D01*
X154455042Y-100660069D01*
X154431600Y-100777920D01*
X136617044Y-100777920D01*
X136612105Y-100761639D01*
X136584248Y-100709522D01*
X136546759Y-100663841D01*
X136501078Y-100626352D01*
X136448961Y-100598495D01*
X136392410Y-100581340D01*
X136333600Y-100575548D01*
X135608600Y-100577000D01*
X135533600Y-100652000D01*
X135433600Y-100652000D01*
X135358600Y-100577000D01*
X134633600Y-100575548D01*
X134574790Y-100581340D01*
X134518239Y-100598495D01*
X134466122Y-100626352D01*
X134420441Y-100663841D01*
X134382952Y-100709522D01*
X134355095Y-100761639D01*
X134337940Y-100818190D01*
X134332148Y-100877000D01*
X133558000Y-100877000D01*
X133558000Y-95541400D01*
X161803301Y-95541400D01*
X161803301Y-97041400D01*
X161809286Y-97102170D01*
X161827012Y-97160606D01*
X161855798Y-97214460D01*
X161894537Y-97261663D01*
X161941740Y-97300402D01*
X161995594Y-97329188D01*
X162054030Y-97346914D01*
X162114800Y-97352899D01*
X163614800Y-97352899D01*
X163675570Y-97346914D01*
X163734006Y-97329188D01*
X163787860Y-97300402D01*
X163835063Y-97261663D01*
X163873802Y-97214460D01*
X163902588Y-97160606D01*
X163920314Y-97102170D01*
X163926299Y-97041400D01*
X163926299Y-96716970D01*
X163949147Y-96739818D01*
X164049056Y-96806575D01*
X164160069Y-96852558D01*
X164277920Y-96876000D01*
X164398080Y-96876000D01*
X164515931Y-96852558D01*
X164626944Y-96806575D01*
X164726853Y-96739818D01*
X164811818Y-96654853D01*
X164878575Y-96554944D01*
X164924558Y-96443931D01*
X164948000Y-96326080D01*
X164948000Y-96205920D01*
X164924558Y-96088069D01*
X164878575Y-95977056D01*
X164811818Y-95877147D01*
X164726853Y-95792182D01*
X164626944Y-95725425D01*
X164515931Y-95679442D01*
X164398080Y-95656000D01*
X164277920Y-95656000D01*
X164160069Y-95679442D01*
X164049056Y-95725425D01*
X163949147Y-95792182D01*
X163926299Y-95815030D01*
X163926299Y-95541400D01*
X163920314Y-95480630D01*
X163902588Y-95422194D01*
X163873802Y-95368340D01*
X163835063Y-95321137D01*
X163787860Y-95282398D01*
X163734006Y-95253612D01*
X163675570Y-95235886D01*
X163614800Y-95229901D01*
X162114800Y-95229901D01*
X162054030Y-95235886D01*
X161995594Y-95253612D01*
X161941740Y-95282398D01*
X161894537Y-95321137D01*
X161855798Y-95368340D01*
X161827012Y-95422194D01*
X161809286Y-95480630D01*
X161803301Y-95541400D01*
X133558000Y-95541400D01*
X133558000Y-94641400D01*
X170148548Y-94641400D01*
X170154340Y-94700210D01*
X170171495Y-94756761D01*
X170199352Y-94808878D01*
X170236841Y-94854559D01*
X170282522Y-94892048D01*
X170334639Y-94919905D01*
X170391190Y-94937060D01*
X170450000Y-94942852D01*
X171325000Y-94941400D01*
X171400000Y-94866400D01*
X171400000Y-93841400D01*
X170225000Y-93841400D01*
X170150000Y-93916400D01*
X170148548Y-94641400D01*
X133558000Y-94641400D01*
X133558000Y-92941400D01*
X170148548Y-92941400D01*
X170150000Y-93666400D01*
X170225000Y-93741400D01*
X171400000Y-93741400D01*
X171400000Y-92716400D01*
X171325000Y-92641400D01*
X170450000Y-92639948D01*
X170391190Y-92645740D01*
X170334639Y-92662895D01*
X170282522Y-92690752D01*
X170236841Y-92728241D01*
X170199352Y-92773922D01*
X170171495Y-92826039D01*
X170154340Y-92882590D01*
X170148548Y-92941400D01*
X133558000Y-92941400D01*
X133558000Y-91452750D01*
X134323600Y-91452750D01*
X134323600Y-91681250D01*
X134368178Y-91905360D01*
X134455621Y-92116466D01*
X134582569Y-92306457D01*
X134744143Y-92468031D01*
X134934134Y-92594979D01*
X135145240Y-92682422D01*
X135369350Y-92727000D01*
X135597850Y-92727000D01*
X135821960Y-92682422D01*
X136033066Y-92594979D01*
X136223057Y-92468031D01*
X136384631Y-92306457D01*
X136511579Y-92116466D01*
X136558992Y-92002000D01*
X141782616Y-92002000D01*
X141801025Y-92046444D01*
X141867782Y-92146353D01*
X141952747Y-92231318D01*
X142052656Y-92298075D01*
X142163669Y-92344058D01*
X142281520Y-92367500D01*
X142401680Y-92367500D01*
X142519531Y-92344058D01*
X142630544Y-92298075D01*
X142730453Y-92231318D01*
X142815418Y-92146353D01*
X142882175Y-92046444D01*
X142928158Y-91935431D01*
X142951600Y-91817580D01*
X142951600Y-91697420D01*
X142928158Y-91579569D01*
X142882175Y-91468556D01*
X142815418Y-91368647D01*
X142730453Y-91283682D01*
X142630544Y-91216925D01*
X142519531Y-91170942D01*
X142401680Y-91147500D01*
X142281520Y-91147500D01*
X142272581Y-91149278D01*
X142236375Y-91138295D01*
X142172462Y-91132000D01*
X142172454Y-91132000D01*
X142151100Y-91129897D01*
X142129746Y-91132000D01*
X136558992Y-91132000D01*
X136511579Y-91017534D01*
X136384631Y-90827543D01*
X136223057Y-90665969D01*
X136033066Y-90539021D01*
X135821960Y-90451578D01*
X135597850Y-90407000D01*
X135369350Y-90407000D01*
X135145240Y-90451578D01*
X134934134Y-90539021D01*
X134744143Y-90665969D01*
X134582569Y-90827543D01*
X134455621Y-91017534D01*
X134368178Y-91228640D01*
X134323600Y-91452750D01*
X133558000Y-91452750D01*
X133558000Y-89877000D01*
X134332148Y-89877000D01*
X134337940Y-89935810D01*
X134355095Y-89992361D01*
X134382952Y-90044478D01*
X134420441Y-90090159D01*
X134466122Y-90127648D01*
X134518239Y-90155505D01*
X134574790Y-90172660D01*
X134633600Y-90178452D01*
X135358600Y-90177000D01*
X135433600Y-90102000D01*
X135433600Y-89077000D01*
X135533600Y-89077000D01*
X135533600Y-90102000D01*
X135608600Y-90177000D01*
X136333600Y-90178452D01*
X136392410Y-90172660D01*
X136448961Y-90155505D01*
X136501078Y-90127648D01*
X136546759Y-90090159D01*
X136584248Y-90044478D01*
X136612105Y-89992361D01*
X136629260Y-89935810D01*
X136635052Y-89877000D01*
X136633600Y-89152000D01*
X136558600Y-89077000D01*
X135533600Y-89077000D01*
X135433600Y-89077000D01*
X134408600Y-89077000D01*
X134333600Y-89152000D01*
X134332148Y-89877000D01*
X133558000Y-89877000D01*
X133558000Y-88177000D01*
X134332148Y-88177000D01*
X134333600Y-88902000D01*
X134408600Y-88977000D01*
X135433600Y-88977000D01*
X135433600Y-87952000D01*
X135533600Y-87952000D01*
X135533600Y-88977000D01*
X136558600Y-88977000D01*
X136633600Y-88902000D01*
X136633978Y-88712911D01*
X165861591Y-88712911D01*
X165861591Y-88833071D01*
X165885033Y-88950922D01*
X165931016Y-89061935D01*
X165997773Y-89161844D01*
X166082738Y-89246809D01*
X166182647Y-89313566D01*
X166246766Y-89340125D01*
X167027101Y-90120460D01*
X167027101Y-91174000D01*
X167033086Y-91234770D01*
X167050812Y-91293206D01*
X167079598Y-91347060D01*
X167118337Y-91394263D01*
X167165540Y-91433002D01*
X167219394Y-91461788D01*
X167277830Y-91479514D01*
X167338600Y-91485499D01*
X168338600Y-91485499D01*
X168399370Y-91479514D01*
X168457806Y-91461788D01*
X168488600Y-91445328D01*
X168519394Y-91461788D01*
X168528600Y-91464581D01*
X168528600Y-91500080D01*
X168552042Y-91617931D01*
X168598025Y-91728944D01*
X168664782Y-91828853D01*
X168749747Y-91913818D01*
X168849656Y-91980575D01*
X168960669Y-92026558D01*
X169078520Y-92050000D01*
X169198680Y-92050000D01*
X169316531Y-92026558D01*
X169427544Y-91980575D01*
X169527453Y-91913818D01*
X169612418Y-91828853D01*
X169679175Y-91728944D01*
X169725158Y-91617931D01*
X169748600Y-91500080D01*
X169748600Y-91464581D01*
X169757806Y-91461788D01*
X169788600Y-91445328D01*
X169819394Y-91461788D01*
X169877830Y-91479514D01*
X169938600Y-91485499D01*
X170708140Y-91485499D01*
X171863561Y-92640921D01*
X171575000Y-92641400D01*
X171500000Y-92716400D01*
X171500000Y-93741400D01*
X171520000Y-93741400D01*
X171520000Y-93841400D01*
X171500000Y-93841400D01*
X171500000Y-94866400D01*
X171575000Y-94941400D01*
X172007323Y-94942117D01*
X171803600Y-95145841D01*
X171656979Y-95131400D01*
X171243021Y-95131400D01*
X171072600Y-95148185D01*
X170853940Y-95214515D01*
X170652421Y-95322229D01*
X170475788Y-95467188D01*
X170330829Y-95643821D01*
X170223115Y-95845340D01*
X170156785Y-96064000D01*
X170134388Y-96291400D01*
X170156785Y-96518800D01*
X170223115Y-96737460D01*
X170330829Y-96938979D01*
X170475788Y-97115612D01*
X170652421Y-97260571D01*
X170853940Y-97368285D01*
X171072600Y-97434615D01*
X171243021Y-97451400D01*
X171656979Y-97451400D01*
X171827400Y-97434615D01*
X172046060Y-97368285D01*
X172247579Y-97260571D01*
X172424212Y-97115612D01*
X172569171Y-96938979D01*
X172676885Y-96737460D01*
X172743215Y-96518800D01*
X172765612Y-96291400D01*
X172743215Y-96064000D01*
X172679477Y-95853883D01*
X173325137Y-95208223D01*
X173346495Y-95190695D01*
X173364023Y-95169337D01*
X173364029Y-95169331D01*
X173416475Y-95105425D01*
X173468474Y-95008140D01*
X173468475Y-95008139D01*
X173500497Y-94902579D01*
X173508600Y-94820306D01*
X173508600Y-94820294D01*
X173511308Y-94792801D01*
X173508600Y-94765308D01*
X173508600Y-92961495D01*
X173511308Y-92933999D01*
X173508600Y-92906503D01*
X173508600Y-92906494D01*
X173500497Y-92824221D01*
X173468475Y-92718661D01*
X173444269Y-92673375D01*
X173416475Y-92621375D01*
X173364029Y-92557469D01*
X173364023Y-92557463D01*
X173346495Y-92536105D01*
X173325137Y-92518577D01*
X171250099Y-90443540D01*
X171250099Y-89674000D01*
X171244114Y-89613230D01*
X171226388Y-89554794D01*
X171197602Y-89500940D01*
X171158863Y-89453737D01*
X171111660Y-89414998D01*
X171057806Y-89386212D01*
X170999370Y-89368486D01*
X170938600Y-89362501D01*
X169938600Y-89362501D01*
X169877830Y-89368486D01*
X169819394Y-89386212D01*
X169788600Y-89402672D01*
X169757806Y-89386212D01*
X169699370Y-89368486D01*
X169638600Y-89362501D01*
X168638600Y-89362501D01*
X168577830Y-89368486D01*
X168519394Y-89386212D01*
X168488600Y-89402672D01*
X168457806Y-89386212D01*
X168399370Y-89368486D01*
X168338600Y-89362501D01*
X167853060Y-89362501D01*
X167038725Y-88548166D01*
X167012166Y-88484047D01*
X166945409Y-88384138D01*
X166860444Y-88299173D01*
X166760535Y-88232416D01*
X166649522Y-88186433D01*
X166531671Y-88162991D01*
X166411511Y-88162991D01*
X166293660Y-88186433D01*
X166182647Y-88232416D01*
X166082738Y-88299173D01*
X165997773Y-88384138D01*
X165931016Y-88484047D01*
X165885033Y-88595060D01*
X165861591Y-88712911D01*
X136633978Y-88712911D01*
X136635052Y-88177000D01*
X136629260Y-88118190D01*
X136612105Y-88061639D01*
X136584248Y-88009522D01*
X136546759Y-87963841D01*
X136501078Y-87926352D01*
X136448961Y-87898495D01*
X136392410Y-87881340D01*
X136333600Y-87875548D01*
X135608600Y-87877000D01*
X135533600Y-87952000D01*
X135433600Y-87952000D01*
X135358600Y-87877000D01*
X134633600Y-87875548D01*
X134574790Y-87881340D01*
X134518239Y-87898495D01*
X134466122Y-87926352D01*
X134420441Y-87963841D01*
X134382952Y-88009522D01*
X134355095Y-88061639D01*
X134337940Y-88118190D01*
X134332148Y-88177000D01*
X133558000Y-88177000D01*
X133558000Y-84936000D01*
X170455418Y-84936000D01*
X170414703Y-84976715D01*
G04 #@! TA.AperFunction,Conductor*
D23*
G36*
X170414703Y-84976715D02*
G01*
X170398112Y-84990331D01*
X170343752Y-85056568D01*
X170303360Y-85132138D01*
X170278485Y-85214136D01*
X170270087Y-85299410D01*
X170272191Y-85320774D01*
X170272190Y-87037036D01*
X170270087Y-87058390D01*
X170272190Y-87079744D01*
X170272190Y-87079751D01*
X170278485Y-87143664D01*
X170303359Y-87225661D01*
X170343751Y-87301231D01*
X170398111Y-87367469D01*
X170414708Y-87381090D01*
X170754993Y-87721375D01*
X170731490Y-87798856D01*
X170720701Y-87908399D01*
X170720701Y-88608401D01*
X170731490Y-88717944D01*
X170763442Y-88823277D01*
X170815330Y-88920353D01*
X170885160Y-89005440D01*
X170970247Y-89075270D01*
X171067323Y-89127158D01*
X171172656Y-89159110D01*
X171282199Y-89169899D01*
X172532201Y-89169899D01*
X172641744Y-89159110D01*
X172747077Y-89127158D01*
X172844153Y-89075270D01*
X172929240Y-89005440D01*
X172999070Y-88920353D01*
X173050958Y-88823277D01*
X173082910Y-88717944D01*
X173093699Y-88608401D01*
X173093699Y-87908399D01*
X173082910Y-87798856D01*
X173050958Y-87693523D01*
X172999070Y-87596447D01*
X172929240Y-87511360D01*
X172844153Y-87441530D01*
X172747077Y-87389642D01*
X172641744Y-87357690D01*
X172532201Y-87346901D01*
X171610883Y-87346901D01*
X171404152Y-87140170D01*
X171453809Y-87155233D01*
X171587496Y-87168400D01*
X172226904Y-87168400D01*
X172360591Y-87155233D01*
X172532127Y-87103198D01*
X172690215Y-87018698D01*
X172828781Y-86904981D01*
X172899835Y-86818400D01*
X173011101Y-86818400D01*
X173011101Y-86983000D01*
X173017086Y-87043770D01*
X173034812Y-87102206D01*
X173063598Y-87156060D01*
X173102337Y-87203263D01*
X173149540Y-87242002D01*
X173203394Y-87270788D01*
X173261830Y-87288514D01*
X173322600Y-87294499D01*
X174322600Y-87294499D01*
X174383370Y-87288514D01*
X174441806Y-87270788D01*
X174483206Y-87248659D01*
X174507239Y-87261505D01*
X174563790Y-87278660D01*
X174622600Y-87284452D01*
X174997600Y-87283000D01*
X175072600Y-87208000D01*
X175072600Y-86283000D01*
X175172600Y-86283000D01*
X175172600Y-87208000D01*
X175247600Y-87283000D01*
X175622600Y-87284452D01*
X175681410Y-87278660D01*
X175737961Y-87261505D01*
X175790078Y-87233648D01*
X175835759Y-87196159D01*
X175873248Y-87150478D01*
X175901105Y-87098361D01*
X175918260Y-87041810D01*
X175924052Y-86983000D01*
X175922600Y-86358000D01*
X175847600Y-86283000D01*
X175172600Y-86283000D01*
X175072600Y-86283000D01*
X175052600Y-86283000D01*
X175052600Y-86183000D01*
X175072600Y-86183000D01*
X175072600Y-85258000D01*
X175172600Y-85258000D01*
X175172600Y-86183000D01*
X175847600Y-86183000D01*
X175922600Y-86108000D01*
X175924052Y-85483000D01*
X175918260Y-85424190D01*
X175901105Y-85367639D01*
X175873248Y-85315522D01*
X175835759Y-85269841D01*
X175790078Y-85232352D01*
X175737961Y-85204495D01*
X175681410Y-85187340D01*
X175622600Y-85181548D01*
X175247600Y-85183000D01*
X175172600Y-85258000D01*
X175072600Y-85258000D01*
X174997600Y-85183000D01*
X174622600Y-85181548D01*
X174563790Y-85187340D01*
X174507239Y-85204495D01*
X174483206Y-85217341D01*
X174441806Y-85195212D01*
X174383370Y-85177486D01*
X174322600Y-85171501D01*
X173322600Y-85171501D01*
X173261830Y-85177486D01*
X173203394Y-85195212D01*
X173149540Y-85223998D01*
X173102337Y-85262737D01*
X173063598Y-85309940D01*
X173034812Y-85363794D01*
X173017086Y-85422230D01*
X173011101Y-85483000D01*
X173011101Y-85698400D01*
X172899835Y-85698400D01*
X172828781Y-85611819D01*
X172690215Y-85498102D01*
X172532127Y-85413602D01*
X172360591Y-85361567D01*
X172226904Y-85348400D01*
X171587496Y-85348400D01*
X171453809Y-85361567D01*
X171282273Y-85413602D01*
X171142190Y-85488478D01*
X171142190Y-85479592D01*
X171685782Y-84936000D01*
X177998400Y-84936000D01*
X177998400Y-99557941D01*
X177986331Y-99552942D01*
X177868480Y-99529500D01*
X177748320Y-99529500D01*
X177630469Y-99552942D01*
X177519456Y-99598925D01*
X177419547Y-99665682D01*
X177334582Y-99750647D01*
X177267825Y-99850556D01*
X177221842Y-99961569D01*
X177198400Y-100079420D01*
X177198400Y-100199580D01*
X177221842Y-100317431D01*
X177267825Y-100428444D01*
X177334582Y-100528353D01*
X177419547Y-100613318D01*
X177466600Y-100644758D01*
X177466601Y-109776416D01*
X175537018Y-111706000D01*
X174062071Y-111706000D01*
X174023253Y-111667182D01*
X173923344Y-111600425D01*
X173812331Y-111554442D01*
X173694480Y-111531000D01*
X173574320Y-111531000D01*
X173456469Y-111554442D01*
X173345456Y-111600425D01*
X173245547Y-111667182D01*
X173160582Y-111752147D01*
X173093825Y-111852056D01*
X173047842Y-111963069D01*
X173024400Y-112080920D01*
X173024400Y-112201080D01*
X173047842Y-112318931D01*
X173093825Y-112429944D01*
X173160582Y-112529853D01*
X173245547Y-112614818D01*
X173345456Y-112681575D01*
X173456469Y-112727558D01*
X173574320Y-112751000D01*
X173694480Y-112751000D01*
X173812331Y-112727558D01*
X173923344Y-112681575D01*
X174023253Y-112614818D01*
X174062071Y-112576000D01*
X175695846Y-112576000D01*
X175717200Y-112578103D01*
X175738554Y-112576000D01*
X175738562Y-112576000D01*
X175802475Y-112569705D01*
X175884472Y-112544831D01*
X175960042Y-112504439D01*
X176026279Y-112450079D01*
X176039900Y-112433482D01*
X177998401Y-110474982D01*
X177998401Y-120811408D01*
X177953863Y-121265640D01*
X177826705Y-121686808D01*
X177620166Y-122075251D01*
X177342111Y-122416181D01*
X177003129Y-122696611D01*
X176616136Y-122905858D01*
X176195870Y-123035952D01*
X175742547Y-123083598D01*
X175742007Y-123083600D01*
X171572253Y-123083600D01*
X171593066Y-123074979D01*
X171783057Y-122948031D01*
X171944631Y-122786457D01*
X172071579Y-122596466D01*
X172159022Y-122385360D01*
X172203600Y-122161250D01*
X172203600Y-121932750D01*
X172159022Y-121708640D01*
X172071579Y-121497534D01*
X171944631Y-121307543D01*
X171783057Y-121145969D01*
X171593066Y-121019021D01*
X171381960Y-120931578D01*
X171157850Y-120887000D01*
X170929350Y-120887000D01*
X170705240Y-120931578D01*
X170494134Y-121019021D01*
X170304143Y-121145969D01*
X170142569Y-121307543D01*
X170015621Y-121497534D01*
X169928178Y-121708640D01*
X169883600Y-121932750D01*
X169883600Y-122161250D01*
X169928178Y-122385360D01*
X170015621Y-122596466D01*
X170142569Y-122786457D01*
X170304143Y-122948031D01*
X170494134Y-123074979D01*
X170514947Y-123083600D01*
X169032253Y-123083600D01*
X169053066Y-123074979D01*
X169243057Y-122948031D01*
X169404631Y-122786457D01*
X169531579Y-122596466D01*
X169619022Y-122385360D01*
X169663600Y-122161250D01*
X169663600Y-121932750D01*
X169619022Y-121708640D01*
X169531579Y-121497534D01*
X169404631Y-121307543D01*
X169243057Y-121145969D01*
X169053066Y-121019021D01*
X168841960Y-120931578D01*
X168617850Y-120887000D01*
X168389350Y-120887000D01*
X168165240Y-120931578D01*
X167954134Y-121019021D01*
X167764143Y-121145969D01*
X167602569Y-121307543D01*
X167475621Y-121497534D01*
X167388178Y-121708640D01*
X167343600Y-121932750D01*
X167343600Y-122161250D01*
X167388178Y-122385360D01*
X167475621Y-122596466D01*
X167602569Y-122786457D01*
X167764143Y-122948031D01*
X167954134Y-123074979D01*
X167974947Y-123083600D01*
X166451573Y-123083600D01*
X166598464Y-123005881D01*
X166773334Y-122863600D01*
X166917086Y-122689938D01*
X167024196Y-122491568D01*
X167090548Y-122276114D01*
X167037515Y-122097000D01*
X166013600Y-122097000D01*
X166013600Y-122117000D01*
X165913600Y-122117000D01*
X165913600Y-122097000D01*
X164889685Y-122097000D01*
X164836652Y-122276114D01*
X164903004Y-122491568D01*
X165010114Y-122689938D01*
X165153866Y-122863600D01*
X165328736Y-123005881D01*
X165475627Y-123083600D01*
X163952253Y-123083600D01*
X163973066Y-123074979D01*
X164163057Y-122948031D01*
X164324631Y-122786457D01*
X164451579Y-122596466D01*
X164539022Y-122385360D01*
X164583600Y-122161250D01*
X164583600Y-121932750D01*
X164560753Y-121817886D01*
X164836652Y-121817886D01*
X164889685Y-121997000D01*
X165913600Y-121997000D01*
X165913600Y-120973163D01*
X166013600Y-120973163D01*
X166013600Y-121997000D01*
X167037515Y-121997000D01*
X167090548Y-121817886D01*
X167024196Y-121602432D01*
X166917086Y-121404062D01*
X166773334Y-121230400D01*
X166598464Y-121088119D01*
X166399197Y-120982688D01*
X166192714Y-120920054D01*
X166013600Y-120973163D01*
X165913600Y-120973163D01*
X165734486Y-120920054D01*
X165528003Y-120982688D01*
X165328736Y-121088119D01*
X165153866Y-121230400D01*
X165010114Y-121404062D01*
X164903004Y-121602432D01*
X164836652Y-121817886D01*
X164560753Y-121817886D01*
X164539022Y-121708640D01*
X164451579Y-121497534D01*
X164324631Y-121307543D01*
X164163057Y-121145969D01*
X163973066Y-121019021D01*
X163761960Y-120931578D01*
X163537850Y-120887000D01*
X163309350Y-120887000D01*
X163085240Y-120931578D01*
X162874134Y-121019021D01*
X162684143Y-121145969D01*
X162522569Y-121307543D01*
X162395621Y-121497534D01*
X162308178Y-121708640D01*
X162263600Y-121932750D01*
X162263600Y-122161250D01*
X162308178Y-122385360D01*
X162395621Y-122596466D01*
X162522569Y-122786457D01*
X162684143Y-122948031D01*
X162874134Y-123074979D01*
X162894947Y-123083600D01*
X161412253Y-123083600D01*
X161433066Y-123074979D01*
X161623057Y-122948031D01*
X161784631Y-122786457D01*
X161911579Y-122596466D01*
X161999022Y-122385360D01*
X162043600Y-122161250D01*
X162043600Y-121932750D01*
X161999022Y-121708640D01*
X161911579Y-121497534D01*
X161784631Y-121307543D01*
X161623057Y-121145969D01*
X161433066Y-121019021D01*
X161221960Y-120931578D01*
X160997850Y-120887000D01*
X160769350Y-120887000D01*
X160545240Y-120931578D01*
X160334134Y-121019021D01*
X160144143Y-121145969D01*
X159982569Y-121307543D01*
X159855621Y-121497534D01*
X159768178Y-121708640D01*
X159723600Y-121932750D01*
X159723600Y-122161250D01*
X159768178Y-122385360D01*
X159855621Y-122596466D01*
X159982569Y-122786457D01*
X160144143Y-122948031D01*
X160334134Y-123074979D01*
X160354947Y-123083600D01*
X158872253Y-123083600D01*
X158893066Y-123074979D01*
X159083057Y-122948031D01*
X159244631Y-122786457D01*
X159371579Y-122596466D01*
X159459022Y-122385360D01*
X159503600Y-122161250D01*
X159503600Y-121932750D01*
X159459022Y-121708640D01*
X159371579Y-121497534D01*
X159244631Y-121307543D01*
X159083057Y-121145969D01*
X158893066Y-121019021D01*
X158681960Y-120931578D01*
X158457850Y-120887000D01*
X158229350Y-120887000D01*
X158005240Y-120931578D01*
X157794134Y-121019021D01*
X157604143Y-121145969D01*
X157442569Y-121307543D01*
X157315621Y-121497534D01*
X157228178Y-121708640D01*
X157183600Y-121932750D01*
X157183600Y-122161250D01*
X157228178Y-122385360D01*
X157315621Y-122596466D01*
X157442569Y-122786457D01*
X157604143Y-122948031D01*
X157794134Y-123074979D01*
X157814947Y-123083600D01*
X156332253Y-123083600D01*
X156353066Y-123074979D01*
X156543057Y-122948031D01*
X156704631Y-122786457D01*
X156831579Y-122596466D01*
X156919022Y-122385360D01*
X156963600Y-122161250D01*
X156963600Y-121932750D01*
X156919022Y-121708640D01*
X156838572Y-121514415D01*
X156840739Y-121492410D01*
X156843600Y-121463362D01*
X156843600Y-121463355D01*
X156845703Y-121442001D01*
X156843600Y-121420647D01*
X156843600Y-120689704D01*
X174108000Y-120689704D01*
X174108000Y-121016696D01*
X174171793Y-121337404D01*
X174296927Y-121639505D01*
X174478594Y-121911388D01*
X174709812Y-122142606D01*
X174981695Y-122324273D01*
X175283796Y-122449407D01*
X175604504Y-122513200D01*
X175931496Y-122513200D01*
X176252204Y-122449407D01*
X176554305Y-122324273D01*
X176826188Y-122142606D01*
X177057406Y-121911388D01*
X177239073Y-121639505D01*
X177364207Y-121337404D01*
X177428000Y-121016696D01*
X177428000Y-120689704D01*
X177364207Y-120368996D01*
X177239073Y-120066895D01*
X177057406Y-119795012D01*
X176826188Y-119563794D01*
X176554305Y-119382127D01*
X176252204Y-119256993D01*
X175931496Y-119193200D01*
X175604504Y-119193200D01*
X175283796Y-119256993D01*
X174981695Y-119382127D01*
X174709812Y-119563794D01*
X174478594Y-119795012D01*
X174296927Y-120066895D01*
X174171793Y-120368996D01*
X174108000Y-120689704D01*
X156843600Y-120689704D01*
X156843600Y-117139499D01*
X156908600Y-117139499D01*
X156969370Y-117133514D01*
X157027806Y-117115788D01*
X157058600Y-117099328D01*
X157089394Y-117115788D01*
X157147830Y-117133514D01*
X157208600Y-117139499D01*
X158208600Y-117139499D01*
X158269370Y-117133514D01*
X158327806Y-117115788D01*
X158381660Y-117087002D01*
X158428863Y-117048263D01*
X158467602Y-117001060D01*
X158496388Y-116947206D01*
X158514114Y-116888770D01*
X158520099Y-116828000D01*
X158520099Y-115328000D01*
X158514114Y-115267230D01*
X158496388Y-115208794D01*
X158467602Y-115154940D01*
X158428863Y-115107737D01*
X158381660Y-115068998D01*
X158327806Y-115040212D01*
X158269370Y-115022486D01*
X158208600Y-115016501D01*
X157208600Y-115016501D01*
X157147830Y-115022486D01*
X157089394Y-115040212D01*
X157058600Y-115056672D01*
X157027806Y-115040212D01*
X156969370Y-115022486D01*
X156908600Y-115016501D01*
X155908600Y-115016501D01*
X155847830Y-115022486D01*
X155789394Y-115040212D01*
X155735540Y-115068998D01*
X155688337Y-115107737D01*
X155649598Y-115154940D01*
X155620812Y-115208794D01*
X155603086Y-115267230D01*
X155597101Y-115328000D01*
X155597101Y-116828000D01*
X155603086Y-116888770D01*
X155620812Y-116947206D01*
X155649598Y-117001060D01*
X155688337Y-117048263D01*
X155735540Y-117087002D01*
X155789394Y-117115788D01*
X155847830Y-117133514D01*
X155908600Y-117139499D01*
X155973601Y-117139499D01*
X155973600Y-120898089D01*
X155917850Y-120887000D01*
X155689350Y-120887000D01*
X155465240Y-120931578D01*
X155254134Y-121019021D01*
X155064143Y-121145969D01*
X154902569Y-121307543D01*
X154775621Y-121497534D01*
X154688178Y-121708640D01*
X154643600Y-121932750D01*
X154643600Y-122161250D01*
X154688178Y-122385360D01*
X154775621Y-122596466D01*
X154902569Y-122786457D01*
X155064143Y-122948031D01*
X155254134Y-123074979D01*
X155274947Y-123083600D01*
X153792253Y-123083600D01*
X153813066Y-123074979D01*
X154003057Y-122948031D01*
X154164631Y-122786457D01*
X154291579Y-122596466D01*
X154379022Y-122385360D01*
X154423600Y-122161250D01*
X154423600Y-121932750D01*
X154379022Y-121708640D01*
X154291579Y-121497534D01*
X154164631Y-121307543D01*
X154003057Y-121145969D01*
X153813066Y-121019021D01*
X153601960Y-120931578D01*
X153377850Y-120887000D01*
X153149350Y-120887000D01*
X152925240Y-120931578D01*
X152714134Y-121019021D01*
X152524143Y-121145969D01*
X152362569Y-121307543D01*
X152235621Y-121497534D01*
X152148178Y-121708640D01*
X152103600Y-121932750D01*
X152103600Y-122161250D01*
X152148178Y-122385360D01*
X152235621Y-122596466D01*
X152362569Y-122786457D01*
X152524143Y-122948031D01*
X152714134Y-123074979D01*
X152734947Y-123083600D01*
X151252253Y-123083600D01*
X151273066Y-123074979D01*
X151463057Y-122948031D01*
X151624631Y-122786457D01*
X151751579Y-122596466D01*
X151839022Y-122385360D01*
X151883600Y-122161250D01*
X151883600Y-121932750D01*
X151839022Y-121708640D01*
X151751579Y-121497534D01*
X151624631Y-121307543D01*
X151463057Y-121145969D01*
X151273066Y-121019021D01*
X151061960Y-120931578D01*
X150837850Y-120887000D01*
X150609350Y-120887000D01*
X150385240Y-120931578D01*
X150174134Y-121019021D01*
X149984143Y-121145969D01*
X149822569Y-121307543D01*
X149695621Y-121497534D01*
X149608178Y-121708640D01*
X149563600Y-121932750D01*
X149563600Y-122161250D01*
X149608178Y-122385360D01*
X149695621Y-122596466D01*
X149822569Y-122786457D01*
X149984143Y-122948031D01*
X150174134Y-123074979D01*
X150194947Y-123083600D01*
X148712253Y-123083600D01*
X148733066Y-123074979D01*
X148923057Y-122948031D01*
X149084631Y-122786457D01*
X149211579Y-122596466D01*
X149299022Y-122385360D01*
X149343600Y-122161250D01*
X149343600Y-121932750D01*
X149299022Y-121708640D01*
X149211579Y-121497534D01*
X149084631Y-121307543D01*
X148923057Y-121145969D01*
X148733066Y-121019021D01*
X148521960Y-120931578D01*
X148297850Y-120887000D01*
X148069350Y-120887000D01*
X147845240Y-120931578D01*
X147634134Y-121019021D01*
X147444143Y-121145969D01*
X147282569Y-121307543D01*
X147155621Y-121497534D01*
X147068178Y-121708640D01*
X147023600Y-121932750D01*
X147023600Y-122161250D01*
X147068178Y-122385360D01*
X147155621Y-122596466D01*
X147282569Y-122786457D01*
X147444143Y-122948031D01*
X147634134Y-123074979D01*
X147654947Y-123083600D01*
X146131573Y-123083600D01*
X146278464Y-123005881D01*
X146453334Y-122863600D01*
X146597086Y-122689938D01*
X146704196Y-122491568D01*
X146770548Y-122276114D01*
X146717515Y-122097000D01*
X145693600Y-122097000D01*
X145693600Y-122117000D01*
X145593600Y-122117000D01*
X145593600Y-122097000D01*
X144569685Y-122097000D01*
X144516652Y-122276114D01*
X144583004Y-122491568D01*
X144690114Y-122689938D01*
X144833866Y-122863600D01*
X145008736Y-123005881D01*
X145155627Y-123083600D01*
X143632253Y-123083600D01*
X143653066Y-123074979D01*
X143843057Y-122948031D01*
X144004631Y-122786457D01*
X144131579Y-122596466D01*
X144219022Y-122385360D01*
X144263600Y-122161250D01*
X144263600Y-121932750D01*
X144240753Y-121817886D01*
X144516652Y-121817886D01*
X144569685Y-121997000D01*
X145593600Y-121997000D01*
X145593600Y-120973163D01*
X145693600Y-120973163D01*
X145693600Y-121997000D01*
X146717515Y-121997000D01*
X146770548Y-121817886D01*
X146704196Y-121602432D01*
X146597086Y-121404062D01*
X146453334Y-121230400D01*
X146278464Y-121088119D01*
X146079197Y-120982688D01*
X145872714Y-120920054D01*
X145693600Y-120973163D01*
X145593600Y-120973163D01*
X145414486Y-120920054D01*
X145208003Y-120982688D01*
X145008736Y-121088119D01*
X144833866Y-121230400D01*
X144690114Y-121404062D01*
X144583004Y-121602432D01*
X144516652Y-121817886D01*
X144240753Y-121817886D01*
X144219022Y-121708640D01*
X144131579Y-121497534D01*
X144004631Y-121307543D01*
X143843057Y-121145969D01*
X143653066Y-121019021D01*
X143538600Y-120971608D01*
X143538600Y-120449182D01*
X144323102Y-119664681D01*
X144326215Y-119662126D01*
X144419466Y-119599818D01*
X144504431Y-119514853D01*
X144571188Y-119414944D01*
X144617171Y-119303931D01*
X144640613Y-119186080D01*
X144640613Y-119065920D01*
X144617171Y-118948069D01*
X144571188Y-118837056D01*
X144504431Y-118737147D01*
X144419466Y-118652182D01*
X144319557Y-118585425D01*
X144208544Y-118539442D01*
X144090693Y-118516000D01*
X143970533Y-118516000D01*
X143852682Y-118539442D01*
X143741669Y-118585425D01*
X143641760Y-118652182D01*
X143630606Y-118663337D01*
X143619451Y-118652182D01*
X143519542Y-118585425D01*
X143408529Y-118539442D01*
X143290678Y-118516000D01*
X143170518Y-118516000D01*
X143052667Y-118539442D01*
X142941654Y-118585425D01*
X142841745Y-118652182D01*
X142756780Y-118737147D01*
X142690023Y-118837056D01*
X142644040Y-118948069D01*
X142620598Y-119065920D01*
X142620598Y-119186080D01*
X142644040Y-119303931D01*
X142657937Y-119337480D01*
X141109917Y-120885501D01*
X139713600Y-120885501D01*
X139652830Y-120891486D01*
X139594394Y-120909212D01*
X139540540Y-120937998D01*
X139493337Y-120976737D01*
X139454598Y-121023940D01*
X139425812Y-121077794D01*
X139408086Y-121136230D01*
X139402101Y-121197000D01*
X139402101Y-122897000D01*
X139408086Y-122957770D01*
X139425812Y-123016206D01*
X139454598Y-123070060D01*
X139465710Y-123083600D01*
X135779382Y-123083600D01*
X135335027Y-123040030D01*
X134923355Y-122915740D01*
X134543661Y-122713854D01*
X134210414Y-122442065D01*
X133936303Y-122110721D01*
X133731773Y-121732450D01*
X133604611Y-121321656D01*
X133558001Y-120878190D01*
X133557998Y-120877429D01*
X133557998Y-120877428D01*
X133557551Y-120689704D01*
X134103000Y-120689704D01*
X134103000Y-121016696D01*
X134166793Y-121337404D01*
X134291927Y-121639505D01*
X134473594Y-121911388D01*
X134704812Y-122142606D01*
X134976695Y-122324273D01*
X135278796Y-122449407D01*
X135599504Y-122513200D01*
X135926496Y-122513200D01*
X136247204Y-122449407D01*
X136549305Y-122324273D01*
X136821188Y-122142606D01*
X137052406Y-121911388D01*
X137234073Y-121639505D01*
X137359207Y-121337404D01*
X137423000Y-121016696D01*
X137423000Y-120689704D01*
X137359207Y-120368996D01*
X137234073Y-120066895D01*
X137052406Y-119795012D01*
X136821188Y-119563794D01*
X136549305Y-119382127D01*
X136247204Y-119256993D01*
X135926496Y-119193200D01*
X135599504Y-119193200D01*
X135278796Y-119256993D01*
X134976695Y-119382127D01*
X134704812Y-119563794D01*
X134473594Y-119795012D01*
X134291927Y-120066895D01*
X134166793Y-120368996D01*
X134103000Y-120689704D01*
X133557551Y-120689704D01*
X133552920Y-118745005D01*
X133557969Y-114705876D01*
X133560502Y-114710615D01*
X133674219Y-114849181D01*
X133812785Y-114962898D01*
X133970873Y-115047398D01*
X134142409Y-115099433D01*
X134276096Y-115112600D01*
X135065504Y-115112600D01*
X135199191Y-115099433D01*
X135370727Y-115047398D01*
X135528815Y-114962898D01*
X135667381Y-114849181D01*
X135781098Y-114710615D01*
X135865598Y-114552527D01*
X135917633Y-114380991D01*
X135935203Y-114202600D01*
X135917633Y-114024209D01*
X135865598Y-113852673D01*
X135781098Y-113694585D01*
X135667381Y-113556019D01*
X135528815Y-113442302D01*
X135370727Y-113357802D01*
X135199191Y-113305767D01*
X135065504Y-113292600D01*
X134276096Y-113292600D01*
X134142409Y-113305767D01*
X133970873Y-113357802D01*
X133812785Y-113442302D01*
X133674219Y-113556019D01*
X133560502Y-113694585D01*
X133558000Y-113699266D01*
X133558000Y-113100661D01*
X136335800Y-113100661D01*
X136335800Y-113304539D01*
X136375574Y-113504498D01*
X136453595Y-113692856D01*
X136566863Y-113862374D01*
X136711026Y-114006537D01*
X136880544Y-114119805D01*
X137068902Y-114197826D01*
X137268861Y-114237600D01*
X137472739Y-114237600D01*
X137672698Y-114197826D01*
X137861056Y-114119805D01*
X138030574Y-114006537D01*
X138174737Y-113862374D01*
X138288005Y-113692856D01*
X138366026Y-113504498D01*
X138405800Y-113304539D01*
X138405800Y-113100661D01*
X138366026Y-112900702D01*
X138288005Y-112712344D01*
X138174737Y-112542826D01*
X138030574Y-112398663D01*
X137861056Y-112285395D01*
X137672698Y-112207374D01*
X137472739Y-112167600D01*
X137268861Y-112167600D01*
X137068902Y-112207374D01*
X136880544Y-112285395D01*
X136711026Y-112398663D01*
X136566863Y-112542826D01*
X136453595Y-112712344D01*
X136375574Y-112900702D01*
X136335800Y-113100661D01*
X133558000Y-113100661D01*
X133558000Y-112080920D01*
X157352600Y-112080920D01*
X157352600Y-112201080D01*
X157376042Y-112318931D01*
X157422025Y-112429944D01*
X157488782Y-112529853D01*
X157573747Y-112614818D01*
X157673656Y-112681575D01*
X157784669Y-112727558D01*
X157902520Y-112751000D01*
X158022680Y-112751000D01*
X158140531Y-112727558D01*
X158251544Y-112681575D01*
X158351453Y-112614818D01*
X158436418Y-112529853D01*
X158503175Y-112429944D01*
X158549158Y-112318931D01*
X158572600Y-112201080D01*
X158572600Y-112146182D01*
X159379099Y-111339684D01*
X159379099Y-111801543D01*
X159376996Y-111822897D01*
X159379099Y-111844251D01*
X159379099Y-111844258D01*
X159385394Y-111908171D01*
X159410268Y-111990168D01*
X159450660Y-112065738D01*
X159505020Y-112131976D01*
X159521617Y-112145597D01*
X160886916Y-113510897D01*
X160869394Y-113516212D01*
X160815540Y-113544998D01*
X160768337Y-113583737D01*
X160729598Y-113630940D01*
X160700812Y-113684794D01*
X160683086Y-113743230D01*
X160677101Y-113804000D01*
X160677101Y-115304000D01*
X160683086Y-115364770D01*
X160700812Y-115423206D01*
X160729598Y-115477060D01*
X160768337Y-115524263D01*
X160815540Y-115563002D01*
X160869394Y-115591788D01*
X160927830Y-115609514D01*
X160988600Y-115615499D01*
X161988600Y-115615499D01*
X162049370Y-115609514D01*
X162107806Y-115591788D01*
X162138600Y-115575328D01*
X162169394Y-115591788D01*
X162227830Y-115609514D01*
X162288600Y-115615499D01*
X162319966Y-115615499D01*
X162305600Y-115687720D01*
X162305600Y-115807880D01*
X162329042Y-115925731D01*
X162375025Y-116036744D01*
X162441782Y-116136653D01*
X162526747Y-116221618D01*
X162626656Y-116288375D01*
X162737669Y-116334358D01*
X162855520Y-116357800D01*
X162975680Y-116357800D01*
X163093531Y-116334358D01*
X163204544Y-116288375D01*
X163304453Y-116221618D01*
X163389418Y-116136653D01*
X163456175Y-116036744D01*
X163502158Y-115925731D01*
X163525600Y-115807880D01*
X163525600Y-115687720D01*
X163508902Y-115603772D01*
X163527830Y-115609514D01*
X163588600Y-115615499D01*
X164588600Y-115615499D01*
X164649370Y-115609514D01*
X164707806Y-115591788D01*
X164761660Y-115563002D01*
X164808863Y-115524263D01*
X164847602Y-115477060D01*
X164876388Y-115423206D01*
X164894114Y-115364770D01*
X164900099Y-115304000D01*
X164900099Y-114989000D01*
X167136046Y-114989000D01*
X167157400Y-114991103D01*
X167178754Y-114989000D01*
X167178762Y-114989000D01*
X167242675Y-114982705D01*
X167324672Y-114957831D01*
X167400242Y-114917439D01*
X167466479Y-114863079D01*
X167480100Y-114846482D01*
X168610383Y-113716200D01*
X168665280Y-113716200D01*
X168783131Y-113692758D01*
X168894144Y-113646775D01*
X168994053Y-113580018D01*
X169079018Y-113495053D01*
X169145775Y-113395144D01*
X169191758Y-113284131D01*
X169215200Y-113166280D01*
X169215200Y-113046120D01*
X169191758Y-112928269D01*
X169145775Y-112817256D01*
X169079018Y-112717347D01*
X168994053Y-112632382D01*
X168894144Y-112565625D01*
X168783131Y-112519642D01*
X168665280Y-112496200D01*
X168545120Y-112496200D01*
X168427269Y-112519642D01*
X168316256Y-112565625D01*
X168216347Y-112632382D01*
X168131382Y-112717347D01*
X168064625Y-112817256D01*
X168018642Y-112928269D01*
X167995200Y-113046120D01*
X167995200Y-113101017D01*
X166977218Y-114119000D01*
X164900099Y-114119000D01*
X164900099Y-113804000D01*
X164894114Y-113743230D01*
X164876388Y-113684794D01*
X164847602Y-113630940D01*
X164808863Y-113583737D01*
X164761660Y-113544998D01*
X164707806Y-113516212D01*
X164649370Y-113498486D01*
X164588600Y-113492501D01*
X163588600Y-113492501D01*
X163527830Y-113498486D01*
X163469394Y-113516212D01*
X163438600Y-113532672D01*
X163407806Y-113516212D01*
X163349370Y-113498486D01*
X163288600Y-113492501D01*
X162288600Y-113492501D01*
X162227830Y-113498486D01*
X162169394Y-113516212D01*
X162138600Y-113532672D01*
X162107806Y-113516212D01*
X162049370Y-113498486D01*
X161988600Y-113492501D01*
X161925221Y-113492501D01*
X161923600Y-113476043D01*
X161923600Y-113476036D01*
X161917305Y-113412123D01*
X161892431Y-113330126D01*
X161852039Y-113254556D01*
X161797679Y-113188319D01*
X161781088Y-113174703D01*
X160249099Y-111642715D01*
X160249099Y-108819681D01*
X160781600Y-109352182D01*
X160781600Y-109407080D01*
X160805042Y-109524931D01*
X160851025Y-109635944D01*
X160917782Y-109735853D01*
X161002747Y-109820818D01*
X161102656Y-109887575D01*
X161213669Y-109933558D01*
X161331520Y-109957000D01*
X161451680Y-109957000D01*
X161569531Y-109933558D01*
X161680544Y-109887575D01*
X161780453Y-109820818D01*
X161865418Y-109735853D01*
X161932175Y-109635944D01*
X161978158Y-109524931D01*
X162001600Y-109407080D01*
X162001600Y-109286920D01*
X161978158Y-109169069D01*
X161932175Y-109058056D01*
X161865418Y-108958147D01*
X161780453Y-108873182D01*
X161680544Y-108806425D01*
X161569531Y-108760442D01*
X161451680Y-108737000D01*
X161396782Y-108737000D01*
X161184702Y-108524920D01*
X166496600Y-108524920D01*
X166496600Y-108645080D01*
X166520042Y-108762931D01*
X166566025Y-108873944D01*
X166632782Y-108973853D01*
X166717747Y-109058818D01*
X166817656Y-109125575D01*
X166928669Y-109171558D01*
X167046520Y-109195000D01*
X167166680Y-109195000D01*
X167284531Y-109171558D01*
X167395544Y-109125575D01*
X167495453Y-109058818D01*
X167580418Y-108973853D01*
X167647175Y-108873944D01*
X167693158Y-108762931D01*
X167716600Y-108645080D01*
X167716600Y-108524920D01*
X167693158Y-108407069D01*
X167647175Y-108296056D01*
X167580418Y-108196147D01*
X167541600Y-108157329D01*
X167541600Y-108130182D01*
X168127783Y-107544000D01*
X168182680Y-107544000D01*
X168300531Y-107520558D01*
X168411544Y-107474575D01*
X168511453Y-107407818D01*
X168596418Y-107322853D01*
X168663175Y-107222944D01*
X168709158Y-107111931D01*
X168732600Y-106994080D01*
X168732600Y-106873920D01*
X168709158Y-106756069D01*
X168663175Y-106645056D01*
X168596418Y-106545147D01*
X168511453Y-106460182D01*
X168411544Y-106393425D01*
X168300531Y-106347442D01*
X168182680Y-106324000D01*
X168062520Y-106324000D01*
X167944669Y-106347442D01*
X167833656Y-106393425D01*
X167733747Y-106460182D01*
X167648782Y-106545147D01*
X167582025Y-106645056D01*
X167536042Y-106756069D01*
X167512600Y-106873920D01*
X167512600Y-106928817D01*
X166814118Y-107627300D01*
X166797521Y-107640921D01*
X166743161Y-107707159D01*
X166702769Y-107782729D01*
X166677895Y-107864726D01*
X166671600Y-107928639D01*
X166671600Y-107928646D01*
X166669497Y-107950000D01*
X166671600Y-107971355D01*
X166671600Y-108157329D01*
X166632782Y-108196147D01*
X166566025Y-108296056D01*
X166520042Y-108407069D01*
X166496600Y-108524920D01*
X161184702Y-108524920D01*
X160937591Y-108277809D01*
X160937591Y-106980680D01*
X160976409Y-106941862D01*
X161043166Y-106841953D01*
X161089149Y-106730940D01*
X161112591Y-106613089D01*
X161112591Y-106492929D01*
X161089149Y-106375078D01*
X161043166Y-106264065D01*
X160976409Y-106164156D01*
X160891444Y-106079191D01*
X160791535Y-106012434D01*
X160680522Y-105966451D01*
X160613321Y-105953084D01*
X161068105Y-105498300D01*
X161068105Y-105617888D01*
X161091547Y-105735739D01*
X161137530Y-105846752D01*
X161204287Y-105946661D01*
X161289252Y-106031626D01*
X161389161Y-106098383D01*
X161500174Y-106144366D01*
X161618025Y-106167808D01*
X161738185Y-106167808D01*
X161856036Y-106144366D01*
X161967049Y-106098383D01*
X162066958Y-106031626D01*
X162105776Y-105992808D01*
X165032432Y-105992808D01*
X165053786Y-105994911D01*
X165075140Y-105992808D01*
X165075148Y-105992808D01*
X165139061Y-105986513D01*
X165221058Y-105961639D01*
X165296628Y-105921247D01*
X165362865Y-105866887D01*
X165376486Y-105850290D01*
X166222782Y-105003994D01*
X166277680Y-105003994D01*
X166395531Y-104980552D01*
X166506544Y-104934569D01*
X166606453Y-104867812D01*
X166691418Y-104782847D01*
X166758175Y-104682938D01*
X166804158Y-104571925D01*
X166827600Y-104454074D01*
X166827600Y-104333914D01*
X166804158Y-104216063D01*
X166758175Y-104105050D01*
X166691418Y-104005141D01*
X166606453Y-103920176D01*
X166506544Y-103853419D01*
X166395531Y-103807436D01*
X166277680Y-103783994D01*
X166157520Y-103783994D01*
X166039669Y-103807436D01*
X165928656Y-103853419D01*
X165828747Y-103920176D01*
X165743782Y-104005141D01*
X165677025Y-104105050D01*
X165631042Y-104216063D01*
X165607600Y-104333914D01*
X165607600Y-104388812D01*
X164873604Y-105122808D01*
X162105776Y-105122808D01*
X162066958Y-105083990D01*
X162062194Y-105080807D01*
X162076435Y-105059494D01*
X162122418Y-104948481D01*
X162145860Y-104830630D01*
X162145860Y-104710470D01*
X162122418Y-104592619D01*
X162076435Y-104481606D01*
X162009678Y-104381697D01*
X161924713Y-104296732D01*
X161824804Y-104229975D01*
X161713791Y-104183992D01*
X161595940Y-104160550D01*
X161476201Y-104160550D01*
X161493600Y-104073080D01*
X161493600Y-103952920D01*
X161470158Y-103835069D01*
X161424175Y-103724056D01*
X161357418Y-103624147D01*
X161272453Y-103539182D01*
X161172544Y-103472425D01*
X161061531Y-103426442D01*
X160943680Y-103403000D01*
X160823520Y-103403000D01*
X160705669Y-103426442D01*
X160594656Y-103472425D01*
X160494747Y-103539182D01*
X160409782Y-103624147D01*
X160343025Y-103724056D01*
X160297042Y-103835069D01*
X160273600Y-103952920D01*
X160273600Y-104007817D01*
X159071601Y-105209817D01*
X159055010Y-105223433D01*
X159000650Y-105289670D01*
X158969538Y-105347878D01*
X158960258Y-105365240D01*
X158935383Y-105447238D01*
X158926985Y-105532512D01*
X158929089Y-105553876D01*
X158929088Y-110559329D01*
X157957418Y-111531000D01*
X157902520Y-111531000D01*
X157784669Y-111554442D01*
X157673656Y-111600425D01*
X157573747Y-111667182D01*
X157488782Y-111752147D01*
X157422025Y-111852056D01*
X157376042Y-111963069D01*
X157352600Y-112080920D01*
X133558000Y-112080920D01*
X133558000Y-107705934D01*
X133560502Y-107710615D01*
X133674219Y-107849181D01*
X133812785Y-107962898D01*
X133970873Y-108047398D01*
X134142409Y-108099433D01*
X134276096Y-108112600D01*
X135065504Y-108112600D01*
X135186722Y-108100661D01*
X136335800Y-108100661D01*
X136335800Y-108304539D01*
X136375574Y-108504498D01*
X136453595Y-108692856D01*
X136566863Y-108862374D01*
X136711026Y-109006537D01*
X136880544Y-109119805D01*
X137068902Y-109197826D01*
X137268861Y-109237600D01*
X137472739Y-109237600D01*
X137672698Y-109197826D01*
X137861056Y-109119805D01*
X138030574Y-109006537D01*
X138174737Y-108862374D01*
X138288005Y-108692856D01*
X138366026Y-108504498D01*
X138405800Y-108304539D01*
X138405800Y-108100661D01*
X138366026Y-107900702D01*
X138288005Y-107712344D01*
X138174737Y-107542826D01*
X138030574Y-107398663D01*
X137861056Y-107285395D01*
X137672698Y-107207374D01*
X137472739Y-107167600D01*
X137268861Y-107167600D01*
X137068902Y-107207374D01*
X136880544Y-107285395D01*
X136711026Y-107398663D01*
X136566863Y-107542826D01*
X136453595Y-107712344D01*
X136375574Y-107900702D01*
X136335800Y-108100661D01*
X135186722Y-108100661D01*
X135199191Y-108099433D01*
X135370727Y-108047398D01*
X135528815Y-107962898D01*
X135667381Y-107849181D01*
X135781098Y-107710615D01*
X135865598Y-107552527D01*
X135917633Y-107380991D01*
X135935203Y-107202600D01*
X135917633Y-107024209D01*
X135865598Y-106852673D01*
X135781098Y-106694585D01*
X135667381Y-106556019D01*
X135528815Y-106442302D01*
X135370727Y-106357802D01*
X135199191Y-106305767D01*
X135065504Y-106292600D01*
X134276096Y-106292600D01*
X134142409Y-106305767D01*
X133970873Y-106357802D01*
X133812785Y-106442302D01*
X133674219Y-106556019D01*
X133560502Y-106694585D01*
X133558000Y-106699266D01*
X133558000Y-104152750D01*
X134323600Y-104152750D01*
X134323600Y-104381250D01*
X134368178Y-104605360D01*
X134455621Y-104816466D01*
X134582569Y-105006457D01*
X134744143Y-105168031D01*
X134934134Y-105294979D01*
X135145240Y-105382422D01*
X135369350Y-105427000D01*
X135597850Y-105427000D01*
X135821960Y-105382422D01*
X135936426Y-105335008D01*
X136240400Y-105638982D01*
X136254021Y-105655579D01*
X136307884Y-105699784D01*
X136320258Y-105709939D01*
X136395827Y-105750331D01*
X136477825Y-105775205D01*
X136563100Y-105783604D01*
X136584462Y-105781500D01*
X139627929Y-105781500D01*
X139666747Y-105820318D01*
X139766656Y-105887075D01*
X139877669Y-105933058D01*
X139995520Y-105956500D01*
X140115680Y-105956500D01*
X140233531Y-105933058D01*
X140344544Y-105887075D01*
X140444453Y-105820318D01*
X140529418Y-105735353D01*
X140596175Y-105635444D01*
X140642158Y-105524431D01*
X140665600Y-105406580D01*
X140665600Y-105286420D01*
X140642158Y-105168569D01*
X140596175Y-105057556D01*
X140529418Y-104957647D01*
X140444453Y-104872682D01*
X140344544Y-104805925D01*
X140233531Y-104759942D01*
X140115680Y-104736500D01*
X139995520Y-104736500D01*
X139877669Y-104759942D01*
X139766656Y-104805925D01*
X139666747Y-104872682D01*
X139627929Y-104911500D01*
X136743282Y-104911500D01*
X136551608Y-104719826D01*
X136553640Y-104714920D01*
X145732100Y-104714920D01*
X145732100Y-104835080D01*
X145755542Y-104952931D01*
X145801525Y-105063944D01*
X145868282Y-105163853D01*
X145953247Y-105248818D01*
X146053156Y-105315575D01*
X146164169Y-105361558D01*
X146282020Y-105385000D01*
X146361876Y-105385000D01*
X146768423Y-105791548D01*
X146782040Y-105808140D01*
X146848277Y-105862500D01*
X146923847Y-105902892D01*
X147005844Y-105927766D01*
X147069757Y-105934061D01*
X147069765Y-105934061D01*
X147091119Y-105936164D01*
X147112473Y-105934061D01*
X153295153Y-105934061D01*
X153316507Y-105936164D01*
X153337861Y-105934061D01*
X153337869Y-105934061D01*
X153401782Y-105927766D01*
X153483779Y-105902892D01*
X153559349Y-105862500D01*
X153625586Y-105808140D01*
X153639207Y-105791543D01*
X154001018Y-105429733D01*
X155193862Y-105429733D01*
X155232680Y-105468551D01*
X155332589Y-105535308D01*
X155443602Y-105581291D01*
X155561453Y-105604733D01*
X155681613Y-105604733D01*
X155799464Y-105581291D01*
X155910477Y-105535308D01*
X156010386Y-105468551D01*
X156095351Y-105383586D01*
X156162108Y-105283677D01*
X156208091Y-105172664D01*
X156231533Y-105054813D01*
X156231533Y-104934653D01*
X156208091Y-104816802D01*
X156162108Y-104705789D01*
X156095351Y-104605880D01*
X156010386Y-104520915D01*
X155910477Y-104454158D01*
X155799464Y-104408175D01*
X155681613Y-104384733D01*
X155561453Y-104384733D01*
X155443602Y-104408175D01*
X155332589Y-104454158D01*
X155232680Y-104520915D01*
X155193862Y-104559733D01*
X153842188Y-104559733D01*
X153820834Y-104557630D01*
X153799480Y-104559733D01*
X153799473Y-104559733D01*
X153746190Y-104564981D01*
X153735559Y-104566028D01*
X153710685Y-104573574D01*
X153653563Y-104590902D01*
X153577993Y-104631294D01*
X153511756Y-104685654D01*
X153498139Y-104702246D01*
X153136325Y-105064061D01*
X147980380Y-105064061D01*
X148382794Y-104661648D01*
X148437691Y-104661648D01*
X148555542Y-104638206D01*
X148666555Y-104592223D01*
X148766464Y-104525466D01*
X148851429Y-104440501D01*
X148918186Y-104340592D01*
X148964169Y-104229579D01*
X148987611Y-104111728D01*
X148987611Y-103991568D01*
X148964169Y-103873717D01*
X148918186Y-103762704D01*
X148851429Y-103662795D01*
X148766464Y-103577830D01*
X148666555Y-103511073D01*
X148555542Y-103465090D01*
X148437691Y-103441648D01*
X148317531Y-103441648D01*
X148199680Y-103465090D01*
X148088667Y-103511073D01*
X147988758Y-103577830D01*
X147903793Y-103662795D01*
X147837036Y-103762704D01*
X147791053Y-103873717D01*
X147767611Y-103991568D01*
X147767611Y-104046465D01*
X147533622Y-104280455D01*
X147451200Y-104264060D01*
X147331040Y-104264060D01*
X147213189Y-104287502D01*
X147102176Y-104333485D01*
X147002267Y-104400242D01*
X146917302Y-104485207D01*
X146895709Y-104517523D01*
X146882675Y-104486056D01*
X146815918Y-104386147D01*
X146730953Y-104301182D01*
X146631044Y-104234425D01*
X146520031Y-104188442D01*
X146402180Y-104165000D01*
X146282020Y-104165000D01*
X146164169Y-104188442D01*
X146053156Y-104234425D01*
X145953247Y-104301182D01*
X145868282Y-104386147D01*
X145801525Y-104486056D01*
X145755542Y-104597069D01*
X145732100Y-104714920D01*
X136553640Y-104714920D01*
X136599022Y-104605360D01*
X136643600Y-104381250D01*
X136643600Y-104152750D01*
X136599022Y-103928640D01*
X136511579Y-103717534D01*
X136384631Y-103527543D01*
X136223057Y-103365969D01*
X136033066Y-103239021D01*
X135821960Y-103151578D01*
X135597850Y-103107000D01*
X135369350Y-103107000D01*
X135145240Y-103151578D01*
X134934134Y-103239021D01*
X134744143Y-103365969D01*
X134582569Y-103527543D01*
X134455621Y-103717534D01*
X134368178Y-103928640D01*
X134323600Y-104152750D01*
X133558000Y-104152750D01*
X133558000Y-102577000D01*
X134332148Y-102577000D01*
X134337940Y-102635810D01*
X134355095Y-102692361D01*
X134382952Y-102744478D01*
X134420441Y-102790159D01*
X134466122Y-102827648D01*
X134518239Y-102855505D01*
X134574790Y-102872660D01*
X134633600Y-102878452D01*
X135358600Y-102877000D01*
X135433600Y-102802000D01*
X135433600Y-101777000D01*
X135533600Y-101777000D01*
X135533600Y-102802000D01*
X135608600Y-102877000D01*
X136333600Y-102878452D01*
X136392410Y-102872660D01*
X136448961Y-102855505D01*
X136501078Y-102827648D01*
X136546759Y-102790159D01*
X136584248Y-102744478D01*
X136612105Y-102692361D01*
X136629260Y-102635810D01*
X136635052Y-102577000D01*
X136633600Y-101852000D01*
X136558600Y-101777000D01*
X135533600Y-101777000D01*
X135433600Y-101777000D01*
X134408600Y-101777000D01*
X134333600Y-101852000D01*
X134332148Y-102577000D01*
X133558000Y-102577000D01*
X133558000Y-100877000D01*
X134332148Y-100877000D01*
X134333600Y-101602000D01*
X134408600Y-101677000D01*
X135433600Y-101677000D01*
X135433600Y-100652000D01*
X135533600Y-100652000D01*
X135533600Y-101677000D01*
X136558600Y-101677000D01*
X136633600Y-101602000D01*
X136635052Y-100877000D01*
X136629260Y-100818190D01*
X136617044Y-100777920D01*
X154431600Y-100777920D01*
X154431600Y-100898080D01*
X154455042Y-101015931D01*
X154501025Y-101126944D01*
X154567782Y-101226853D01*
X154606601Y-101265672D01*
X154606600Y-102023146D01*
X154604497Y-102044500D01*
X154606600Y-102065854D01*
X154606600Y-102065861D01*
X154612895Y-102129774D01*
X154637769Y-102211771D01*
X154678161Y-102287341D01*
X154732521Y-102353579D01*
X154749118Y-102367200D01*
X155193600Y-102811683D01*
X155193600Y-102866580D01*
X155217042Y-102984431D01*
X155263025Y-103095444D01*
X155329782Y-103195353D01*
X155414747Y-103280318D01*
X155514656Y-103347075D01*
X155625669Y-103393058D01*
X155743520Y-103416500D01*
X155863680Y-103416500D01*
X155981531Y-103393058D01*
X156092544Y-103347075D01*
X156192453Y-103280318D01*
X156277418Y-103195353D01*
X156344175Y-103095444D01*
X156390158Y-102984431D01*
X156413600Y-102866580D01*
X156413600Y-102746420D01*
X156390158Y-102628569D01*
X156344175Y-102517556D01*
X156277418Y-102417647D01*
X156192453Y-102332682D01*
X156146415Y-102301920D01*
X172211600Y-102301920D01*
X172211600Y-102422080D01*
X172234189Y-102535643D01*
X172234200Y-102535754D01*
X172234201Y-107395264D01*
X172232097Y-107416628D01*
X172240495Y-107501902D01*
X172252910Y-107542826D01*
X172265370Y-107583900D01*
X172305762Y-107659470D01*
X172360122Y-107725707D01*
X172376713Y-107739323D01*
X173100572Y-108463183D01*
X173100572Y-108518080D01*
X173124014Y-108635931D01*
X173169997Y-108746944D01*
X173236754Y-108846853D01*
X173321719Y-108931818D01*
X173421628Y-108998575D01*
X173532641Y-109044558D01*
X173650492Y-109068000D01*
X173770652Y-109068000D01*
X173888503Y-109044558D01*
X173999516Y-108998575D01*
X174099425Y-108931818D01*
X174184390Y-108846853D01*
X174251147Y-108746944D01*
X174297130Y-108635931D01*
X174320572Y-108518080D01*
X174320572Y-108397920D01*
X174297130Y-108280069D01*
X174251147Y-108169056D01*
X174184390Y-108069147D01*
X174099425Y-107984182D01*
X173999516Y-107917425D01*
X173888503Y-107871442D01*
X173770652Y-107848000D01*
X173715755Y-107848000D01*
X173104200Y-107236446D01*
X173104200Y-102905203D01*
X173110544Y-102902575D01*
X173210453Y-102835818D01*
X173295418Y-102750853D01*
X173362175Y-102650944D01*
X173408158Y-102539931D01*
X173431600Y-102422080D01*
X173431600Y-102301920D01*
X173408158Y-102184069D01*
X173362175Y-102073056D01*
X173295418Y-101973147D01*
X173210453Y-101888182D01*
X173110544Y-101821425D01*
X172999531Y-101775442D01*
X172881680Y-101752000D01*
X172761520Y-101752000D01*
X172643669Y-101775442D01*
X172532656Y-101821425D01*
X172432747Y-101888182D01*
X172347782Y-101973147D01*
X172281025Y-102073056D01*
X172235042Y-102184069D01*
X172211600Y-102301920D01*
X156146415Y-102301920D01*
X156092544Y-102265925D01*
X155981531Y-102219942D01*
X155863680Y-102196500D01*
X155808783Y-102196500D01*
X155476600Y-101864318D01*
X155476600Y-101265671D01*
X155515418Y-101226853D01*
X155582175Y-101126944D01*
X155628158Y-101015931D01*
X155651600Y-100898080D01*
X155651600Y-100777920D01*
X155628158Y-100660069D01*
X155582175Y-100549056D01*
X155515418Y-100449147D01*
X155430453Y-100364182D01*
X155330544Y-100297425D01*
X155219531Y-100251442D01*
X155101680Y-100228000D01*
X154981520Y-100228000D01*
X154863669Y-100251442D01*
X154752656Y-100297425D01*
X154652747Y-100364182D01*
X154567782Y-100449147D01*
X154501025Y-100549056D01*
X154455042Y-100660069D01*
X154431600Y-100777920D01*
X136617044Y-100777920D01*
X136612105Y-100761639D01*
X136584248Y-100709522D01*
X136546759Y-100663841D01*
X136501078Y-100626352D01*
X136448961Y-100598495D01*
X136392410Y-100581340D01*
X136333600Y-100575548D01*
X135608600Y-100577000D01*
X135533600Y-100652000D01*
X135433600Y-100652000D01*
X135358600Y-100577000D01*
X134633600Y-100575548D01*
X134574790Y-100581340D01*
X134518239Y-100598495D01*
X134466122Y-100626352D01*
X134420441Y-100663841D01*
X134382952Y-100709522D01*
X134355095Y-100761639D01*
X134337940Y-100818190D01*
X134332148Y-100877000D01*
X133558000Y-100877000D01*
X133558000Y-95541400D01*
X161803301Y-95541400D01*
X161803301Y-97041400D01*
X161809286Y-97102170D01*
X161827012Y-97160606D01*
X161855798Y-97214460D01*
X161894537Y-97261663D01*
X161941740Y-97300402D01*
X161995594Y-97329188D01*
X162054030Y-97346914D01*
X162114800Y-97352899D01*
X163614800Y-97352899D01*
X163675570Y-97346914D01*
X163734006Y-97329188D01*
X163787860Y-97300402D01*
X163835063Y-97261663D01*
X163873802Y-97214460D01*
X163902588Y-97160606D01*
X163920314Y-97102170D01*
X163926299Y-97041400D01*
X163926299Y-96716970D01*
X163949147Y-96739818D01*
X164049056Y-96806575D01*
X164160069Y-96852558D01*
X164277920Y-96876000D01*
X164398080Y-96876000D01*
X164515931Y-96852558D01*
X164626944Y-96806575D01*
X164726853Y-96739818D01*
X164811818Y-96654853D01*
X164878575Y-96554944D01*
X164924558Y-96443931D01*
X164948000Y-96326080D01*
X164948000Y-96205920D01*
X164924558Y-96088069D01*
X164878575Y-95977056D01*
X164811818Y-95877147D01*
X164726853Y-95792182D01*
X164626944Y-95725425D01*
X164515931Y-95679442D01*
X164398080Y-95656000D01*
X164277920Y-95656000D01*
X164160069Y-95679442D01*
X164049056Y-95725425D01*
X163949147Y-95792182D01*
X163926299Y-95815030D01*
X163926299Y-95541400D01*
X163920314Y-95480630D01*
X163902588Y-95422194D01*
X163873802Y-95368340D01*
X163835063Y-95321137D01*
X163787860Y-95282398D01*
X163734006Y-95253612D01*
X163675570Y-95235886D01*
X163614800Y-95229901D01*
X162114800Y-95229901D01*
X162054030Y-95235886D01*
X161995594Y-95253612D01*
X161941740Y-95282398D01*
X161894537Y-95321137D01*
X161855798Y-95368340D01*
X161827012Y-95422194D01*
X161809286Y-95480630D01*
X161803301Y-95541400D01*
X133558000Y-95541400D01*
X133558000Y-94641400D01*
X170148548Y-94641400D01*
X170154340Y-94700210D01*
X170171495Y-94756761D01*
X170199352Y-94808878D01*
X170236841Y-94854559D01*
X170282522Y-94892048D01*
X170334639Y-94919905D01*
X170391190Y-94937060D01*
X170450000Y-94942852D01*
X171325000Y-94941400D01*
X171400000Y-94866400D01*
X171400000Y-93841400D01*
X170225000Y-93841400D01*
X170150000Y-93916400D01*
X170148548Y-94641400D01*
X133558000Y-94641400D01*
X133558000Y-92941400D01*
X170148548Y-92941400D01*
X170150000Y-93666400D01*
X170225000Y-93741400D01*
X171400000Y-93741400D01*
X171400000Y-92716400D01*
X171325000Y-92641400D01*
X170450000Y-92639948D01*
X170391190Y-92645740D01*
X170334639Y-92662895D01*
X170282522Y-92690752D01*
X170236841Y-92728241D01*
X170199352Y-92773922D01*
X170171495Y-92826039D01*
X170154340Y-92882590D01*
X170148548Y-92941400D01*
X133558000Y-92941400D01*
X133558000Y-91452750D01*
X134323600Y-91452750D01*
X134323600Y-91681250D01*
X134368178Y-91905360D01*
X134455621Y-92116466D01*
X134582569Y-92306457D01*
X134744143Y-92468031D01*
X134934134Y-92594979D01*
X135145240Y-92682422D01*
X135369350Y-92727000D01*
X135597850Y-92727000D01*
X135821960Y-92682422D01*
X136033066Y-92594979D01*
X136223057Y-92468031D01*
X136384631Y-92306457D01*
X136511579Y-92116466D01*
X136558992Y-92002000D01*
X141782616Y-92002000D01*
X141801025Y-92046444D01*
X141867782Y-92146353D01*
X141952747Y-92231318D01*
X142052656Y-92298075D01*
X142163669Y-92344058D01*
X142281520Y-92367500D01*
X142401680Y-92367500D01*
X142519531Y-92344058D01*
X142630544Y-92298075D01*
X142730453Y-92231318D01*
X142815418Y-92146353D01*
X142882175Y-92046444D01*
X142928158Y-91935431D01*
X142951600Y-91817580D01*
X142951600Y-91697420D01*
X142928158Y-91579569D01*
X142882175Y-91468556D01*
X142815418Y-91368647D01*
X142730453Y-91283682D01*
X142630544Y-91216925D01*
X142519531Y-91170942D01*
X142401680Y-91147500D01*
X142281520Y-91147500D01*
X142272581Y-91149278D01*
X142236375Y-91138295D01*
X142172462Y-91132000D01*
X142172454Y-91132000D01*
X142151100Y-91129897D01*
X142129746Y-91132000D01*
X136558992Y-91132000D01*
X136511579Y-91017534D01*
X136384631Y-90827543D01*
X136223057Y-90665969D01*
X136033066Y-90539021D01*
X135821960Y-90451578D01*
X135597850Y-90407000D01*
X135369350Y-90407000D01*
X135145240Y-90451578D01*
X134934134Y-90539021D01*
X134744143Y-90665969D01*
X134582569Y-90827543D01*
X134455621Y-91017534D01*
X134368178Y-91228640D01*
X134323600Y-91452750D01*
X133558000Y-91452750D01*
X133558000Y-89877000D01*
X134332148Y-89877000D01*
X134337940Y-89935810D01*
X134355095Y-89992361D01*
X134382952Y-90044478D01*
X134420441Y-90090159D01*
X134466122Y-90127648D01*
X134518239Y-90155505D01*
X134574790Y-90172660D01*
X134633600Y-90178452D01*
X135358600Y-90177000D01*
X135433600Y-90102000D01*
X135433600Y-89077000D01*
X135533600Y-89077000D01*
X135533600Y-90102000D01*
X135608600Y-90177000D01*
X136333600Y-90178452D01*
X136392410Y-90172660D01*
X136448961Y-90155505D01*
X136501078Y-90127648D01*
X136546759Y-90090159D01*
X136584248Y-90044478D01*
X136612105Y-89992361D01*
X136629260Y-89935810D01*
X136635052Y-89877000D01*
X136633600Y-89152000D01*
X136558600Y-89077000D01*
X135533600Y-89077000D01*
X135433600Y-89077000D01*
X134408600Y-89077000D01*
X134333600Y-89152000D01*
X134332148Y-89877000D01*
X133558000Y-89877000D01*
X133558000Y-88177000D01*
X134332148Y-88177000D01*
X134333600Y-88902000D01*
X134408600Y-88977000D01*
X135433600Y-88977000D01*
X135433600Y-87952000D01*
X135533600Y-87952000D01*
X135533600Y-88977000D01*
X136558600Y-88977000D01*
X136633600Y-88902000D01*
X136633978Y-88712911D01*
X165861591Y-88712911D01*
X165861591Y-88833071D01*
X165885033Y-88950922D01*
X165931016Y-89061935D01*
X165997773Y-89161844D01*
X166082738Y-89246809D01*
X166182647Y-89313566D01*
X166246766Y-89340125D01*
X167027101Y-90120460D01*
X167027101Y-91174000D01*
X167033086Y-91234770D01*
X167050812Y-91293206D01*
X167079598Y-91347060D01*
X167118337Y-91394263D01*
X167165540Y-91433002D01*
X167219394Y-91461788D01*
X167277830Y-91479514D01*
X167338600Y-91485499D01*
X168338600Y-91485499D01*
X168399370Y-91479514D01*
X168457806Y-91461788D01*
X168488600Y-91445328D01*
X168519394Y-91461788D01*
X168528600Y-91464581D01*
X168528600Y-91500080D01*
X168552042Y-91617931D01*
X168598025Y-91728944D01*
X168664782Y-91828853D01*
X168749747Y-91913818D01*
X168849656Y-91980575D01*
X168960669Y-92026558D01*
X169078520Y-92050000D01*
X169198680Y-92050000D01*
X169316531Y-92026558D01*
X169427544Y-91980575D01*
X169527453Y-91913818D01*
X169612418Y-91828853D01*
X169679175Y-91728944D01*
X169725158Y-91617931D01*
X169748600Y-91500080D01*
X169748600Y-91464581D01*
X169757806Y-91461788D01*
X169788600Y-91445328D01*
X169819394Y-91461788D01*
X169877830Y-91479514D01*
X169938600Y-91485499D01*
X170708140Y-91485499D01*
X171863561Y-92640921D01*
X171575000Y-92641400D01*
X171500000Y-92716400D01*
X171500000Y-93741400D01*
X171520000Y-93741400D01*
X171520000Y-93841400D01*
X171500000Y-93841400D01*
X171500000Y-94866400D01*
X171575000Y-94941400D01*
X172007323Y-94942117D01*
X171803600Y-95145841D01*
X171656979Y-95131400D01*
X171243021Y-95131400D01*
X171072600Y-95148185D01*
X170853940Y-95214515D01*
X170652421Y-95322229D01*
X170475788Y-95467188D01*
X170330829Y-95643821D01*
X170223115Y-95845340D01*
X170156785Y-96064000D01*
X170134388Y-96291400D01*
X170156785Y-96518800D01*
X170223115Y-96737460D01*
X170330829Y-96938979D01*
X170475788Y-97115612D01*
X170652421Y-97260571D01*
X170853940Y-97368285D01*
X171072600Y-97434615D01*
X171243021Y-97451400D01*
X171656979Y-97451400D01*
X171827400Y-97434615D01*
X172046060Y-97368285D01*
X172247579Y-97260571D01*
X172424212Y-97115612D01*
X172569171Y-96938979D01*
X172676885Y-96737460D01*
X172743215Y-96518800D01*
X172765612Y-96291400D01*
X172743215Y-96064000D01*
X172679477Y-95853883D01*
X173325137Y-95208223D01*
X173346495Y-95190695D01*
X173364023Y-95169337D01*
X173364029Y-95169331D01*
X173416475Y-95105425D01*
X173468474Y-95008140D01*
X173468475Y-95008139D01*
X173500497Y-94902579D01*
X173508600Y-94820306D01*
X173508600Y-94820294D01*
X173511308Y-94792801D01*
X173508600Y-94765308D01*
X173508600Y-92961495D01*
X173511308Y-92933999D01*
X173508600Y-92906503D01*
X173508600Y-92906494D01*
X173500497Y-92824221D01*
X173468475Y-92718661D01*
X173444269Y-92673375D01*
X173416475Y-92621375D01*
X173364029Y-92557469D01*
X173364023Y-92557463D01*
X173346495Y-92536105D01*
X173325137Y-92518577D01*
X171250099Y-90443540D01*
X171250099Y-89674000D01*
X171244114Y-89613230D01*
X171226388Y-89554794D01*
X171197602Y-89500940D01*
X171158863Y-89453737D01*
X171111660Y-89414998D01*
X171057806Y-89386212D01*
X170999370Y-89368486D01*
X170938600Y-89362501D01*
X169938600Y-89362501D01*
X169877830Y-89368486D01*
X169819394Y-89386212D01*
X169788600Y-89402672D01*
X169757806Y-89386212D01*
X169699370Y-89368486D01*
X169638600Y-89362501D01*
X168638600Y-89362501D01*
X168577830Y-89368486D01*
X168519394Y-89386212D01*
X168488600Y-89402672D01*
X168457806Y-89386212D01*
X168399370Y-89368486D01*
X168338600Y-89362501D01*
X167853060Y-89362501D01*
X167038725Y-88548166D01*
X167012166Y-88484047D01*
X166945409Y-88384138D01*
X166860444Y-88299173D01*
X166760535Y-88232416D01*
X166649522Y-88186433D01*
X166531671Y-88162991D01*
X166411511Y-88162991D01*
X166293660Y-88186433D01*
X166182647Y-88232416D01*
X166082738Y-88299173D01*
X165997773Y-88384138D01*
X165931016Y-88484047D01*
X165885033Y-88595060D01*
X165861591Y-88712911D01*
X136633978Y-88712911D01*
X136635052Y-88177000D01*
X136629260Y-88118190D01*
X136612105Y-88061639D01*
X136584248Y-88009522D01*
X136546759Y-87963841D01*
X136501078Y-87926352D01*
X136448961Y-87898495D01*
X136392410Y-87881340D01*
X136333600Y-87875548D01*
X135608600Y-87877000D01*
X135533600Y-87952000D01*
X135433600Y-87952000D01*
X135358600Y-87877000D01*
X134633600Y-87875548D01*
X134574790Y-87881340D01*
X134518239Y-87898495D01*
X134466122Y-87926352D01*
X134420441Y-87963841D01*
X134382952Y-88009522D01*
X134355095Y-88061639D01*
X134337940Y-88118190D01*
X134332148Y-88177000D01*
X133558000Y-88177000D01*
X133558000Y-84936000D01*
X170455418Y-84936000D01*
X170414703Y-84976715D01*
G37*
G04 #@! TD.AperFunction*
M02*
