M48
; DRILL file {KiCad (5.1.8)-1} date 08/02/21 21:41:21
; FORMAT={-:-/ absolute / metric / decimal}
; #@! TF.CreationDate,2021-08-02T21:41:21+02:00
; #@! TF.GenerationSoftware,Kicad,Pcbnew,(5.1.8)-1
; #@! TF.FileFunction,Plated,1,4,PTH
FMAT,2
METRIC
T1C0.300
T2C0.305
T3C0.400
T4C0.600
T5C0.750
T6C0.850
T7C1.000
%
G90
G05
T1
X137.262Y-94.615
X138.278Y-114.3
X140.056Y-105.346
X142.342Y-91.757
X142.587Y-90.852
X143.231Y-119.126
X143.327Y-106.335
X144.031Y-119.126
X144.882Y-113.665
X145.644Y-113.665
X145.91Y-92.494
X146.342Y-104.775
X146.406Y-113.665
X147.168Y-113.665
X147.391Y-104.874
X147.93Y-113.665
X148.378Y-104.052
X148.399Y-90.208
X150.724Y-94.361
X151.486Y-87.122
X153.919Y-117.495
X155.042Y-100.838
X155.296Y-95.504
X155.622Y-104.995
X155.677Y-118.872
X155.804Y-102.806
X156.312Y-87.122
X156.312Y-94.361
X156.693Y-113.284
X157.709Y-116.078
X157.963Y-112.141
X159.614Y-102.235
X159.614Y-116.332
X159.868Y-99.314
X160.503Y-106.553
X160.884Y-104.013
X161.392Y-109.347
X161.536Y-104.771
X161.595Y-110.871
X161.678Y-105.558
X162.535Y-100.457
X162.916Y-115.748
X163.982Y-102.845
X164.338Y-96.266
X165.329Y-99.314
X166.091Y-100.457
X166.218Y-104.394
X166.218Y-106.172
X166.472Y-88.773
X167.107Y-108.585
X168.123Y-106.934
X168.25Y-100.33
X168.504Y-89.154
X168.605Y-113.106
X169.139Y-91.44
X169.393Y-111.125
X169.774Y-104.267
X171.806Y-104.394
X171.933Y-84.074
X172.822Y-102.362
X173.33Y-104.394
X173.634Y-112.141
X173.711Y-108.458
X176.695Y-102.933
X177.808Y-100.139
T2
X138.633Y-112.522
X141.163Y-109.843
X151.765Y-109.398
T3
X152.375Y-107.061
X152.375Y-117.983
X153.264Y-98.298
X159.233Y-118.618
X160.122Y-90.932
X160.172Y-85.217
X160.193Y-86.06
X161.392Y-118.491
X161.519Y-120.65
X162.052Y-116.002
X163.222Y-113.105
X166.726Y-118.872
X169.266Y-98.298
X169.647Y-94.996
X171.223Y-113.105
X172.242Y-117.972
X172.314Y-119.634
T5
X171.907Y-86.258
X171.907Y-88.258
T6
X137.371Y-108.203
X137.371Y-113.203
T7
X135.484Y-101.727
X135.484Y-104.267
X171.45Y-93.791
X171.45Y-96.291
X140.564Y-122.047
X143.104Y-122.047
X145.644Y-122.047
X148.184Y-122.047
X150.724Y-122.047
X153.264Y-122.047
X155.804Y-122.047
X158.344Y-122.047
X160.884Y-122.047
X163.424Y-122.047
X165.964Y-122.047
X168.504Y-122.047
X171.044Y-122.047
X135.484Y-89.027
X135.484Y-91.567
T4
G00X134.321Y-107.203
M15
G01X135.021Y-107.203
M16
G05
G00X135.021Y-114.203
M15
G01X134.321Y-114.203
M16
G05
T0
M30
