G04 #@! TF.GenerationSoftware,KiCad,Pcbnew,(5.1.8)-1*
G04 #@! TF.CreationDate,2021-08-02T21:41:25+02:00*
G04 #@! TF.ProjectId,SuperPower-uC-KiCad,53757065-7250-46f7-9765-722d75432d4b,rev?*
G04 #@! TF.SameCoordinates,Original*
G04 #@! TF.FileFunction,Legend,Bot*
G04 #@! TF.FilePolarity,Positive*
%FSLAX46Y46*%
G04 Gerber Fmt 4.6, Leading zero omitted, Abs format (unit mm)*
G04 Created by KiCad (PCBNEW (5.1.8)-1) date 2021-08-02 21:41:25*
%MOMM*%
%LPD*%
G01*
G04 APERTURE LIST*
%ADD10C,0.150000*%
%ADD11C,0.120000*%
%ADD12C,0.100000*%
%ADD13C,0.010000*%
G04 APERTURE END LIST*
D10*
X163747504Y-109359952D02*
X164547504Y-109626619D01*
X163747504Y-109893285D01*
X164547504Y-110159952D02*
X163747504Y-110159952D01*
X164052266Y-110159952D02*
X164014171Y-110236142D01*
X164014171Y-110388523D01*
X164052266Y-110464714D01*
X164090361Y-110502809D01*
X164166552Y-110540904D01*
X164395123Y-110540904D01*
X164471314Y-110502809D01*
X164509409Y-110464714D01*
X164547504Y-110388523D01*
X164547504Y-110236142D01*
X164509409Y-110159952D01*
X164547504Y-111226619D02*
X164128457Y-111226619D01*
X164052266Y-111188523D01*
X164014171Y-111112333D01*
X164014171Y-110959952D01*
X164052266Y-110883761D01*
X164509409Y-111226619D02*
X164547504Y-111150428D01*
X164547504Y-110959952D01*
X164509409Y-110883761D01*
X164433219Y-110845666D01*
X164357028Y-110845666D01*
X164280838Y-110883761D01*
X164242742Y-110959952D01*
X164242742Y-111150428D01*
X164204647Y-111226619D01*
X164014171Y-111493285D02*
X164014171Y-111798047D01*
X163747504Y-111607571D02*
X164433219Y-111607571D01*
X164509409Y-111645666D01*
X164547504Y-111721857D01*
X164547504Y-111798047D01*
X163709409Y-112636142D02*
X164737980Y-111950428D01*
X163823695Y-112864714D02*
X163785600Y-112902809D01*
X163747504Y-112979000D01*
X163747504Y-113169476D01*
X163785600Y-113245666D01*
X163823695Y-113283761D01*
X163899885Y-113321857D01*
X163976076Y-113321857D01*
X164090361Y-113283761D01*
X164547504Y-112826619D01*
X164547504Y-113321857D01*
X161080504Y-109340904D02*
X161080504Y-109836142D01*
X161385266Y-109569476D01*
X161385266Y-109683761D01*
X161423361Y-109759952D01*
X161461457Y-109798047D01*
X161537647Y-109836142D01*
X161728123Y-109836142D01*
X161804314Y-109798047D01*
X161842409Y-109759952D01*
X161880504Y-109683761D01*
X161880504Y-109455190D01*
X161842409Y-109379000D01*
X161804314Y-109340904D01*
X161347171Y-110102809D02*
X161880504Y-110293285D01*
X161347171Y-110483761D01*
X161080504Y-110712333D02*
X161080504Y-111207571D01*
X161385266Y-110940904D01*
X161385266Y-111055190D01*
X161423361Y-111131380D01*
X161461457Y-111169476D01*
X161537647Y-111207571D01*
X161728123Y-111207571D01*
X161804314Y-111169476D01*
X161842409Y-111131380D01*
X161880504Y-111055190D01*
X161880504Y-110826619D01*
X161842409Y-110750428D01*
X161804314Y-110712333D01*
X161956695Y-111359952D02*
X161956695Y-111969476D01*
X161461457Y-112159952D02*
X161461457Y-112426619D01*
X161880504Y-112540904D02*
X161880504Y-112159952D01*
X161080504Y-112159952D01*
X161080504Y-112540904D01*
X161880504Y-112883761D02*
X161080504Y-112883761D01*
X161880504Y-113340904D01*
X161080504Y-113340904D01*
X157397504Y-112045904D02*
X157397504Y-111664952D01*
X157778457Y-111626857D01*
X157740361Y-111664952D01*
X157702266Y-111741142D01*
X157702266Y-111931619D01*
X157740361Y-112007809D01*
X157778457Y-112045904D01*
X157854647Y-112084000D01*
X158045123Y-112084000D01*
X158121314Y-112045904D01*
X158159409Y-112007809D01*
X158197504Y-111931619D01*
X158197504Y-111741142D01*
X158159409Y-111664952D01*
X158121314Y-111626857D01*
X157397504Y-112312571D02*
X158197504Y-112579238D01*
X157397504Y-112845904D01*
X158273695Y-112922095D02*
X158273695Y-113531619D01*
X157778457Y-113722095D02*
X157778457Y-113988761D01*
X158197504Y-114103047D02*
X158197504Y-113722095D01*
X157397504Y-113722095D01*
X157397504Y-114103047D01*
X158197504Y-114445904D02*
X157397504Y-114445904D01*
X158197504Y-114903047D01*
X157397504Y-114903047D01*
D11*
X155803600Y-120777000D02*
X155803600Y-117094000D01*
X160883600Y-120777000D02*
X160883600Y-115570000D01*
D10*
X173786742Y-96224714D02*
X172872457Y-96224714D01*
X173329600Y-96681857D02*
X173329600Y-95767571D01*
D11*
X164693600Y-94869000D02*
X164693600Y-97663000D01*
X169900600Y-94869000D02*
X164693600Y-94869000D01*
X169926000Y-92583000D02*
X174472600Y-92583000D01*
D10*
X171622980Y-118721285D02*
X170622980Y-118721285D01*
X171622980Y-119292714D01*
X170622980Y-119292714D01*
X171527742Y-120340333D02*
X171575361Y-120292714D01*
X171622980Y-120149857D01*
X171622980Y-120054619D01*
X171575361Y-119911761D01*
X171480123Y-119816523D01*
X171384885Y-119768904D01*
X171194409Y-119721285D01*
X171051552Y-119721285D01*
X170861076Y-119768904D01*
X170765838Y-119816523D01*
X170670600Y-119911761D01*
X170622980Y-120054619D01*
X170622980Y-120149857D01*
X170670600Y-120292714D01*
X170718219Y-120340333D01*
X173786742Y-93938714D02*
X172872457Y-93938714D01*
X170611742Y-86191714D02*
X169697457Y-86191714D01*
X170611742Y-88350714D02*
X169697457Y-88350714D01*
X170154600Y-88807857D02*
X170154600Y-87893571D01*
X153677024Y-105528131D02*
X153486548Y-106061464D01*
X153296072Y-105528131D01*
X152572262Y-106061464D02*
X153029405Y-106061464D01*
X152800834Y-106061464D02*
X152800834Y-105261464D01*
X152877024Y-105375750D01*
X152953215Y-105451940D01*
X153029405Y-105490036D01*
X152229405Y-105985274D02*
X152191310Y-106023369D01*
X152229405Y-106061464D01*
X152267500Y-106023369D01*
X152229405Y-105985274D01*
X152229405Y-106061464D01*
X151429405Y-106061464D02*
X151886548Y-106061464D01*
X151657977Y-106061464D02*
X151657977Y-105261464D01*
X151734167Y-105375750D01*
X151810358Y-105451940D01*
X151886548Y-105490036D01*
X150248453Y-106366226D02*
X150286548Y-106328131D01*
X150362739Y-106213845D01*
X150400834Y-106137655D01*
X150438929Y-106023369D01*
X150477024Y-105832893D01*
X150477024Y-105680512D01*
X150438929Y-105490036D01*
X150400834Y-105375750D01*
X150362739Y-105299560D01*
X150286548Y-105185274D01*
X150248453Y-105147179D01*
X149981786Y-105337655D02*
X149943691Y-105299560D01*
X149867500Y-105261464D01*
X149677024Y-105261464D01*
X149600834Y-105299560D01*
X149562739Y-105337655D01*
X149524643Y-105413845D01*
X149524643Y-105490036D01*
X149562739Y-105604321D01*
X150019881Y-106061464D01*
X149524643Y-106061464D01*
X149029405Y-105261464D02*
X148953215Y-105261464D01*
X148877024Y-105299560D01*
X148838929Y-105337655D01*
X148800834Y-105413845D01*
X148762739Y-105566226D01*
X148762739Y-105756702D01*
X148800834Y-105909083D01*
X148838929Y-105985274D01*
X148877024Y-106023369D01*
X148953215Y-106061464D01*
X149029405Y-106061464D01*
X149105596Y-106023369D01*
X149143691Y-105985274D01*
X149181786Y-105909083D01*
X149219881Y-105756702D01*
X149219881Y-105566226D01*
X149181786Y-105413845D01*
X149143691Y-105337655D01*
X149105596Y-105299560D01*
X149029405Y-105261464D01*
X148457977Y-105337655D02*
X148419881Y-105299560D01*
X148343691Y-105261464D01*
X148153215Y-105261464D01*
X148077024Y-105299560D01*
X148038929Y-105337655D01*
X148000834Y-105413845D01*
X148000834Y-105490036D01*
X148038929Y-105604321D01*
X148496072Y-106061464D01*
X148000834Y-106061464D01*
X147238929Y-106061464D02*
X147696072Y-106061464D01*
X147467500Y-106061464D02*
X147467500Y-105261464D01*
X147543691Y-105375750D01*
X147619881Y-105451940D01*
X147696072Y-105490036D01*
X146896072Y-105756702D02*
X146286548Y-105756702D01*
X145753215Y-105261464D02*
X145677024Y-105261464D01*
X145600834Y-105299560D01*
X145562739Y-105337655D01*
X145524643Y-105413845D01*
X145486548Y-105566226D01*
X145486548Y-105756702D01*
X145524643Y-105909083D01*
X145562739Y-105985274D01*
X145600834Y-106023369D01*
X145677024Y-106061464D01*
X145753215Y-106061464D01*
X145829405Y-106023369D01*
X145867500Y-105985274D01*
X145905596Y-105909083D01*
X145943691Y-105756702D01*
X145943691Y-105566226D01*
X145905596Y-105413845D01*
X145867500Y-105337655D01*
X145829405Y-105299560D01*
X145753215Y-105261464D01*
X145219881Y-105261464D02*
X144686548Y-105261464D01*
X145029405Y-106061464D01*
X144457977Y-106366226D02*
X144419881Y-106328131D01*
X144343691Y-106213845D01*
X144305596Y-106137655D01*
X144267500Y-106023369D01*
X144229405Y-105832893D01*
X144229405Y-105680512D01*
X144267500Y-105490036D01*
X144305596Y-105375750D01*
X144343691Y-105299560D01*
X144419881Y-105185274D01*
X144457977Y-105147179D01*
X155156548Y-86476904D02*
X155004167Y-86476904D01*
X154927977Y-86515000D01*
X154851786Y-86591190D01*
X154813691Y-86743571D01*
X154813691Y-87010238D01*
X154851786Y-87162619D01*
X154927977Y-87238809D01*
X155004167Y-87276904D01*
X155156548Y-87276904D01*
X155232739Y-87238809D01*
X155308929Y-87162619D01*
X155347024Y-87010238D01*
X155347024Y-86743571D01*
X155308929Y-86591190D01*
X155232739Y-86515000D01*
X155156548Y-86476904D01*
X154470834Y-86743571D02*
X154470834Y-87276904D01*
X154470834Y-86819761D02*
X154432739Y-86781666D01*
X154356548Y-86743571D01*
X154242262Y-86743571D01*
X154166072Y-86781666D01*
X154127977Y-86857857D01*
X154127977Y-87276904D01*
X153632739Y-87276904D02*
X153708929Y-87238809D01*
X153747024Y-87162619D01*
X153747024Y-86476904D01*
X153404167Y-86743571D02*
X153213691Y-87276904D01*
X153023215Y-86743571D02*
X153213691Y-87276904D01*
X153289881Y-87467380D01*
X153327977Y-87505476D01*
X153404167Y-87543571D01*
X151766072Y-87238809D02*
X151842262Y-87276904D01*
X151994643Y-87276904D01*
X152070834Y-87238809D01*
X152108929Y-87200714D01*
X152147024Y-87124523D01*
X152147024Y-86895952D01*
X152108929Y-86819761D01*
X152070834Y-86781666D01*
X151994643Y-86743571D01*
X151842262Y-86743571D01*
X151766072Y-86781666D01*
X151308929Y-87276904D02*
X151385120Y-87238809D01*
X151423215Y-87200714D01*
X151461310Y-87124523D01*
X151461310Y-86895952D01*
X151423215Y-86819761D01*
X151385120Y-86781666D01*
X151308929Y-86743571D01*
X151194643Y-86743571D01*
X151118453Y-86781666D01*
X151080358Y-86819761D01*
X151042262Y-86895952D01*
X151042262Y-87124523D01*
X151080358Y-87200714D01*
X151118453Y-87238809D01*
X151194643Y-87276904D01*
X151308929Y-87276904D01*
X150699405Y-86743571D02*
X150699405Y-87276904D01*
X150699405Y-86819761D02*
X150661310Y-86781666D01*
X150585120Y-86743571D01*
X150470834Y-86743571D01*
X150394643Y-86781666D01*
X150356548Y-86857857D01*
X150356548Y-87276904D01*
X149975596Y-86743571D02*
X149975596Y-87276904D01*
X149975596Y-86819761D02*
X149937500Y-86781666D01*
X149861310Y-86743571D01*
X149747024Y-86743571D01*
X149670834Y-86781666D01*
X149632739Y-86857857D01*
X149632739Y-87276904D01*
X148947024Y-87238809D02*
X149023215Y-87276904D01*
X149175596Y-87276904D01*
X149251786Y-87238809D01*
X149289881Y-87162619D01*
X149289881Y-86857857D01*
X149251786Y-86781666D01*
X149175596Y-86743571D01*
X149023215Y-86743571D01*
X148947024Y-86781666D01*
X148908929Y-86857857D01*
X148908929Y-86934047D01*
X149289881Y-87010238D01*
X148223215Y-87238809D02*
X148299405Y-87276904D01*
X148451786Y-87276904D01*
X148527977Y-87238809D01*
X148566072Y-87200714D01*
X148604167Y-87124523D01*
X148604167Y-86895952D01*
X148566072Y-86819761D01*
X148527977Y-86781666D01*
X148451786Y-86743571D01*
X148299405Y-86743571D01*
X148223215Y-86781666D01*
X147994643Y-86743571D02*
X147689881Y-86743571D01*
X147880358Y-86476904D02*
X147880358Y-87162619D01*
X147842262Y-87238809D01*
X147766072Y-87276904D01*
X147689881Y-87276904D01*
X146699405Y-87276904D02*
X146775596Y-87238809D01*
X146813691Y-87200714D01*
X146851786Y-87124523D01*
X146851786Y-86895952D01*
X146813691Y-86819761D01*
X146775596Y-86781666D01*
X146699405Y-86743571D01*
X146585120Y-86743571D01*
X146508929Y-86781666D01*
X146470834Y-86819761D01*
X146432739Y-86895952D01*
X146432739Y-87124523D01*
X146470834Y-87200714D01*
X146508929Y-87238809D01*
X146585120Y-87276904D01*
X146699405Y-87276904D01*
X146089881Y-86743571D02*
X146089881Y-87276904D01*
X146089881Y-86819761D02*
X146051786Y-86781666D01*
X145975596Y-86743571D01*
X145861310Y-86743571D01*
X145785120Y-86781666D01*
X145747024Y-86857857D01*
X145747024Y-87276904D01*
X145061310Y-87238809D02*
X145137500Y-87276904D01*
X145289881Y-87276904D01*
X145366072Y-87238809D01*
X145404167Y-87162619D01*
X145404167Y-86857857D01*
X145366072Y-86781666D01*
X145289881Y-86743571D01*
X145137500Y-86743571D01*
X145061310Y-86781666D01*
X145023215Y-86857857D01*
X145023215Y-86934047D01*
X145404167Y-87010238D01*
X154299405Y-88626904D02*
X154299405Y-88207857D01*
X154337500Y-88131666D01*
X154413691Y-88093571D01*
X154566072Y-88093571D01*
X154642262Y-88131666D01*
X154299405Y-88588809D02*
X154375596Y-88626904D01*
X154566072Y-88626904D01*
X154642262Y-88588809D01*
X154680358Y-88512619D01*
X154680358Y-88436428D01*
X154642262Y-88360238D01*
X154566072Y-88322142D01*
X154375596Y-88322142D01*
X154299405Y-88284047D01*
X154032739Y-88093571D02*
X153727977Y-88093571D01*
X153918453Y-87826904D02*
X153918453Y-88512619D01*
X153880358Y-88588809D01*
X153804167Y-88626904D01*
X153727977Y-88626904D01*
X152508929Y-88626904D02*
X152508929Y-88207857D01*
X152547024Y-88131666D01*
X152623215Y-88093571D01*
X152775596Y-88093571D01*
X152851786Y-88131666D01*
X152508929Y-88588809D02*
X152585120Y-88626904D01*
X152775596Y-88626904D01*
X152851786Y-88588809D01*
X152889881Y-88512619D01*
X152889881Y-88436428D01*
X152851786Y-88360238D01*
X152775596Y-88322142D01*
X152585120Y-88322142D01*
X152508929Y-88284047D01*
X151632739Y-88093571D02*
X151327977Y-88093571D01*
X151518453Y-87826904D02*
X151518453Y-88512619D01*
X151480358Y-88588809D01*
X151404167Y-88626904D01*
X151327977Y-88626904D01*
X151061310Y-88626904D02*
X151061310Y-88093571D01*
X151061310Y-87826904D02*
X151099405Y-87865000D01*
X151061310Y-87903095D01*
X151023215Y-87865000D01*
X151061310Y-87826904D01*
X151061310Y-87903095D01*
X150680358Y-88626904D02*
X150680358Y-88093571D01*
X150680358Y-88169761D02*
X150642262Y-88131666D01*
X150566072Y-88093571D01*
X150451786Y-88093571D01*
X150375596Y-88131666D01*
X150337500Y-88207857D01*
X150337500Y-88626904D01*
X150337500Y-88207857D02*
X150299405Y-88131666D01*
X150223215Y-88093571D01*
X150108929Y-88093571D01*
X150032739Y-88131666D01*
X149994643Y-88207857D01*
X149994643Y-88626904D01*
X149308929Y-88588809D02*
X149385120Y-88626904D01*
X149537500Y-88626904D01*
X149613691Y-88588809D01*
X149651786Y-88512619D01*
X149651786Y-88207857D01*
X149613691Y-88131666D01*
X149537500Y-88093571D01*
X149385120Y-88093571D01*
X149308929Y-88131666D01*
X149270834Y-88207857D01*
X149270834Y-88284047D01*
X149651786Y-88360238D01*
X148394643Y-88093571D02*
X148242262Y-88626904D01*
X148089881Y-88245952D01*
X147937500Y-88626904D01*
X147785120Y-88093571D01*
X147480358Y-88626904D02*
X147480358Y-87826904D01*
X147137500Y-88626904D02*
X147137500Y-88207857D01*
X147175596Y-88131666D01*
X147251786Y-88093571D01*
X147366072Y-88093571D01*
X147442262Y-88131666D01*
X147480358Y-88169761D01*
X146451786Y-88588809D02*
X146527977Y-88626904D01*
X146680358Y-88626904D01*
X146756548Y-88588809D01*
X146794643Y-88512619D01*
X146794643Y-88207857D01*
X146756548Y-88131666D01*
X146680358Y-88093571D01*
X146527977Y-88093571D01*
X146451786Y-88131666D01*
X146413691Y-88207857D01*
X146413691Y-88284047D01*
X146794643Y-88360238D01*
X146070834Y-88093571D02*
X146070834Y-88626904D01*
X146070834Y-88169761D02*
X146032739Y-88131666D01*
X145956548Y-88093571D01*
X145842262Y-88093571D01*
X145766072Y-88131666D01*
X145727977Y-88207857D01*
X145727977Y-88626904D01*
X155575596Y-89938809D02*
X155651786Y-89976904D01*
X155804167Y-89976904D01*
X155880358Y-89938809D01*
X155918453Y-89900714D01*
X155956548Y-89824523D01*
X155956548Y-89595952D01*
X155918453Y-89519761D01*
X155880358Y-89481666D01*
X155804167Y-89443571D01*
X155651786Y-89443571D01*
X155575596Y-89481666D01*
X155118453Y-89976904D02*
X155194643Y-89938809D01*
X155232739Y-89900714D01*
X155270834Y-89824523D01*
X155270834Y-89595952D01*
X155232739Y-89519761D01*
X155194643Y-89481666D01*
X155118453Y-89443571D01*
X155004167Y-89443571D01*
X154927977Y-89481666D01*
X154889881Y-89519761D01*
X154851786Y-89595952D01*
X154851786Y-89824523D01*
X154889881Y-89900714D01*
X154927977Y-89938809D01*
X155004167Y-89976904D01*
X155118453Y-89976904D01*
X154508929Y-89443571D02*
X154508929Y-89976904D01*
X154508929Y-89519761D02*
X154470834Y-89481666D01*
X154394643Y-89443571D01*
X154280358Y-89443571D01*
X154204167Y-89481666D01*
X154166072Y-89557857D01*
X154166072Y-89976904D01*
X153899405Y-89443571D02*
X153594643Y-89443571D01*
X153785120Y-89976904D02*
X153785120Y-89291190D01*
X153747024Y-89215000D01*
X153670834Y-89176904D01*
X153594643Y-89176904D01*
X153327977Y-89976904D02*
X153327977Y-89443571D01*
X153327977Y-89176904D02*
X153366072Y-89215000D01*
X153327977Y-89253095D01*
X153289881Y-89215000D01*
X153327977Y-89176904D01*
X153327977Y-89253095D01*
X152604167Y-89443571D02*
X152604167Y-90091190D01*
X152642262Y-90167380D01*
X152680358Y-90205476D01*
X152756548Y-90243571D01*
X152870834Y-90243571D01*
X152947024Y-90205476D01*
X152604167Y-89938809D02*
X152680358Y-89976904D01*
X152832739Y-89976904D01*
X152908929Y-89938809D01*
X152947024Y-89900714D01*
X152985120Y-89824523D01*
X152985120Y-89595952D01*
X152947024Y-89519761D01*
X152908929Y-89481666D01*
X152832739Y-89443571D01*
X152680358Y-89443571D01*
X152604167Y-89481666D01*
X151880358Y-89443571D02*
X151880358Y-89976904D01*
X152223215Y-89443571D02*
X152223215Y-89862619D01*
X152185120Y-89938809D01*
X152108929Y-89976904D01*
X151994643Y-89976904D01*
X151918453Y-89938809D01*
X151880358Y-89900714D01*
X151499405Y-89976904D02*
X151499405Y-89443571D01*
X151499405Y-89595952D02*
X151461310Y-89519761D01*
X151423215Y-89481666D01*
X151347024Y-89443571D01*
X151270834Y-89443571D01*
X150699405Y-89938809D02*
X150775596Y-89976904D01*
X150927977Y-89976904D01*
X151004167Y-89938809D01*
X151042262Y-89862619D01*
X151042262Y-89557857D01*
X151004167Y-89481666D01*
X150927977Y-89443571D01*
X150775596Y-89443571D01*
X150699405Y-89481666D01*
X150661310Y-89557857D01*
X150661310Y-89634047D01*
X151042262Y-89710238D01*
X149975596Y-89976904D02*
X149975596Y-89176904D01*
X149975596Y-89938809D02*
X150051786Y-89976904D01*
X150204167Y-89976904D01*
X150280358Y-89938809D01*
X150318453Y-89900714D01*
X150356548Y-89824523D01*
X150356548Y-89595952D01*
X150318453Y-89519761D01*
X150280358Y-89481666D01*
X150204167Y-89443571D01*
X150051786Y-89443571D01*
X149975596Y-89481666D01*
X149099405Y-89443571D02*
X148794643Y-89443571D01*
X148985120Y-89976904D02*
X148985120Y-89291190D01*
X148947024Y-89215000D01*
X148870834Y-89176904D01*
X148794643Y-89176904D01*
X148413691Y-89976904D02*
X148489881Y-89938809D01*
X148527977Y-89900714D01*
X148566072Y-89824523D01*
X148566072Y-89595952D01*
X148527977Y-89519761D01*
X148489881Y-89481666D01*
X148413691Y-89443571D01*
X148299405Y-89443571D01*
X148223215Y-89481666D01*
X148185120Y-89519761D01*
X148147024Y-89595952D01*
X148147024Y-89824523D01*
X148185120Y-89900714D01*
X148223215Y-89938809D01*
X148299405Y-89976904D01*
X148413691Y-89976904D01*
X147804167Y-89976904D02*
X147804167Y-89443571D01*
X147804167Y-89595952D02*
X147766072Y-89519761D01*
X147727977Y-89481666D01*
X147651786Y-89443571D01*
X147575596Y-89443571D01*
X146699405Y-89976904D02*
X146699405Y-89176904D01*
X146699405Y-89481666D02*
X146623215Y-89443571D01*
X146470834Y-89443571D01*
X146394643Y-89481666D01*
X146356548Y-89519761D01*
X146318453Y-89595952D01*
X146318453Y-89824523D01*
X146356548Y-89900714D01*
X146394643Y-89938809D01*
X146470834Y-89976904D01*
X146623215Y-89976904D01*
X146699405Y-89938809D01*
X145861310Y-89976904D02*
X145937500Y-89938809D01*
X145975596Y-89900714D01*
X146013691Y-89824523D01*
X146013691Y-89595952D01*
X145975596Y-89519761D01*
X145937500Y-89481666D01*
X145861310Y-89443571D01*
X145747024Y-89443571D01*
X145670834Y-89481666D01*
X145632739Y-89519761D01*
X145594643Y-89595952D01*
X145594643Y-89824523D01*
X145632739Y-89900714D01*
X145670834Y-89938809D01*
X145747024Y-89976904D01*
X145861310Y-89976904D01*
X145366072Y-89443571D02*
X145061310Y-89443571D01*
X145251786Y-89176904D02*
X145251786Y-89862619D01*
X145213691Y-89938809D01*
X145137500Y-89976904D01*
X145061310Y-89976904D01*
X144794643Y-89976904D02*
X144794643Y-89176904D01*
X144451786Y-89976904D02*
X144451786Y-89557857D01*
X144489881Y-89481666D01*
X144566072Y-89443571D01*
X144680358Y-89443571D01*
X144756548Y-89481666D01*
X144794643Y-89519761D01*
D12*
G36*
X166370000Y-89535000D02*
G01*
X163576000Y-89535000D01*
X163576000Y-88265000D01*
X166370000Y-88265000D01*
X166370000Y-89535000D01*
G37*
X166370000Y-89535000D02*
X163576000Y-89535000D01*
X163576000Y-88265000D01*
X166370000Y-88265000D01*
X166370000Y-89535000D01*
D10*
X162959809Y-89312714D02*
X162921714Y-89350809D01*
X162959809Y-89388904D01*
X162997904Y-89350809D01*
X162959809Y-89312714D01*
X162959809Y-89388904D01*
X162959809Y-89084142D02*
X162997904Y-88627000D01*
X162959809Y-88588904D01*
X162921714Y-88627000D01*
X162959809Y-89084142D01*
X162959809Y-88588904D01*
X162578857Y-89312714D02*
X162540761Y-89350809D01*
X162578857Y-89388904D01*
X162616952Y-89350809D01*
X162578857Y-89312714D01*
X162578857Y-89388904D01*
X162578857Y-89084142D02*
X162616952Y-88627000D01*
X162578857Y-88588904D01*
X162540761Y-88627000D01*
X162578857Y-89084142D01*
X162578857Y-88588904D01*
X161931238Y-88969857D02*
X161816952Y-89007952D01*
X161778857Y-89046047D01*
X161740761Y-89122238D01*
X161740761Y-89236523D01*
X161778857Y-89312714D01*
X161816952Y-89350809D01*
X161893142Y-89388904D01*
X162197904Y-89388904D01*
X162197904Y-88588904D01*
X161931238Y-88588904D01*
X161855047Y-88627000D01*
X161816952Y-88665095D01*
X161778857Y-88741285D01*
X161778857Y-88817476D01*
X161816952Y-88893666D01*
X161855047Y-88931761D01*
X161931238Y-88969857D01*
X162197904Y-88969857D01*
X161283619Y-89388904D02*
X161359809Y-89350809D01*
X161397904Y-89312714D01*
X161436000Y-89236523D01*
X161436000Y-89007952D01*
X161397904Y-88931761D01*
X161359809Y-88893666D01*
X161283619Y-88855571D01*
X161169333Y-88855571D01*
X161093142Y-88893666D01*
X161055047Y-88931761D01*
X161016952Y-89007952D01*
X161016952Y-89236523D01*
X161055047Y-89312714D01*
X161093142Y-89350809D01*
X161169333Y-89388904D01*
X161283619Y-89388904D01*
X160788380Y-88855571D02*
X160483619Y-88855571D01*
X160674095Y-88588904D02*
X160674095Y-89274619D01*
X160636000Y-89350809D01*
X160559809Y-89388904D01*
X160483619Y-89388904D01*
X160216952Y-89388904D02*
X160216952Y-88588904D01*
X159874095Y-89388904D02*
X159874095Y-88969857D01*
X159912190Y-88893666D01*
X159988380Y-88855571D01*
X160102666Y-88855571D01*
X160178857Y-88893666D01*
X160216952Y-88931761D01*
X159493142Y-89312714D02*
X159455047Y-89350809D01*
X159493142Y-89388904D01*
X159531238Y-89350809D01*
X159493142Y-89312714D01*
X159493142Y-89388904D01*
X159493142Y-89084142D02*
X159531238Y-88627000D01*
X159493142Y-88588904D01*
X159455047Y-88627000D01*
X159493142Y-89084142D01*
X159493142Y-88588904D01*
X159112190Y-89312714D02*
X159074095Y-89350809D01*
X159112190Y-89388904D01*
X159150285Y-89350809D01*
X159112190Y-89312714D01*
X159112190Y-89388904D01*
X159112190Y-89084142D02*
X159150285Y-88627000D01*
X159112190Y-88588904D01*
X159074095Y-88627000D01*
X159112190Y-89084142D01*
X159112190Y-88588904D01*
X162902666Y-90366904D02*
X162902666Y-91014523D01*
X162864571Y-91090714D01*
X162826476Y-91128809D01*
X162750285Y-91166904D01*
X162597904Y-91166904D01*
X162521714Y-91128809D01*
X162483619Y-91090714D01*
X162445523Y-91014523D01*
X162445523Y-90366904D01*
X162102666Y-91128809D02*
X161988380Y-91166904D01*
X161797904Y-91166904D01*
X161721714Y-91128809D01*
X161683619Y-91090714D01*
X161645523Y-91014523D01*
X161645523Y-90938333D01*
X161683619Y-90862142D01*
X161721714Y-90824047D01*
X161797904Y-90785952D01*
X161950285Y-90747857D01*
X162026476Y-90709761D01*
X162064571Y-90671666D01*
X162102666Y-90595476D01*
X162102666Y-90519285D01*
X162064571Y-90443095D01*
X162026476Y-90405000D01*
X161950285Y-90366904D01*
X161759809Y-90366904D01*
X161645523Y-90405000D01*
X161036000Y-90747857D02*
X160921714Y-90785952D01*
X160883619Y-90824047D01*
X160845523Y-90900238D01*
X160845523Y-91014523D01*
X160883619Y-91090714D01*
X160921714Y-91128809D01*
X160997904Y-91166904D01*
X161302666Y-91166904D01*
X161302666Y-90366904D01*
X161036000Y-90366904D01*
X160959809Y-90405000D01*
X160921714Y-90443095D01*
X160883619Y-90519285D01*
X160883619Y-90595476D01*
X160921714Y-90671666D01*
X160959809Y-90709761D01*
X161036000Y-90747857D01*
X161302666Y-90747857D01*
X159893142Y-91166904D02*
X159893142Y-90633571D01*
X159893142Y-90366904D02*
X159931238Y-90405000D01*
X159893142Y-90443095D01*
X159855047Y-90405000D01*
X159893142Y-90366904D01*
X159893142Y-90443095D01*
X159512190Y-90633571D02*
X159512190Y-91166904D01*
X159512190Y-90709761D02*
X159474095Y-90671666D01*
X159397904Y-90633571D01*
X159283619Y-90633571D01*
X159207428Y-90671666D01*
X159169333Y-90747857D01*
X159169333Y-91166904D01*
D12*
G36*
X165354000Y-91313000D02*
G01*
X163576000Y-91313000D01*
X163576000Y-90043000D01*
X165354000Y-90043000D01*
X165354000Y-91313000D01*
G37*
X165354000Y-91313000D02*
X163576000Y-91313000D01*
X163576000Y-90043000D01*
X165354000Y-90043000D01*
X165354000Y-91313000D01*
G36*
X166370000Y-91313000D02*
G01*
X165608000Y-91313000D01*
X165608000Y-90043000D01*
X166370000Y-90043000D01*
X166370000Y-91313000D01*
G37*
X166370000Y-91313000D02*
X165608000Y-91313000D01*
X165608000Y-90043000D01*
X166370000Y-90043000D01*
X166370000Y-91313000D01*
D10*
X162966095Y-92944904D02*
X162966095Y-92144904D01*
X162661333Y-92144904D01*
X162585142Y-92183000D01*
X162547047Y-92221095D01*
X162508952Y-92297285D01*
X162508952Y-92411571D01*
X162547047Y-92487761D01*
X162585142Y-92525857D01*
X162661333Y-92563952D01*
X162966095Y-92563952D01*
X162051809Y-92944904D02*
X162128000Y-92906809D01*
X162166095Y-92868714D01*
X162204190Y-92792523D01*
X162204190Y-92563952D01*
X162166095Y-92487761D01*
X162128000Y-92449666D01*
X162051809Y-92411571D01*
X161937523Y-92411571D01*
X161861333Y-92449666D01*
X161823238Y-92487761D01*
X161785142Y-92563952D01*
X161785142Y-92792523D01*
X161823238Y-92868714D01*
X161861333Y-92906809D01*
X161937523Y-92944904D01*
X162051809Y-92944904D01*
X161518476Y-92411571D02*
X161366095Y-92944904D01*
X161213714Y-92563952D01*
X161061333Y-92944904D01*
X160908952Y-92411571D01*
X160299428Y-92906809D02*
X160375619Y-92944904D01*
X160528000Y-92944904D01*
X160604190Y-92906809D01*
X160642285Y-92830619D01*
X160642285Y-92525857D01*
X160604190Y-92449666D01*
X160528000Y-92411571D01*
X160375619Y-92411571D01*
X160299428Y-92449666D01*
X160261333Y-92525857D01*
X160261333Y-92602047D01*
X160642285Y-92678238D01*
X159918476Y-92944904D02*
X159918476Y-92411571D01*
X159918476Y-92563952D02*
X159880380Y-92487761D01*
X159842285Y-92449666D01*
X159766095Y-92411571D01*
X159689904Y-92411571D01*
X158813714Y-92944904D02*
X158813714Y-92411571D01*
X158813714Y-92144904D02*
X158851809Y-92183000D01*
X158813714Y-92221095D01*
X158775619Y-92183000D01*
X158813714Y-92144904D01*
X158813714Y-92221095D01*
X158432761Y-92411571D02*
X158432761Y-92944904D01*
X158432761Y-92487761D02*
X158394666Y-92449666D01*
X158318476Y-92411571D01*
X158204190Y-92411571D01*
X158128000Y-92449666D01*
X158089904Y-92525857D01*
X158089904Y-92944904D01*
D12*
G36*
X164338000Y-93091000D02*
G01*
X163576000Y-93091000D01*
X163576000Y-91821000D01*
X164338000Y-91821000D01*
X164338000Y-93091000D01*
G37*
X164338000Y-93091000D02*
X163576000Y-93091000D01*
X163576000Y-91821000D01*
X164338000Y-91821000D01*
X164338000Y-93091000D01*
G36*
X166370000Y-93091000D02*
G01*
X164592000Y-93091000D01*
X164592000Y-91821000D01*
X166370000Y-91821000D01*
X166370000Y-93091000D01*
G37*
X166370000Y-93091000D02*
X164592000Y-93091000D01*
X164592000Y-91821000D01*
X166370000Y-91821000D01*
X166370000Y-93091000D01*
D10*
X166185333Y-87280714D02*
X166223428Y-87318809D01*
X166337714Y-87356904D01*
X166413904Y-87356904D01*
X166528190Y-87318809D01*
X166604380Y-87242619D01*
X166642476Y-87166428D01*
X166680571Y-87014047D01*
X166680571Y-86899761D01*
X166642476Y-86747380D01*
X166604380Y-86671190D01*
X166528190Y-86595000D01*
X166413904Y-86556904D01*
X166337714Y-86556904D01*
X166223428Y-86595000D01*
X166185333Y-86633095D01*
X165842476Y-87356904D02*
X165842476Y-86556904D01*
X165499619Y-87356904D02*
X165499619Y-86937857D01*
X165537714Y-86861666D01*
X165613904Y-86823571D01*
X165728190Y-86823571D01*
X165804380Y-86861666D01*
X165842476Y-86899761D01*
X164775809Y-87356904D02*
X164775809Y-86937857D01*
X164813904Y-86861666D01*
X164890095Y-86823571D01*
X165042476Y-86823571D01*
X165118666Y-86861666D01*
X164775809Y-87318809D02*
X164852000Y-87356904D01*
X165042476Y-87356904D01*
X165118666Y-87318809D01*
X165156761Y-87242619D01*
X165156761Y-87166428D01*
X165118666Y-87090238D01*
X165042476Y-87052142D01*
X164852000Y-87052142D01*
X164775809Y-87014047D01*
X164394857Y-87356904D02*
X164394857Y-86823571D01*
X164394857Y-86975952D02*
X164356761Y-86899761D01*
X164318666Y-86861666D01*
X164242476Y-86823571D01*
X164166285Y-86823571D01*
X163556761Y-86823571D02*
X163556761Y-87471190D01*
X163594857Y-87547380D01*
X163632952Y-87585476D01*
X163709142Y-87623571D01*
X163823428Y-87623571D01*
X163899619Y-87585476D01*
X163556761Y-87318809D02*
X163632952Y-87356904D01*
X163785333Y-87356904D01*
X163861523Y-87318809D01*
X163899619Y-87280714D01*
X163937714Y-87204523D01*
X163937714Y-86975952D01*
X163899619Y-86899761D01*
X163861523Y-86861666D01*
X163785333Y-86823571D01*
X163632952Y-86823571D01*
X163556761Y-86861666D01*
X162871047Y-87318809D02*
X162947238Y-87356904D01*
X163099619Y-87356904D01*
X163175809Y-87318809D01*
X163213904Y-87242619D01*
X163213904Y-86937857D01*
X163175809Y-86861666D01*
X163099619Y-86823571D01*
X162947238Y-86823571D01*
X162871047Y-86861666D01*
X162832952Y-86937857D01*
X162832952Y-87014047D01*
X163213904Y-87090238D01*
X161918666Y-87318809D02*
X161842476Y-87356904D01*
X161690095Y-87356904D01*
X161613904Y-87318809D01*
X161575809Y-87242619D01*
X161575809Y-87204523D01*
X161613904Y-87128333D01*
X161690095Y-87090238D01*
X161804380Y-87090238D01*
X161880571Y-87052142D01*
X161918666Y-86975952D01*
X161918666Y-86937857D01*
X161880571Y-86861666D01*
X161804380Y-86823571D01*
X161690095Y-86823571D01*
X161613904Y-86861666D01*
X160928190Y-87318809D02*
X161004380Y-87356904D01*
X161156761Y-87356904D01*
X161232952Y-87318809D01*
X161271047Y-87242619D01*
X161271047Y-86937857D01*
X161232952Y-86861666D01*
X161156761Y-86823571D01*
X161004380Y-86823571D01*
X160928190Y-86861666D01*
X160890095Y-86937857D01*
X160890095Y-87014047D01*
X161271047Y-87090238D01*
X160432952Y-87356904D02*
X160509142Y-87318809D01*
X160547238Y-87242619D01*
X160547238Y-86556904D01*
X159823428Y-87318809D02*
X159899619Y-87356904D01*
X160052000Y-87356904D01*
X160128190Y-87318809D01*
X160166285Y-87242619D01*
X160166285Y-86937857D01*
X160128190Y-86861666D01*
X160052000Y-86823571D01*
X159899619Y-86823571D01*
X159823428Y-86861666D01*
X159785333Y-86937857D01*
X159785333Y-87014047D01*
X160166285Y-87090238D01*
X159099619Y-87318809D02*
X159175809Y-87356904D01*
X159328190Y-87356904D01*
X159404380Y-87318809D01*
X159442476Y-87280714D01*
X159480571Y-87204523D01*
X159480571Y-86975952D01*
X159442476Y-86899761D01*
X159404380Y-86861666D01*
X159328190Y-86823571D01*
X159175809Y-86823571D01*
X159099619Y-86861666D01*
X158871047Y-86823571D02*
X158566285Y-86823571D01*
X158756761Y-86556904D02*
X158756761Y-87242619D01*
X158718666Y-87318809D01*
X158642476Y-87356904D01*
X158566285Y-87356904D01*
X158185333Y-87356904D02*
X158261523Y-87318809D01*
X158299619Y-87280714D01*
X158337714Y-87204523D01*
X158337714Y-86975952D01*
X158299619Y-86899761D01*
X158261523Y-86861666D01*
X158185333Y-86823571D01*
X158071047Y-86823571D01*
X157994857Y-86861666D01*
X157956761Y-86899761D01*
X157918666Y-86975952D01*
X157918666Y-87204523D01*
X157956761Y-87280714D01*
X157994857Y-87318809D01*
X158071047Y-87356904D01*
X158185333Y-87356904D01*
X157575809Y-87356904D02*
X157575809Y-86823571D01*
X157575809Y-86975952D02*
X157537714Y-86899761D01*
X157499619Y-86861666D01*
X157423428Y-86823571D01*
X157347238Y-86823571D01*
D11*
X167106600Y-93345000D02*
X167106600Y-91440000D01*
X156718000Y-93345000D02*
X167106600Y-93345000D01*
X156718000Y-86233000D02*
X156718000Y-93345000D01*
X167106600Y-86233000D02*
X156718000Y-86233000D01*
X167088600Y-89424000D02*
X167106600Y-86233000D01*
X162560000Y-84963000D02*
X159766000Y-84963000D01*
D10*
X171500095Y-84143857D02*
X171385809Y-84181952D01*
X171347714Y-84220047D01*
X171309619Y-84296238D01*
X171309619Y-84410523D01*
X171347714Y-84486714D01*
X171385809Y-84524809D01*
X171462000Y-84562904D01*
X171766761Y-84562904D01*
X171766761Y-83762904D01*
X171500095Y-83762904D01*
X171423904Y-83801000D01*
X171385809Y-83839095D01*
X171347714Y-83915285D01*
X171347714Y-83991476D01*
X171385809Y-84067666D01*
X171423904Y-84105761D01*
X171500095Y-84143857D01*
X171766761Y-84143857D01*
X170623904Y-84562904D02*
X170623904Y-84143857D01*
X170662000Y-84067666D01*
X170738190Y-84029571D01*
X170890571Y-84029571D01*
X170966761Y-84067666D01*
X170623904Y-84524809D02*
X170700095Y-84562904D01*
X170890571Y-84562904D01*
X170966761Y-84524809D01*
X171004857Y-84448619D01*
X171004857Y-84372428D01*
X170966761Y-84296238D01*
X170890571Y-84258142D01*
X170700095Y-84258142D01*
X170623904Y-84220047D01*
X170357238Y-84029571D02*
X170052476Y-84029571D01*
X170242952Y-83762904D02*
X170242952Y-84448619D01*
X170204857Y-84524809D01*
X170128666Y-84562904D01*
X170052476Y-84562904D01*
X169900095Y-84029571D02*
X169595333Y-84029571D01*
X169785809Y-83762904D02*
X169785809Y-84448619D01*
X169747714Y-84524809D01*
X169671523Y-84562904D01*
X169595333Y-84562904D01*
X169023904Y-84524809D02*
X169100095Y-84562904D01*
X169252476Y-84562904D01*
X169328666Y-84524809D01*
X169366761Y-84448619D01*
X169366761Y-84143857D01*
X169328666Y-84067666D01*
X169252476Y-84029571D01*
X169100095Y-84029571D01*
X169023904Y-84067666D01*
X168985809Y-84143857D01*
X168985809Y-84220047D01*
X169366761Y-84296238D01*
X168642952Y-84562904D02*
X168642952Y-84029571D01*
X168642952Y-84181952D02*
X168604857Y-84105761D01*
X168566761Y-84067666D01*
X168490571Y-84029571D01*
X168414380Y-84029571D01*
X168223904Y-84029571D02*
X168033428Y-84562904D01*
X167842952Y-84029571D02*
X168033428Y-84562904D01*
X168109619Y-84753380D01*
X168147714Y-84791476D01*
X168223904Y-84829571D01*
X166928666Y-84562904D02*
X166928666Y-84029571D01*
X166928666Y-83762904D02*
X166966761Y-83801000D01*
X166928666Y-83839095D01*
X166890571Y-83801000D01*
X166928666Y-83762904D01*
X166928666Y-83839095D01*
X166547714Y-84029571D02*
X166547714Y-84562904D01*
X166547714Y-84105761D02*
X166509619Y-84067666D01*
X166433428Y-84029571D01*
X166319142Y-84029571D01*
X166242952Y-84067666D01*
X166204857Y-84143857D01*
X166204857Y-84562904D01*
X165214380Y-84029571D02*
X165214380Y-84829571D01*
X165214380Y-84067666D02*
X165138190Y-84029571D01*
X164985809Y-84029571D01*
X164909619Y-84067666D01*
X164871523Y-84105761D01*
X164833428Y-84181952D01*
X164833428Y-84410523D01*
X164871523Y-84486714D01*
X164909619Y-84524809D01*
X164985809Y-84562904D01*
X165138190Y-84562904D01*
X165214380Y-84524809D01*
X164490571Y-84562904D02*
X164490571Y-84029571D01*
X164490571Y-84181952D02*
X164452476Y-84105761D01*
X164414380Y-84067666D01*
X164338190Y-84029571D01*
X164262000Y-84029571D01*
X163881047Y-84562904D02*
X163957238Y-84524809D01*
X163995333Y-84486714D01*
X164033428Y-84410523D01*
X164033428Y-84181952D01*
X163995333Y-84105761D01*
X163957238Y-84067666D01*
X163881047Y-84029571D01*
X163766761Y-84029571D01*
X163690571Y-84067666D01*
X163652476Y-84105761D01*
X163614380Y-84181952D01*
X163614380Y-84410523D01*
X163652476Y-84486714D01*
X163690571Y-84524809D01*
X163766761Y-84562904D01*
X163881047Y-84562904D01*
X163385809Y-84029571D02*
X163081047Y-84029571D01*
X163271523Y-83762904D02*
X163271523Y-84448619D01*
X163233428Y-84524809D01*
X163157238Y-84562904D01*
X163081047Y-84562904D01*
X162509619Y-84524809D02*
X162585809Y-84562904D01*
X162738190Y-84562904D01*
X162814380Y-84524809D01*
X162852476Y-84448619D01*
X162852476Y-84143857D01*
X162814380Y-84067666D01*
X162738190Y-84029571D01*
X162585809Y-84029571D01*
X162509619Y-84067666D01*
X162471523Y-84143857D01*
X162471523Y-84220047D01*
X162852476Y-84296238D01*
X161785809Y-84524809D02*
X161862000Y-84562904D01*
X162014380Y-84562904D01*
X162090571Y-84524809D01*
X162128666Y-84486714D01*
X162166761Y-84410523D01*
X162166761Y-84181952D01*
X162128666Y-84105761D01*
X162090571Y-84067666D01*
X162014380Y-84029571D01*
X161862000Y-84029571D01*
X161785809Y-84067666D01*
X161557238Y-84029571D02*
X161252476Y-84029571D01*
X161442952Y-83762904D02*
X161442952Y-84448619D01*
X161404857Y-84524809D01*
X161328666Y-84562904D01*
X161252476Y-84562904D01*
X160681047Y-84524809D02*
X160757238Y-84562904D01*
X160909619Y-84562904D01*
X160985809Y-84524809D01*
X161023904Y-84448619D01*
X161023904Y-84143857D01*
X160985809Y-84067666D01*
X160909619Y-84029571D01*
X160757238Y-84029571D01*
X160681047Y-84067666D01*
X160642952Y-84143857D01*
X160642952Y-84220047D01*
X161023904Y-84296238D01*
X159957238Y-84562904D02*
X159957238Y-83762904D01*
X159957238Y-84524809D02*
X160033428Y-84562904D01*
X160185809Y-84562904D01*
X160262000Y-84524809D01*
X160300095Y-84486714D01*
X160338190Y-84410523D01*
X160338190Y-84181952D01*
X160300095Y-84105761D01*
X160262000Y-84067666D01*
X160185809Y-84029571D01*
X160033428Y-84029571D01*
X159957238Y-84067666D01*
D11*
X171958000Y-84963000D02*
X162560000Y-84963000D01*
X171958000Y-85471000D02*
X171958000Y-84963000D01*
D10*
X169925695Y-95952904D02*
X169925695Y-95152904D01*
X169620933Y-95152904D01*
X169544742Y-95191000D01*
X169506647Y-95229095D01*
X169468552Y-95305285D01*
X169468552Y-95419571D01*
X169506647Y-95495761D01*
X169544742Y-95533857D01*
X169620933Y-95571952D01*
X169925695Y-95571952D01*
X169011409Y-95952904D02*
X169087600Y-95914809D01*
X169125695Y-95876714D01*
X169163790Y-95800523D01*
X169163790Y-95571952D01*
X169125695Y-95495761D01*
X169087600Y-95457666D01*
X169011409Y-95419571D01*
X168897123Y-95419571D01*
X168820933Y-95457666D01*
X168782838Y-95495761D01*
X168744742Y-95571952D01*
X168744742Y-95800523D01*
X168782838Y-95876714D01*
X168820933Y-95914809D01*
X168897123Y-95952904D01*
X169011409Y-95952904D01*
X168478076Y-95419571D02*
X168325695Y-95952904D01*
X168173314Y-95571952D01*
X168020933Y-95952904D01*
X167868552Y-95419571D01*
X167259028Y-95914809D02*
X167335219Y-95952904D01*
X167487600Y-95952904D01*
X167563790Y-95914809D01*
X167601885Y-95838619D01*
X167601885Y-95533857D01*
X167563790Y-95457666D01*
X167487600Y-95419571D01*
X167335219Y-95419571D01*
X167259028Y-95457666D01*
X167220933Y-95533857D01*
X167220933Y-95610047D01*
X167601885Y-95686238D01*
X166878076Y-95952904D02*
X166878076Y-95419571D01*
X166878076Y-95571952D02*
X166839980Y-95495761D01*
X166801885Y-95457666D01*
X166725695Y-95419571D01*
X166649504Y-95419571D01*
X165773314Y-95952904D02*
X165773314Y-95419571D01*
X165773314Y-95152904D02*
X165811409Y-95191000D01*
X165773314Y-95229095D01*
X165735219Y-95191000D01*
X165773314Y-95152904D01*
X165773314Y-95229095D01*
X165392361Y-95419571D02*
X165392361Y-95952904D01*
X165392361Y-95495761D02*
X165354266Y-95457666D01*
X165278076Y-95419571D01*
X165163790Y-95419571D01*
X165087600Y-95457666D01*
X165049504Y-95533857D01*
X165049504Y-95952904D01*
X169468552Y-96769571D02*
X169468552Y-97302904D01*
X169659028Y-96464809D02*
X169849504Y-97036238D01*
X169354266Y-97036238D01*
X169049504Y-97226714D02*
X169011409Y-97264809D01*
X169049504Y-97302904D01*
X169087600Y-97264809D01*
X169049504Y-97226714D01*
X169049504Y-97302904D01*
X168287600Y-96502904D02*
X168668552Y-96502904D01*
X168706647Y-96883857D01*
X168668552Y-96845761D01*
X168592361Y-96807666D01*
X168401885Y-96807666D01*
X168325695Y-96845761D01*
X168287600Y-96883857D01*
X168249504Y-96960047D01*
X168249504Y-97150523D01*
X168287600Y-97226714D01*
X168325695Y-97264809D01*
X168401885Y-97302904D01*
X168592361Y-97302904D01*
X168668552Y-97264809D01*
X168706647Y-97226714D01*
X168020933Y-96502904D02*
X167754266Y-97302904D01*
X167487600Y-96502904D01*
X167220933Y-96998142D02*
X166611409Y-96998142D01*
X166116171Y-96845761D02*
X166192361Y-96807666D01*
X166230457Y-96769571D01*
X166268552Y-96693380D01*
X166268552Y-96655285D01*
X166230457Y-96579095D01*
X166192361Y-96541000D01*
X166116171Y-96502904D01*
X165963790Y-96502904D01*
X165887600Y-96541000D01*
X165849504Y-96579095D01*
X165811409Y-96655285D01*
X165811409Y-96693380D01*
X165849504Y-96769571D01*
X165887600Y-96807666D01*
X165963790Y-96845761D01*
X166116171Y-96845761D01*
X166192361Y-96883857D01*
X166230457Y-96921952D01*
X166268552Y-96998142D01*
X166268552Y-97150523D01*
X166230457Y-97226714D01*
X166192361Y-97264809D01*
X166116171Y-97302904D01*
X165963790Y-97302904D01*
X165887600Y-97264809D01*
X165849504Y-97226714D01*
X165811409Y-97150523D01*
X165811409Y-96998142D01*
X165849504Y-96921952D01*
X165887600Y-96883857D01*
X165963790Y-96845761D01*
X165582838Y-96502904D02*
X165316171Y-97302904D01*
X165049504Y-96502904D01*
D11*
X169900600Y-94869000D02*
X169900600Y-92583000D01*
X174472600Y-97663000D02*
X164693600Y-97663000D01*
X174472600Y-92583000D02*
X174472600Y-97663000D01*
D10*
X163002980Y-116221142D02*
X163002980Y-116840190D01*
X163383933Y-116506857D01*
X163383933Y-116649714D01*
X163431552Y-116744952D01*
X163479171Y-116792571D01*
X163574409Y-116840190D01*
X163812504Y-116840190D01*
X163907742Y-116792571D01*
X163955361Y-116744952D01*
X164002980Y-116649714D01*
X164002980Y-116364000D01*
X163955361Y-116268761D01*
X163907742Y-116221142D01*
X163336314Y-117173523D02*
X164002980Y-117411619D01*
X163336314Y-117649714D01*
X163002980Y-117935428D02*
X163002980Y-118554476D01*
X163383933Y-118221142D01*
X163383933Y-118364000D01*
X163431552Y-118459238D01*
X163479171Y-118506857D01*
X163574409Y-118554476D01*
X163812504Y-118554476D01*
X163907742Y-118506857D01*
X163955361Y-118459238D01*
X164002980Y-118364000D01*
X164002980Y-118078285D01*
X163955361Y-117983047D01*
X163907742Y-117935428D01*
X164098219Y-118744952D02*
X164098219Y-119506857D01*
X164002980Y-119744952D02*
X163002980Y-119744952D01*
X163717266Y-120078285D01*
X163002980Y-120411619D01*
X164002980Y-120411619D01*
X167955980Y-118062523D02*
X167955980Y-118681571D01*
X168336933Y-118348238D01*
X168336933Y-118491095D01*
X168384552Y-118586333D01*
X168432171Y-118633952D01*
X168527409Y-118681571D01*
X168765504Y-118681571D01*
X168860742Y-118633952D01*
X168908361Y-118586333D01*
X168955980Y-118491095D01*
X168955980Y-118205380D01*
X168908361Y-118110142D01*
X168860742Y-118062523D01*
X168289314Y-119014904D02*
X168955980Y-119253000D01*
X168289314Y-119491095D01*
X167955980Y-119776809D02*
X167955980Y-120395857D01*
X168336933Y-120062523D01*
X168336933Y-120205380D01*
X168384552Y-120300619D01*
X168432171Y-120348238D01*
X168527409Y-120395857D01*
X168765504Y-120395857D01*
X168860742Y-120348238D01*
X168908361Y-120300619D01*
X168955980Y-120205380D01*
X168955980Y-119919666D01*
X168908361Y-119824428D01*
X168860742Y-119776809D01*
X152538180Y-116657666D02*
X153538180Y-116991000D01*
X152538180Y-117324333D01*
X153014371Y-117991000D02*
X153061990Y-118133857D01*
X153109609Y-118181476D01*
X153204847Y-118229095D01*
X153347704Y-118229095D01*
X153442942Y-118181476D01*
X153490561Y-118133857D01*
X153538180Y-118038619D01*
X153538180Y-117657666D01*
X152538180Y-117657666D01*
X152538180Y-117991000D01*
X152585800Y-118086238D01*
X152633419Y-118133857D01*
X152728657Y-118181476D01*
X152823895Y-118181476D01*
X152919133Y-118133857D01*
X152966752Y-118086238D01*
X153014371Y-117991000D01*
X153014371Y-117657666D01*
X152538180Y-118657666D02*
X153347704Y-118657666D01*
X153442942Y-118705285D01*
X153490561Y-118752904D01*
X153538180Y-118848142D01*
X153538180Y-119038619D01*
X153490561Y-119133857D01*
X153442942Y-119181476D01*
X153347704Y-119229095D01*
X152538180Y-119229095D01*
X153490561Y-119657666D02*
X153538180Y-119800523D01*
X153538180Y-120038619D01*
X153490561Y-120133857D01*
X153442942Y-120181476D01*
X153347704Y-120229095D01*
X153252466Y-120229095D01*
X153157228Y-120181476D01*
X153109609Y-120133857D01*
X153061990Y-120038619D01*
X153014371Y-119848142D01*
X152966752Y-119752904D01*
X152919133Y-119705285D01*
X152823895Y-119657666D01*
X152728657Y-119657666D01*
X152633419Y-119705285D01*
X152585800Y-119752904D01*
X152538180Y-119848142D01*
X152538180Y-120086238D01*
X152585800Y-120229095D01*
X157694380Y-119316523D02*
X157694380Y-118840333D01*
X158170571Y-118792714D01*
X158122952Y-118840333D01*
X158075333Y-118935571D01*
X158075333Y-119173666D01*
X158122952Y-119268904D01*
X158170571Y-119316523D01*
X158265809Y-119364142D01*
X158503904Y-119364142D01*
X158599142Y-119316523D01*
X158646761Y-119268904D01*
X158694380Y-119173666D01*
X158694380Y-118935571D01*
X158646761Y-118840333D01*
X158599142Y-118792714D01*
X157694380Y-119649857D02*
X158694380Y-119983190D01*
X157694380Y-120316523D01*
X150998180Y-118499047D02*
X149998180Y-118499047D01*
X149998180Y-118737142D01*
X150045800Y-118880000D01*
X150141038Y-118975238D01*
X150236276Y-119022857D01*
X150426752Y-119070476D01*
X150569609Y-119070476D01*
X150760085Y-119022857D01*
X150855323Y-118975238D01*
X150950561Y-118880000D01*
X150998180Y-118737142D01*
X150998180Y-118499047D01*
X150617228Y-119499047D02*
X150617228Y-120260952D01*
X148458180Y-118499047D02*
X147458180Y-118499047D01*
X147458180Y-118737142D01*
X147505800Y-118880000D01*
X147601038Y-118975238D01*
X147696276Y-119022857D01*
X147886752Y-119070476D01*
X148029609Y-119070476D01*
X148220085Y-119022857D01*
X148315323Y-118975238D01*
X148410561Y-118880000D01*
X148458180Y-118737142D01*
X148458180Y-118499047D01*
X148077228Y-119499047D02*
X148077228Y-120260952D01*
X148458180Y-119880000D02*
X147696276Y-119880000D01*
X140790561Y-117808523D02*
X140838180Y-117951380D01*
X140838180Y-118189476D01*
X140790561Y-118284714D01*
X140742942Y-118332333D01*
X140647704Y-118379952D01*
X140552466Y-118379952D01*
X140457228Y-118332333D01*
X140409609Y-118284714D01*
X140361990Y-118189476D01*
X140314371Y-117999000D01*
X140266752Y-117903761D01*
X140219133Y-117856142D01*
X140123895Y-117808523D01*
X140028657Y-117808523D01*
X139933419Y-117856142D01*
X139885800Y-117903761D01*
X139838180Y-117999000D01*
X139838180Y-118237095D01*
X139885800Y-118379952D01*
X140742942Y-119379952D02*
X140790561Y-119332333D01*
X140838180Y-119189476D01*
X140838180Y-119094238D01*
X140790561Y-118951380D01*
X140695323Y-118856142D01*
X140600085Y-118808523D01*
X140409609Y-118760904D01*
X140266752Y-118760904D01*
X140076276Y-118808523D01*
X139981038Y-118856142D01*
X139885800Y-118951380D01*
X139838180Y-119094238D01*
X139838180Y-119189476D01*
X139885800Y-119332333D01*
X139933419Y-119379952D01*
X140838180Y-120284714D02*
X140838180Y-119808523D01*
X139838180Y-119808523D01*
X143330561Y-117784714D02*
X143378180Y-117927571D01*
X143378180Y-118165666D01*
X143330561Y-118260904D01*
X143282942Y-118308523D01*
X143187704Y-118356142D01*
X143092466Y-118356142D01*
X142997228Y-118308523D01*
X142949609Y-118260904D01*
X142901990Y-118165666D01*
X142854371Y-117975190D01*
X142806752Y-117879952D01*
X142759133Y-117832333D01*
X142663895Y-117784714D01*
X142568657Y-117784714D01*
X142473419Y-117832333D01*
X142425800Y-117879952D01*
X142378180Y-117975190D01*
X142378180Y-118213285D01*
X142425800Y-118356142D01*
X143378180Y-118784714D02*
X142378180Y-118784714D01*
X142378180Y-119022809D01*
X142425800Y-119165666D01*
X142521038Y-119260904D01*
X142616276Y-119308523D01*
X142806752Y-119356142D01*
X142949609Y-119356142D01*
X143140085Y-119308523D01*
X143235323Y-119260904D01*
X143330561Y-119165666D01*
X143378180Y-119022809D01*
X143378180Y-118784714D01*
X143092466Y-119737095D02*
X143092466Y-120213285D01*
X143378180Y-119641857D02*
X142378180Y-119975190D01*
X143378180Y-120308523D01*
X145113120Y-118237095D02*
X145065500Y-118141857D01*
X145065500Y-117999000D01*
X145113120Y-117856142D01*
X145208358Y-117760904D01*
X145303596Y-117713285D01*
X145494072Y-117665666D01*
X145636929Y-117665666D01*
X145827405Y-117713285D01*
X145922643Y-117760904D01*
X146017881Y-117856142D01*
X146065500Y-117999000D01*
X146065500Y-118094238D01*
X146017881Y-118237095D01*
X145970262Y-118284714D01*
X145636929Y-118284714D01*
X145636929Y-118094238D01*
X146065500Y-118713285D02*
X145065500Y-118713285D01*
X146065500Y-119284714D01*
X145065500Y-119284714D01*
X146065500Y-119760904D02*
X145065500Y-119760904D01*
X145065500Y-119999000D01*
X145113120Y-120141857D01*
X145208358Y-120237095D01*
X145303596Y-120284714D01*
X145494072Y-120332333D01*
X145636929Y-120332333D01*
X145827405Y-120284714D01*
X145922643Y-120237095D01*
X146017881Y-120141857D01*
X146065500Y-119999000D01*
X146065500Y-119760904D01*
X165433120Y-118237095D02*
X165385500Y-118141857D01*
X165385500Y-117999000D01*
X165433120Y-117856142D01*
X165528358Y-117760904D01*
X165623596Y-117713285D01*
X165814072Y-117665666D01*
X165956929Y-117665666D01*
X166147405Y-117713285D01*
X166242643Y-117760904D01*
X166337881Y-117856142D01*
X166385500Y-117999000D01*
X166385500Y-118094238D01*
X166337881Y-118237095D01*
X166290262Y-118284714D01*
X165956929Y-118284714D01*
X165956929Y-118094238D01*
X166385500Y-118713285D02*
X165385500Y-118713285D01*
X166385500Y-119284714D01*
X165385500Y-119284714D01*
X166385500Y-119760904D02*
X165385500Y-119760904D01*
X165385500Y-119999000D01*
X165433120Y-120141857D01*
X165528358Y-120237095D01*
X165623596Y-120284714D01*
X165814072Y-120332333D01*
X165956929Y-120332333D01*
X166147405Y-120284714D01*
X166242643Y-120237095D01*
X166337881Y-120141857D01*
X166385500Y-119999000D01*
X166385500Y-119760904D01*
D11*
X173072600Y-87233000D02*
X175872600Y-87233000D01*
X175872600Y-87233000D02*
X175872600Y-85233000D01*
X175872600Y-85233000D02*
X173072600Y-85233000D01*
X173072600Y-85233000D02*
X173072600Y-87233000D01*
X158458600Y-117078000D02*
X158458600Y-115078000D01*
X155658600Y-117078000D02*
X158458600Y-117078000D01*
X155658600Y-115078000D02*
X155658600Y-117078000D01*
X158458600Y-115078000D02*
X155658600Y-115078000D01*
X164088600Y-115754000D02*
X163788600Y-116054000D01*
X164388600Y-116054000D02*
X163788600Y-116054000D01*
X164088600Y-115754000D02*
X164388600Y-116054000D01*
X164838600Y-115554000D02*
X164838600Y-113554000D01*
X160738600Y-115554000D02*
X164838600Y-115554000D01*
X160738600Y-113554000D02*
X160738600Y-115554000D01*
X164838600Y-113554000D02*
X160738600Y-113554000D01*
D13*
G36*
X155429433Y-94522457D02*
G01*
X155353956Y-94574875D01*
X155282900Y-94635988D01*
X155276099Y-96629358D01*
X155274618Y-97012969D01*
X155272930Y-97348460D01*
X155270984Y-97638508D01*
X155268729Y-97885793D01*
X155266115Y-98092993D01*
X155263091Y-98262788D01*
X155259607Y-98397856D01*
X155255612Y-98500875D01*
X155251055Y-98574526D01*
X155245887Y-98621486D01*
X155240056Y-98644435D01*
X155237999Y-98647179D01*
X155192354Y-98672774D01*
X155130500Y-98698116D01*
X155061479Y-98722906D01*
X155010430Y-98742397D01*
X155001343Y-98743717D01*
X154993564Y-98737278D01*
X154986972Y-98719383D01*
X154981441Y-98686334D01*
X154976849Y-98634436D01*
X154973072Y-98559991D01*
X154969986Y-98459302D01*
X154967468Y-98328673D01*
X154965394Y-98164408D01*
X154963641Y-97962808D01*
X154962085Y-97720177D01*
X154960602Y-97432819D01*
X154959630Y-97222841D01*
X154958165Y-96905180D01*
X154956757Y-96634371D01*
X154955258Y-96406466D01*
X154953520Y-96217517D01*
X154951396Y-96063577D01*
X154948737Y-95940697D01*
X154945395Y-95844929D01*
X154941223Y-95772326D01*
X154936072Y-95718940D01*
X154929794Y-95680823D01*
X154922241Y-95654027D01*
X154913266Y-95634605D01*
X154902720Y-95618608D01*
X154899316Y-95614005D01*
X154818409Y-95540307D01*
X154724877Y-95513594D01*
X154626012Y-95535536D01*
X154605042Y-95546606D01*
X154540113Y-95596039D01*
X154492904Y-95651741D01*
X154489582Y-95657790D01*
X154482959Y-95682861D01*
X154477243Y-95731982D01*
X154472382Y-95808074D01*
X154468321Y-95914058D01*
X154465008Y-96052854D01*
X154462390Y-96227385D01*
X154460413Y-96440569D01*
X154459023Y-96695328D01*
X154458168Y-96994584D01*
X154457794Y-97341256D01*
X154457775Y-97400481D01*
X154457400Y-99081063D01*
X154312097Y-99222931D01*
X154166794Y-99364800D01*
X152468643Y-99364799D01*
X150770493Y-99364799D01*
X150696247Y-99439046D01*
X150633900Y-99531168D01*
X150620713Y-99628853D01*
X150656686Y-99724861D01*
X150696247Y-99773153D01*
X150770493Y-99847400D01*
X153853308Y-99847400D01*
X153836129Y-99915843D01*
X153813742Y-99988700D01*
X153783972Y-100068003D01*
X153783872Y-100068243D01*
X153748793Y-100152200D01*
X151836147Y-100152805D01*
X151515045Y-100153216D01*
X151210048Y-100154207D01*
X150925074Y-100155733D01*
X150664039Y-100157747D01*
X150430862Y-100160202D01*
X150229459Y-100163051D01*
X150063747Y-100166248D01*
X149937643Y-100169745D01*
X149855065Y-100173495D01*
X149821900Y-100176876D01*
X149716721Y-100221790D01*
X149644483Y-100294138D01*
X149609145Y-100383694D01*
X149614665Y-100480234D01*
X149665002Y-100573534D01*
X149667295Y-100576233D01*
X149728589Y-100647500D01*
X151686595Y-100654311D01*
X153644600Y-100661122D01*
X153644600Y-100965000D01*
X151751485Y-100965000D01*
X151384731Y-100965017D01*
X151065337Y-100965210D01*
X150789862Y-100965792D01*
X150554866Y-100966975D01*
X150356910Y-100968971D01*
X150192552Y-100971994D01*
X150058352Y-100976255D01*
X149950870Y-100981967D01*
X149866665Y-100989343D01*
X149802299Y-100998595D01*
X149754329Y-101009936D01*
X149719316Y-101023578D01*
X149693820Y-101039733D01*
X149674400Y-101058615D01*
X149657616Y-101080435D01*
X149647420Y-101094968D01*
X149609921Y-101189480D01*
X149615875Y-101291787D01*
X149664160Y-101385314D01*
X149667295Y-101389033D01*
X149728589Y-101460300D01*
X153742887Y-101473898D01*
X153795344Y-101614102D01*
X153823433Y-101691016D01*
X153842470Y-101746661D01*
X153847800Y-101766052D01*
X153823143Y-101768190D01*
X153752141Y-101770207D01*
X153639251Y-101772067D01*
X153488927Y-101773735D01*
X153305626Y-101775176D01*
X153093802Y-101776352D01*
X152857912Y-101777229D01*
X152602412Y-101777771D01*
X152368250Y-101777941D01*
X152037070Y-101778426D01*
X151739349Y-101779788D01*
X151477579Y-101781985D01*
X151254251Y-101784976D01*
X151071858Y-101788721D01*
X150932890Y-101793179D01*
X150839839Y-101798308D01*
X150796062Y-101803814D01*
X150705231Y-101852719D01*
X150644500Y-101932734D01*
X150619415Y-102030500D01*
X150635519Y-102132656D01*
X150648153Y-102160206D01*
X150661484Y-102184360D01*
X150676175Y-102205201D01*
X150695847Y-102222973D01*
X150724124Y-102237922D01*
X150764626Y-102250296D01*
X150820976Y-102260339D01*
X150896795Y-102268297D01*
X150995704Y-102274416D01*
X151121327Y-102278943D01*
X151277283Y-102282122D01*
X151467196Y-102284201D01*
X151694687Y-102285424D01*
X151963377Y-102286037D01*
X152276889Y-102286287D01*
X152506689Y-102286371D01*
X154190700Y-102286942D01*
X154326426Y-102422723D01*
X154462151Y-102558504D01*
X154458679Y-104237392D01*
X154457993Y-104581782D01*
X154457623Y-104878999D01*
X154457814Y-105132668D01*
X154458806Y-105346416D01*
X154460843Y-105523869D01*
X154464168Y-105668653D01*
X154469023Y-105784395D01*
X154475651Y-105874720D01*
X154484294Y-105943256D01*
X154495196Y-105993628D01*
X154508598Y-106029462D01*
X154524744Y-106054386D01*
X154543876Y-106072024D01*
X154566237Y-106086003D01*
X154582994Y-106095047D01*
X154663426Y-106117423D01*
X154759096Y-106117457D01*
X154839619Y-106095147D01*
X154839807Y-106095047D01*
X154865126Y-106080869D01*
X154886790Y-106064945D01*
X154905085Y-106043448D01*
X154920295Y-106012553D01*
X154932706Y-105968435D01*
X154942602Y-105907269D01*
X154950267Y-105825230D01*
X154955987Y-105718492D01*
X154960047Y-105583231D01*
X154962730Y-105415620D01*
X154964323Y-105211836D01*
X154965109Y-104968052D01*
X154965373Y-104680444D01*
X154965400Y-104407961D01*
X154965592Y-104135990D01*
X154966144Y-103879716D01*
X154967022Y-103643543D01*
X154968192Y-103431879D01*
X154969619Y-103249131D01*
X154971270Y-103099705D01*
X154973110Y-102988009D01*
X154975105Y-102918447D01*
X154977148Y-102895400D01*
X155005374Y-102903610D01*
X155066523Y-102924894D01*
X155129548Y-102948024D01*
X155270200Y-103000649D01*
X155270200Y-104968586D01*
X155270302Y-105336997D01*
X155270647Y-105657946D01*
X155271298Y-105934772D01*
X155272319Y-106170811D01*
X155273772Y-106369402D01*
X155275720Y-106533883D01*
X155278226Y-106667591D01*
X155281351Y-106773865D01*
X155285160Y-106856042D01*
X155289714Y-106917460D01*
X155295076Y-106961457D01*
X155301309Y-106991371D01*
X155308476Y-107010539D01*
X155308563Y-107010708D01*
X155376234Y-107094007D01*
X155467148Y-107134221D01*
X155574836Y-107129471D01*
X155639210Y-107106854D01*
X155664461Y-107095483D01*
X155686454Y-107083678D01*
X155705415Y-107068062D01*
X155721568Y-107045255D01*
X155735137Y-107011880D01*
X155746348Y-106964556D01*
X155755426Y-106899906D01*
X155762595Y-106814550D01*
X155768080Y-106705111D01*
X155772105Y-106568208D01*
X155774896Y-106400465D01*
X155776678Y-106198502D01*
X155777674Y-105958939D01*
X155778110Y-105678400D01*
X155778211Y-105353504D01*
X155778200Y-105017561D01*
X155778200Y-103098600D01*
X156083000Y-103098600D01*
X156083000Y-105017561D01*
X156083105Y-105381151D01*
X156083462Y-105697324D01*
X156084136Y-105969463D01*
X156085192Y-106200949D01*
X156086696Y-106395165D01*
X156088713Y-106555494D01*
X156091307Y-106685318D01*
X156094545Y-106788020D01*
X156098490Y-106866981D01*
X156103208Y-106925586D01*
X156108765Y-106967215D01*
X156115225Y-106995251D01*
X156121363Y-107010708D01*
X156188429Y-107093285D01*
X156276278Y-107133983D01*
X156374593Y-107131090D01*
X156473058Y-107082893D01*
X156487452Y-107071442D01*
X156565600Y-107005684D01*
X156565947Y-105058492D01*
X156566196Y-104747266D01*
X156566808Y-104449957D01*
X156567753Y-104170601D01*
X156568998Y-103913233D01*
X156570514Y-103681887D01*
X156572270Y-103480599D01*
X156574233Y-103313405D01*
X156576372Y-103184338D01*
X156578658Y-103097435D01*
X156581058Y-103056730D01*
X156581402Y-103054944D01*
X156612829Y-103009570D01*
X156685532Y-102966894D01*
X156734408Y-102946994D01*
X156810660Y-102919163D01*
X156865561Y-102900431D01*
X156884053Y-102895400D01*
X156886148Y-102920071D01*
X156888123Y-102991174D01*
X156889945Y-103104338D01*
X156891581Y-103255195D01*
X156892998Y-103439374D01*
X156894161Y-103652508D01*
X156895038Y-103890227D01*
X156895596Y-104148162D01*
X156895800Y-104421944D01*
X156895800Y-105972707D01*
X156970047Y-106046953D01*
X157061498Y-106107819D01*
X157161569Y-106123920D01*
X157258306Y-106094985D01*
X157310918Y-106054755D01*
X157377363Y-105988310D01*
X157384232Y-104275249D01*
X157391100Y-102562188D01*
X157534917Y-102423994D01*
X157678733Y-102285800D01*
X159347178Y-102285800D01*
X159693684Y-102285792D01*
X159992965Y-102285569D01*
X160248597Y-102284826D01*
X160464154Y-102283260D01*
X160643213Y-102280567D01*
X160789349Y-102276444D01*
X160906137Y-102270588D01*
X160997152Y-102262695D01*
X161065970Y-102252462D01*
X161116166Y-102239586D01*
X161151315Y-102223762D01*
X161174992Y-102204689D01*
X161190774Y-102182062D01*
X161202234Y-102155577D01*
X161212032Y-102127554D01*
X161235654Y-102035281D01*
X161227297Y-101964488D01*
X161183115Y-101894358D01*
X161165095Y-101873450D01*
X161090989Y-101790500D01*
X159549587Y-101783570D01*
X158008184Y-101776640D01*
X158025217Y-101708776D01*
X158047477Y-101636400D01*
X158077179Y-101557316D01*
X158077329Y-101556956D01*
X158112408Y-101473000D01*
X160083466Y-101473000D01*
X160457100Y-101473026D01*
X160783259Y-101472950D01*
X161065267Y-101472534D01*
X161306449Y-101471544D01*
X161510129Y-101469744D01*
X161679632Y-101466898D01*
X161818283Y-101462772D01*
X161929406Y-101457128D01*
X162016326Y-101449733D01*
X162082366Y-101440350D01*
X162130853Y-101428744D01*
X162165110Y-101414679D01*
X162188462Y-101397920D01*
X162204233Y-101378230D01*
X162215748Y-101355376D01*
X162226332Y-101329121D01*
X162229655Y-101320952D01*
X162247570Y-101216602D01*
X162219260Y-101116474D01*
X162148525Y-101033612D01*
X162145192Y-101031084D01*
X162131201Y-101021187D01*
X162115238Y-101012581D01*
X162093825Y-101005162D01*
X162063482Y-100998826D01*
X162020730Y-100993470D01*
X161962089Y-100988987D01*
X161884079Y-100985275D01*
X161783221Y-100982229D01*
X161656035Y-100979744D01*
X161499043Y-100977716D01*
X161308764Y-100976041D01*
X161081718Y-100974614D01*
X160814427Y-100973332D01*
X160503411Y-100972089D01*
X160145190Y-100970782D01*
X160132452Y-100970736D01*
X158191200Y-100963773D01*
X158191200Y-100878774D01*
X157698701Y-100878774D01*
X157666771Y-101163928D01*
X157587147Y-101439260D01*
X157460864Y-101701412D01*
X157288957Y-101947029D01*
X157072462Y-102172752D01*
X157021959Y-102216863D01*
X156819577Y-102357279D01*
X156585743Y-102466425D01*
X156330651Y-102542122D01*
X156064497Y-102582190D01*
X155797474Y-102584451D01*
X155539776Y-102546723D01*
X155511491Y-102539797D01*
X155393286Y-102505772D01*
X155272766Y-102464992D01*
X155175628Y-102426167D01*
X155174005Y-102425427D01*
X154926810Y-102285061D01*
X154707376Y-102105729D01*
X154519316Y-101893157D01*
X154366244Y-101653071D01*
X154251774Y-101391199D01*
X154179518Y-101113267D01*
X154153091Y-100825002D01*
X154153042Y-100807320D01*
X154172323Y-100552979D01*
X154231123Y-100306360D01*
X154332749Y-100054096D01*
X154346525Y-100025751D01*
X154414361Y-99897148D01*
X154482086Y-99792178D01*
X154563005Y-99692544D01*
X154670425Y-99579947D01*
X154671486Y-99578885D01*
X154783507Y-99471826D01*
X154882143Y-99391396D01*
X154985558Y-99324408D01*
X155111917Y-99257678D01*
X155118352Y-99254510D01*
X155324591Y-99162346D01*
X155511293Y-99100858D01*
X155695758Y-99065739D01*
X155895285Y-99052684D01*
X155930600Y-99052353D01*
X156221567Y-99076026D01*
X156499732Y-99146347D01*
X156760318Y-99259800D01*
X156998552Y-99412870D01*
X157209657Y-99602043D01*
X157388860Y-99823804D01*
X157531385Y-100074637D01*
X157615337Y-100292427D01*
X157681901Y-100587155D01*
X157698701Y-100878774D01*
X158191200Y-100878774D01*
X158191200Y-100660200D01*
X160122862Y-100660200D01*
X160492150Y-100660209D01*
X160814006Y-100660090D01*
X161091796Y-100659620D01*
X161328889Y-100658575D01*
X161528651Y-100656733D01*
X161694451Y-100653872D01*
X161829655Y-100649769D01*
X161937631Y-100644201D01*
X162021746Y-100636945D01*
X162085368Y-100627779D01*
X162131864Y-100616481D01*
X162164602Y-100602827D01*
X162186948Y-100586595D01*
X162202271Y-100567562D01*
X162213937Y-100545505D01*
X162224855Y-100521209D01*
X162247786Y-100452836D01*
X162255200Y-100402575D01*
X162232770Y-100323556D01*
X162174636Y-100248396D01*
X162094534Y-100192637D01*
X162057256Y-100178633D01*
X162011370Y-100173184D01*
X161915830Y-100168332D01*
X161771778Y-100164093D01*
X161580356Y-100160481D01*
X161342706Y-100157511D01*
X161059971Y-100155198D01*
X160733292Y-100153556D01*
X160363813Y-100152601D01*
X160032312Y-100152341D01*
X158101524Y-100152199D01*
X158051562Y-100018850D01*
X158022537Y-99942175D01*
X158000561Y-99885560D01*
X157992683Y-99866450D01*
X158015745Y-99863070D01*
X158085291Y-99859881D01*
X158197005Y-99856938D01*
X158346569Y-99854293D01*
X158529669Y-99851999D01*
X158741988Y-99850109D01*
X158979211Y-99848678D01*
X159237020Y-99847758D01*
X159511099Y-99847402D01*
X159536438Y-99847400D01*
X161089110Y-99847400D01*
X161150422Y-99786087D01*
X161198930Y-99722809D01*
X161228345Y-99658594D01*
X161228423Y-99574850D01*
X161198597Y-99484478D01*
X161147776Y-99413627D01*
X161143683Y-99410092D01*
X161125342Y-99403327D01*
X161085556Y-99397310D01*
X161021297Y-99391962D01*
X160929534Y-99387206D01*
X160807241Y-99382964D01*
X160651387Y-99379157D01*
X160458944Y-99375709D01*
X160226882Y-99372541D01*
X159952174Y-99369575D01*
X159631790Y-99366733D01*
X159381830Y-99364800D01*
X157659230Y-99352100D01*
X157518815Y-99208270D01*
X157378400Y-99064441D01*
X157378400Y-97359266D01*
X157378401Y-95654090D01*
X157317088Y-95592778D01*
X157254821Y-95544605D01*
X157192241Y-95515519D01*
X157111737Y-95517336D01*
X157024660Y-95550920D01*
X156952578Y-95605742D01*
X156924720Y-95646119D01*
X156918043Y-95678802D01*
X156912319Y-95746754D01*
X156907513Y-95852011D01*
X156903586Y-95996609D01*
X156900501Y-96182585D01*
X156898222Y-96411977D01*
X156896712Y-96686820D01*
X156895933Y-97009152D01*
X156895800Y-97235112D01*
X156895737Y-97551716D01*
X156895475Y-97821236D01*
X156894903Y-98047387D01*
X156893913Y-98233885D01*
X156892394Y-98384446D01*
X156890238Y-98502785D01*
X156887334Y-98592618D01*
X156883574Y-98657660D01*
X156878847Y-98701627D01*
X156873044Y-98728236D01*
X156866056Y-98741201D01*
X156857772Y-98744237D01*
X156851350Y-98742530D01*
X156800146Y-98723017D01*
X156725764Y-98696080D01*
X156699547Y-98686828D01*
X156592194Y-98649231D01*
X156585247Y-96663865D01*
X156583915Y-96298432D01*
X156582591Y-95980382D01*
X156581187Y-95706296D01*
X156579616Y-95472757D01*
X156577790Y-95276347D01*
X156575621Y-95113649D01*
X156573023Y-94981244D01*
X156569906Y-94875716D01*
X156566184Y-94793647D01*
X156561769Y-94731619D01*
X156556574Y-94686214D01*
X156550510Y-94654014D01*
X156543490Y-94631603D01*
X156535426Y-94615562D01*
X156532612Y-94611218D01*
X156455773Y-94534576D01*
X156363456Y-94499847D01*
X156266858Y-94511032D01*
X156259940Y-94513756D01*
X156187441Y-94557533D01*
X156132940Y-94609163D01*
X156123674Y-94622187D01*
X156115631Y-94638385D01*
X156108724Y-94661223D01*
X156102866Y-94694168D01*
X156097973Y-94740687D01*
X156093956Y-94804247D01*
X156090729Y-94888315D01*
X156088206Y-94996359D01*
X156086302Y-95131845D01*
X156084928Y-95298240D01*
X156083999Y-95499011D01*
X156083428Y-95737625D01*
X156083129Y-96017549D01*
X156083016Y-96342250D01*
X156083000Y-96612325D01*
X156083000Y-98552000D01*
X155779427Y-98552000D01*
X155772464Y-96614116D01*
X155771187Y-96246592D01*
X155770010Y-95926470D01*
X155768683Y-95650352D01*
X155766958Y-95414840D01*
X155764584Y-95216538D01*
X155761312Y-95052048D01*
X155756894Y-94917972D01*
X155751079Y-94810914D01*
X155743618Y-94727475D01*
X155734263Y-94664259D01*
X155722763Y-94617868D01*
X155708869Y-94584905D01*
X155692331Y-94561973D01*
X155672902Y-94545673D01*
X155650330Y-94532610D01*
X155624367Y-94519384D01*
X155618487Y-94516282D01*
X155527226Y-94494494D01*
X155429433Y-94522457D01*
G37*
X155429433Y-94522457D02*
X155353956Y-94574875D01*
X155282900Y-94635988D01*
X155276099Y-96629358D01*
X155274618Y-97012969D01*
X155272930Y-97348460D01*
X155270984Y-97638508D01*
X155268729Y-97885793D01*
X155266115Y-98092993D01*
X155263091Y-98262788D01*
X155259607Y-98397856D01*
X155255612Y-98500875D01*
X155251055Y-98574526D01*
X155245887Y-98621486D01*
X155240056Y-98644435D01*
X155237999Y-98647179D01*
X155192354Y-98672774D01*
X155130500Y-98698116D01*
X155061479Y-98722906D01*
X155010430Y-98742397D01*
X155001343Y-98743717D01*
X154993564Y-98737278D01*
X154986972Y-98719383D01*
X154981441Y-98686334D01*
X154976849Y-98634436D01*
X154973072Y-98559991D01*
X154969986Y-98459302D01*
X154967468Y-98328673D01*
X154965394Y-98164408D01*
X154963641Y-97962808D01*
X154962085Y-97720177D01*
X154960602Y-97432819D01*
X154959630Y-97222841D01*
X154958165Y-96905180D01*
X154956757Y-96634371D01*
X154955258Y-96406466D01*
X154953520Y-96217517D01*
X154951396Y-96063577D01*
X154948737Y-95940697D01*
X154945395Y-95844929D01*
X154941223Y-95772326D01*
X154936072Y-95718940D01*
X154929794Y-95680823D01*
X154922241Y-95654027D01*
X154913266Y-95634605D01*
X154902720Y-95618608D01*
X154899316Y-95614005D01*
X154818409Y-95540307D01*
X154724877Y-95513594D01*
X154626012Y-95535536D01*
X154605042Y-95546606D01*
X154540113Y-95596039D01*
X154492904Y-95651741D01*
X154489582Y-95657790D01*
X154482959Y-95682861D01*
X154477243Y-95731982D01*
X154472382Y-95808074D01*
X154468321Y-95914058D01*
X154465008Y-96052854D01*
X154462390Y-96227385D01*
X154460413Y-96440569D01*
X154459023Y-96695328D01*
X154458168Y-96994584D01*
X154457794Y-97341256D01*
X154457775Y-97400481D01*
X154457400Y-99081063D01*
X154312097Y-99222931D01*
X154166794Y-99364800D01*
X152468643Y-99364799D01*
X150770493Y-99364799D01*
X150696247Y-99439046D01*
X150633900Y-99531168D01*
X150620713Y-99628853D01*
X150656686Y-99724861D01*
X150696247Y-99773153D01*
X150770493Y-99847400D01*
X153853308Y-99847400D01*
X153836129Y-99915843D01*
X153813742Y-99988700D01*
X153783972Y-100068003D01*
X153783872Y-100068243D01*
X153748793Y-100152200D01*
X151836147Y-100152805D01*
X151515045Y-100153216D01*
X151210048Y-100154207D01*
X150925074Y-100155733D01*
X150664039Y-100157747D01*
X150430862Y-100160202D01*
X150229459Y-100163051D01*
X150063747Y-100166248D01*
X149937643Y-100169745D01*
X149855065Y-100173495D01*
X149821900Y-100176876D01*
X149716721Y-100221790D01*
X149644483Y-100294138D01*
X149609145Y-100383694D01*
X149614665Y-100480234D01*
X149665002Y-100573534D01*
X149667295Y-100576233D01*
X149728589Y-100647500D01*
X151686595Y-100654311D01*
X153644600Y-100661122D01*
X153644600Y-100965000D01*
X151751485Y-100965000D01*
X151384731Y-100965017D01*
X151065337Y-100965210D01*
X150789862Y-100965792D01*
X150554866Y-100966975D01*
X150356910Y-100968971D01*
X150192552Y-100971994D01*
X150058352Y-100976255D01*
X149950870Y-100981967D01*
X149866665Y-100989343D01*
X149802299Y-100998595D01*
X149754329Y-101009936D01*
X149719316Y-101023578D01*
X149693820Y-101039733D01*
X149674400Y-101058615D01*
X149657616Y-101080435D01*
X149647420Y-101094968D01*
X149609921Y-101189480D01*
X149615875Y-101291787D01*
X149664160Y-101385314D01*
X149667295Y-101389033D01*
X149728589Y-101460300D01*
X153742887Y-101473898D01*
X153795344Y-101614102D01*
X153823433Y-101691016D01*
X153842470Y-101746661D01*
X153847800Y-101766052D01*
X153823143Y-101768190D01*
X153752141Y-101770207D01*
X153639251Y-101772067D01*
X153488927Y-101773735D01*
X153305626Y-101775176D01*
X153093802Y-101776352D01*
X152857912Y-101777229D01*
X152602412Y-101777771D01*
X152368250Y-101777941D01*
X152037070Y-101778426D01*
X151739349Y-101779788D01*
X151477579Y-101781985D01*
X151254251Y-101784976D01*
X151071858Y-101788721D01*
X150932890Y-101793179D01*
X150839839Y-101798308D01*
X150796062Y-101803814D01*
X150705231Y-101852719D01*
X150644500Y-101932734D01*
X150619415Y-102030500D01*
X150635519Y-102132656D01*
X150648153Y-102160206D01*
X150661484Y-102184360D01*
X150676175Y-102205201D01*
X150695847Y-102222973D01*
X150724124Y-102237922D01*
X150764626Y-102250296D01*
X150820976Y-102260339D01*
X150896795Y-102268297D01*
X150995704Y-102274416D01*
X151121327Y-102278943D01*
X151277283Y-102282122D01*
X151467196Y-102284201D01*
X151694687Y-102285424D01*
X151963377Y-102286037D01*
X152276889Y-102286287D01*
X152506689Y-102286371D01*
X154190700Y-102286942D01*
X154326426Y-102422723D01*
X154462151Y-102558504D01*
X154458679Y-104237392D01*
X154457993Y-104581782D01*
X154457623Y-104878999D01*
X154457814Y-105132668D01*
X154458806Y-105346416D01*
X154460843Y-105523869D01*
X154464168Y-105668653D01*
X154469023Y-105784395D01*
X154475651Y-105874720D01*
X154484294Y-105943256D01*
X154495196Y-105993628D01*
X154508598Y-106029462D01*
X154524744Y-106054386D01*
X154543876Y-106072024D01*
X154566237Y-106086003D01*
X154582994Y-106095047D01*
X154663426Y-106117423D01*
X154759096Y-106117457D01*
X154839619Y-106095147D01*
X154839807Y-106095047D01*
X154865126Y-106080869D01*
X154886790Y-106064945D01*
X154905085Y-106043448D01*
X154920295Y-106012553D01*
X154932706Y-105968435D01*
X154942602Y-105907269D01*
X154950267Y-105825230D01*
X154955987Y-105718492D01*
X154960047Y-105583231D01*
X154962730Y-105415620D01*
X154964323Y-105211836D01*
X154965109Y-104968052D01*
X154965373Y-104680444D01*
X154965400Y-104407961D01*
X154965592Y-104135990D01*
X154966144Y-103879716D01*
X154967022Y-103643543D01*
X154968192Y-103431879D01*
X154969619Y-103249131D01*
X154971270Y-103099705D01*
X154973110Y-102988009D01*
X154975105Y-102918447D01*
X154977148Y-102895400D01*
X155005374Y-102903610D01*
X155066523Y-102924894D01*
X155129548Y-102948024D01*
X155270200Y-103000649D01*
X155270200Y-104968586D01*
X155270302Y-105336997D01*
X155270647Y-105657946D01*
X155271298Y-105934772D01*
X155272319Y-106170811D01*
X155273772Y-106369402D01*
X155275720Y-106533883D01*
X155278226Y-106667591D01*
X155281351Y-106773865D01*
X155285160Y-106856042D01*
X155289714Y-106917460D01*
X155295076Y-106961457D01*
X155301309Y-106991371D01*
X155308476Y-107010539D01*
X155308563Y-107010708D01*
X155376234Y-107094007D01*
X155467148Y-107134221D01*
X155574836Y-107129471D01*
X155639210Y-107106854D01*
X155664461Y-107095483D01*
X155686454Y-107083678D01*
X155705415Y-107068062D01*
X155721568Y-107045255D01*
X155735137Y-107011880D01*
X155746348Y-106964556D01*
X155755426Y-106899906D01*
X155762595Y-106814550D01*
X155768080Y-106705111D01*
X155772105Y-106568208D01*
X155774896Y-106400465D01*
X155776678Y-106198502D01*
X155777674Y-105958939D01*
X155778110Y-105678400D01*
X155778211Y-105353504D01*
X155778200Y-105017561D01*
X155778200Y-103098600D01*
X156083000Y-103098600D01*
X156083000Y-105017561D01*
X156083105Y-105381151D01*
X156083462Y-105697324D01*
X156084136Y-105969463D01*
X156085192Y-106200949D01*
X156086696Y-106395165D01*
X156088713Y-106555494D01*
X156091307Y-106685318D01*
X156094545Y-106788020D01*
X156098490Y-106866981D01*
X156103208Y-106925586D01*
X156108765Y-106967215D01*
X156115225Y-106995251D01*
X156121363Y-107010708D01*
X156188429Y-107093285D01*
X156276278Y-107133983D01*
X156374593Y-107131090D01*
X156473058Y-107082893D01*
X156487452Y-107071442D01*
X156565600Y-107005684D01*
X156565947Y-105058492D01*
X156566196Y-104747266D01*
X156566808Y-104449957D01*
X156567753Y-104170601D01*
X156568998Y-103913233D01*
X156570514Y-103681887D01*
X156572270Y-103480599D01*
X156574233Y-103313405D01*
X156576372Y-103184338D01*
X156578658Y-103097435D01*
X156581058Y-103056730D01*
X156581402Y-103054944D01*
X156612829Y-103009570D01*
X156685532Y-102966894D01*
X156734408Y-102946994D01*
X156810660Y-102919163D01*
X156865561Y-102900431D01*
X156884053Y-102895400D01*
X156886148Y-102920071D01*
X156888123Y-102991174D01*
X156889945Y-103104338D01*
X156891581Y-103255195D01*
X156892998Y-103439374D01*
X156894161Y-103652508D01*
X156895038Y-103890227D01*
X156895596Y-104148162D01*
X156895800Y-104421944D01*
X156895800Y-105972707D01*
X156970047Y-106046953D01*
X157061498Y-106107819D01*
X157161569Y-106123920D01*
X157258306Y-106094985D01*
X157310918Y-106054755D01*
X157377363Y-105988310D01*
X157384232Y-104275249D01*
X157391100Y-102562188D01*
X157534917Y-102423994D01*
X157678733Y-102285800D01*
X159347178Y-102285800D01*
X159693684Y-102285792D01*
X159992965Y-102285569D01*
X160248597Y-102284826D01*
X160464154Y-102283260D01*
X160643213Y-102280567D01*
X160789349Y-102276444D01*
X160906137Y-102270588D01*
X160997152Y-102262695D01*
X161065970Y-102252462D01*
X161116166Y-102239586D01*
X161151315Y-102223762D01*
X161174992Y-102204689D01*
X161190774Y-102182062D01*
X161202234Y-102155577D01*
X161212032Y-102127554D01*
X161235654Y-102035281D01*
X161227297Y-101964488D01*
X161183115Y-101894358D01*
X161165095Y-101873450D01*
X161090989Y-101790500D01*
X159549587Y-101783570D01*
X158008184Y-101776640D01*
X158025217Y-101708776D01*
X158047477Y-101636400D01*
X158077179Y-101557316D01*
X158077329Y-101556956D01*
X158112408Y-101473000D01*
X160083466Y-101473000D01*
X160457100Y-101473026D01*
X160783259Y-101472950D01*
X161065267Y-101472534D01*
X161306449Y-101471544D01*
X161510129Y-101469744D01*
X161679632Y-101466898D01*
X161818283Y-101462772D01*
X161929406Y-101457128D01*
X162016326Y-101449733D01*
X162082366Y-101440350D01*
X162130853Y-101428744D01*
X162165110Y-101414679D01*
X162188462Y-101397920D01*
X162204233Y-101378230D01*
X162215748Y-101355376D01*
X162226332Y-101329121D01*
X162229655Y-101320952D01*
X162247570Y-101216602D01*
X162219260Y-101116474D01*
X162148525Y-101033612D01*
X162145192Y-101031084D01*
X162131201Y-101021187D01*
X162115238Y-101012581D01*
X162093825Y-101005162D01*
X162063482Y-100998826D01*
X162020730Y-100993470D01*
X161962089Y-100988987D01*
X161884079Y-100985275D01*
X161783221Y-100982229D01*
X161656035Y-100979744D01*
X161499043Y-100977716D01*
X161308764Y-100976041D01*
X161081718Y-100974614D01*
X160814427Y-100973332D01*
X160503411Y-100972089D01*
X160145190Y-100970782D01*
X160132452Y-100970736D01*
X158191200Y-100963773D01*
X158191200Y-100878774D01*
X157698701Y-100878774D01*
X157666771Y-101163928D01*
X157587147Y-101439260D01*
X157460864Y-101701412D01*
X157288957Y-101947029D01*
X157072462Y-102172752D01*
X157021959Y-102216863D01*
X156819577Y-102357279D01*
X156585743Y-102466425D01*
X156330651Y-102542122D01*
X156064497Y-102582190D01*
X155797474Y-102584451D01*
X155539776Y-102546723D01*
X155511491Y-102539797D01*
X155393286Y-102505772D01*
X155272766Y-102464992D01*
X155175628Y-102426167D01*
X155174005Y-102425427D01*
X154926810Y-102285061D01*
X154707376Y-102105729D01*
X154519316Y-101893157D01*
X154366244Y-101653071D01*
X154251774Y-101391199D01*
X154179518Y-101113267D01*
X154153091Y-100825002D01*
X154153042Y-100807320D01*
X154172323Y-100552979D01*
X154231123Y-100306360D01*
X154332749Y-100054096D01*
X154346525Y-100025751D01*
X154414361Y-99897148D01*
X154482086Y-99792178D01*
X154563005Y-99692544D01*
X154670425Y-99579947D01*
X154671486Y-99578885D01*
X154783507Y-99471826D01*
X154882143Y-99391396D01*
X154985558Y-99324408D01*
X155111917Y-99257678D01*
X155118352Y-99254510D01*
X155324591Y-99162346D01*
X155511293Y-99100858D01*
X155695758Y-99065739D01*
X155895285Y-99052684D01*
X155930600Y-99052353D01*
X156221567Y-99076026D01*
X156499732Y-99146347D01*
X156760318Y-99259800D01*
X156998552Y-99412870D01*
X157209657Y-99602043D01*
X157388860Y-99823804D01*
X157531385Y-100074637D01*
X157615337Y-100292427D01*
X157681901Y-100587155D01*
X157698701Y-100878774D01*
X158191200Y-100878774D01*
X158191200Y-100660200D01*
X160122862Y-100660200D01*
X160492150Y-100660209D01*
X160814006Y-100660090D01*
X161091796Y-100659620D01*
X161328889Y-100658575D01*
X161528651Y-100656733D01*
X161694451Y-100653872D01*
X161829655Y-100649769D01*
X161937631Y-100644201D01*
X162021746Y-100636945D01*
X162085368Y-100627779D01*
X162131864Y-100616481D01*
X162164602Y-100602827D01*
X162186948Y-100586595D01*
X162202271Y-100567562D01*
X162213937Y-100545505D01*
X162224855Y-100521209D01*
X162247786Y-100452836D01*
X162255200Y-100402575D01*
X162232770Y-100323556D01*
X162174636Y-100248396D01*
X162094534Y-100192637D01*
X162057256Y-100178633D01*
X162011370Y-100173184D01*
X161915830Y-100168332D01*
X161771778Y-100164093D01*
X161580356Y-100160481D01*
X161342706Y-100157511D01*
X161059971Y-100155198D01*
X160733292Y-100153556D01*
X160363813Y-100152601D01*
X160032312Y-100152341D01*
X158101524Y-100152199D01*
X158051562Y-100018850D01*
X158022537Y-99942175D01*
X158000561Y-99885560D01*
X157992683Y-99866450D01*
X158015745Y-99863070D01*
X158085291Y-99859881D01*
X158197005Y-99856938D01*
X158346569Y-99854293D01*
X158529669Y-99851999D01*
X158741988Y-99850109D01*
X158979211Y-99848678D01*
X159237020Y-99847758D01*
X159511099Y-99847402D01*
X159536438Y-99847400D01*
X161089110Y-99847400D01*
X161150422Y-99786087D01*
X161198930Y-99722809D01*
X161228345Y-99658594D01*
X161228423Y-99574850D01*
X161198597Y-99484478D01*
X161147776Y-99413627D01*
X161143683Y-99410092D01*
X161125342Y-99403327D01*
X161085556Y-99397310D01*
X161021297Y-99391962D01*
X160929534Y-99387206D01*
X160807241Y-99382964D01*
X160651387Y-99379157D01*
X160458944Y-99375709D01*
X160226882Y-99372541D01*
X159952174Y-99369575D01*
X159631790Y-99366733D01*
X159381830Y-99364800D01*
X157659230Y-99352100D01*
X157518815Y-99208270D01*
X157378400Y-99064441D01*
X157378400Y-97359266D01*
X157378401Y-95654090D01*
X157317088Y-95592778D01*
X157254821Y-95544605D01*
X157192241Y-95515519D01*
X157111737Y-95517336D01*
X157024660Y-95550920D01*
X156952578Y-95605742D01*
X156924720Y-95646119D01*
X156918043Y-95678802D01*
X156912319Y-95746754D01*
X156907513Y-95852011D01*
X156903586Y-95996609D01*
X156900501Y-96182585D01*
X156898222Y-96411977D01*
X156896712Y-96686820D01*
X156895933Y-97009152D01*
X156895800Y-97235112D01*
X156895737Y-97551716D01*
X156895475Y-97821236D01*
X156894903Y-98047387D01*
X156893913Y-98233885D01*
X156892394Y-98384446D01*
X156890238Y-98502785D01*
X156887334Y-98592618D01*
X156883574Y-98657660D01*
X156878847Y-98701627D01*
X156873044Y-98728236D01*
X156866056Y-98741201D01*
X156857772Y-98744237D01*
X156851350Y-98742530D01*
X156800146Y-98723017D01*
X156725764Y-98696080D01*
X156699547Y-98686828D01*
X156592194Y-98649231D01*
X156585247Y-96663865D01*
X156583915Y-96298432D01*
X156582591Y-95980382D01*
X156581187Y-95706296D01*
X156579616Y-95472757D01*
X156577790Y-95276347D01*
X156575621Y-95113649D01*
X156573023Y-94981244D01*
X156569906Y-94875716D01*
X156566184Y-94793647D01*
X156561769Y-94731619D01*
X156556574Y-94686214D01*
X156550510Y-94654014D01*
X156543490Y-94631603D01*
X156535426Y-94615562D01*
X156532612Y-94611218D01*
X156455773Y-94534576D01*
X156363456Y-94499847D01*
X156266858Y-94511032D01*
X156259940Y-94513756D01*
X156187441Y-94557533D01*
X156132940Y-94609163D01*
X156123674Y-94622187D01*
X156115631Y-94638385D01*
X156108724Y-94661223D01*
X156102866Y-94694168D01*
X156097973Y-94740687D01*
X156093956Y-94804247D01*
X156090729Y-94888315D01*
X156088206Y-94996359D01*
X156086302Y-95131845D01*
X156084928Y-95298240D01*
X156083999Y-95499011D01*
X156083428Y-95737625D01*
X156083129Y-96017549D01*
X156083016Y-96342250D01*
X156083000Y-96612325D01*
X156083000Y-98552000D01*
X155779427Y-98552000D01*
X155772464Y-96614116D01*
X155771187Y-96246592D01*
X155770010Y-95926470D01*
X155768683Y-95650352D01*
X155766958Y-95414840D01*
X155764584Y-95216538D01*
X155761312Y-95052048D01*
X155756894Y-94917972D01*
X155751079Y-94810914D01*
X155743618Y-94727475D01*
X155734263Y-94664259D01*
X155722763Y-94617868D01*
X155708869Y-94584905D01*
X155692331Y-94561973D01*
X155672902Y-94545673D01*
X155650330Y-94532610D01*
X155624367Y-94519384D01*
X155618487Y-94516282D01*
X155527226Y-94494494D01*
X155429433Y-94522457D01*
G36*
X152275585Y-103822500D02*
G01*
X152183084Y-104031941D01*
X152096036Y-104228480D01*
X152016771Y-104406898D01*
X151947618Y-104561974D01*
X151890908Y-104688489D01*
X151848971Y-104781221D01*
X151824137Y-104834951D01*
X151819251Y-104844850D01*
X151788613Y-104902000D01*
X152249530Y-104902000D01*
X152341106Y-104698800D01*
X152432683Y-104495600D01*
X153256318Y-104495600D01*
X153347895Y-104698800D01*
X153439471Y-104902000D01*
X153900388Y-104902000D01*
X153869750Y-104844850D01*
X153853116Y-104809789D01*
X153818361Y-104733446D01*
X153767815Y-104621042D01*
X153703810Y-104477796D01*
X153628674Y-104308929D01*
X153544737Y-104119661D01*
X153522844Y-104070150D01*
X153060598Y-104070150D01*
X153037052Y-104078759D01*
X152974391Y-104085343D01*
X152884290Y-104088873D01*
X152844500Y-104089200D01*
X152746938Y-104086789D01*
X152672321Y-104080357D01*
X152632308Y-104071101D01*
X152628600Y-104067007D01*
X152637994Y-104038912D01*
X152662727Y-103976516D01*
X152697628Y-103891993D01*
X152737527Y-103797517D01*
X152777251Y-103705263D01*
X152811631Y-103627405D01*
X152835496Y-103576117D01*
X152842604Y-103563177D01*
X152853753Y-103581749D01*
X152879303Y-103635914D01*
X152914354Y-103714277D01*
X152954004Y-103805439D01*
X152993354Y-103898004D01*
X153027504Y-103980576D01*
X153051552Y-104041757D01*
X153060598Y-104070150D01*
X153522844Y-104070150D01*
X153454331Y-103915212D01*
X153413416Y-103822500D01*
X152987719Y-102857300D01*
X152701282Y-102857300D01*
X152275585Y-103822500D01*
G37*
X152275585Y-103822500D02*
X152183084Y-104031941D01*
X152096036Y-104228480D01*
X152016771Y-104406898D01*
X151947618Y-104561974D01*
X151890908Y-104688489D01*
X151848971Y-104781221D01*
X151824137Y-104834951D01*
X151819251Y-104844850D01*
X151788613Y-104902000D01*
X152249530Y-104902000D01*
X152341106Y-104698800D01*
X152432683Y-104495600D01*
X153256318Y-104495600D01*
X153347895Y-104698800D01*
X153439471Y-104902000D01*
X153900388Y-104902000D01*
X153869750Y-104844850D01*
X153853116Y-104809789D01*
X153818361Y-104733446D01*
X153767815Y-104621042D01*
X153703810Y-104477796D01*
X153628674Y-104308929D01*
X153544737Y-104119661D01*
X153522844Y-104070150D01*
X153060598Y-104070150D01*
X153037052Y-104078759D01*
X152974391Y-104085343D01*
X152884290Y-104088873D01*
X152844500Y-104089200D01*
X152746938Y-104086789D01*
X152672321Y-104080357D01*
X152632308Y-104071101D01*
X152628600Y-104067007D01*
X152637994Y-104038912D01*
X152662727Y-103976516D01*
X152697628Y-103891993D01*
X152737527Y-103797517D01*
X152777251Y-103705263D01*
X152811631Y-103627405D01*
X152835496Y-103576117D01*
X152842604Y-103563177D01*
X152853753Y-103581749D01*
X152879303Y-103635914D01*
X152914354Y-103714277D01*
X152954004Y-103805439D01*
X152993354Y-103898004D01*
X153027504Y-103980576D01*
X153051552Y-104041757D01*
X153060598Y-104070150D01*
X153522844Y-104070150D01*
X153454331Y-103915212D01*
X153413416Y-103822500D01*
X152987719Y-102857300D01*
X152701282Y-102857300D01*
X152275585Y-103822500D01*
G36*
X150673816Y-103625629D02*
G01*
X150885549Y-103636742D01*
X151045736Y-103654230D01*
X151165024Y-103689863D01*
X151251189Y-103747251D01*
X151312007Y-103830001D01*
X151315127Y-103836064D01*
X151331002Y-103874377D01*
X151342683Y-103922496D01*
X151350772Y-103988270D01*
X151355877Y-104079548D01*
X151358600Y-104204180D01*
X151359547Y-104370015D01*
X151359577Y-104413050D01*
X151359616Y-104902000D01*
X151766016Y-104902000D01*
X151766016Y-103225600D01*
X151562816Y-103225600D01*
X151462009Y-103226339D01*
X151401643Y-103230631D01*
X151371363Y-103241589D01*
X151360812Y-103262323D01*
X151359616Y-103286659D01*
X151359616Y-103347719D01*
X151226266Y-103296572D01*
X151130416Y-103268807D01*
X151008150Y-103245739D01*
X150883852Y-103231963D01*
X150883366Y-103231932D01*
X150673816Y-103218439D01*
X150673816Y-103625629D01*
G37*
X150673816Y-103625629D02*
X150885549Y-103636742D01*
X151045736Y-103654230D01*
X151165024Y-103689863D01*
X151251189Y-103747251D01*
X151312007Y-103830001D01*
X151315127Y-103836064D01*
X151331002Y-103874377D01*
X151342683Y-103922496D01*
X151350772Y-103988270D01*
X151355877Y-104079548D01*
X151358600Y-104204180D01*
X151359547Y-104370015D01*
X151359577Y-104413050D01*
X151359616Y-104902000D01*
X151766016Y-104902000D01*
X151766016Y-103225600D01*
X151562816Y-103225600D01*
X151462009Y-103226339D01*
X151401643Y-103230631D01*
X151371363Y-103241589D01*
X151360812Y-103262323D01*
X151359616Y-103286659D01*
X151359616Y-103347719D01*
X151226266Y-103296572D01*
X151130416Y-103268807D01*
X151008150Y-103245739D01*
X150883852Y-103231963D01*
X150883366Y-103231932D01*
X150673816Y-103218439D01*
X150673816Y-103625629D01*
G36*
X149910800Y-103225600D02*
G01*
X149606000Y-103225600D01*
X149606000Y-103657400D01*
X149912059Y-103657400D01*
X149905080Y-104070150D01*
X149898100Y-104482900D01*
X149726650Y-104490410D01*
X149555200Y-104497921D01*
X149555200Y-104902000D01*
X149728013Y-104902000D01*
X149849624Y-104895662D01*
X149947707Y-104872941D01*
X150029942Y-104837659D01*
X150149507Y-104757920D01*
X150231779Y-104668480D01*
X150257739Y-104629842D01*
X150276782Y-104594233D01*
X150290144Y-104553096D01*
X150299064Y-104497871D01*
X150304779Y-104420000D01*
X150308526Y-104310923D01*
X150311543Y-104162083D01*
X150312454Y-104110521D01*
X150320407Y-103657400D01*
X150520400Y-103657400D01*
X150520400Y-103225600D01*
X150317200Y-103225600D01*
X150317200Y-102920800D01*
X149910800Y-102920800D01*
X149910800Y-103225600D01*
G37*
X149910800Y-103225600D02*
X149606000Y-103225600D01*
X149606000Y-103657400D01*
X149912059Y-103657400D01*
X149905080Y-104070150D01*
X149898100Y-104482900D01*
X149726650Y-104490410D01*
X149555200Y-104497921D01*
X149555200Y-104902000D01*
X149728013Y-104902000D01*
X149849624Y-104895662D01*
X149947707Y-104872941D01*
X150029942Y-104837659D01*
X150149507Y-104757920D01*
X150231779Y-104668480D01*
X150257739Y-104629842D01*
X150276782Y-104594233D01*
X150290144Y-104553096D01*
X150299064Y-104497871D01*
X150304779Y-104420000D01*
X150308526Y-104310923D01*
X150311543Y-104162083D01*
X150312454Y-104110521D01*
X150320407Y-103657400D01*
X150520400Y-103657400D01*
X150520400Y-103225600D01*
X150317200Y-103225600D01*
X150317200Y-102920800D01*
X149910800Y-102920800D01*
X149910800Y-103225600D01*
G36*
X148531186Y-103246828D02*
G01*
X148365994Y-103293307D01*
X148331923Y-103308934D01*
X148163468Y-103418823D01*
X148028901Y-103564371D01*
X147931045Y-103741041D01*
X147872727Y-103944295D01*
X147858298Y-104069647D01*
X147846873Y-104267000D01*
X148383537Y-104267000D01*
X148542457Y-104267944D01*
X148682691Y-104270584D01*
X148796841Y-104274632D01*
X148877509Y-104279797D01*
X148917299Y-104285791D01*
X148920200Y-104287972D01*
X148899287Y-104326711D01*
X148845371Y-104376000D01*
X148771687Y-104425351D01*
X148704156Y-104459197D01*
X148562348Y-104497089D01*
X148433523Y-104488114D01*
X148323096Y-104433665D01*
X148268476Y-104397905D01*
X148211234Y-104378090D01*
X148133544Y-104369839D01*
X148058295Y-104368600D01*
X147970301Y-104371067D01*
X147906483Y-104377564D01*
X147879571Y-104386736D01*
X147879394Y-104387650D01*
X147896690Y-104441461D01*
X147939638Y-104517533D01*
X147998376Y-104601798D01*
X148063043Y-104680194D01*
X148123776Y-104738655D01*
X148127571Y-104741597D01*
X148273975Y-104827026D01*
X148438967Y-104880509D01*
X148608718Y-104899968D01*
X148769401Y-104883324D01*
X148862591Y-104852089D01*
X148997618Y-104769164D01*
X149128008Y-104650241D01*
X149240013Y-104509296D01*
X149297909Y-104409535D01*
X149359853Y-104235521D01*
X149379226Y-104060931D01*
X149360441Y-103890794D01*
X149350569Y-103860600D01*
X148949060Y-103860600D01*
X148253604Y-103860600D01*
X148290291Y-103803450D01*
X148342584Y-103751192D01*
X148424078Y-103698103D01*
X148514541Y-103655069D01*
X148593743Y-103632976D01*
X148608898Y-103632000D01*
X148716748Y-103653541D01*
X148820853Y-103710154D01*
X148892754Y-103781526D01*
X148949060Y-103860600D01*
X149350569Y-103860600D01*
X149307911Y-103730137D01*
X149226048Y-103583988D01*
X149119264Y-103457374D01*
X148991974Y-103355323D01*
X148848589Y-103282864D01*
X148693522Y-103245023D01*
X148531186Y-103246828D01*
G37*
X148531186Y-103246828D02*
X148365994Y-103293307D01*
X148331923Y-103308934D01*
X148163468Y-103418823D01*
X148028901Y-103564371D01*
X147931045Y-103741041D01*
X147872727Y-103944295D01*
X147858298Y-104069647D01*
X147846873Y-104267000D01*
X148383537Y-104267000D01*
X148542457Y-104267944D01*
X148682691Y-104270584D01*
X148796841Y-104274632D01*
X148877509Y-104279797D01*
X148917299Y-104285791D01*
X148920200Y-104287972D01*
X148899287Y-104326711D01*
X148845371Y-104376000D01*
X148771687Y-104425351D01*
X148704156Y-104459197D01*
X148562348Y-104497089D01*
X148433523Y-104488114D01*
X148323096Y-104433665D01*
X148268476Y-104397905D01*
X148211234Y-104378090D01*
X148133544Y-104369839D01*
X148058295Y-104368600D01*
X147970301Y-104371067D01*
X147906483Y-104377564D01*
X147879571Y-104386736D01*
X147879394Y-104387650D01*
X147896690Y-104441461D01*
X147939638Y-104517533D01*
X147998376Y-104601798D01*
X148063043Y-104680194D01*
X148123776Y-104738655D01*
X148127571Y-104741597D01*
X148273975Y-104827026D01*
X148438967Y-104880509D01*
X148608718Y-104899968D01*
X148769401Y-104883324D01*
X148862591Y-104852089D01*
X148997618Y-104769164D01*
X149128008Y-104650241D01*
X149240013Y-104509296D01*
X149297909Y-104409535D01*
X149359853Y-104235521D01*
X149379226Y-104060931D01*
X149360441Y-103890794D01*
X149350569Y-103860600D01*
X148949060Y-103860600D01*
X148253604Y-103860600D01*
X148290291Y-103803450D01*
X148342584Y-103751192D01*
X148424078Y-103698103D01*
X148514541Y-103655069D01*
X148593743Y-103632976D01*
X148608898Y-103632000D01*
X148716748Y-103653541D01*
X148820853Y-103710154D01*
X148892754Y-103781526D01*
X148949060Y-103860600D01*
X149350569Y-103860600D01*
X149307911Y-103730137D01*
X149226048Y-103583988D01*
X149119264Y-103457374D01*
X148991974Y-103355323D01*
X148848589Y-103282864D01*
X148693522Y-103245023D01*
X148531186Y-103246828D01*
G36*
X147311339Y-103228136D02*
G01*
X147236723Y-103234904D01*
X147196709Y-103244644D01*
X147193000Y-103248952D01*
X147171326Y-103258821D01*
X147114172Y-103250360D01*
X147101505Y-103247041D01*
X146984300Y-103236977D01*
X146851917Y-103261160D01*
X146722280Y-103315302D01*
X146665357Y-103351349D01*
X146568576Y-103421458D01*
X146483782Y-103350669D01*
X146405415Y-103300962D01*
X146309084Y-103260034D01*
X146273818Y-103249852D01*
X146138530Y-103233378D01*
X146015256Y-103255396D01*
X145894781Y-103319166D01*
X145767891Y-103427946D01*
X145766509Y-103429322D01*
X145699945Y-103499142D01*
X145647931Y-103565226D01*
X145608691Y-103635026D01*
X145580455Y-103715995D01*
X145561450Y-103815586D01*
X145549901Y-103941251D01*
X145544038Y-104100443D01*
X145542088Y-104300615D01*
X145542000Y-104373210D01*
X145542000Y-104902000D01*
X145944176Y-104902000D01*
X145961100Y-103754534D01*
X146032367Y-103693267D01*
X146119810Y-103641759D01*
X146205606Y-103640821D01*
X146292935Y-103690454D01*
X146296234Y-103693258D01*
X146367500Y-103754516D01*
X146383692Y-104902000D01*
X146786600Y-104902000D01*
X146786600Y-104354638D01*
X146787577Y-104149931D01*
X146791241Y-103990124D01*
X146798692Y-103869344D01*
X146811032Y-103781715D01*
X146829360Y-103721365D01*
X146854778Y-103682417D01*
X146888385Y-103658997D01*
X146918933Y-103648275D01*
X147009277Y-103633835D01*
X147076823Y-103651424D01*
X147130655Y-103694345D01*
X147193000Y-103756690D01*
X147193000Y-104902000D01*
X147624800Y-104902000D01*
X147624800Y-103225600D01*
X147408900Y-103225600D01*
X147311339Y-103228136D01*
G37*
X147311339Y-103228136D02*
X147236723Y-103234904D01*
X147196709Y-103244644D01*
X147193000Y-103248952D01*
X147171326Y-103258821D01*
X147114172Y-103250360D01*
X147101505Y-103247041D01*
X146984300Y-103236977D01*
X146851917Y-103261160D01*
X146722280Y-103315302D01*
X146665357Y-103351349D01*
X146568576Y-103421458D01*
X146483782Y-103350669D01*
X146405415Y-103300962D01*
X146309084Y-103260034D01*
X146273818Y-103249852D01*
X146138530Y-103233378D01*
X146015256Y-103255396D01*
X145894781Y-103319166D01*
X145767891Y-103427946D01*
X145766509Y-103429322D01*
X145699945Y-103499142D01*
X145647931Y-103565226D01*
X145608691Y-103635026D01*
X145580455Y-103715995D01*
X145561450Y-103815586D01*
X145549901Y-103941251D01*
X145544038Y-104100443D01*
X145542088Y-104300615D01*
X145542000Y-104373210D01*
X145542000Y-104902000D01*
X145944176Y-104902000D01*
X145961100Y-103754534D01*
X146032367Y-103693267D01*
X146119810Y-103641759D01*
X146205606Y-103640821D01*
X146292935Y-103690454D01*
X146296234Y-103693258D01*
X146367500Y-103754516D01*
X146383692Y-104902000D01*
X146786600Y-104902000D01*
X146786600Y-104354638D01*
X146787577Y-104149931D01*
X146791241Y-103990124D01*
X146798692Y-103869344D01*
X146811032Y-103781715D01*
X146829360Y-103721365D01*
X146854778Y-103682417D01*
X146888385Y-103658997D01*
X146918933Y-103648275D01*
X147009277Y-103633835D01*
X147076823Y-103651424D01*
X147130655Y-103694345D01*
X147193000Y-103756690D01*
X147193000Y-104902000D01*
X147624800Y-104902000D01*
X147624800Y-103225600D01*
X147408900Y-103225600D01*
X147311339Y-103228136D01*
G36*
X144856200Y-104902000D02*
G01*
X145288000Y-104902000D01*
X145288000Y-103225600D01*
X144856200Y-103225600D01*
X144856200Y-104902000D01*
G37*
X144856200Y-104902000D02*
X145288000Y-104902000D01*
X145288000Y-103225600D01*
X144856200Y-103225600D01*
X144856200Y-104902000D01*
G36*
X143886319Y-103236218D02*
G01*
X143790964Y-103258477D01*
X143783297Y-103260689D01*
X143609793Y-103333089D01*
X143473697Y-103437345D01*
X143377348Y-103570987D01*
X143323087Y-103731546D01*
X143319961Y-103749653D01*
X143303348Y-103854606D01*
X143519262Y-103802023D01*
X143636167Y-103770183D01*
X143708712Y-103741669D01*
X143742986Y-103713884D01*
X143746771Y-103705099D01*
X143780832Y-103664626D01*
X143847133Y-103641504D01*
X143930616Y-103634941D01*
X144016221Y-103644142D01*
X144088891Y-103668313D01*
X144133567Y-103706661D01*
X144140233Y-103725844D01*
X144137134Y-103763229D01*
X144106779Y-103788226D01*
X144038633Y-103810196D01*
X143848974Y-103862198D01*
X143701729Y-103908794D01*
X143589232Y-103953092D01*
X143503817Y-103998198D01*
X143437815Y-104047220D01*
X143425183Y-104058797D01*
X143332889Y-104175377D01*
X143287044Y-104300218D01*
X143285331Y-104427356D01*
X143325429Y-104550828D01*
X143405022Y-104664671D01*
X143521789Y-104762920D01*
X143673413Y-104839614D01*
X143737127Y-104861109D01*
X143855785Y-104890305D01*
X143955534Y-104897240D01*
X144062653Y-104882871D01*
X144100945Y-104874363D01*
X144274827Y-104813041D01*
X144418910Y-104720568D01*
X144527303Y-104602144D01*
X144594118Y-104462967D01*
X144602259Y-104431839D01*
X144622627Y-104341532D01*
X144428264Y-104358258D01*
X144312396Y-104372220D01*
X144234512Y-104392529D01*
X144181873Y-104422736D01*
X144174704Y-104428942D01*
X144110480Y-104462238D01*
X144017485Y-104481660D01*
X143913224Y-104486834D01*
X143815205Y-104477385D01*
X143740933Y-104452940D01*
X143721546Y-104438631D01*
X143697025Y-104405558D01*
X143700177Y-104377155D01*
X143736240Y-104349808D01*
X143810449Y-104319902D01*
X143928039Y-104283822D01*
X143958119Y-104275296D01*
X144161827Y-104208516D01*
X144318592Y-104134305D01*
X144432103Y-104049344D01*
X144506049Y-103950312D01*
X144544120Y-103833891D01*
X144551400Y-103741529D01*
X144527109Y-103607826D01*
X144457880Y-103485855D01*
X144349181Y-103381033D01*
X144206481Y-103298778D01*
X144053845Y-103248601D01*
X143964741Y-103233337D01*
X143886319Y-103236218D01*
G37*
X143886319Y-103236218D02*
X143790964Y-103258477D01*
X143783297Y-103260689D01*
X143609793Y-103333089D01*
X143473697Y-103437345D01*
X143377348Y-103570987D01*
X143323087Y-103731546D01*
X143319961Y-103749653D01*
X143303348Y-103854606D01*
X143519262Y-103802023D01*
X143636167Y-103770183D01*
X143708712Y-103741669D01*
X143742986Y-103713884D01*
X143746771Y-103705099D01*
X143780832Y-103664626D01*
X143847133Y-103641504D01*
X143930616Y-103634941D01*
X144016221Y-103644142D01*
X144088891Y-103668313D01*
X144133567Y-103706661D01*
X144140233Y-103725844D01*
X144137134Y-103763229D01*
X144106779Y-103788226D01*
X144038633Y-103810196D01*
X143848974Y-103862198D01*
X143701729Y-103908794D01*
X143589232Y-103953092D01*
X143503817Y-103998198D01*
X143437815Y-104047220D01*
X143425183Y-104058797D01*
X143332889Y-104175377D01*
X143287044Y-104300218D01*
X143285331Y-104427356D01*
X143325429Y-104550828D01*
X143405022Y-104664671D01*
X143521789Y-104762920D01*
X143673413Y-104839614D01*
X143737127Y-104861109D01*
X143855785Y-104890305D01*
X143955534Y-104897240D01*
X144062653Y-104882871D01*
X144100945Y-104874363D01*
X144274827Y-104813041D01*
X144418910Y-104720568D01*
X144527303Y-104602144D01*
X144594118Y-104462967D01*
X144602259Y-104431839D01*
X144622627Y-104341532D01*
X144428264Y-104358258D01*
X144312396Y-104372220D01*
X144234512Y-104392529D01*
X144181873Y-104422736D01*
X144174704Y-104428942D01*
X144110480Y-104462238D01*
X144017485Y-104481660D01*
X143913224Y-104486834D01*
X143815205Y-104477385D01*
X143740933Y-104452940D01*
X143721546Y-104438631D01*
X143697025Y-104405558D01*
X143700177Y-104377155D01*
X143736240Y-104349808D01*
X143810449Y-104319902D01*
X143928039Y-104283822D01*
X143958119Y-104275296D01*
X144161827Y-104208516D01*
X144318592Y-104134305D01*
X144432103Y-104049344D01*
X144506049Y-103950312D01*
X144544120Y-103833891D01*
X144551400Y-103741529D01*
X144527109Y-103607826D01*
X144457880Y-103485855D01*
X144349181Y-103381033D01*
X144206481Y-103298778D01*
X144053845Y-103248601D01*
X143964741Y-103233337D01*
X143886319Y-103236218D01*
G36*
X144856200Y-103149400D02*
G01*
X145288000Y-103149400D01*
X145288000Y-102717600D01*
X144856200Y-102717600D01*
X144856200Y-103149400D01*
G37*
X144856200Y-103149400D02*
X145288000Y-103149400D01*
X145288000Y-102717600D01*
X144856200Y-102717600D01*
X144856200Y-103149400D01*
D11*
X163814800Y-97241400D02*
X163814800Y-95341400D01*
X161914800Y-97241400D02*
X163814800Y-97241400D01*
X161914800Y-95341400D02*
X161914800Y-97241400D01*
X163814800Y-95341400D02*
X161914800Y-95341400D01*
X171188600Y-89424000D02*
X167088600Y-89424000D01*
X167088600Y-89424000D02*
X167088600Y-91424000D01*
X167088600Y-91424000D02*
X171188600Y-91424000D01*
X171188600Y-91424000D02*
X171188600Y-89424000D01*
X170438600Y-91624000D02*
X170738600Y-91924000D01*
X170738600Y-91924000D02*
X170138600Y-91924000D01*
X170438600Y-91624000D02*
X170138600Y-91924000D01*
D10*
X175139266Y-84143904D02*
X175139266Y-84715333D01*
X175177361Y-84829619D01*
X175253552Y-84905809D01*
X175367838Y-84943904D01*
X175444028Y-84943904D01*
X174758314Y-84943904D02*
X174758314Y-84143904D01*
X174453552Y-84143904D01*
X174377361Y-84182000D01*
X174339266Y-84220095D01*
X174301171Y-84296285D01*
X174301171Y-84410571D01*
X174339266Y-84486761D01*
X174377361Y-84524857D01*
X174453552Y-84562952D01*
X174758314Y-84562952D01*
X173577361Y-84143904D02*
X173958314Y-84143904D01*
X173996409Y-84524857D01*
X173958314Y-84486761D01*
X173882123Y-84448666D01*
X173691647Y-84448666D01*
X173615457Y-84486761D01*
X173577361Y-84524857D01*
X173539266Y-84601047D01*
X173539266Y-84791523D01*
X173577361Y-84867714D01*
X173615457Y-84905809D01*
X173691647Y-84943904D01*
X173882123Y-84943904D01*
X173958314Y-84905809D01*
X173996409Y-84867714D01*
X156000504Y-113252333D02*
X156571933Y-113252333D01*
X156686219Y-113214238D01*
X156762409Y-113138047D01*
X156800504Y-113023761D01*
X156800504Y-112947571D01*
X156800504Y-113633285D02*
X156000504Y-113633285D01*
X156000504Y-113938047D01*
X156038600Y-114014238D01*
X156076695Y-114052333D01*
X156152885Y-114090428D01*
X156267171Y-114090428D01*
X156343361Y-114052333D01*
X156381457Y-114014238D01*
X156419552Y-113938047D01*
X156419552Y-113633285D01*
X156267171Y-114776142D02*
X156800504Y-114776142D01*
X155962409Y-114585666D02*
X156533838Y-114395190D01*
X156533838Y-114890428D01*
X162350504Y-111728333D02*
X162921933Y-111728333D01*
X163036219Y-111690238D01*
X163112409Y-111614047D01*
X163150504Y-111499761D01*
X163150504Y-111423571D01*
X163150504Y-112109285D02*
X162350504Y-112109285D01*
X162350504Y-112414047D01*
X162388600Y-112490238D01*
X162426695Y-112528333D01*
X162502885Y-112566428D01*
X162617171Y-112566428D01*
X162693361Y-112528333D01*
X162731457Y-112490238D01*
X162769552Y-112414047D01*
X162769552Y-112109285D01*
X162350504Y-112833095D02*
X162350504Y-113328333D01*
X162655266Y-113061666D01*
X162655266Y-113175952D01*
X162693361Y-113252142D01*
X162731457Y-113290238D01*
X162807647Y-113328333D01*
X162998123Y-113328333D01*
X163074314Y-113290238D01*
X163112409Y-113252142D01*
X163150504Y-113175952D01*
X163150504Y-112947380D01*
X163112409Y-112871190D01*
X163074314Y-112833095D01*
X163823523Y-94049904D02*
X163366380Y-94049904D01*
X163594952Y-94849904D02*
X163594952Y-94049904D01*
X163099714Y-94849904D02*
X163099714Y-94049904D01*
X162794952Y-94049904D01*
X162718761Y-94088000D01*
X162680666Y-94126095D01*
X162642571Y-94202285D01*
X162642571Y-94316571D01*
X162680666Y-94392761D01*
X162718761Y-94430857D01*
X162794952Y-94468952D01*
X163099714Y-94468952D01*
X161956857Y-94316571D02*
X161956857Y-94849904D01*
X162147333Y-94011809D02*
X162337809Y-94583238D01*
X161842571Y-94583238D01*
X168916266Y-88334904D02*
X168916266Y-88906333D01*
X168954361Y-89020619D01*
X169030552Y-89096809D01*
X169144838Y-89134904D01*
X169221028Y-89134904D01*
X168535314Y-89134904D02*
X168535314Y-88334904D01*
X168230552Y-88334904D01*
X168154361Y-88373000D01*
X168116266Y-88411095D01*
X168078171Y-88487285D01*
X168078171Y-88601571D01*
X168116266Y-88677761D01*
X168154361Y-88715857D01*
X168230552Y-88753952D01*
X168535314Y-88753952D01*
X167316266Y-89134904D02*
X167773409Y-89134904D01*
X167544838Y-89134904D02*
X167544838Y-88334904D01*
X167621028Y-88449190D01*
X167697219Y-88525380D01*
X167773409Y-88563476D01*
M02*
