G04 #@! TF.GenerationSoftware,KiCad,Pcbnew,(5.1.8)-1*
G04 #@! TF.CreationDate,2021-09-05T10:08:22+02:00*
G04 #@! TF.ProjectId,SuperPower-uC-KiCad,53757065-7250-46f7-9765-722d75432d4b,rev?*
G04 #@! TF.SameCoordinates,Original*
G04 #@! TF.FileFunction,Legend,Top*
G04 #@! TF.FilePolarity,Positive*
%FSLAX46Y46*%
G04 Gerber Fmt 4.6, Leading zero omitted, Abs format (unit mm)*
G04 Created by KiCad (PCBNEW (5.1.8)-1) date 2021-09-05 10:08:22*
%MOMM*%
%LPD*%
G01*
G04 APERTURE LIST*
%ADD10C,0.120000*%
%ADD11C,0.150000*%
%ADD12C,0.200000*%
G04 APERTURE END LIST*
D10*
X139852400Y-113461800D02*
X139598400Y-113309400D01*
X139852400Y-113207800D02*
X139852400Y-113461800D01*
X139598400Y-113309400D02*
X139852400Y-113207800D01*
X153111200Y-115544600D02*
X153009600Y-115747800D01*
X152908000Y-115544600D02*
X153111200Y-115544600D01*
X153009600Y-115747800D02*
X152908000Y-115544600D01*
X157480000Y-105791000D02*
X157226000Y-105791000D01*
X157327600Y-106045000D02*
X157480000Y-105791000D01*
X157226000Y-105791000D02*
X157327600Y-106045000D01*
X156514800Y-107823000D02*
X156514800Y-108077000D01*
X167487600Y-103606600D02*
X167487600Y-107772200D01*
X171170600Y-103606600D02*
X167487600Y-103606600D01*
X156667200Y-101015800D02*
X156667200Y-100076000D01*
X151993600Y-82296000D02*
X151993600Y-78359000D01*
X157581600Y-87884000D02*
X157581600Y-94742000D01*
X157581600Y-82296000D02*
X157581600Y-87884000D01*
X149707600Y-82296000D02*
X157581600Y-82296000D01*
D11*
X137458504Y-98145428D02*
X138258504Y-97954952D01*
X137687076Y-97802571D01*
X138258504Y-97650190D01*
X137458504Y-97459714D01*
X138258504Y-96812095D02*
X137839457Y-96812095D01*
X137763266Y-96850190D01*
X137725171Y-96926380D01*
X137725171Y-97078761D01*
X137763266Y-97154952D01*
X138220409Y-96812095D02*
X138258504Y-96888285D01*
X138258504Y-97078761D01*
X138220409Y-97154952D01*
X138144219Y-97193047D01*
X138068028Y-97193047D01*
X137991838Y-97154952D01*
X137953742Y-97078761D01*
X137953742Y-96888285D01*
X137915647Y-96812095D01*
X138258504Y-96431142D02*
X137458504Y-96431142D01*
X137953742Y-96354952D02*
X138258504Y-96126380D01*
X137725171Y-96126380D02*
X138029933Y-96431142D01*
X138220409Y-95478761D02*
X138258504Y-95554952D01*
X138258504Y-95707333D01*
X138220409Y-95783523D01*
X138144219Y-95821619D01*
X137839457Y-95821619D01*
X137763266Y-95783523D01*
X137725171Y-95707333D01*
X137725171Y-95554952D01*
X137763266Y-95478761D01*
X137839457Y-95440666D01*
X137915647Y-95440666D01*
X137991838Y-95821619D01*
D10*
X156667200Y-100076000D02*
X178257200Y-100076000D01*
X156667200Y-101015800D02*
X154178000Y-101015800D01*
X149707600Y-87757000D02*
X149707600Y-82296000D01*
X145389600Y-101092000D02*
X145389600Y-95885000D01*
X149707600Y-94742000D02*
X157962600Y-94742000D01*
X169519600Y-87706200D02*
X169519600Y-90678000D01*
X157581600Y-87706200D02*
X169519600Y-87706200D01*
X157962600Y-100076000D02*
X157962600Y-94742000D01*
X139293600Y-101092000D02*
X139293600Y-108077000D01*
X142913100Y-101092000D02*
X139293600Y-101092000D01*
X150977600Y-101092000D02*
X142913100Y-101092000D01*
X150977600Y-106349800D02*
X150977600Y-101092000D01*
X154178000Y-106553000D02*
X150977600Y-106553000D01*
D12*
X145723123Y-96900380D02*
X146342171Y-96900380D01*
X146008838Y-97281333D01*
X146151695Y-97281333D01*
X146246933Y-97328952D01*
X146294552Y-97376571D01*
X146342171Y-97471809D01*
X146342171Y-97709904D01*
X146294552Y-97805142D01*
X146246933Y-97852761D01*
X146151695Y-97900380D01*
X145865980Y-97900380D01*
X145770742Y-97852761D01*
X145723123Y-97805142D01*
X146675504Y-97233714D02*
X146913600Y-97900380D01*
X147151695Y-97233714D01*
X147437409Y-96900380D02*
X148056457Y-96900380D01*
X147723123Y-97281333D01*
X147865980Y-97281333D01*
X147961219Y-97328952D01*
X148008838Y-97376571D01*
X148056457Y-97471809D01*
X148056457Y-97709904D01*
X148008838Y-97805142D01*
X147961219Y-97852761D01*
X147865980Y-97900380D01*
X147580266Y-97900380D01*
X147485028Y-97852761D01*
X147437409Y-97805142D01*
X145937409Y-99600380D02*
X145937409Y-98600380D01*
X146365980Y-98695619D02*
X146413600Y-98648000D01*
X146508838Y-98600380D01*
X146746933Y-98600380D01*
X146842171Y-98648000D01*
X146889790Y-98695619D01*
X146937409Y-98790857D01*
X146937409Y-98886095D01*
X146889790Y-99028952D01*
X146318361Y-99600380D01*
X146937409Y-99600380D01*
X147937409Y-99505142D02*
X147889790Y-99552761D01*
X147746933Y-99600380D01*
X147651695Y-99600380D01*
X147508838Y-99552761D01*
X147413600Y-99457523D01*
X147365980Y-99362285D01*
X147318361Y-99171809D01*
X147318361Y-99028952D01*
X147365980Y-98838476D01*
X147413600Y-98743238D01*
X147508838Y-98648000D01*
X147651695Y-98600380D01*
X147746933Y-98600380D01*
X147889790Y-98648000D01*
X147937409Y-98695619D01*
D11*
X169976838Y-88322142D02*
X170586361Y-88322142D01*
X170281600Y-88626904D02*
X170281600Y-88017380D01*
X169468838Y-93148142D02*
X170078361Y-93148142D01*
X169773600Y-93452904D02*
X169773600Y-92843380D01*
D10*
X171170600Y-100101400D02*
X171170600Y-103606600D01*
D12*
X144564123Y-108545380D02*
X144087933Y-108545380D01*
X144040314Y-109021571D01*
X144087933Y-108973952D01*
X144183171Y-108926333D01*
X144421266Y-108926333D01*
X144516504Y-108973952D01*
X144564123Y-109021571D01*
X144611742Y-109116809D01*
X144611742Y-109354904D01*
X144564123Y-109450142D01*
X144516504Y-109497761D01*
X144421266Y-109545380D01*
X144183171Y-109545380D01*
X144087933Y-109497761D01*
X144040314Y-109450142D01*
X144897457Y-108545380D02*
X145230790Y-109545380D01*
X145564123Y-108545380D01*
D10*
X143611600Y-108077000D02*
X143611600Y-117729000D01*
D12*
X169305219Y-111514285D02*
X169305219Y-112133333D01*
X168924266Y-111800000D01*
X168924266Y-111942857D01*
X168876647Y-112038095D01*
X168829028Y-112085714D01*
X168733790Y-112133333D01*
X168495695Y-112133333D01*
X168400457Y-112085714D01*
X168352838Y-112038095D01*
X168305219Y-111942857D01*
X168305219Y-111657142D01*
X168352838Y-111561904D01*
X168400457Y-111514285D01*
X168971885Y-112466666D02*
X168305219Y-112704761D01*
X168971885Y-112942857D01*
X169305219Y-113228571D02*
X169305219Y-113847619D01*
X168924266Y-113514285D01*
X168924266Y-113657142D01*
X168876647Y-113752380D01*
X168829028Y-113800000D01*
X168733790Y-113847619D01*
X168495695Y-113847619D01*
X168400457Y-113800000D01*
X168352838Y-113752380D01*
X168305219Y-113657142D01*
X168305219Y-113371428D01*
X168352838Y-113276190D01*
X168400457Y-113228571D01*
X168305219Y-114276190D02*
X169305219Y-114276190D01*
X168590933Y-114609523D01*
X169305219Y-114942857D01*
X168305219Y-114942857D01*
X168400457Y-115990476D02*
X168352838Y-115942857D01*
X168305219Y-115800000D01*
X168305219Y-115704761D01*
X168352838Y-115561904D01*
X168448076Y-115466666D01*
X168543314Y-115419047D01*
X168733790Y-115371428D01*
X168876647Y-115371428D01*
X169067123Y-115419047D01*
X169162361Y-115466666D01*
X169257600Y-115561904D01*
X169305219Y-115704761D01*
X169305219Y-115800000D01*
X169257600Y-115942857D01*
X169209980Y-115990476D01*
X169305219Y-116419047D02*
X168495695Y-116419047D01*
X168400457Y-116466666D01*
X168352838Y-116514285D01*
X168305219Y-116609523D01*
X168305219Y-116800000D01*
X168352838Y-116895238D01*
X168400457Y-116942857D01*
X168495695Y-116990476D01*
X169305219Y-116990476D01*
D10*
X161391600Y-107823000D02*
X161391600Y-120650000D01*
D12*
X177560219Y-114633523D02*
X177560219Y-115252571D01*
X177179266Y-114919238D01*
X177179266Y-115062095D01*
X177131647Y-115157333D01*
X177084028Y-115204952D01*
X176988790Y-115252571D01*
X176750695Y-115252571D01*
X176655457Y-115204952D01*
X176607838Y-115157333D01*
X176560219Y-115062095D01*
X176560219Y-114776380D01*
X176607838Y-114681142D01*
X176655457Y-114633523D01*
X177226885Y-115585904D02*
X176560219Y-115824000D01*
X177226885Y-116062095D01*
X177560219Y-116347809D02*
X177560219Y-116966857D01*
X177179266Y-116633523D01*
X177179266Y-116776380D01*
X177131647Y-116871619D01*
X177084028Y-116919238D01*
X176988790Y-116966857D01*
X176750695Y-116966857D01*
X176655457Y-116919238D01*
X176607838Y-116871619D01*
X176560219Y-116776380D01*
X176560219Y-116490666D01*
X176607838Y-116395428D01*
X176655457Y-116347809D01*
D10*
X169519600Y-117221000D02*
X169519600Y-107823000D01*
X168757600Y-117221000D02*
X169519600Y-117221000D01*
X168757600Y-120650000D02*
X168757600Y-117221000D01*
D12*
X171614895Y-101380180D02*
X171614895Y-100380180D01*
X171995847Y-100380180D01*
X172091085Y-100427800D01*
X172138704Y-100475419D01*
X172186323Y-100570657D01*
X172186323Y-100713514D01*
X172138704Y-100808752D01*
X172091085Y-100856371D01*
X171995847Y-100903990D01*
X171614895Y-100903990D01*
X172757752Y-101380180D02*
X172662514Y-101332561D01*
X172614895Y-101284942D01*
X172567276Y-101189704D01*
X172567276Y-100903990D01*
X172614895Y-100808752D01*
X172662514Y-100761133D01*
X172757752Y-100713514D01*
X172900609Y-100713514D01*
X172995847Y-100761133D01*
X173043466Y-100808752D01*
X173091085Y-100903990D01*
X173091085Y-101189704D01*
X173043466Y-101284942D01*
X172995847Y-101332561D01*
X172900609Y-101380180D01*
X172757752Y-101380180D01*
X173424419Y-100713514D02*
X173614895Y-101380180D01*
X173805371Y-100903990D01*
X173995847Y-101380180D01*
X174186323Y-100713514D01*
X174948228Y-101332561D02*
X174852990Y-101380180D01*
X174662514Y-101380180D01*
X174567276Y-101332561D01*
X174519657Y-101237323D01*
X174519657Y-100856371D01*
X174567276Y-100761133D01*
X174662514Y-100713514D01*
X174852990Y-100713514D01*
X174948228Y-100761133D01*
X174995847Y-100856371D01*
X174995847Y-100951609D01*
X174519657Y-101046847D01*
X175424419Y-101380180D02*
X175424419Y-100713514D01*
X175424419Y-100903990D02*
X175472038Y-100808752D01*
X175519657Y-100761133D01*
X175614895Y-100713514D01*
X175710133Y-100713514D01*
X171614895Y-103080180D02*
X171614895Y-102080180D01*
X172091085Y-103080180D02*
X172091085Y-102080180D01*
X172662514Y-103080180D01*
X172662514Y-102080180D01*
X172995847Y-102080180D02*
X173567276Y-102080180D01*
X173281561Y-103080180D02*
X173281561Y-102080180D01*
D10*
X169138600Y-107823000D02*
X178155600Y-107823000D01*
X162661600Y-84836000D02*
X162407600Y-84709000D01*
X162661600Y-84582000D02*
X162661600Y-84836000D01*
X162407600Y-84709000D02*
X162661600Y-84582000D01*
X163995100Y-80899000D02*
X163741100Y-81026000D01*
X163995100Y-81153000D02*
X163995100Y-80899000D01*
X163741100Y-81026000D02*
X163995100Y-81153000D01*
X166852600Y-97663000D02*
X167106600Y-97536000D01*
X166852600Y-97409000D02*
X166852600Y-97663000D01*
X167106600Y-97536000D02*
X166852600Y-97409000D01*
X149199600Y-91694000D02*
X149072600Y-91948000D01*
X148945600Y-91694000D02*
X149199600Y-91694000D01*
X149072600Y-91948000D02*
X148945600Y-91694000D01*
X146151600Y-102108000D02*
X145897600Y-101981000D01*
X146151600Y-101854000D02*
X146151600Y-102108000D01*
X145897600Y-101981000D02*
X146151600Y-101854000D01*
D12*
X164299695Y-105190180D02*
X164299695Y-104190180D01*
X164966361Y-104190180D02*
X165156838Y-104190180D01*
X165252076Y-104237800D01*
X165347314Y-104333038D01*
X165394933Y-104523514D01*
X165394933Y-104856847D01*
X165347314Y-105047323D01*
X165252076Y-105142561D01*
X165156838Y-105190180D01*
X164966361Y-105190180D01*
X164871123Y-105142561D01*
X164775885Y-105047323D01*
X164728266Y-104856847D01*
X164728266Y-104523514D01*
X164775885Y-104333038D01*
X164871123Y-104237800D01*
X164966361Y-104190180D01*
X164680647Y-106842561D02*
X164585409Y-106890180D01*
X164394933Y-106890180D01*
X164299695Y-106842561D01*
X164252076Y-106747323D01*
X164252076Y-106366371D01*
X164299695Y-106271133D01*
X164394933Y-106223514D01*
X164585409Y-106223514D01*
X164680647Y-106271133D01*
X164728266Y-106366371D01*
X164728266Y-106461609D01*
X164252076Y-106556847D01*
X165061600Y-106890180D02*
X165585409Y-106223514D01*
X165061600Y-106223514D02*
X165585409Y-106890180D01*
X165966361Y-106223514D02*
X165966361Y-107223514D01*
X165966361Y-106271133D02*
X166061600Y-106223514D01*
X166252076Y-106223514D01*
X166347314Y-106271133D01*
X166394933Y-106318752D01*
X166442552Y-106413990D01*
X166442552Y-106699704D01*
X166394933Y-106794942D01*
X166347314Y-106842561D01*
X166252076Y-106890180D01*
X166061600Y-106890180D01*
X165966361Y-106842561D01*
X166871123Y-106794942D02*
X166918742Y-106842561D01*
X166871123Y-106890180D01*
X166823504Y-106842561D01*
X166871123Y-106794942D01*
X166871123Y-106890180D01*
D10*
X169138600Y-107823000D02*
X156514800Y-107823000D01*
D12*
X158381961Y-88825342D02*
X158334342Y-88872961D01*
X158191485Y-88920580D01*
X158096247Y-88920580D01*
X157953390Y-88872961D01*
X157858152Y-88777723D01*
X157810533Y-88682485D01*
X157762914Y-88492009D01*
X157762914Y-88349152D01*
X157810533Y-88158676D01*
X157858152Y-88063438D01*
X157953390Y-87968200D01*
X158096247Y-87920580D01*
X158191485Y-87920580D01*
X158334342Y-87968200D01*
X158381961Y-88015819D01*
X158810533Y-88920580D02*
X158810533Y-87920580D01*
X159239104Y-88920580D02*
X159239104Y-88396771D01*
X159191485Y-88301533D01*
X159096247Y-88253914D01*
X158953390Y-88253914D01*
X158858152Y-88301533D01*
X158810533Y-88349152D01*
X160143866Y-88920580D02*
X160143866Y-88396771D01*
X160096247Y-88301533D01*
X160001009Y-88253914D01*
X159810533Y-88253914D01*
X159715295Y-88301533D01*
X160143866Y-88872961D02*
X160048628Y-88920580D01*
X159810533Y-88920580D01*
X159715295Y-88872961D01*
X159667676Y-88777723D01*
X159667676Y-88682485D01*
X159715295Y-88587247D01*
X159810533Y-88539628D01*
X160048628Y-88539628D01*
X160143866Y-88492009D01*
X160620057Y-88920580D02*
X160620057Y-88253914D01*
X160620057Y-88444390D02*
X160667676Y-88349152D01*
X160715295Y-88301533D01*
X160810533Y-88253914D01*
X160905771Y-88253914D01*
X161667676Y-88253914D02*
X161667676Y-89063438D01*
X161620057Y-89158676D01*
X161572438Y-89206295D01*
X161477200Y-89253914D01*
X161334342Y-89253914D01*
X161239104Y-89206295D01*
X161667676Y-88872961D02*
X161572438Y-88920580D01*
X161381961Y-88920580D01*
X161286723Y-88872961D01*
X161239104Y-88825342D01*
X161191485Y-88730104D01*
X161191485Y-88444390D01*
X161239104Y-88349152D01*
X161286723Y-88301533D01*
X161381961Y-88253914D01*
X161572438Y-88253914D01*
X161667676Y-88301533D01*
X162524819Y-88872961D02*
X162429580Y-88920580D01*
X162239104Y-88920580D01*
X162143866Y-88872961D01*
X162096247Y-88777723D01*
X162096247Y-88396771D01*
X162143866Y-88301533D01*
X162239104Y-88253914D01*
X162429580Y-88253914D01*
X162524819Y-88301533D01*
X162572438Y-88396771D01*
X162572438Y-88492009D01*
X162096247Y-88587247D01*
X163001009Y-88920580D02*
X163001009Y-88253914D01*
X163001009Y-88444390D02*
X163048628Y-88349152D01*
X163096247Y-88301533D01*
X163191485Y-88253914D01*
X163286723Y-88253914D01*
X152949028Y-79215571D02*
X153091885Y-79263190D01*
X153139504Y-79310809D01*
X153187123Y-79406047D01*
X153187123Y-79548904D01*
X153139504Y-79644142D01*
X153091885Y-79691761D01*
X152996647Y-79739380D01*
X152615695Y-79739380D01*
X152615695Y-78739380D01*
X152949028Y-78739380D01*
X153044266Y-78787000D01*
X153091885Y-78834619D01*
X153139504Y-78929857D01*
X153139504Y-79025095D01*
X153091885Y-79120333D01*
X153044266Y-79167952D01*
X152949028Y-79215571D01*
X152615695Y-79215571D01*
X154044266Y-79739380D02*
X154044266Y-79215571D01*
X153996647Y-79120333D01*
X153901409Y-79072714D01*
X153710933Y-79072714D01*
X153615695Y-79120333D01*
X154044266Y-79691761D02*
X153949028Y-79739380D01*
X153710933Y-79739380D01*
X153615695Y-79691761D01*
X153568076Y-79596523D01*
X153568076Y-79501285D01*
X153615695Y-79406047D01*
X153710933Y-79358428D01*
X153949028Y-79358428D01*
X154044266Y-79310809D01*
X154377600Y-79072714D02*
X154758552Y-79072714D01*
X154520457Y-78739380D02*
X154520457Y-79596523D01*
X154568076Y-79691761D01*
X154663314Y-79739380D01*
X154758552Y-79739380D01*
X154949028Y-79072714D02*
X155329980Y-79072714D01*
X155091885Y-78739380D02*
X155091885Y-79596523D01*
X155139504Y-79691761D01*
X155234742Y-79739380D01*
X155329980Y-79739380D01*
X156044266Y-79691761D02*
X155949028Y-79739380D01*
X155758552Y-79739380D01*
X155663314Y-79691761D01*
X155615695Y-79596523D01*
X155615695Y-79215571D01*
X155663314Y-79120333D01*
X155758552Y-79072714D01*
X155949028Y-79072714D01*
X156044266Y-79120333D01*
X156091885Y-79215571D01*
X156091885Y-79310809D01*
X155615695Y-79406047D01*
X156520457Y-79739380D02*
X156520457Y-79072714D01*
X156520457Y-79263190D02*
X156568076Y-79167952D01*
X156615695Y-79120333D01*
X156710933Y-79072714D01*
X156806171Y-79072714D01*
X157044266Y-79072714D02*
X157282361Y-79739380D01*
X157520457Y-79072714D02*
X157282361Y-79739380D01*
X157187123Y-79977476D01*
X157139504Y-80025095D01*
X157044266Y-80072714D01*
X152615695Y-81439380D02*
X152615695Y-80439380D01*
X152996647Y-80439380D01*
X153091885Y-80487000D01*
X153139504Y-80534619D01*
X153187123Y-80629857D01*
X153187123Y-80772714D01*
X153139504Y-80867952D01*
X153091885Y-80915571D01*
X152996647Y-80963190D01*
X152615695Y-80963190D01*
X153615695Y-81439380D02*
X153615695Y-80772714D01*
X153615695Y-80963190D02*
X153663314Y-80867952D01*
X153710933Y-80820333D01*
X153806171Y-80772714D01*
X153901409Y-80772714D01*
X154377600Y-81439380D02*
X154282361Y-81391761D01*
X154234742Y-81344142D01*
X154187123Y-81248904D01*
X154187123Y-80963190D01*
X154234742Y-80867952D01*
X154282361Y-80820333D01*
X154377600Y-80772714D01*
X154520457Y-80772714D01*
X154615695Y-80820333D01*
X154663314Y-80867952D01*
X154710933Y-80963190D01*
X154710933Y-81248904D01*
X154663314Y-81344142D01*
X154615695Y-81391761D01*
X154520457Y-81439380D01*
X154377600Y-81439380D01*
X154996647Y-80772714D02*
X155377600Y-80772714D01*
X155139504Y-80439380D02*
X155139504Y-81296523D01*
X155187123Y-81391761D01*
X155282361Y-81439380D01*
X155377600Y-81439380D01*
X156091885Y-81391761D02*
X155996647Y-81439380D01*
X155806171Y-81439380D01*
X155710933Y-81391761D01*
X155663314Y-81296523D01*
X155663314Y-80915571D01*
X155710933Y-80820333D01*
X155806171Y-80772714D01*
X155996647Y-80772714D01*
X156091885Y-80820333D01*
X156139504Y-80915571D01*
X156139504Y-81010809D01*
X155663314Y-81106047D01*
X156996647Y-81391761D02*
X156901409Y-81439380D01*
X156710933Y-81439380D01*
X156615695Y-81391761D01*
X156568076Y-81344142D01*
X156520457Y-81248904D01*
X156520457Y-80963190D01*
X156568076Y-80867952D01*
X156615695Y-80820333D01*
X156710933Y-80772714D01*
X156901409Y-80772714D01*
X156996647Y-80820333D01*
X157282361Y-80772714D02*
X157663314Y-80772714D01*
X157425219Y-80439380D02*
X157425219Y-81296523D01*
X157472838Y-81391761D01*
X157568076Y-81439380D01*
X157663314Y-81439380D01*
X157996647Y-81439380D02*
X157996647Y-80772714D01*
X157996647Y-80439380D02*
X157949028Y-80487000D01*
X157996647Y-80534619D01*
X158044266Y-80487000D01*
X157996647Y-80439380D01*
X157996647Y-80534619D01*
X158615695Y-81439380D02*
X158520457Y-81391761D01*
X158472838Y-81344142D01*
X158425219Y-81248904D01*
X158425219Y-80963190D01*
X158472838Y-80867952D01*
X158520457Y-80820333D01*
X158615695Y-80772714D01*
X158758552Y-80772714D01*
X158853790Y-80820333D01*
X158901409Y-80867952D01*
X158949028Y-80963190D01*
X158949028Y-81248904D01*
X158901409Y-81344142D01*
X158853790Y-81391761D01*
X158758552Y-81439380D01*
X158615695Y-81439380D01*
X159377600Y-80772714D02*
X159377600Y-81439380D01*
X159377600Y-80867952D02*
X159425219Y-80820333D01*
X159520457Y-80772714D01*
X159663314Y-80772714D01*
X159758552Y-80820333D01*
X159806171Y-80915571D01*
X159806171Y-81439380D01*
D10*
X154178000Y-108077000D02*
X154178000Y-101015800D01*
D12*
X141071671Y-106878380D02*
X140738338Y-106402190D01*
X140500242Y-106878380D02*
X140500242Y-105878380D01*
X140881195Y-105878380D01*
X140976433Y-105926000D01*
X141024052Y-105973619D01*
X141071671Y-106068857D01*
X141071671Y-106211714D01*
X141024052Y-106306952D01*
X140976433Y-106354571D01*
X140881195Y-106402190D01*
X140500242Y-106402190D01*
X141357385Y-105878380D02*
X141928814Y-105878380D01*
X141643100Y-106878380D02*
X141643100Y-105878380D01*
X142833576Y-106783142D02*
X142785957Y-106830761D01*
X142643100Y-106878380D01*
X142547861Y-106878380D01*
X142405004Y-106830761D01*
X142309766Y-106735523D01*
X142262147Y-106640285D01*
X142214528Y-106449809D01*
X142214528Y-106306952D01*
X142262147Y-106116476D01*
X142309766Y-106021238D01*
X142405004Y-105926000D01*
X142547861Y-105878380D01*
X142643100Y-105878380D01*
X142785957Y-105926000D01*
X142833576Y-105973619D01*
D10*
X156514800Y-108077000D02*
X139293600Y-108077000D01*
D12*
X141087933Y-88574571D02*
X140754600Y-88574571D01*
X140754600Y-89098380D02*
X140754600Y-88098380D01*
X141230790Y-88098380D01*
X142040314Y-88431714D02*
X142040314Y-89098380D01*
X141611742Y-88431714D02*
X141611742Y-88955523D01*
X141659361Y-89050761D01*
X141754600Y-89098380D01*
X141897457Y-89098380D01*
X141992695Y-89050761D01*
X142040314Y-89003142D01*
X142897457Y-89050761D02*
X142802219Y-89098380D01*
X142611742Y-89098380D01*
X142516504Y-89050761D01*
X142468885Y-88955523D01*
X142468885Y-88574571D01*
X142516504Y-88479333D01*
X142611742Y-88431714D01*
X142802219Y-88431714D01*
X142897457Y-88479333D01*
X142945076Y-88574571D01*
X142945076Y-88669809D01*
X142468885Y-88765047D01*
X143516504Y-89098380D02*
X143421266Y-89050761D01*
X143373647Y-88955523D01*
X143373647Y-88098380D01*
X145183171Y-88146000D02*
X145087933Y-88098380D01*
X144945076Y-88098380D01*
X144802219Y-88146000D01*
X144706980Y-88241238D01*
X144659361Y-88336476D01*
X144611742Y-88526952D01*
X144611742Y-88669809D01*
X144659361Y-88860285D01*
X144706980Y-88955523D01*
X144802219Y-89050761D01*
X144945076Y-89098380D01*
X145040314Y-89098380D01*
X145183171Y-89050761D01*
X145230790Y-89003142D01*
X145230790Y-88669809D01*
X145040314Y-88669809D01*
X146087933Y-89098380D02*
X146087933Y-88574571D01*
X146040314Y-88479333D01*
X145945076Y-88431714D01*
X145754600Y-88431714D01*
X145659361Y-88479333D01*
X146087933Y-89050761D02*
X145992695Y-89098380D01*
X145754600Y-89098380D01*
X145659361Y-89050761D01*
X145611742Y-88955523D01*
X145611742Y-88860285D01*
X145659361Y-88765047D01*
X145754600Y-88717428D01*
X145992695Y-88717428D01*
X146087933Y-88669809D01*
X146992695Y-88431714D02*
X146992695Y-89098380D01*
X146564123Y-88431714D02*
X146564123Y-88955523D01*
X146611742Y-89050761D01*
X146706980Y-89098380D01*
X146849838Y-89098380D01*
X146945076Y-89050761D01*
X146992695Y-89003142D01*
X147897457Y-88431714D02*
X147897457Y-89241238D01*
X147849838Y-89336476D01*
X147802219Y-89384095D01*
X147706980Y-89431714D01*
X147564123Y-89431714D01*
X147468885Y-89384095D01*
X147897457Y-89050761D02*
X147802219Y-89098380D01*
X147611742Y-89098380D01*
X147516504Y-89050761D01*
X147468885Y-89003142D01*
X147421266Y-88907904D01*
X147421266Y-88622190D01*
X147468885Y-88526952D01*
X147516504Y-88479333D01*
X147611742Y-88431714D01*
X147802219Y-88431714D01*
X147897457Y-88479333D01*
X148754600Y-89050761D02*
X148659361Y-89098380D01*
X148468885Y-89098380D01*
X148373647Y-89050761D01*
X148326028Y-88955523D01*
X148326028Y-88574571D01*
X148373647Y-88479333D01*
X148468885Y-88431714D01*
X148659361Y-88431714D01*
X148754600Y-88479333D01*
X148802219Y-88574571D01*
X148802219Y-88669809D01*
X148326028Y-88765047D01*
D10*
X149707600Y-95885000D02*
X145389600Y-95885000D01*
X139674600Y-87820500D02*
X139674600Y-101092000D01*
X149707600Y-87820500D02*
X139674600Y-87820500D01*
X149707600Y-95885000D02*
X149707600Y-87820500D01*
D11*
X137839457Y-92639857D02*
X137839457Y-92373190D01*
X138258504Y-92258904D02*
X138258504Y-92639857D01*
X137458504Y-92639857D01*
X137458504Y-92258904D01*
X138258504Y-91992238D02*
X137725171Y-91573190D01*
X137725171Y-91992238D02*
X138258504Y-91573190D01*
X137725171Y-91382714D02*
X137725171Y-91077952D01*
X137458504Y-91268428D02*
X138144219Y-91268428D01*
X138220409Y-91230333D01*
X138258504Y-91154142D01*
X138258504Y-91077952D01*
X138182314Y-90811285D02*
X138220409Y-90773190D01*
X138258504Y-90811285D01*
X138220409Y-90849380D01*
X138182314Y-90811285D01*
X138258504Y-90811285D01*
X138258504Y-89820809D02*
X137458504Y-89820809D01*
X138258504Y-89363666D01*
X137458504Y-89363666D01*
X137458504Y-89097000D02*
X137458504Y-88639857D01*
X138258504Y-88868428D02*
X137458504Y-88868428D01*
X138182314Y-87916047D02*
X138220409Y-87954142D01*
X138258504Y-88068428D01*
X138258504Y-88144619D01*
X138220409Y-88258904D01*
X138144219Y-88335095D01*
X138068028Y-88373190D01*
X137915647Y-88411285D01*
X137801361Y-88411285D01*
X137648980Y-88373190D01*
X137572790Y-88335095D01*
X137496600Y-88258904D01*
X137458504Y-88144619D01*
X137458504Y-88068428D01*
X137496600Y-87954142D01*
X137534695Y-87916047D01*
X138258504Y-105670000D02*
X137877552Y-105936666D01*
X138258504Y-106127142D02*
X137458504Y-106127142D01*
X137458504Y-105822380D01*
X137496600Y-105746190D01*
X137534695Y-105708095D01*
X137610885Y-105670000D01*
X137725171Y-105670000D01*
X137801361Y-105708095D01*
X137839457Y-105746190D01*
X137877552Y-105822380D01*
X137877552Y-106127142D01*
X137458504Y-105441428D02*
X137458504Y-104984285D01*
X138258504Y-105212857D02*
X137458504Y-105212857D01*
X138182314Y-104260476D02*
X138220409Y-104298571D01*
X138258504Y-104412857D01*
X138258504Y-104489047D01*
X138220409Y-104603333D01*
X138144219Y-104679523D01*
X138068028Y-104717619D01*
X137915647Y-104755714D01*
X137801361Y-104755714D01*
X137648980Y-104717619D01*
X137572790Y-104679523D01*
X137496600Y-104603333D01*
X137458504Y-104489047D01*
X137458504Y-104412857D01*
X137496600Y-104298571D01*
X137534695Y-104260476D01*
X138258504Y-103308095D02*
X137458504Y-103308095D01*
X137763266Y-103308095D02*
X137725171Y-103231904D01*
X137725171Y-103079523D01*
X137763266Y-103003333D01*
X137801361Y-102965238D01*
X137877552Y-102927142D01*
X138106123Y-102927142D01*
X138182314Y-102965238D01*
X138220409Y-103003333D01*
X138258504Y-103079523D01*
X138258504Y-103231904D01*
X138220409Y-103308095D01*
X137725171Y-102660476D02*
X138258504Y-102470000D01*
X137725171Y-102279523D02*
X138258504Y-102470000D01*
X138448980Y-102546190D01*
X138487076Y-102584285D01*
X138525171Y-102660476D01*
X137725171Y-101974761D02*
X138525171Y-101974761D01*
X137763266Y-101974761D02*
X137725171Y-101898571D01*
X137725171Y-101746190D01*
X137763266Y-101670000D01*
X137801361Y-101631904D01*
X137877552Y-101593809D01*
X138106123Y-101593809D01*
X138182314Y-101631904D01*
X138220409Y-101670000D01*
X138258504Y-101746190D01*
X138258504Y-101898571D01*
X138220409Y-101974761D01*
X138258504Y-100908095D02*
X137839457Y-100908095D01*
X137763266Y-100946190D01*
X137725171Y-101022380D01*
X137725171Y-101174761D01*
X137763266Y-101250952D01*
X138220409Y-100908095D02*
X138258504Y-100984285D01*
X138258504Y-101174761D01*
X138220409Y-101250952D01*
X138144219Y-101289047D01*
X138068028Y-101289047D01*
X137991838Y-101250952D01*
X137953742Y-101174761D01*
X137953742Y-100984285D01*
X137915647Y-100908095D01*
X138220409Y-100565238D02*
X138258504Y-100489047D01*
X138258504Y-100336666D01*
X138220409Y-100260476D01*
X138144219Y-100222380D01*
X138106123Y-100222380D01*
X138029933Y-100260476D01*
X137991838Y-100336666D01*
X137991838Y-100450952D01*
X137953742Y-100527142D01*
X137877552Y-100565238D01*
X137839457Y-100565238D01*
X137763266Y-100527142D01*
X137725171Y-100450952D01*
X137725171Y-100336666D01*
X137763266Y-100260476D01*
X138220409Y-99917619D02*
X138258504Y-99841428D01*
X138258504Y-99689047D01*
X138220409Y-99612857D01*
X138144219Y-99574761D01*
X138106123Y-99574761D01*
X138029933Y-99612857D01*
X137991838Y-99689047D01*
X137991838Y-99803333D01*
X137953742Y-99879523D01*
X137877552Y-99917619D01*
X137839457Y-99917619D01*
X137763266Y-99879523D01*
X137725171Y-99803333D01*
X137725171Y-99689047D01*
X137763266Y-99612857D01*
D10*
X156867600Y-104071500D02*
X156867600Y-107671500D01*
X156867600Y-104071500D02*
X156867600Y-101871500D01*
X162337600Y-104071500D02*
X162337600Y-106271500D01*
X162337600Y-104071500D02*
X162337600Y-101871500D01*
X147318000Y-85666733D02*
X147318000Y-86009267D01*
X148338000Y-85666733D02*
X148338000Y-86009267D01*
X143570800Y-86621400D02*
X143570800Y-85161400D01*
X146730800Y-86621400D02*
X146730800Y-84461400D01*
X146730800Y-86621400D02*
X145800800Y-86621400D01*
X143570800Y-86621400D02*
X144500800Y-86621400D01*
X143426400Y-83880200D02*
X147726400Y-83880200D01*
X143426400Y-81880200D02*
X143426400Y-83880200D01*
X147726400Y-81880200D02*
X143426400Y-81880200D01*
X159218100Y-109957776D02*
X159218100Y-110467224D01*
X160263100Y-109957776D02*
X160263100Y-110467224D01*
X142216600Y-97364733D02*
X142216600Y-97707267D01*
X141196600Y-97364733D02*
X141196600Y-97707267D01*
X142953600Y-96714000D02*
X142953600Y-96274000D01*
X142953600Y-96274000D02*
X143353600Y-96274000D01*
X142953600Y-96714000D02*
X142953600Y-96274000D01*
X142953600Y-96274000D02*
X143353600Y-96274000D01*
X144793600Y-96714000D02*
X144793600Y-96274000D01*
X144793600Y-96274000D02*
X144393600Y-96274000D01*
X142953600Y-96714000D02*
X142953600Y-96274000D01*
X142953600Y-96274000D02*
X143353600Y-96274000D01*
X144793600Y-97834000D02*
X144793600Y-98274000D01*
X144793600Y-98274000D02*
X144393600Y-98274000D01*
X142953600Y-97274000D02*
X143953600Y-98274000D01*
D12*
X143173600Y-98154000D02*
G75*
G03*
X143173600Y-98154000I-100000J0D01*
G01*
D10*
X154027600Y-102979067D02*
X154027600Y-102636533D01*
X153007600Y-102979067D02*
X153007600Y-102636533D01*
X148435600Y-99040733D02*
X148435600Y-99333267D01*
X149455600Y-99040733D02*
X149455600Y-99333267D01*
X152349600Y-114332000D02*
X152349600Y-116782000D01*
X155569600Y-116132000D02*
X155569600Y-114332000D01*
X155825600Y-100767000D02*
X154365600Y-100767000D01*
X155825600Y-97607000D02*
X153665600Y-97607000D01*
X155825600Y-97607000D02*
X155825600Y-98537000D01*
X155825600Y-100767000D02*
X155825600Y-99837000D01*
X165102100Y-80366000D02*
X162652100Y-80366000D01*
X163302100Y-83586000D02*
X165102100Y-83586000D01*
X167006600Y-119194252D02*
X167006600Y-118671748D01*
X168476600Y-119194252D02*
X168476600Y-118671748D01*
X167495600Y-115654800D02*
X167495600Y-116964800D01*
X167495600Y-116964800D02*
X164775600Y-116964800D01*
X163635600Y-112474800D02*
X164775600Y-112474800D01*
X167495600Y-112244800D02*
X167495600Y-113554800D01*
X164775600Y-112244800D02*
X167495600Y-112244800D01*
X164775600Y-112244800D02*
X164775600Y-112474800D01*
X164775600Y-116964800D02*
X164775600Y-116734800D01*
X175496600Y-115654800D02*
X175496600Y-116964800D01*
X175496600Y-116964800D02*
X172776600Y-116964800D01*
X171636600Y-112474800D02*
X172776600Y-112474800D01*
X175496600Y-112244800D02*
X175496600Y-113554800D01*
X172776600Y-112244800D02*
X175496600Y-112244800D01*
X172776600Y-112244800D02*
X172776600Y-112474800D01*
X172776600Y-116964800D02*
X172776600Y-116734800D01*
X172839600Y-81423000D02*
X172839600Y-83423000D01*
X170039600Y-81423000D02*
X172839600Y-81423000D01*
X170039600Y-83423000D02*
X170039600Y-81423000D01*
X172839600Y-83423000D02*
X170039600Y-83423000D01*
X156875600Y-88029000D02*
X156875600Y-89489000D01*
X153715600Y-88029000D02*
X153715600Y-90189000D01*
X153715600Y-88029000D02*
X154645600Y-88029000D01*
X156875600Y-88029000D02*
X155945600Y-88029000D01*
X154678600Y-108529000D02*
X156138600Y-108529000D01*
X154678600Y-111689000D02*
X156838600Y-111689000D01*
X154678600Y-111689000D02*
X154678600Y-110759000D01*
X154678600Y-108529000D02*
X154678600Y-109459000D01*
X175470600Y-111750000D02*
X174010600Y-111750000D01*
X175470600Y-108590000D02*
X173310600Y-108590000D01*
X175470600Y-108590000D02*
X175470600Y-109520000D01*
X175470600Y-111750000D02*
X175470600Y-110820000D01*
X167469600Y-111750000D02*
X166009600Y-111750000D01*
X167469600Y-108590000D02*
X165309600Y-108590000D01*
X167469600Y-108590000D02*
X167469600Y-109520000D01*
X167469600Y-111750000D02*
X167469600Y-110820000D01*
X151381376Y-93867500D02*
X151890824Y-93867500D01*
X151381376Y-92822500D02*
X151890824Y-92822500D01*
X166330100Y-101749776D02*
X166330100Y-102259224D01*
X167375100Y-101749776D02*
X167375100Y-102259224D01*
X151970824Y-89266500D02*
X151461376Y-89266500D01*
X151970824Y-90311500D02*
X151461376Y-90311500D01*
X158612100Y-110490724D02*
X158612100Y-109981276D01*
X157567100Y-110490724D02*
X157567100Y-109981276D01*
X163536100Y-110046076D02*
X163536100Y-110555524D01*
X164581100Y-110046076D02*
X164581100Y-110555524D01*
X171537100Y-110004776D02*
X171537100Y-110514224D01*
X172582100Y-110004776D02*
X172582100Y-110514224D01*
X163692324Y-98791500D02*
X163182876Y-98791500D01*
X163692324Y-99836500D02*
X163182876Y-99836500D01*
X174877824Y-103998500D02*
X174368376Y-103998500D01*
X174877824Y-105043500D02*
X174368376Y-105043500D01*
X156875600Y-91585000D02*
X156875600Y-93045000D01*
X153715600Y-91585000D02*
X153715600Y-93745000D01*
X153715600Y-91585000D02*
X154645600Y-91585000D01*
X156875600Y-91585000D02*
X155945600Y-91585000D01*
X162480852Y-90197000D02*
X161958348Y-90197000D01*
X162480852Y-91667000D02*
X161958348Y-91667000D01*
X141833600Y-123377000D02*
X141833600Y-120717000D01*
X141833600Y-123377000D02*
X172373600Y-123377000D01*
X172373600Y-123377000D02*
X172373600Y-120717000D01*
X141833600Y-120717000D02*
X172373600Y-120717000D01*
X139233600Y-120717000D02*
X140563600Y-120717000D01*
X139233600Y-122047000D02*
X139233600Y-120717000D01*
X161897600Y-110447067D02*
X161897600Y-110154533D01*
X162917600Y-110447067D02*
X162917600Y-110154533D01*
X155166600Y-102862767D02*
X155166600Y-102570233D01*
X156186600Y-102862767D02*
X156186600Y-102570233D01*
X139999533Y-108430600D02*
X140292067Y-108430600D01*
X139999533Y-109450600D02*
X140292067Y-109450600D01*
X152271000Y-110447067D02*
X152271000Y-110154533D01*
X153291000Y-110447067D02*
X153291000Y-110154533D01*
X152880600Y-119032267D02*
X152880600Y-118739733D01*
X153900600Y-119032267D02*
X153900600Y-118739733D01*
X163047867Y-118366000D02*
X162755333Y-118366000D01*
X163047867Y-117346000D02*
X162755333Y-117346000D01*
X170248333Y-117346000D02*
X170540867Y-117346000D01*
X170248333Y-118366000D02*
X170540867Y-118366000D01*
X171549600Y-106164767D02*
X171549600Y-105872233D01*
X172569600Y-106164767D02*
X172569600Y-105872233D01*
X167584167Y-92534200D02*
X167291633Y-92534200D01*
X167584167Y-91514200D02*
X167291633Y-91514200D01*
X156304367Y-96010000D02*
X156011833Y-96010000D01*
X156304367Y-97030000D02*
X156011833Y-97030000D01*
X134153600Y-100397000D02*
X135483600Y-100397000D01*
X134153600Y-101727000D02*
X134153600Y-100397000D01*
X134153600Y-102997000D02*
X136813600Y-102997000D01*
X136813600Y-102997000D02*
X136813600Y-105597000D01*
X134153600Y-102997000D02*
X134153600Y-105597000D01*
X134153600Y-105597000D02*
X136813600Y-105597000D01*
X167203333Y-99824000D02*
X167545867Y-99824000D01*
X167203333Y-98804000D02*
X167545867Y-98804000D01*
X155801600Y-85031733D02*
X155801600Y-85374267D01*
X156821600Y-85031733D02*
X156821600Y-85374267D01*
X154408600Y-85374267D02*
X154408600Y-85031733D01*
X153388600Y-85374267D02*
X153388600Y-85031733D01*
X161386600Y-97554000D02*
X161386600Y-99014000D01*
X158226600Y-97554000D02*
X158226600Y-99714000D01*
X158226600Y-97554000D02*
X159156600Y-97554000D01*
X161386600Y-97554000D02*
X160456600Y-97554000D01*
X151995600Y-85374267D02*
X151995600Y-85031733D01*
X150975600Y-85374267D02*
X150975600Y-85031733D01*
X166444600Y-119194252D02*
X166444600Y-118671748D01*
X164974600Y-119194252D02*
X164974600Y-118671748D01*
X163237852Y-118899000D02*
X162715348Y-118899000D01*
X163237852Y-120369000D02*
X162715348Y-120369000D01*
X158951600Y-119067252D02*
X158951600Y-118544748D01*
X157481600Y-119067252D02*
X157481600Y-118544748D01*
X170208348Y-120369000D02*
X170730852Y-120369000D01*
X170208348Y-118899000D02*
X170730852Y-118899000D01*
X160983600Y-119067252D02*
X160983600Y-118544748D01*
X159513600Y-119067252D02*
X159513600Y-118544748D01*
X141092600Y-112634000D02*
X138792600Y-112634000D01*
X139492600Y-115834000D02*
X141092600Y-115834000D01*
X165370600Y-93096400D02*
X163420600Y-93096400D01*
X165370600Y-93096400D02*
X167320600Y-93096400D01*
X165370600Y-98216400D02*
X163420600Y-98216400D01*
X165370600Y-98216400D02*
X168820600Y-98216400D01*
X152376600Y-102976467D02*
X152376600Y-102633933D01*
X151356600Y-102976467D02*
X151356600Y-102633933D01*
X151864600Y-99001733D02*
X151864600Y-99344267D01*
X152884600Y-99001733D02*
X152884600Y-99344267D01*
X137670800Y-106802600D02*
X137670800Y-107252600D01*
X135820800Y-106802600D02*
X137670800Y-106802600D01*
X133270800Y-114602600D02*
X133520800Y-114602600D01*
X133270800Y-106802600D02*
X133520800Y-106802600D01*
X135820800Y-114602600D02*
X137670800Y-114602600D01*
X137670800Y-114602600D02*
X137670800Y-114152600D01*
X138220800Y-109002600D02*
X138220800Y-109452600D01*
X138220800Y-109002600D02*
X137770800Y-109002600D01*
X133913600Y-94645000D02*
X134213600Y-94645000D01*
X137053600Y-98785000D02*
X136753600Y-98785000D01*
X134213600Y-98785000D02*
X133913600Y-98785000D01*
X137053600Y-94645000D02*
X137053600Y-98785000D01*
X136753600Y-94645000D02*
X137053600Y-94645000D01*
X133913600Y-98785000D02*
X133913600Y-94645000D01*
X134153600Y-92897000D02*
X136813600Y-92897000D01*
X134153600Y-90297000D02*
X134153600Y-92897000D01*
X136813600Y-90297000D02*
X136813600Y-92897000D01*
X134153600Y-90297000D02*
X136813600Y-90297000D01*
X134153600Y-89027000D02*
X134153600Y-87697000D01*
X134153600Y-87697000D02*
X135483600Y-87697000D01*
X172047200Y-89118400D02*
X170832200Y-89118400D01*
X176007200Y-89058400D02*
X178267200Y-89058400D01*
X176007200Y-88558400D02*
X178267200Y-88558400D01*
X174407200Y-85958400D02*
X174407200Y-84958400D01*
X176007200Y-85958400D02*
X174407200Y-85958400D01*
X176007200Y-84958400D02*
X176007200Y-85958400D01*
X174407200Y-84958400D02*
X176007200Y-84958400D01*
X174407200Y-88558400D02*
X174407200Y-89558400D01*
X176007200Y-88558400D02*
X174407200Y-88558400D01*
X176007200Y-89558400D02*
X176007200Y-88558400D01*
X174407200Y-89558400D02*
X176007200Y-89558400D01*
X172047200Y-84198400D02*
X172047200Y-85118400D01*
X172047200Y-90318400D02*
X172047200Y-89398400D01*
X173907200Y-86758400D02*
X178267200Y-86758400D01*
X173907200Y-87758400D02*
X173907200Y-86758400D01*
X178267200Y-87758400D02*
X173907200Y-87758400D01*
X172047200Y-85118400D02*
X172047200Y-85398400D01*
X170447200Y-85118400D02*
X172047200Y-85118400D01*
X170447200Y-84198400D02*
X170447200Y-85118400D01*
X178267200Y-84198400D02*
X170447200Y-84198400D01*
X178267200Y-90318400D02*
X178267200Y-84198400D01*
X170447200Y-90318400D02*
X178267200Y-90318400D01*
X170447200Y-89398400D02*
X170447200Y-90318400D01*
X172047200Y-89398400D02*
X170447200Y-89398400D01*
X172047200Y-89118400D02*
X172047200Y-89398400D01*
X144051233Y-92242100D02*
X144393767Y-92242100D01*
X144051233Y-91222100D02*
X144393767Y-91222100D01*
X141314200Y-102530600D02*
X141314200Y-103880600D01*
X143064200Y-102530600D02*
X143064200Y-103880600D01*
X147207200Y-106420600D02*
X149157200Y-106420600D01*
X147207200Y-106420600D02*
X145257200Y-106420600D01*
X147207200Y-101300600D02*
X149157200Y-101300600D01*
X147207200Y-101300600D02*
X143757200Y-101300600D01*
X149399900Y-93103700D02*
X149399900Y-95103700D01*
X146179900Y-91103700D02*
X146179900Y-95103700D01*
X164421900Y-87344800D02*
X166621900Y-87344800D01*
X164421900Y-87344800D02*
X162221900Y-87344800D01*
X164421900Y-84124800D02*
X166621900Y-84124800D01*
X164421900Y-84124800D02*
X160821900Y-84124800D01*
X168247600Y-82199267D02*
X168247600Y-81856733D01*
X169267600Y-82199267D02*
X169267600Y-81856733D01*
X156182600Y-115374267D02*
X156182600Y-115031733D01*
X157202600Y-115374267D02*
X157202600Y-115031733D01*
X154404600Y-119057267D02*
X154404600Y-118714733D01*
X155424600Y-119057267D02*
X155424600Y-118714733D01*
X156948600Y-118714733D02*
X156948600Y-119057267D01*
X155928600Y-118714733D02*
X155928600Y-119057267D01*
X165356000Y-90937233D02*
X165356000Y-91279767D01*
X164336000Y-90937233D02*
X164336000Y-91279767D01*
X161139600Y-94457733D02*
X161139600Y-94800267D01*
X160119600Y-94457733D02*
X160119600Y-94800267D01*
X156186600Y-106000733D02*
X156186600Y-106343267D01*
X155166600Y-106000733D02*
X155166600Y-106343267D01*
X144393767Y-93867700D02*
X144051233Y-93867700D01*
X144393767Y-92847700D02*
X144051233Y-92847700D01*
X144393767Y-95493300D02*
X144051233Y-95493300D01*
X144393767Y-94473300D02*
X144051233Y-94473300D01*
X161774600Y-81884733D02*
X161774600Y-82227267D01*
X160754600Y-81884733D02*
X160754600Y-82227267D01*
X161193600Y-114540000D02*
X160263600Y-114540000D01*
X158033600Y-114540000D02*
X158963600Y-114540000D01*
X158033600Y-114540000D02*
X158033600Y-116700000D01*
X161193600Y-114540000D02*
X161193600Y-116000000D01*
X164961600Y-103688000D02*
X164961600Y-102758000D01*
X164961600Y-100528000D02*
X164961600Y-101458000D01*
X164961600Y-100528000D02*
X162801600Y-100528000D01*
X164961600Y-103688000D02*
X163501600Y-103688000D01*
X167746600Y-106789000D02*
X168676600Y-106789000D01*
X170906600Y-106789000D02*
X169976600Y-106789000D01*
X170906600Y-106789000D02*
X170906600Y-104629000D01*
X167746600Y-106789000D02*
X167746600Y-105329000D01*
X151873000Y-110833200D02*
X151873000Y-116533200D01*
X146513000Y-117143200D02*
X145663000Y-117143200D01*
X145053000Y-116533200D02*
X145053000Y-110883200D01*
X145713000Y-110223200D02*
X146513000Y-110223200D01*
X151263000Y-117143200D02*
X150413000Y-117143200D01*
X150413000Y-110223200D02*
X151263000Y-110223200D01*
X145663000Y-117143200D02*
G75*
G02*
X145053000Y-116533200I0J610000D01*
G01*
X145053000Y-110883200D02*
G75*
G02*
X145713000Y-110223200I660000J0D01*
G01*
X151873000Y-116533200D02*
G75*
G02*
X151263000Y-117143200I-610000J0D01*
G01*
X151263000Y-110223200D02*
G75*
G02*
X151873000Y-110833200I0J-610000D01*
G01*
X172040000Y-92401400D02*
X169840000Y-92401400D01*
X169840000Y-92401400D02*
X169840000Y-91181400D01*
X169840000Y-91181400D02*
X178260000Y-91181400D01*
X178260000Y-91181400D02*
X178260000Y-98901400D01*
X178260000Y-98901400D02*
X169840000Y-98901400D01*
X169840000Y-98901400D02*
X169840000Y-97681400D01*
X169840000Y-97681400D02*
X172040000Y-97681400D01*
X177040000Y-91181400D02*
X177040000Y-92401400D01*
X177040000Y-92401400D02*
X172040000Y-92401400D01*
X172040000Y-92401400D02*
X172040000Y-91181400D01*
X177040000Y-98901400D02*
X177040000Y-97681400D01*
X177040000Y-97681400D02*
X172040000Y-97681400D01*
X172040000Y-97681400D02*
X172040000Y-98901400D01*
X173040000Y-92401400D02*
X173040000Y-97681400D01*
X173040000Y-93791400D02*
X173040000Y-93471400D01*
X173040000Y-93471400D02*
X176460000Y-93471400D01*
X176460000Y-93471400D02*
X176540000Y-93791400D01*
X176540000Y-93791400D02*
X176460000Y-94111400D01*
X176460000Y-94111400D02*
X173040000Y-94111400D01*
X173040000Y-94111400D02*
X173040000Y-93791400D01*
X172040000Y-94961400D02*
X172040000Y-95121400D01*
X173040000Y-96291400D02*
X173040000Y-95971400D01*
X173040000Y-95971400D02*
X176460000Y-95971400D01*
X176460000Y-95971400D02*
X176540000Y-96291400D01*
X176540000Y-96291400D02*
X176460000Y-96611400D01*
X176460000Y-96611400D02*
X173040000Y-96611400D01*
X173040000Y-96611400D02*
X173040000Y-96291400D01*
X169950000Y-93791400D02*
X169350000Y-93491400D01*
X169350000Y-93491400D02*
X169350000Y-94091400D01*
X169350000Y-94091400D02*
X169950000Y-93791400D01*
X152464600Y-120354600D02*
X152464600Y-118354600D01*
X152464600Y-118354600D02*
X148564600Y-118354600D01*
X152464600Y-120354600D02*
X148564600Y-120354600D01*
X173087200Y-105553000D02*
X173087200Y-107553000D01*
X173087200Y-107553000D02*
X176987200Y-107553000D01*
X173087200Y-105553000D02*
X176987200Y-105553000D01*
X168248200Y-89612800D02*
X165788200Y-89612800D01*
X165788200Y-89612800D02*
X165788200Y-91082800D01*
X165788200Y-91082800D02*
X168248200Y-91082800D01*
X159682333Y-112266000D02*
X160024867Y-112266000D01*
X159682333Y-113286000D02*
X160024867Y-113286000D01*
X170918600Y-110050733D02*
X170918600Y-110393267D01*
X169898600Y-110050733D02*
X169898600Y-110393267D01*
X161897600Y-113949267D02*
X161897600Y-113606733D01*
X162917600Y-113949267D02*
X162917600Y-113606733D01*
X169898600Y-113949267D02*
X169898600Y-113606733D01*
X170918600Y-113949267D02*
X170918600Y-113606733D01*
X151106600Y-99001733D02*
X151106600Y-99344267D01*
X150086600Y-99001733D02*
X150086600Y-99344267D01*
X144051233Y-89647300D02*
X144393767Y-89647300D01*
X144051233Y-90667300D02*
X144393767Y-90667300D01*
X166596600Y-82199267D02*
X166596600Y-81856733D01*
X167616600Y-82199267D02*
X167616600Y-81856733D01*
D11*
X162528304Y-107518123D02*
X163175923Y-107518123D01*
X163252114Y-107480028D01*
X163290209Y-107441933D01*
X163328304Y-107365742D01*
X163328304Y-107213361D01*
X163290209Y-107137171D01*
X163252114Y-107099076D01*
X163175923Y-107060980D01*
X162528304Y-107060980D01*
X162528304Y-106299076D02*
X162528304Y-106680028D01*
X162909257Y-106718123D01*
X162871161Y-106680028D01*
X162833066Y-106603838D01*
X162833066Y-106413361D01*
X162871161Y-106337171D01*
X162909257Y-106299076D01*
X162985447Y-106260980D01*
X163175923Y-106260980D01*
X163252114Y-106299076D01*
X163290209Y-106337171D01*
X163328304Y-106413361D01*
X163328304Y-106603838D01*
X163290209Y-106680028D01*
X163252114Y-106718123D01*
X148930533Y-86154666D02*
X148697200Y-85821333D01*
X148530533Y-86154666D02*
X148530533Y-85454666D01*
X148797200Y-85454666D01*
X148863866Y-85488000D01*
X148897200Y-85521333D01*
X148930533Y-85588000D01*
X148930533Y-85688000D01*
X148897200Y-85754666D01*
X148863866Y-85788000D01*
X148797200Y-85821333D01*
X148530533Y-85821333D01*
X149563866Y-85454666D02*
X149230533Y-85454666D01*
X149197200Y-85788000D01*
X149230533Y-85754666D01*
X149297200Y-85721333D01*
X149463866Y-85721333D01*
X149530533Y-85754666D01*
X149563866Y-85788000D01*
X149597200Y-85854666D01*
X149597200Y-86021333D01*
X149563866Y-86088000D01*
X149530533Y-86121333D01*
X149463866Y-86154666D01*
X149297200Y-86154666D01*
X149230533Y-86121333D01*
X149197200Y-86088000D01*
X145119733Y-86209933D02*
X145053066Y-86176600D01*
X144986400Y-86109933D01*
X144886400Y-86009933D01*
X144819733Y-85976600D01*
X144753066Y-85976600D01*
X144786400Y-86143266D02*
X144719733Y-86109933D01*
X144653066Y-86043266D01*
X144619733Y-85909933D01*
X144619733Y-85676600D01*
X144653066Y-85543266D01*
X144719733Y-85476600D01*
X144786400Y-85443266D01*
X144919733Y-85443266D01*
X144986400Y-85476600D01*
X145053066Y-85543266D01*
X145086400Y-85676600D01*
X145086400Y-85909933D01*
X145053066Y-86043266D01*
X144986400Y-86109933D01*
X144919733Y-86143266D01*
X144786400Y-86143266D01*
X145686400Y-85676600D02*
X145686400Y-86143266D01*
X145519733Y-85409933D02*
X145353066Y-85909933D01*
X145786400Y-85909933D01*
X145431733Y-81672866D02*
X145431733Y-80972866D01*
X145598400Y-80972866D01*
X145698400Y-81006200D01*
X145765066Y-81072866D01*
X145798400Y-81139533D01*
X145831733Y-81272866D01*
X145831733Y-81372866D01*
X145798400Y-81506200D01*
X145765066Y-81572866D01*
X145698400Y-81639533D01*
X145598400Y-81672866D01*
X145431733Y-81672866D01*
X146498400Y-81672866D02*
X146098400Y-81672866D01*
X146298400Y-81672866D02*
X146298400Y-80972866D01*
X146231733Y-81072866D01*
X146165066Y-81139533D01*
X146098400Y-81172866D01*
X159773200Y-108698466D02*
X159539866Y-108365133D01*
X159373200Y-108698466D02*
X159373200Y-107998466D01*
X159639866Y-107998466D01*
X159706533Y-108031800D01*
X159739866Y-108065133D01*
X159773200Y-108131800D01*
X159773200Y-108231800D01*
X159739866Y-108298466D01*
X159706533Y-108331800D01*
X159639866Y-108365133D01*
X159373200Y-108365133D01*
X160039866Y-108065133D02*
X160073200Y-108031800D01*
X160139866Y-107998466D01*
X160306533Y-107998466D01*
X160373200Y-108031800D01*
X160406533Y-108065133D01*
X160439866Y-108131800D01*
X160439866Y-108198466D01*
X160406533Y-108298466D01*
X160006533Y-108698466D01*
X160439866Y-108698466D01*
X161073200Y-107998466D02*
X160739866Y-107998466D01*
X160706533Y-108331800D01*
X160739866Y-108298466D01*
X160806533Y-108265133D01*
X160973200Y-108265133D01*
X161039866Y-108298466D01*
X161073200Y-108331800D01*
X161106533Y-108398466D01*
X161106533Y-108565133D01*
X161073200Y-108631800D01*
X161039866Y-108665133D01*
X160973200Y-108698466D01*
X160806533Y-108698466D01*
X160739866Y-108665133D01*
X160706533Y-108631800D01*
X140722314Y-98050285D02*
X140760409Y-98088380D01*
X140798504Y-98202666D01*
X140798504Y-98278857D01*
X140760409Y-98393142D01*
X140684219Y-98469333D01*
X140608028Y-98507428D01*
X140455647Y-98545523D01*
X140341361Y-98545523D01*
X140188980Y-98507428D01*
X140112790Y-98469333D01*
X140036600Y-98393142D01*
X139998504Y-98278857D01*
X139998504Y-98202666D01*
X140036600Y-98088380D01*
X140074695Y-98050285D01*
X140074695Y-97745523D02*
X140036600Y-97707428D01*
X139998504Y-97631238D01*
X139998504Y-97440761D01*
X140036600Y-97364571D01*
X140074695Y-97326476D01*
X140150885Y-97288380D01*
X140227076Y-97288380D01*
X140341361Y-97326476D01*
X140798504Y-97783619D01*
X140798504Y-97288380D01*
X140798504Y-96907428D02*
X140798504Y-96755047D01*
X140760409Y-96678857D01*
X140722314Y-96640761D01*
X140608028Y-96564571D01*
X140455647Y-96526476D01*
X140150885Y-96526476D01*
X140074695Y-96564571D01*
X140036600Y-96602666D01*
X139998504Y-96678857D01*
X139998504Y-96831238D01*
X140036600Y-96907428D01*
X140074695Y-96945523D01*
X140150885Y-96983619D01*
X140341361Y-96983619D01*
X140417552Y-96945523D01*
X140455647Y-96907428D01*
X140493742Y-96831238D01*
X140493742Y-96678857D01*
X140455647Y-96602666D01*
X140417552Y-96564571D01*
X140341361Y-96526476D01*
X142875123Y-98875904D02*
X142875123Y-99523523D01*
X142913219Y-99599714D01*
X142951314Y-99637809D01*
X143027504Y-99675904D01*
X143179885Y-99675904D01*
X143256076Y-99637809D01*
X143294171Y-99599714D01*
X143332266Y-99523523D01*
X143332266Y-98875904D01*
X144132266Y-99675904D02*
X143675123Y-99675904D01*
X143903695Y-99675904D02*
X143903695Y-98875904D01*
X143827504Y-98990190D01*
X143751314Y-99066380D01*
X143675123Y-99104476D01*
X144398933Y-98875904D02*
X144894171Y-98875904D01*
X144627504Y-99180666D01*
X144741790Y-99180666D01*
X144817980Y-99218761D01*
X144856076Y-99256857D01*
X144894171Y-99333047D01*
X144894171Y-99523523D01*
X144856076Y-99599714D01*
X144817980Y-99637809D01*
X144741790Y-99675904D01*
X144513219Y-99675904D01*
X144437028Y-99637809D01*
X144398933Y-99599714D01*
X153885066Y-105733000D02*
X153551733Y-105966333D01*
X153885066Y-106133000D02*
X153185066Y-106133000D01*
X153185066Y-105866333D01*
X153218400Y-105799666D01*
X153251733Y-105766333D01*
X153318400Y-105733000D01*
X153418400Y-105733000D01*
X153485066Y-105766333D01*
X153518400Y-105799666D01*
X153551733Y-105866333D01*
X153551733Y-106133000D01*
X153885066Y-105066333D02*
X153885066Y-105466333D01*
X153885066Y-105266333D02*
X153185066Y-105266333D01*
X153285066Y-105333000D01*
X153351733Y-105399666D01*
X153385066Y-105466333D01*
X153251733Y-104799666D02*
X153218400Y-104766333D01*
X153185066Y-104699666D01*
X153185066Y-104533000D01*
X153218400Y-104466333D01*
X153251733Y-104433000D01*
X153318400Y-104399666D01*
X153385066Y-104399666D01*
X153485066Y-104433000D01*
X153885066Y-104833000D01*
X153885066Y-104399666D01*
X148828933Y-97405000D02*
X148795600Y-97438333D01*
X148695600Y-97471666D01*
X148628933Y-97471666D01*
X148528933Y-97438333D01*
X148462266Y-97371666D01*
X148428933Y-97305000D01*
X148395600Y-97171666D01*
X148395600Y-97071666D01*
X148428933Y-96938333D01*
X148462266Y-96871666D01*
X148528933Y-96805000D01*
X148628933Y-96771666D01*
X148695600Y-96771666D01*
X148795600Y-96805000D01*
X148828933Y-96838333D01*
X149462266Y-96771666D02*
X149128933Y-96771666D01*
X149095600Y-97105000D01*
X149128933Y-97071666D01*
X149195600Y-97038333D01*
X149362266Y-97038333D01*
X149428933Y-97071666D01*
X149462266Y-97105000D01*
X149495600Y-97171666D01*
X149495600Y-97338333D01*
X149462266Y-97405000D01*
X149428933Y-97438333D01*
X149362266Y-97471666D01*
X149195600Y-97471666D01*
X149128933Y-97438333D01*
X149095600Y-97405000D01*
X153057333Y-112773666D02*
X153057333Y-113340333D01*
X153090666Y-113407000D01*
X153124000Y-113440333D01*
X153190666Y-113473666D01*
X153324000Y-113473666D01*
X153390666Y-113440333D01*
X153424000Y-113407000D01*
X153457333Y-113340333D01*
X153457333Y-112773666D01*
X154157333Y-113473666D02*
X153757333Y-113473666D01*
X153957333Y-113473666D02*
X153957333Y-112773666D01*
X153890666Y-112873666D01*
X153824000Y-112940333D01*
X153757333Y-112973666D01*
X154590666Y-112773666D02*
X154657333Y-112773666D01*
X154724000Y-112807000D01*
X154757333Y-112840333D01*
X154790666Y-112907000D01*
X154824000Y-113040333D01*
X154824000Y-113207000D01*
X154790666Y-113340333D01*
X154757333Y-113407000D01*
X154724000Y-113440333D01*
X154657333Y-113473666D01*
X154590666Y-113473666D01*
X154524000Y-113440333D01*
X154490666Y-113407000D01*
X154457333Y-113340333D01*
X154424000Y-113207000D01*
X154424000Y-113040333D01*
X154457333Y-112907000D01*
X154490666Y-112840333D01*
X154524000Y-112807000D01*
X154590666Y-112773666D01*
X156083076Y-97605904D02*
X156083076Y-98253523D01*
X156121171Y-98329714D01*
X156159266Y-98367809D01*
X156235457Y-98405904D01*
X156387838Y-98405904D01*
X156464028Y-98367809D01*
X156502123Y-98329714D01*
X156540219Y-98253523D01*
X156540219Y-97605904D01*
X157035457Y-97948761D02*
X156959266Y-97910666D01*
X156921171Y-97872571D01*
X156883076Y-97796380D01*
X156883076Y-97758285D01*
X156921171Y-97682095D01*
X156959266Y-97644000D01*
X157035457Y-97605904D01*
X157187838Y-97605904D01*
X157264028Y-97644000D01*
X157302123Y-97682095D01*
X157340219Y-97758285D01*
X157340219Y-97796380D01*
X157302123Y-97872571D01*
X157264028Y-97910666D01*
X157187838Y-97948761D01*
X157035457Y-97948761D01*
X156959266Y-97986857D01*
X156921171Y-98024952D01*
X156883076Y-98101142D01*
X156883076Y-98253523D01*
X156921171Y-98329714D01*
X156959266Y-98367809D01*
X157035457Y-98405904D01*
X157187838Y-98405904D01*
X157264028Y-98367809D01*
X157302123Y-98329714D01*
X157340219Y-98253523D01*
X157340219Y-98101142D01*
X157302123Y-98024952D01*
X157264028Y-97986857D01*
X157187838Y-97948761D01*
X163592576Y-79317904D02*
X163592576Y-79965523D01*
X163630671Y-80041714D01*
X163668766Y-80079809D01*
X163744957Y-80117904D01*
X163897338Y-80117904D01*
X163973528Y-80079809D01*
X164011623Y-80041714D01*
X164049719Y-79965523D01*
X164049719Y-79317904D01*
X164849719Y-80117904D02*
X164392576Y-80117904D01*
X164621147Y-80117904D02*
X164621147Y-79317904D01*
X164544957Y-79432190D01*
X164468766Y-79508380D01*
X164392576Y-79546476D01*
X147163600Y-119703000D02*
X147196933Y-119736333D01*
X147230266Y-119836333D01*
X147230266Y-119903000D01*
X147196933Y-120003000D01*
X147130266Y-120069666D01*
X147063600Y-120103000D01*
X146930266Y-120136333D01*
X146830266Y-120136333D01*
X146696933Y-120103000D01*
X146630266Y-120069666D01*
X146563600Y-120003000D01*
X146530266Y-119903000D01*
X146530266Y-119836333D01*
X146563600Y-119736333D01*
X146596933Y-119703000D01*
X147230266Y-119036333D02*
X147230266Y-119436333D01*
X147230266Y-119236333D02*
X146530266Y-119236333D01*
X146630266Y-119303000D01*
X146696933Y-119369666D01*
X146730266Y-119436333D01*
X147230266Y-118703000D02*
X147230266Y-118569666D01*
X147196933Y-118503000D01*
X147163600Y-118469666D01*
X147063600Y-118403000D01*
X146930266Y-118369666D01*
X146663600Y-118369666D01*
X146596933Y-118403000D01*
X146563600Y-118436333D01*
X146530266Y-118503000D01*
X146530266Y-118636333D01*
X146563600Y-118703000D01*
X146596933Y-118736333D01*
X146663600Y-118769666D01*
X146830266Y-118769666D01*
X146896933Y-118736333D01*
X146930266Y-118703000D01*
X146963600Y-118636333D01*
X146963600Y-118503000D01*
X146930266Y-118436333D01*
X146896933Y-118403000D01*
X146830266Y-118369666D01*
X165209723Y-112591904D02*
X165209723Y-113239523D01*
X165247819Y-113315714D01*
X165285914Y-113353809D01*
X165362104Y-113391904D01*
X165514485Y-113391904D01*
X165590676Y-113353809D01*
X165628771Y-113315714D01*
X165666866Y-113239523D01*
X165666866Y-112591904D01*
X166466866Y-113391904D02*
X166009723Y-113391904D01*
X166238295Y-113391904D02*
X166238295Y-112591904D01*
X166162104Y-112706190D01*
X166085914Y-112782380D01*
X166009723Y-112820476D01*
X166771628Y-112668095D02*
X166809723Y-112630000D01*
X166885914Y-112591904D01*
X167076390Y-112591904D01*
X167152580Y-112630000D01*
X167190676Y-112668095D01*
X167228771Y-112744285D01*
X167228771Y-112820476D01*
X167190676Y-112934761D01*
X166733533Y-113391904D01*
X167228771Y-113391904D01*
X173201723Y-112591904D02*
X173201723Y-113239523D01*
X173239819Y-113315714D01*
X173277914Y-113353809D01*
X173354104Y-113391904D01*
X173506485Y-113391904D01*
X173582676Y-113353809D01*
X173620771Y-113315714D01*
X173658866Y-113239523D01*
X173658866Y-112591904D01*
X174458866Y-113391904D02*
X174001723Y-113391904D01*
X174230295Y-113391904D02*
X174230295Y-112591904D01*
X174154104Y-112706190D01*
X174077914Y-112782380D01*
X174001723Y-112820476D01*
X175220771Y-113391904D02*
X174763628Y-113391904D01*
X174992200Y-113391904D02*
X174992200Y-112591904D01*
X174916009Y-112706190D01*
X174839819Y-112782380D01*
X174763628Y-112820476D01*
X170772933Y-80206904D02*
X170772933Y-80778333D01*
X170734838Y-80892619D01*
X170658647Y-80968809D01*
X170544361Y-81006904D01*
X170468171Y-81006904D01*
X171153885Y-81006904D02*
X171153885Y-80206904D01*
X171458647Y-80206904D01*
X171534838Y-80245000D01*
X171572933Y-80283095D01*
X171611028Y-80359285D01*
X171611028Y-80473571D01*
X171572933Y-80549761D01*
X171534838Y-80587857D01*
X171458647Y-80625952D01*
X171153885Y-80625952D01*
X172296742Y-80206904D02*
X172144361Y-80206904D01*
X172068171Y-80245000D01*
X172030076Y-80283095D01*
X171953885Y-80397380D01*
X171915790Y-80549761D01*
X171915790Y-80854523D01*
X171953885Y-80930714D01*
X171991980Y-80968809D01*
X172068171Y-81006904D01*
X172220552Y-81006904D01*
X172296742Y-80968809D01*
X172334838Y-80930714D01*
X172372933Y-80854523D01*
X172372933Y-80664047D01*
X172334838Y-80587857D01*
X172296742Y-80549761D01*
X172220552Y-80511666D01*
X172068171Y-80511666D01*
X171991980Y-80549761D01*
X171953885Y-80587857D01*
X171915790Y-80664047D01*
X153187457Y-87941095D02*
X153111266Y-87903000D01*
X153035076Y-87826809D01*
X152920790Y-87712523D01*
X152844600Y-87674428D01*
X152768409Y-87674428D01*
X152806504Y-87864904D02*
X152730314Y-87826809D01*
X152654123Y-87750619D01*
X152616028Y-87598238D01*
X152616028Y-87331571D01*
X152654123Y-87179190D01*
X152730314Y-87103000D01*
X152806504Y-87064904D01*
X152958885Y-87064904D01*
X153035076Y-87103000D01*
X153111266Y-87179190D01*
X153149361Y-87331571D01*
X153149361Y-87598238D01*
X153111266Y-87750619D01*
X153035076Y-87826809D01*
X152958885Y-87864904D01*
X152806504Y-87864904D01*
X153911266Y-87864904D02*
X153454123Y-87864904D01*
X153682695Y-87864904D02*
X153682695Y-87064904D01*
X153606504Y-87179190D01*
X153530314Y-87255380D01*
X153454123Y-87293476D01*
X154406504Y-87064904D02*
X154482695Y-87064904D01*
X154558885Y-87103000D01*
X154596980Y-87141095D01*
X154635076Y-87217285D01*
X154673171Y-87369666D01*
X154673171Y-87560142D01*
X154635076Y-87712523D01*
X154596980Y-87788714D01*
X154558885Y-87826809D01*
X154482695Y-87864904D01*
X154406504Y-87864904D01*
X154330314Y-87826809D01*
X154292219Y-87788714D01*
X154254123Y-87712523D01*
X154216028Y-87560142D01*
X154216028Y-87369666D01*
X154254123Y-87217285D01*
X154292219Y-87141095D01*
X154330314Y-87103000D01*
X154406504Y-87064904D01*
X155886095Y-110083590D02*
X155848000Y-110159780D01*
X155771809Y-110235971D01*
X155657523Y-110350257D01*
X155619428Y-110426447D01*
X155619428Y-110502638D01*
X155809904Y-110464542D02*
X155771809Y-110540733D01*
X155695619Y-110616923D01*
X155543238Y-110655019D01*
X155276571Y-110655019D01*
X155124190Y-110616923D01*
X155048000Y-110540733D01*
X155009904Y-110464542D01*
X155009904Y-110312161D01*
X155048000Y-110235971D01*
X155124190Y-110159780D01*
X155276571Y-110121685D01*
X155543238Y-110121685D01*
X155695619Y-110159780D01*
X155771809Y-110235971D01*
X155809904Y-110312161D01*
X155809904Y-110464542D01*
X155809904Y-109740733D02*
X155809904Y-109588352D01*
X155771809Y-109512161D01*
X155733714Y-109474066D01*
X155619428Y-109397876D01*
X155467047Y-109359780D01*
X155162285Y-109359780D01*
X155086095Y-109397876D01*
X155048000Y-109435971D01*
X155009904Y-109512161D01*
X155009904Y-109664542D01*
X155048000Y-109740733D01*
X155086095Y-109778828D01*
X155162285Y-109816923D01*
X155352761Y-109816923D01*
X155428952Y-109778828D01*
X155467047Y-109740733D01*
X155505142Y-109664542D01*
X155505142Y-109512161D01*
X155467047Y-109435971D01*
X155428952Y-109397876D01*
X155352761Y-109359780D01*
X175139295Y-110185190D02*
X175101200Y-110261380D01*
X175025009Y-110337571D01*
X174910723Y-110451857D01*
X174872628Y-110528047D01*
X174872628Y-110604238D01*
X175063104Y-110566142D02*
X175025009Y-110642333D01*
X174948819Y-110718523D01*
X174796438Y-110756619D01*
X174529771Y-110756619D01*
X174377390Y-110718523D01*
X174301200Y-110642333D01*
X174263104Y-110566142D01*
X174263104Y-110413761D01*
X174301200Y-110337571D01*
X174377390Y-110261380D01*
X174529771Y-110223285D01*
X174796438Y-110223285D01*
X174948819Y-110261380D01*
X175025009Y-110337571D01*
X175063104Y-110413761D01*
X175063104Y-110566142D01*
X174263104Y-109537571D02*
X174263104Y-109689952D01*
X174301200Y-109766142D01*
X174339295Y-109804238D01*
X174453580Y-109880428D01*
X174605961Y-109918523D01*
X174910723Y-109918523D01*
X174986914Y-109880428D01*
X175025009Y-109842333D01*
X175063104Y-109766142D01*
X175063104Y-109613761D01*
X175025009Y-109537571D01*
X174986914Y-109499476D01*
X174910723Y-109461380D01*
X174720247Y-109461380D01*
X174644057Y-109499476D01*
X174605961Y-109537571D01*
X174567866Y-109613761D01*
X174567866Y-109766142D01*
X174605961Y-109842333D01*
X174644057Y-109880428D01*
X174720247Y-109918523D01*
X168535295Y-109016790D02*
X168497200Y-109092980D01*
X168421009Y-109169171D01*
X168306723Y-109283457D01*
X168268628Y-109359647D01*
X168268628Y-109435838D01*
X168459104Y-109397742D02*
X168421009Y-109473933D01*
X168344819Y-109550123D01*
X168192438Y-109588219D01*
X167925771Y-109588219D01*
X167773390Y-109550123D01*
X167697200Y-109473933D01*
X167659104Y-109397742D01*
X167659104Y-109245361D01*
X167697200Y-109169171D01*
X167773390Y-109092980D01*
X167925771Y-109054885D01*
X168192438Y-109054885D01*
X168344819Y-109092980D01*
X168421009Y-109169171D01*
X168459104Y-109245361D01*
X168459104Y-109397742D01*
X167659104Y-108331076D02*
X167659104Y-108712028D01*
X168040057Y-108750123D01*
X168001961Y-108712028D01*
X167963866Y-108635838D01*
X167963866Y-108445361D01*
X168001961Y-108369171D01*
X168040057Y-108331076D01*
X168116247Y-108292980D01*
X168306723Y-108292980D01*
X168382914Y-108331076D01*
X168421009Y-108369171D01*
X168459104Y-108445361D01*
X168459104Y-108635838D01*
X168421009Y-108712028D01*
X168382914Y-108750123D01*
X150463314Y-92563904D02*
X150196647Y-92182952D01*
X150006171Y-92563904D02*
X150006171Y-91763904D01*
X150310933Y-91763904D01*
X150387123Y-91802000D01*
X150425219Y-91840095D01*
X150463314Y-91916285D01*
X150463314Y-92030571D01*
X150425219Y-92106761D01*
X150387123Y-92144857D01*
X150310933Y-92182952D01*
X150006171Y-92182952D01*
X150768076Y-91840095D02*
X150806171Y-91802000D01*
X150882361Y-91763904D01*
X151072838Y-91763904D01*
X151149028Y-91802000D01*
X151187123Y-91840095D01*
X151225219Y-91916285D01*
X151225219Y-91992476D01*
X151187123Y-92106761D01*
X150729980Y-92563904D01*
X151225219Y-92563904D01*
X151910933Y-91763904D02*
X151758552Y-91763904D01*
X151682361Y-91802000D01*
X151644266Y-91840095D01*
X151568076Y-91954380D01*
X151529980Y-92106761D01*
X151529980Y-92411523D01*
X151568076Y-92487714D01*
X151606171Y-92525809D01*
X151682361Y-92563904D01*
X151834742Y-92563904D01*
X151910933Y-92525809D01*
X151949028Y-92487714D01*
X151987123Y-92411523D01*
X151987123Y-92221047D01*
X151949028Y-92144857D01*
X151910933Y-92106761D01*
X151834742Y-92068666D01*
X151682361Y-92068666D01*
X151606171Y-92106761D01*
X151568076Y-92144857D01*
X151529980Y-92221047D01*
X168053600Y-102297666D02*
X167820266Y-101964333D01*
X167653600Y-102297666D02*
X167653600Y-101597666D01*
X167920266Y-101597666D01*
X167986933Y-101631000D01*
X168020266Y-101664333D01*
X168053600Y-101731000D01*
X168053600Y-101831000D01*
X168020266Y-101897666D01*
X167986933Y-101931000D01*
X167920266Y-101964333D01*
X167653600Y-101964333D01*
X168320266Y-101664333D02*
X168353600Y-101631000D01*
X168420266Y-101597666D01*
X168586933Y-101597666D01*
X168653600Y-101631000D01*
X168686933Y-101664333D01*
X168720266Y-101731000D01*
X168720266Y-101797666D01*
X168686933Y-101897666D01*
X168286933Y-102297666D01*
X168720266Y-102297666D01*
X169320266Y-101831000D02*
X169320266Y-102297666D01*
X169153600Y-101564333D02*
X168986933Y-102064333D01*
X169420266Y-102064333D01*
X150590314Y-89007904D02*
X150323647Y-88626952D01*
X150133171Y-89007904D02*
X150133171Y-88207904D01*
X150437933Y-88207904D01*
X150514123Y-88246000D01*
X150552219Y-88284095D01*
X150590314Y-88360285D01*
X150590314Y-88474571D01*
X150552219Y-88550761D01*
X150514123Y-88588857D01*
X150437933Y-88626952D01*
X150133171Y-88626952D01*
X150895076Y-88284095D02*
X150933171Y-88246000D01*
X151009361Y-88207904D01*
X151199838Y-88207904D01*
X151276028Y-88246000D01*
X151314123Y-88284095D01*
X151352219Y-88360285D01*
X151352219Y-88436476D01*
X151314123Y-88550761D01*
X150856980Y-89007904D01*
X151352219Y-89007904D01*
X151618885Y-88207904D02*
X152114123Y-88207904D01*
X151847457Y-88512666D01*
X151961742Y-88512666D01*
X152037933Y-88550761D01*
X152076028Y-88588857D01*
X152114123Y-88665047D01*
X152114123Y-88855523D01*
X152076028Y-88931714D01*
X152037933Y-88969809D01*
X151961742Y-89007904D01*
X151733171Y-89007904D01*
X151656980Y-88969809D01*
X151618885Y-88931714D01*
X157512600Y-108698466D02*
X157279266Y-108365133D01*
X157112600Y-108698466D02*
X157112600Y-107998466D01*
X157379266Y-107998466D01*
X157445933Y-108031800D01*
X157479266Y-108065133D01*
X157512600Y-108131800D01*
X157512600Y-108231800D01*
X157479266Y-108298466D01*
X157445933Y-108331800D01*
X157379266Y-108365133D01*
X157112600Y-108365133D01*
X158179266Y-108698466D02*
X157779266Y-108698466D01*
X157979266Y-108698466D02*
X157979266Y-107998466D01*
X157912600Y-108098466D01*
X157845933Y-108165133D01*
X157779266Y-108198466D01*
X158812600Y-107998466D02*
X158479266Y-107998466D01*
X158445933Y-108331800D01*
X158479266Y-108298466D01*
X158545933Y-108265133D01*
X158712600Y-108265133D01*
X158779266Y-108298466D01*
X158812600Y-108331800D01*
X158845933Y-108398466D01*
X158845933Y-108565133D01*
X158812600Y-108631800D01*
X158779266Y-108665133D01*
X158712600Y-108698466D01*
X158545933Y-108698466D01*
X158479266Y-108665133D01*
X158445933Y-108631800D01*
X163989600Y-108749266D02*
X163756266Y-108415933D01*
X163589600Y-108749266D02*
X163589600Y-108049266D01*
X163856266Y-108049266D01*
X163922933Y-108082600D01*
X163956266Y-108115933D01*
X163989600Y-108182600D01*
X163989600Y-108282600D01*
X163956266Y-108349266D01*
X163922933Y-108382600D01*
X163856266Y-108415933D01*
X163589600Y-108415933D01*
X164656266Y-108749266D02*
X164256266Y-108749266D01*
X164456266Y-108749266D02*
X164456266Y-108049266D01*
X164389600Y-108149266D01*
X164322933Y-108215933D01*
X164256266Y-108249266D01*
X165256266Y-108282600D02*
X165256266Y-108749266D01*
X165089600Y-108015933D02*
X164922933Y-108515933D01*
X165356266Y-108515933D01*
X172168400Y-108698466D02*
X171935066Y-108365133D01*
X171768400Y-108698466D02*
X171768400Y-107998466D01*
X172035066Y-107998466D01*
X172101733Y-108031800D01*
X172135066Y-108065133D01*
X172168400Y-108131800D01*
X172168400Y-108231800D01*
X172135066Y-108298466D01*
X172101733Y-108331800D01*
X172035066Y-108365133D01*
X171768400Y-108365133D01*
X172835066Y-108698466D02*
X172435066Y-108698466D01*
X172635066Y-108698466D02*
X172635066Y-107998466D01*
X172568400Y-108098466D01*
X172501733Y-108165133D01*
X172435066Y-108198466D01*
X173068400Y-107998466D02*
X173501733Y-107998466D01*
X173268400Y-108265133D01*
X173368400Y-108265133D01*
X173435066Y-108298466D01*
X173468400Y-108331800D01*
X173501733Y-108398466D01*
X173501733Y-108565133D01*
X173468400Y-108631800D01*
X173435066Y-108665133D01*
X173368400Y-108698466D01*
X173168400Y-108698466D01*
X173101733Y-108665133D01*
X173068400Y-108631800D01*
X162392533Y-98741666D02*
X162159200Y-98408333D01*
X161992533Y-98741666D02*
X161992533Y-98041666D01*
X162259200Y-98041666D01*
X162325866Y-98075000D01*
X162359200Y-98108333D01*
X162392533Y-98175000D01*
X162392533Y-98275000D01*
X162359200Y-98341666D01*
X162325866Y-98375000D01*
X162259200Y-98408333D01*
X161992533Y-98408333D01*
X162725866Y-98741666D02*
X162859200Y-98741666D01*
X162925866Y-98708333D01*
X162959200Y-98675000D01*
X163025866Y-98575000D01*
X163059200Y-98441666D01*
X163059200Y-98175000D01*
X163025866Y-98108333D01*
X162992533Y-98075000D01*
X162925866Y-98041666D01*
X162792533Y-98041666D01*
X162725866Y-98075000D01*
X162692533Y-98108333D01*
X162659200Y-98175000D01*
X162659200Y-98341666D01*
X162692533Y-98408333D01*
X162725866Y-98441666D01*
X162792533Y-98475000D01*
X162925866Y-98475000D01*
X162992533Y-98441666D01*
X163025866Y-98408333D01*
X163059200Y-98341666D01*
X174584533Y-103770866D02*
X174351200Y-103437533D01*
X174184533Y-103770866D02*
X174184533Y-103070866D01*
X174451200Y-103070866D01*
X174517866Y-103104200D01*
X174551200Y-103137533D01*
X174584533Y-103204200D01*
X174584533Y-103304200D01*
X174551200Y-103370866D01*
X174517866Y-103404200D01*
X174451200Y-103437533D01*
X174184533Y-103437533D01*
X174817866Y-103070866D02*
X175284533Y-103070866D01*
X174984533Y-103770866D01*
X153187457Y-91497095D02*
X153111266Y-91459000D01*
X153035076Y-91382809D01*
X152920790Y-91268523D01*
X152844600Y-91230428D01*
X152768409Y-91230428D01*
X152806504Y-91420904D02*
X152730314Y-91382809D01*
X152654123Y-91306619D01*
X152616028Y-91154238D01*
X152616028Y-90887571D01*
X152654123Y-90735190D01*
X152730314Y-90659000D01*
X152806504Y-90620904D01*
X152958885Y-90620904D01*
X153035076Y-90659000D01*
X153111266Y-90735190D01*
X153149361Y-90887571D01*
X153149361Y-91154238D01*
X153111266Y-91306619D01*
X153035076Y-91382809D01*
X152958885Y-91420904D01*
X152806504Y-91420904D01*
X153911266Y-91420904D02*
X153454123Y-91420904D01*
X153682695Y-91420904D02*
X153682695Y-90620904D01*
X153606504Y-90735190D01*
X153530314Y-90811380D01*
X153454123Y-90849476D01*
X154673171Y-91420904D02*
X154216028Y-91420904D01*
X154444600Y-91420904D02*
X154444600Y-90620904D01*
X154368409Y-90735190D01*
X154292219Y-90811380D01*
X154216028Y-90849476D01*
X159163600Y-91182000D02*
X159130266Y-91215333D01*
X159030266Y-91248666D01*
X158963600Y-91248666D01*
X158863600Y-91215333D01*
X158796933Y-91148666D01*
X158763600Y-91082000D01*
X158730266Y-90948666D01*
X158730266Y-90848666D01*
X158763600Y-90715333D01*
X158796933Y-90648666D01*
X158863600Y-90582000D01*
X158963600Y-90548666D01*
X159030266Y-90548666D01*
X159130266Y-90582000D01*
X159163600Y-90615333D01*
X159430266Y-90615333D02*
X159463600Y-90582000D01*
X159530266Y-90548666D01*
X159696933Y-90548666D01*
X159763600Y-90582000D01*
X159796933Y-90615333D01*
X159830266Y-90682000D01*
X159830266Y-90748666D01*
X159796933Y-90848666D01*
X159396933Y-91248666D01*
X159830266Y-91248666D01*
X160230266Y-90848666D02*
X160163600Y-90815333D01*
X160130266Y-90782000D01*
X160096933Y-90715333D01*
X160096933Y-90682000D01*
X160130266Y-90615333D01*
X160163600Y-90582000D01*
X160230266Y-90548666D01*
X160363600Y-90548666D01*
X160430266Y-90582000D01*
X160463600Y-90615333D01*
X160496933Y-90682000D01*
X160496933Y-90715333D01*
X160463600Y-90782000D01*
X160430266Y-90815333D01*
X160363600Y-90848666D01*
X160230266Y-90848666D01*
X160163600Y-90882000D01*
X160130266Y-90915333D01*
X160096933Y-90982000D01*
X160096933Y-91115333D01*
X160130266Y-91182000D01*
X160163600Y-91215333D01*
X160230266Y-91248666D01*
X160363600Y-91248666D01*
X160430266Y-91215333D01*
X160463600Y-91182000D01*
X160496933Y-91115333D01*
X160496933Y-90982000D01*
X160463600Y-90915333D01*
X160430266Y-90882000D01*
X160363600Y-90848666D01*
X138341219Y-121713666D02*
X137626933Y-121713666D01*
X137484076Y-121666047D01*
X137388838Y-121570809D01*
X137341219Y-121427952D01*
X137341219Y-121332714D01*
X137912647Y-122332714D02*
X137960266Y-122237476D01*
X138007885Y-122189857D01*
X138103123Y-122142238D01*
X138150742Y-122142238D01*
X138245980Y-122189857D01*
X138293600Y-122237476D01*
X138341219Y-122332714D01*
X138341219Y-122523190D01*
X138293600Y-122618428D01*
X138245980Y-122666047D01*
X138150742Y-122713666D01*
X138103123Y-122713666D01*
X138007885Y-122666047D01*
X137960266Y-122618428D01*
X137912647Y-122523190D01*
X137912647Y-122332714D01*
X137865028Y-122237476D01*
X137817409Y-122189857D01*
X137722171Y-122142238D01*
X137531695Y-122142238D01*
X137436457Y-122189857D01*
X137388838Y-122237476D01*
X137341219Y-122332714D01*
X137341219Y-122523190D01*
X137388838Y-122618428D01*
X137436457Y-122666047D01*
X137531695Y-122713666D01*
X137722171Y-122713666D01*
X137817409Y-122666047D01*
X137865028Y-122618428D01*
X137912647Y-122523190D01*
X162008400Y-108682600D02*
X161975066Y-108715933D01*
X161875066Y-108749266D01*
X161808400Y-108749266D01*
X161708400Y-108715933D01*
X161641733Y-108649266D01*
X161608400Y-108582600D01*
X161575066Y-108449266D01*
X161575066Y-108349266D01*
X161608400Y-108215933D01*
X161641733Y-108149266D01*
X161708400Y-108082600D01*
X161808400Y-108049266D01*
X161875066Y-108049266D01*
X161975066Y-108082600D01*
X162008400Y-108115933D01*
X162275066Y-108115933D02*
X162308400Y-108082600D01*
X162375066Y-108049266D01*
X162541733Y-108049266D01*
X162608400Y-108082600D01*
X162641733Y-108115933D01*
X162675066Y-108182600D01*
X162675066Y-108249266D01*
X162641733Y-108349266D01*
X162241733Y-108749266D01*
X162675066Y-108749266D01*
X162908400Y-108049266D02*
X163341733Y-108049266D01*
X163108400Y-108315933D01*
X163208400Y-108315933D01*
X163275066Y-108349266D01*
X163308400Y-108382600D01*
X163341733Y-108449266D01*
X163341733Y-108615933D01*
X163308400Y-108682600D01*
X163275066Y-108715933D01*
X163208400Y-108749266D01*
X163008400Y-108749266D01*
X162941733Y-108715933D01*
X162908400Y-108682600D01*
X154936000Y-103193000D02*
X154969333Y-103226333D01*
X155002666Y-103326333D01*
X155002666Y-103393000D01*
X154969333Y-103493000D01*
X154902666Y-103559666D01*
X154836000Y-103593000D01*
X154702666Y-103626333D01*
X154602666Y-103626333D01*
X154469333Y-103593000D01*
X154402666Y-103559666D01*
X154336000Y-103493000D01*
X154302666Y-103393000D01*
X154302666Y-103326333D01*
X154336000Y-103226333D01*
X154369333Y-103193000D01*
X154369333Y-102926333D02*
X154336000Y-102893000D01*
X154302666Y-102826333D01*
X154302666Y-102659666D01*
X154336000Y-102593000D01*
X154369333Y-102559666D01*
X154436000Y-102526333D01*
X154502666Y-102526333D01*
X154602666Y-102559666D01*
X155002666Y-102959666D01*
X155002666Y-102526333D01*
X154369333Y-102259666D02*
X154336000Y-102226333D01*
X154302666Y-102159666D01*
X154302666Y-101993000D01*
X154336000Y-101926333D01*
X154369333Y-101893000D01*
X154436000Y-101859666D01*
X154502666Y-101859666D01*
X154602666Y-101893000D01*
X155002666Y-102293000D01*
X155002666Y-101859666D01*
X142094800Y-109190600D02*
X142061466Y-109223933D01*
X141961466Y-109257266D01*
X141894800Y-109257266D01*
X141794800Y-109223933D01*
X141728133Y-109157266D01*
X141694800Y-109090600D01*
X141661466Y-108957266D01*
X141661466Y-108857266D01*
X141694800Y-108723933D01*
X141728133Y-108657266D01*
X141794800Y-108590600D01*
X141894800Y-108557266D01*
X141961466Y-108557266D01*
X142061466Y-108590600D01*
X142094800Y-108623933D01*
X142361466Y-108623933D02*
X142394800Y-108590600D01*
X142461466Y-108557266D01*
X142628133Y-108557266D01*
X142694800Y-108590600D01*
X142728133Y-108623933D01*
X142761466Y-108690600D01*
X142761466Y-108757266D01*
X142728133Y-108857266D01*
X142328133Y-109257266D01*
X142761466Y-109257266D01*
X143428133Y-109257266D02*
X143028133Y-109257266D01*
X143228133Y-109257266D02*
X143228133Y-108557266D01*
X143161466Y-108657266D01*
X143094800Y-108723933D01*
X143028133Y-108757266D01*
X150832400Y-109038200D02*
X150799066Y-109071533D01*
X150699066Y-109104866D01*
X150632400Y-109104866D01*
X150532400Y-109071533D01*
X150465733Y-109004866D01*
X150432400Y-108938200D01*
X150399066Y-108804866D01*
X150399066Y-108704866D01*
X150432400Y-108571533D01*
X150465733Y-108504866D01*
X150532400Y-108438200D01*
X150632400Y-108404866D01*
X150699066Y-108404866D01*
X150799066Y-108438200D01*
X150832400Y-108471533D01*
X151499066Y-109104866D02*
X151099066Y-109104866D01*
X151299066Y-109104866D02*
X151299066Y-108404866D01*
X151232400Y-108504866D01*
X151165733Y-108571533D01*
X151099066Y-108604866D01*
X151732400Y-108404866D02*
X152165733Y-108404866D01*
X151932400Y-108671533D01*
X152032400Y-108671533D01*
X152099066Y-108704866D01*
X152132400Y-108738200D01*
X152165733Y-108804866D01*
X152165733Y-108971533D01*
X152132400Y-109038200D01*
X152099066Y-109071533D01*
X152032400Y-109104866D01*
X151832400Y-109104866D01*
X151765733Y-109071533D01*
X151732400Y-109038200D01*
X138781600Y-119703000D02*
X138814933Y-119736333D01*
X138848266Y-119836333D01*
X138848266Y-119903000D01*
X138814933Y-120003000D01*
X138748266Y-120069666D01*
X138681600Y-120103000D01*
X138548266Y-120136333D01*
X138448266Y-120136333D01*
X138314933Y-120103000D01*
X138248266Y-120069666D01*
X138181600Y-120003000D01*
X138148266Y-119903000D01*
X138148266Y-119836333D01*
X138181600Y-119736333D01*
X138214933Y-119703000D01*
X138848266Y-119036333D02*
X138848266Y-119436333D01*
X138848266Y-119236333D02*
X138148266Y-119236333D01*
X138248266Y-119303000D01*
X138314933Y-119369666D01*
X138348266Y-119436333D01*
X138214933Y-118769666D02*
X138181600Y-118736333D01*
X138148266Y-118669666D01*
X138148266Y-118503000D01*
X138181600Y-118436333D01*
X138214933Y-118403000D01*
X138281600Y-118369666D01*
X138348266Y-118369666D01*
X138448266Y-118403000D01*
X138848266Y-118803000D01*
X138848266Y-118369666D01*
X143796600Y-118995000D02*
X143763266Y-119028333D01*
X143663266Y-119061666D01*
X143596600Y-119061666D01*
X143496600Y-119028333D01*
X143429933Y-118961666D01*
X143396600Y-118895000D01*
X143363266Y-118761666D01*
X143363266Y-118661666D01*
X143396600Y-118528333D01*
X143429933Y-118461666D01*
X143496600Y-118395000D01*
X143596600Y-118361666D01*
X143663266Y-118361666D01*
X143763266Y-118395000D01*
X143796600Y-118428333D01*
X144463266Y-119061666D02*
X144063266Y-119061666D01*
X144263266Y-119061666D02*
X144263266Y-118361666D01*
X144196600Y-118461666D01*
X144129933Y-118528333D01*
X144063266Y-118561666D01*
X145129933Y-119061666D02*
X144729933Y-119061666D01*
X144929933Y-119061666D02*
X144929933Y-118361666D01*
X144863266Y-118461666D01*
X144796600Y-118528333D01*
X144729933Y-118561666D01*
X172371600Y-118131400D02*
X172338266Y-118164733D01*
X172238266Y-118198066D01*
X172171600Y-118198066D01*
X172071600Y-118164733D01*
X172004933Y-118098066D01*
X171971600Y-118031400D01*
X171938266Y-117898066D01*
X171938266Y-117798066D01*
X171971600Y-117664733D01*
X172004933Y-117598066D01*
X172071600Y-117531400D01*
X172171600Y-117498066D01*
X172238266Y-117498066D01*
X172338266Y-117531400D01*
X172371600Y-117564733D01*
X173038266Y-118198066D02*
X172638266Y-118198066D01*
X172838266Y-118198066D02*
X172838266Y-117498066D01*
X172771600Y-117598066D01*
X172704933Y-117664733D01*
X172638266Y-117698066D01*
X173471600Y-117498066D02*
X173538266Y-117498066D01*
X173604933Y-117531400D01*
X173638266Y-117564733D01*
X173671600Y-117631400D01*
X173704933Y-117764733D01*
X173704933Y-117931400D01*
X173671600Y-118064733D01*
X173638266Y-118131400D01*
X173604933Y-118164733D01*
X173538266Y-118198066D01*
X173471600Y-118198066D01*
X173404933Y-118164733D01*
X173371600Y-118131400D01*
X173338266Y-118064733D01*
X173304933Y-117931400D01*
X173304933Y-117764733D01*
X173338266Y-117631400D01*
X173371600Y-117564733D01*
X173404933Y-117531400D01*
X173471600Y-117498066D01*
X171942933Y-104263000D02*
X171909600Y-104296333D01*
X171809600Y-104329666D01*
X171742933Y-104329666D01*
X171642933Y-104296333D01*
X171576266Y-104229666D01*
X171542933Y-104163000D01*
X171509600Y-104029666D01*
X171509600Y-103929666D01*
X171542933Y-103796333D01*
X171576266Y-103729666D01*
X171642933Y-103663000D01*
X171742933Y-103629666D01*
X171809600Y-103629666D01*
X171909600Y-103663000D01*
X171942933Y-103696333D01*
X172542933Y-103863000D02*
X172542933Y-104329666D01*
X172376266Y-103596333D02*
X172209600Y-104096333D01*
X172642933Y-104096333D01*
X167269333Y-89378600D02*
X167236000Y-89411933D01*
X167136000Y-89445266D01*
X167069333Y-89445266D01*
X166969333Y-89411933D01*
X166902666Y-89345266D01*
X166869333Y-89278600D01*
X166836000Y-89145266D01*
X166836000Y-89045266D01*
X166869333Y-88911933D01*
X166902666Y-88845266D01*
X166969333Y-88778600D01*
X167069333Y-88745266D01*
X167136000Y-88745266D01*
X167236000Y-88778600D01*
X167269333Y-88811933D01*
X167502666Y-88745266D02*
X167936000Y-88745266D01*
X167702666Y-89011933D01*
X167802666Y-89011933D01*
X167869333Y-89045266D01*
X167902666Y-89078600D01*
X167936000Y-89145266D01*
X167936000Y-89311933D01*
X167902666Y-89378600D01*
X167869333Y-89411933D01*
X167802666Y-89445266D01*
X167602666Y-89445266D01*
X167536000Y-89411933D01*
X167502666Y-89378600D01*
X155734600Y-95627000D02*
X155701266Y-95660333D01*
X155601266Y-95693666D01*
X155534600Y-95693666D01*
X155434600Y-95660333D01*
X155367933Y-95593666D01*
X155334600Y-95527000D01*
X155301266Y-95393666D01*
X155301266Y-95293666D01*
X155334600Y-95160333D01*
X155367933Y-95093666D01*
X155434600Y-95027000D01*
X155534600Y-94993666D01*
X155601266Y-94993666D01*
X155701266Y-95027000D01*
X155734600Y-95060333D01*
X156001266Y-95060333D02*
X156034600Y-95027000D01*
X156101266Y-94993666D01*
X156267933Y-94993666D01*
X156334600Y-95027000D01*
X156367933Y-95060333D01*
X156401266Y-95127000D01*
X156401266Y-95193666D01*
X156367933Y-95293666D01*
X155967933Y-95693666D01*
X156401266Y-95693666D01*
X156634600Y-94993666D02*
X157101266Y-94993666D01*
X156801266Y-95693666D01*
X134816933Y-99383904D02*
X134816933Y-99955333D01*
X134778838Y-100069619D01*
X134702647Y-100145809D01*
X134588361Y-100183904D01*
X134512171Y-100183904D01*
X135197885Y-100183904D02*
X135197885Y-99383904D01*
X135502647Y-99383904D01*
X135578838Y-99422000D01*
X135616933Y-99460095D01*
X135655028Y-99536285D01*
X135655028Y-99650571D01*
X135616933Y-99726761D01*
X135578838Y-99764857D01*
X135502647Y-99802952D01*
X135197885Y-99802952D01*
X135959790Y-99460095D02*
X135997885Y-99422000D01*
X136074076Y-99383904D01*
X136264552Y-99383904D01*
X136340742Y-99422000D01*
X136378838Y-99460095D01*
X136416933Y-99536285D01*
X136416933Y-99612476D01*
X136378838Y-99726761D01*
X135921695Y-100183904D01*
X136416933Y-100183904D01*
X169323600Y-99808466D02*
X169090266Y-99475133D01*
X168923600Y-99808466D02*
X168923600Y-99108466D01*
X169190266Y-99108466D01*
X169256933Y-99141800D01*
X169290266Y-99175133D01*
X169323600Y-99241800D01*
X169323600Y-99341800D01*
X169290266Y-99408466D01*
X169256933Y-99441800D01*
X169190266Y-99475133D01*
X168923600Y-99475133D01*
X169590266Y-99175133D02*
X169623600Y-99141800D01*
X169690266Y-99108466D01*
X169856933Y-99108466D01*
X169923600Y-99141800D01*
X169956933Y-99175133D01*
X169990266Y-99241800D01*
X169990266Y-99308466D01*
X169956933Y-99408466D01*
X169556933Y-99808466D01*
X169990266Y-99808466D01*
X170256933Y-99175133D02*
X170290266Y-99141800D01*
X170356933Y-99108466D01*
X170523600Y-99108466D01*
X170590266Y-99141800D01*
X170623600Y-99175133D01*
X170656933Y-99241800D01*
X170656933Y-99308466D01*
X170623600Y-99408466D01*
X170223600Y-99808466D01*
X170656933Y-99808466D01*
X155797314Y-83419904D02*
X155530647Y-83038952D01*
X155340171Y-83419904D02*
X155340171Y-82619904D01*
X155644933Y-82619904D01*
X155721123Y-82658000D01*
X155759219Y-82696095D01*
X155797314Y-82772285D01*
X155797314Y-82886571D01*
X155759219Y-82962761D01*
X155721123Y-83000857D01*
X155644933Y-83038952D01*
X155340171Y-83038952D01*
X156102076Y-82696095D02*
X156140171Y-82658000D01*
X156216361Y-82619904D01*
X156406838Y-82619904D01*
X156483028Y-82658000D01*
X156521123Y-82696095D01*
X156559219Y-82772285D01*
X156559219Y-82848476D01*
X156521123Y-82962761D01*
X156063980Y-83419904D01*
X156559219Y-83419904D01*
X157054457Y-82619904D02*
X157130647Y-82619904D01*
X157206838Y-82658000D01*
X157244933Y-82696095D01*
X157283028Y-82772285D01*
X157321123Y-82924666D01*
X157321123Y-83115142D01*
X157283028Y-83267523D01*
X157244933Y-83343714D01*
X157206838Y-83381809D01*
X157130647Y-83419904D01*
X157054457Y-83419904D01*
X156978266Y-83381809D01*
X156940171Y-83343714D01*
X156902076Y-83267523D01*
X156863980Y-83115142D01*
X156863980Y-82924666D01*
X156902076Y-82772285D01*
X156940171Y-82696095D01*
X156978266Y-82658000D01*
X157054457Y-82619904D01*
X153384314Y-83419904D02*
X153117647Y-83038952D01*
X152927171Y-83419904D02*
X152927171Y-82619904D01*
X153231933Y-82619904D01*
X153308123Y-82658000D01*
X153346219Y-82696095D01*
X153384314Y-82772285D01*
X153384314Y-82886571D01*
X153346219Y-82962761D01*
X153308123Y-83000857D01*
X153231933Y-83038952D01*
X152927171Y-83038952D01*
X154146219Y-83419904D02*
X153689076Y-83419904D01*
X153917647Y-83419904D02*
X153917647Y-82619904D01*
X153841457Y-82734190D01*
X153765266Y-82810380D01*
X153689076Y-82848476D01*
X154527171Y-83419904D02*
X154679552Y-83419904D01*
X154755742Y-83381809D01*
X154793838Y-83343714D01*
X154870028Y-83229428D01*
X154908123Y-83077047D01*
X154908123Y-82772285D01*
X154870028Y-82696095D01*
X154831933Y-82658000D01*
X154755742Y-82619904D01*
X154603361Y-82619904D01*
X154527171Y-82658000D01*
X154489076Y-82696095D01*
X154450980Y-82772285D01*
X154450980Y-82962761D01*
X154489076Y-83038952D01*
X154527171Y-83077047D01*
X154603361Y-83115142D01*
X154755742Y-83115142D01*
X154831933Y-83077047D01*
X154870028Y-83038952D01*
X154908123Y-82962761D01*
X159740609Y-98761495D02*
X159664419Y-98723400D01*
X159588228Y-98647209D01*
X159473942Y-98532923D01*
X159397752Y-98494828D01*
X159321561Y-98494828D01*
X159359657Y-98685304D02*
X159283466Y-98647209D01*
X159207276Y-98571019D01*
X159169180Y-98418638D01*
X159169180Y-98151971D01*
X159207276Y-97999590D01*
X159283466Y-97923400D01*
X159359657Y-97885304D01*
X159512038Y-97885304D01*
X159588228Y-97923400D01*
X159664419Y-97999590D01*
X159702514Y-98151971D01*
X159702514Y-98418638D01*
X159664419Y-98571019D01*
X159588228Y-98647209D01*
X159512038Y-98685304D01*
X159359657Y-98685304D01*
X159969180Y-97885304D02*
X160464419Y-97885304D01*
X160197752Y-98190066D01*
X160312038Y-98190066D01*
X160388228Y-98228161D01*
X160426323Y-98266257D01*
X160464419Y-98342447D01*
X160464419Y-98532923D01*
X160426323Y-98609114D01*
X160388228Y-98647209D01*
X160312038Y-98685304D01*
X160083466Y-98685304D01*
X160007276Y-98647209D01*
X159969180Y-98609114D01*
X150971314Y-83343714D02*
X150933219Y-83381809D01*
X150818933Y-83419904D01*
X150742742Y-83419904D01*
X150628457Y-83381809D01*
X150552266Y-83305619D01*
X150514171Y-83229428D01*
X150476076Y-83077047D01*
X150476076Y-82962761D01*
X150514171Y-82810380D01*
X150552266Y-82734190D01*
X150628457Y-82658000D01*
X150742742Y-82619904D01*
X150818933Y-82619904D01*
X150933219Y-82658000D01*
X150971314Y-82696095D01*
X151276076Y-82696095D02*
X151314171Y-82658000D01*
X151390361Y-82619904D01*
X151580838Y-82619904D01*
X151657028Y-82658000D01*
X151695123Y-82696095D01*
X151733219Y-82772285D01*
X151733219Y-82848476D01*
X151695123Y-82962761D01*
X151237980Y-83419904D01*
X151733219Y-83419904D01*
X152418933Y-82619904D02*
X152266552Y-82619904D01*
X152190361Y-82658000D01*
X152152266Y-82696095D01*
X152076076Y-82810380D01*
X152037980Y-82962761D01*
X152037980Y-83267523D01*
X152076076Y-83343714D01*
X152114171Y-83381809D01*
X152190361Y-83419904D01*
X152342742Y-83419904D01*
X152418933Y-83381809D01*
X152457028Y-83343714D01*
X152495123Y-83267523D01*
X152495123Y-83077047D01*
X152457028Y-83000857D01*
X152418933Y-82962761D01*
X152342742Y-82924666D01*
X152190361Y-82924666D01*
X152114171Y-82962761D01*
X152076076Y-83000857D01*
X152037980Y-83077047D01*
X146147600Y-119703000D02*
X146180933Y-119736333D01*
X146214266Y-119836333D01*
X146214266Y-119903000D01*
X146180933Y-120003000D01*
X146114266Y-120069666D01*
X146047600Y-120103000D01*
X145914266Y-120136333D01*
X145814266Y-120136333D01*
X145680933Y-120103000D01*
X145614266Y-120069666D01*
X145547600Y-120003000D01*
X145514266Y-119903000D01*
X145514266Y-119836333D01*
X145547600Y-119736333D01*
X145580933Y-119703000D01*
X145580933Y-119436333D02*
X145547600Y-119403000D01*
X145514266Y-119336333D01*
X145514266Y-119169666D01*
X145547600Y-119103000D01*
X145580933Y-119069666D01*
X145647600Y-119036333D01*
X145714266Y-119036333D01*
X145814266Y-119069666D01*
X146214266Y-119469666D01*
X146214266Y-119036333D01*
X145514266Y-118603000D02*
X145514266Y-118536333D01*
X145547600Y-118469666D01*
X145580933Y-118436333D01*
X145647600Y-118403000D01*
X145780933Y-118369666D01*
X145947600Y-118369666D01*
X146080933Y-118403000D01*
X146147600Y-118436333D01*
X146180933Y-118469666D01*
X146214266Y-118536333D01*
X146214266Y-118603000D01*
X146180933Y-118669666D01*
X146147600Y-118703000D01*
X146080933Y-118736333D01*
X145947600Y-118769666D01*
X145780933Y-118769666D01*
X145647600Y-118736333D01*
X145580933Y-118703000D01*
X145547600Y-118669666D01*
X145514266Y-118603000D01*
X143796600Y-120011000D02*
X143763266Y-120044333D01*
X143663266Y-120077666D01*
X143596600Y-120077666D01*
X143496600Y-120044333D01*
X143429933Y-119977666D01*
X143396600Y-119911000D01*
X143363266Y-119777666D01*
X143363266Y-119677666D01*
X143396600Y-119544333D01*
X143429933Y-119477666D01*
X143496600Y-119411000D01*
X143596600Y-119377666D01*
X143663266Y-119377666D01*
X143763266Y-119411000D01*
X143796600Y-119444333D01*
X144463266Y-120077666D02*
X144063266Y-120077666D01*
X144263266Y-120077666D02*
X144263266Y-119377666D01*
X144196600Y-119477666D01*
X144129933Y-119544333D01*
X144063266Y-119577666D01*
X144863266Y-119677666D02*
X144796600Y-119644333D01*
X144763266Y-119611000D01*
X144729933Y-119544333D01*
X144729933Y-119511000D01*
X144763266Y-119444333D01*
X144796600Y-119411000D01*
X144863266Y-119377666D01*
X144996600Y-119377666D01*
X145063266Y-119411000D01*
X145096600Y-119444333D01*
X145129933Y-119511000D01*
X145129933Y-119544333D01*
X145096600Y-119611000D01*
X145063266Y-119644333D01*
X144996600Y-119677666D01*
X144863266Y-119677666D01*
X144796600Y-119711000D01*
X144763266Y-119744333D01*
X144729933Y-119811000D01*
X144729933Y-119944333D01*
X144763266Y-120011000D01*
X144796600Y-120044333D01*
X144863266Y-120077666D01*
X144996600Y-120077666D01*
X145063266Y-120044333D01*
X145096600Y-120011000D01*
X145129933Y-119944333D01*
X145129933Y-119811000D01*
X145096600Y-119744333D01*
X145063266Y-119711000D01*
X144996600Y-119677666D01*
X141829600Y-119703000D02*
X141862933Y-119736333D01*
X141896266Y-119836333D01*
X141896266Y-119903000D01*
X141862933Y-120003000D01*
X141796266Y-120069666D01*
X141729600Y-120103000D01*
X141596266Y-120136333D01*
X141496266Y-120136333D01*
X141362933Y-120103000D01*
X141296266Y-120069666D01*
X141229600Y-120003000D01*
X141196266Y-119903000D01*
X141196266Y-119836333D01*
X141229600Y-119736333D01*
X141262933Y-119703000D01*
X141896266Y-119036333D02*
X141896266Y-119436333D01*
X141896266Y-119236333D02*
X141196266Y-119236333D01*
X141296266Y-119303000D01*
X141362933Y-119369666D01*
X141396266Y-119436333D01*
X141196266Y-118803000D02*
X141196266Y-118336333D01*
X141896266Y-118636333D01*
X172473200Y-119909400D02*
X172439866Y-119942733D01*
X172339866Y-119976066D01*
X172273200Y-119976066D01*
X172173200Y-119942733D01*
X172106533Y-119876066D01*
X172073200Y-119809400D01*
X172039866Y-119676066D01*
X172039866Y-119576066D01*
X172073200Y-119442733D01*
X172106533Y-119376066D01*
X172173200Y-119309400D01*
X172273200Y-119276066D01*
X172339866Y-119276066D01*
X172439866Y-119309400D01*
X172473200Y-119342733D01*
X173139866Y-119976066D02*
X172739866Y-119976066D01*
X172939866Y-119976066D02*
X172939866Y-119276066D01*
X172873200Y-119376066D01*
X172806533Y-119442733D01*
X172739866Y-119476066D01*
X173739866Y-119276066D02*
X173606533Y-119276066D01*
X173539866Y-119309400D01*
X173506533Y-119342733D01*
X173439866Y-119442733D01*
X173406533Y-119576066D01*
X173406533Y-119842733D01*
X173439866Y-119909400D01*
X173473200Y-119942733D01*
X173539866Y-119976066D01*
X173673200Y-119976066D01*
X173739866Y-119942733D01*
X173773200Y-119909400D01*
X173806533Y-119842733D01*
X173806533Y-119676066D01*
X173773200Y-119609400D01*
X173739866Y-119576066D01*
X173673200Y-119542733D01*
X173539866Y-119542733D01*
X173473200Y-119576066D01*
X173439866Y-119609400D01*
X173406533Y-119676066D01*
X142845600Y-119703000D02*
X142878933Y-119736333D01*
X142912266Y-119836333D01*
X142912266Y-119903000D01*
X142878933Y-120003000D01*
X142812266Y-120069666D01*
X142745600Y-120103000D01*
X142612266Y-120136333D01*
X142512266Y-120136333D01*
X142378933Y-120103000D01*
X142312266Y-120069666D01*
X142245600Y-120003000D01*
X142212266Y-119903000D01*
X142212266Y-119836333D01*
X142245600Y-119736333D01*
X142278933Y-119703000D01*
X142912266Y-119036333D02*
X142912266Y-119436333D01*
X142912266Y-119236333D02*
X142212266Y-119236333D01*
X142312266Y-119303000D01*
X142378933Y-119369666D01*
X142412266Y-119436333D01*
X142212266Y-118403000D02*
X142212266Y-118736333D01*
X142545600Y-118769666D01*
X142512266Y-118736333D01*
X142478933Y-118669666D01*
X142478933Y-118503000D01*
X142512266Y-118436333D01*
X142545600Y-118403000D01*
X142612266Y-118369666D01*
X142778933Y-118369666D01*
X142845600Y-118403000D01*
X142878933Y-118436333D01*
X142912266Y-118503000D01*
X142912266Y-118669666D01*
X142878933Y-118736333D01*
X142845600Y-118769666D01*
X139302123Y-111575904D02*
X139302123Y-112223523D01*
X139340219Y-112299714D01*
X139378314Y-112337809D01*
X139454504Y-112375904D01*
X139606885Y-112375904D01*
X139683076Y-112337809D01*
X139721171Y-112299714D01*
X139759266Y-112223523D01*
X139759266Y-111575904D01*
X140559266Y-112375904D02*
X140102123Y-112375904D01*
X140330695Y-112375904D02*
X140330695Y-111575904D01*
X140254504Y-111690190D01*
X140178314Y-111766380D01*
X140102123Y-111804476D01*
X141283076Y-111575904D02*
X140902123Y-111575904D01*
X140864028Y-111956857D01*
X140902123Y-111918761D01*
X140978314Y-111880666D01*
X141168790Y-111880666D01*
X141244980Y-111918761D01*
X141283076Y-111956857D01*
X141321171Y-112033047D01*
X141321171Y-112223523D01*
X141283076Y-112299714D01*
X141244980Y-112337809D01*
X141168790Y-112375904D01*
X140978314Y-112375904D01*
X140902123Y-112337809D01*
X140864028Y-112299714D01*
X161950476Y-92348104D02*
X161950476Y-92995723D01*
X161988571Y-93071914D01*
X162026666Y-93110009D01*
X162102857Y-93148104D01*
X162255238Y-93148104D01*
X162331428Y-93110009D01*
X162369523Y-93071914D01*
X162407619Y-92995723D01*
X162407619Y-92348104D01*
X163131428Y-92614771D02*
X163131428Y-93148104D01*
X162940952Y-92310009D02*
X162750476Y-92881438D01*
X163245714Y-92881438D01*
X152208666Y-105733000D02*
X151875333Y-105966333D01*
X152208666Y-106133000D02*
X151508666Y-106133000D01*
X151508666Y-105866333D01*
X151542000Y-105799666D01*
X151575333Y-105766333D01*
X151642000Y-105733000D01*
X151742000Y-105733000D01*
X151808666Y-105766333D01*
X151842000Y-105799666D01*
X151875333Y-105866333D01*
X151875333Y-106133000D01*
X152208666Y-105066333D02*
X152208666Y-105466333D01*
X152208666Y-105266333D02*
X151508666Y-105266333D01*
X151608666Y-105333000D01*
X151675333Y-105399666D01*
X151708666Y-105466333D01*
X152208666Y-104399666D02*
X152208666Y-104799666D01*
X152208666Y-104599666D02*
X151508666Y-104599666D01*
X151608666Y-104666333D01*
X151675333Y-104733000D01*
X151708666Y-104799666D01*
X152257933Y-97405000D02*
X152224600Y-97438333D01*
X152124600Y-97471666D01*
X152057933Y-97471666D01*
X151957933Y-97438333D01*
X151891266Y-97371666D01*
X151857933Y-97305000D01*
X151824600Y-97171666D01*
X151824600Y-97071666D01*
X151857933Y-96938333D01*
X151891266Y-96871666D01*
X151957933Y-96805000D01*
X152057933Y-96771666D01*
X152124600Y-96771666D01*
X152224600Y-96805000D01*
X152257933Y-96838333D01*
X152591266Y-97471666D02*
X152724600Y-97471666D01*
X152791266Y-97438333D01*
X152824600Y-97405000D01*
X152891266Y-97305000D01*
X152924600Y-97171666D01*
X152924600Y-96905000D01*
X152891266Y-96838333D01*
X152857933Y-96805000D01*
X152791266Y-96771666D01*
X152657933Y-96771666D01*
X152591266Y-96805000D01*
X152557933Y-96838333D01*
X152524600Y-96905000D01*
X152524600Y-97071666D01*
X152557933Y-97138333D01*
X152591266Y-97171666D01*
X152657933Y-97205000D01*
X152791266Y-97205000D01*
X152857933Y-97171666D01*
X152891266Y-97138333D01*
X152924600Y-97071666D01*
X138245904Y-111137666D02*
X138817333Y-111137666D01*
X138931619Y-111175761D01*
X139007809Y-111251952D01*
X139045904Y-111366238D01*
X139045904Y-111442428D01*
X138245904Y-110832904D02*
X138245904Y-110337666D01*
X138550666Y-110604333D01*
X138550666Y-110490047D01*
X138588761Y-110413857D01*
X138626857Y-110375761D01*
X138703047Y-110337666D01*
X138893523Y-110337666D01*
X138969714Y-110375761D01*
X139007809Y-110413857D01*
X139045904Y-110490047D01*
X139045904Y-110718619D01*
X139007809Y-110794809D01*
X138969714Y-110832904D01*
X134416933Y-93922809D02*
X134531219Y-93960904D01*
X134721695Y-93960904D01*
X134797885Y-93922809D01*
X134835980Y-93884714D01*
X134874076Y-93808523D01*
X134874076Y-93732333D01*
X134835980Y-93656142D01*
X134797885Y-93618047D01*
X134721695Y-93579952D01*
X134569314Y-93541857D01*
X134493123Y-93503761D01*
X134455028Y-93465666D01*
X134416933Y-93389476D01*
X134416933Y-93313285D01*
X134455028Y-93237095D01*
X134493123Y-93199000D01*
X134569314Y-93160904D01*
X134759790Y-93160904D01*
X134874076Y-93199000D01*
X135140742Y-93160904D02*
X135331219Y-93960904D01*
X135483600Y-93389476D01*
X135635980Y-93960904D01*
X135826457Y-93160904D01*
X136093123Y-93237095D02*
X136131219Y-93199000D01*
X136207409Y-93160904D01*
X136397885Y-93160904D01*
X136474076Y-93199000D01*
X136512171Y-93237095D01*
X136550266Y-93313285D01*
X136550266Y-93389476D01*
X136512171Y-93503761D01*
X136055028Y-93960904D01*
X136550266Y-93960904D01*
X134835980Y-86556904D02*
X134835980Y-87128333D01*
X134797885Y-87242619D01*
X134721695Y-87318809D01*
X134607409Y-87356904D01*
X134531219Y-87356904D01*
X135635980Y-87356904D02*
X135178838Y-87356904D01*
X135407409Y-87356904D02*
X135407409Y-86556904D01*
X135331219Y-86671190D01*
X135255028Y-86747380D01*
X135178838Y-86785476D01*
X136131219Y-86556904D02*
X136207409Y-86556904D01*
X136283600Y-86595000D01*
X136321695Y-86633095D01*
X136359790Y-86709285D01*
X136397885Y-86861666D01*
X136397885Y-87052142D01*
X136359790Y-87204523D01*
X136321695Y-87280714D01*
X136283600Y-87318809D01*
X136207409Y-87356904D01*
X136131219Y-87356904D01*
X136055028Y-87318809D01*
X136016933Y-87280714D01*
X135978838Y-87204523D01*
X135940742Y-87052142D01*
X135940742Y-86861666D01*
X135978838Y-86709285D01*
X136016933Y-86633095D01*
X136055028Y-86595000D01*
X136131219Y-86556904D01*
X169081504Y-85102666D02*
X169652933Y-85102666D01*
X169767219Y-85140761D01*
X169843409Y-85216952D01*
X169881504Y-85331238D01*
X169881504Y-85407428D01*
X169881504Y-84302666D02*
X169881504Y-84759809D01*
X169881504Y-84531238D02*
X169081504Y-84531238D01*
X169195790Y-84607428D01*
X169271980Y-84683619D01*
X169310076Y-84759809D01*
X141528833Y-91192404D02*
X141528833Y-91763833D01*
X141490738Y-91878119D01*
X141414547Y-91954309D01*
X141300261Y-91992404D01*
X141224071Y-91992404D01*
X141871690Y-91268595D02*
X141909785Y-91230500D01*
X141985976Y-91192404D01*
X142176452Y-91192404D01*
X142252642Y-91230500D01*
X142290738Y-91268595D01*
X142328833Y-91344785D01*
X142328833Y-91420976D01*
X142290738Y-91535261D01*
X141833595Y-91992404D01*
X142328833Y-91992404D01*
X139928647Y-103231952D02*
X139928647Y-103612904D01*
X139661980Y-102812904D02*
X139928647Y-103231952D01*
X140195314Y-102812904D01*
X140423885Y-102889095D02*
X140461980Y-102851000D01*
X140538171Y-102812904D01*
X140728647Y-102812904D01*
X140804838Y-102851000D01*
X140842933Y-102889095D01*
X140881028Y-102965285D01*
X140881028Y-103041476D01*
X140842933Y-103155761D01*
X140385790Y-103612904D01*
X140881028Y-103612904D01*
X143891076Y-106749904D02*
X143891076Y-107397523D01*
X143929171Y-107473714D01*
X143967266Y-107511809D01*
X144043457Y-107549904D01*
X144195838Y-107549904D01*
X144272028Y-107511809D01*
X144310123Y-107473714D01*
X144348219Y-107397523D01*
X144348219Y-106749904D01*
X144652980Y-106749904D02*
X145186314Y-106749904D01*
X144843457Y-107549904D01*
X146367576Y-89604904D02*
X146367576Y-90252523D01*
X146405671Y-90328714D01*
X146443766Y-90366809D01*
X146519957Y-90404904D01*
X146672338Y-90404904D01*
X146748528Y-90366809D01*
X146786623Y-90328714D01*
X146824719Y-90252523D01*
X146824719Y-89604904D01*
X147129480Y-89604904D02*
X147624719Y-89604904D01*
X147358052Y-89909666D01*
X147472338Y-89909666D01*
X147548528Y-89947761D01*
X147586623Y-89985857D01*
X147624719Y-90062047D01*
X147624719Y-90252523D01*
X147586623Y-90328714D01*
X147548528Y-90366809D01*
X147472338Y-90404904D01*
X147243766Y-90404904D01*
X147167576Y-90366809D01*
X147129480Y-90328714D01*
X159067576Y-84143904D02*
X159067576Y-84791523D01*
X159105671Y-84867714D01*
X159143766Y-84905809D01*
X159219957Y-84943904D01*
X159372338Y-84943904D01*
X159448528Y-84905809D01*
X159486623Y-84867714D01*
X159524719Y-84791523D01*
X159524719Y-84143904D01*
X159867576Y-84220095D02*
X159905671Y-84182000D01*
X159981861Y-84143904D01*
X160172338Y-84143904D01*
X160248528Y-84182000D01*
X160286623Y-84220095D01*
X160324719Y-84296285D01*
X160324719Y-84372476D01*
X160286623Y-84486761D01*
X159829480Y-84943904D01*
X160324719Y-84943904D01*
X168409200Y-80352066D02*
X168175866Y-80018733D01*
X168009200Y-80352066D02*
X168009200Y-79652066D01*
X168275866Y-79652066D01*
X168342533Y-79685400D01*
X168375866Y-79718733D01*
X168409200Y-79785400D01*
X168409200Y-79885400D01*
X168375866Y-79952066D01*
X168342533Y-79985400D01*
X168275866Y-80018733D01*
X168009200Y-80018733D01*
X168675866Y-79718733D02*
X168709200Y-79685400D01*
X168775866Y-79652066D01*
X168942533Y-79652066D01*
X169009200Y-79685400D01*
X169042533Y-79718733D01*
X169075866Y-79785400D01*
X169075866Y-79852066D01*
X169042533Y-79952066D01*
X168642533Y-80352066D01*
X169075866Y-80352066D01*
X169742533Y-80352066D02*
X169342533Y-80352066D01*
X169542533Y-80352066D02*
X169542533Y-79652066D01*
X169475866Y-79752066D01*
X169409200Y-79818733D01*
X169342533Y-79852066D01*
X156268000Y-113676866D02*
X156034666Y-113343533D01*
X155868000Y-113676866D02*
X155868000Y-112976866D01*
X156134666Y-112976866D01*
X156201333Y-113010200D01*
X156234666Y-113043533D01*
X156268000Y-113110200D01*
X156268000Y-113210200D01*
X156234666Y-113276866D01*
X156201333Y-113310200D01*
X156134666Y-113343533D01*
X155868000Y-113343533D01*
X156934666Y-113676866D02*
X156534666Y-113676866D01*
X156734666Y-113676866D02*
X156734666Y-112976866D01*
X156668000Y-113076866D01*
X156601333Y-113143533D01*
X156534666Y-113176866D01*
X157168000Y-112976866D02*
X157634666Y-112976866D01*
X157334666Y-113676866D01*
X139864266Y-119703000D02*
X139530933Y-119936333D01*
X139864266Y-120103000D02*
X139164266Y-120103000D01*
X139164266Y-119836333D01*
X139197600Y-119769666D01*
X139230933Y-119736333D01*
X139297600Y-119703000D01*
X139397600Y-119703000D01*
X139464266Y-119736333D01*
X139497600Y-119769666D01*
X139530933Y-119836333D01*
X139530933Y-120103000D01*
X139864266Y-119036333D02*
X139864266Y-119436333D01*
X139864266Y-119236333D02*
X139164266Y-119236333D01*
X139264266Y-119303000D01*
X139330933Y-119369666D01*
X139364266Y-119436333D01*
X139164266Y-118436333D02*
X139164266Y-118569666D01*
X139197600Y-118636333D01*
X139230933Y-118669666D01*
X139330933Y-118736333D01*
X139464266Y-118769666D01*
X139730933Y-118769666D01*
X139797600Y-118736333D01*
X139830933Y-118703000D01*
X139864266Y-118636333D01*
X139864266Y-118503000D01*
X139830933Y-118436333D01*
X139797600Y-118403000D01*
X139730933Y-118369666D01*
X139564266Y-118369666D01*
X139497600Y-118403000D01*
X139464266Y-118436333D01*
X139430933Y-118503000D01*
X139430933Y-118636333D01*
X139464266Y-118703000D01*
X139497600Y-118736333D01*
X139564266Y-118769666D01*
X140880266Y-119703000D02*
X140546933Y-119936333D01*
X140880266Y-120103000D02*
X140180266Y-120103000D01*
X140180266Y-119836333D01*
X140213600Y-119769666D01*
X140246933Y-119736333D01*
X140313600Y-119703000D01*
X140413600Y-119703000D01*
X140480266Y-119736333D01*
X140513600Y-119769666D01*
X140546933Y-119836333D01*
X140546933Y-120103000D01*
X140880266Y-119036333D02*
X140880266Y-119436333D01*
X140880266Y-119236333D02*
X140180266Y-119236333D01*
X140280266Y-119303000D01*
X140346933Y-119369666D01*
X140380266Y-119436333D01*
X140480266Y-118636333D02*
X140446933Y-118703000D01*
X140413600Y-118736333D01*
X140346933Y-118769666D01*
X140313600Y-118769666D01*
X140246933Y-118736333D01*
X140213600Y-118703000D01*
X140180266Y-118636333D01*
X140180266Y-118503000D01*
X140213600Y-118436333D01*
X140246933Y-118403000D01*
X140313600Y-118369666D01*
X140346933Y-118369666D01*
X140413600Y-118403000D01*
X140446933Y-118436333D01*
X140480266Y-118503000D01*
X140480266Y-118636333D01*
X140513600Y-118703000D01*
X140546933Y-118736333D01*
X140613600Y-118769666D01*
X140746933Y-118769666D01*
X140813600Y-118736333D01*
X140846933Y-118703000D01*
X140880266Y-118636333D01*
X140880266Y-118503000D01*
X140846933Y-118436333D01*
X140813600Y-118403000D01*
X140746933Y-118369666D01*
X140613600Y-118369666D01*
X140546933Y-118403000D01*
X140513600Y-118436333D01*
X140480266Y-118503000D01*
X164396000Y-89546866D02*
X164162666Y-89213533D01*
X163996000Y-89546866D02*
X163996000Y-88846866D01*
X164262666Y-88846866D01*
X164329333Y-88880200D01*
X164362666Y-88913533D01*
X164396000Y-88980200D01*
X164396000Y-89080200D01*
X164362666Y-89146866D01*
X164329333Y-89180200D01*
X164262666Y-89213533D01*
X163996000Y-89213533D01*
X165062666Y-89546866D02*
X164662666Y-89546866D01*
X164862666Y-89546866D02*
X164862666Y-88846866D01*
X164796000Y-88946866D01*
X164729333Y-89013533D01*
X164662666Y-89046866D01*
X165496000Y-88846866D02*
X165562666Y-88846866D01*
X165629333Y-88880200D01*
X165662666Y-88913533D01*
X165696000Y-88980200D01*
X165729333Y-89113533D01*
X165729333Y-89280200D01*
X165696000Y-89413533D01*
X165662666Y-89480200D01*
X165629333Y-89513533D01*
X165562666Y-89546866D01*
X165496000Y-89546866D01*
X165429333Y-89513533D01*
X165396000Y-89480200D01*
X165362666Y-89413533D01*
X165329333Y-89280200D01*
X165329333Y-89113533D01*
X165362666Y-88980200D01*
X165396000Y-88913533D01*
X165429333Y-88880200D01*
X165496000Y-88846866D01*
X160512933Y-93052066D02*
X160279600Y-92718733D01*
X160112933Y-93052066D02*
X160112933Y-92352066D01*
X160379600Y-92352066D01*
X160446266Y-92385400D01*
X160479600Y-92418733D01*
X160512933Y-92485400D01*
X160512933Y-92585400D01*
X160479600Y-92652066D01*
X160446266Y-92685400D01*
X160379600Y-92718733D01*
X160112933Y-92718733D01*
X161112933Y-92352066D02*
X160979600Y-92352066D01*
X160912933Y-92385400D01*
X160879600Y-92418733D01*
X160812933Y-92518733D01*
X160779600Y-92652066D01*
X160779600Y-92918733D01*
X160812933Y-92985400D01*
X160846266Y-93018733D01*
X160912933Y-93052066D01*
X161046266Y-93052066D01*
X161112933Y-93018733D01*
X161146266Y-92985400D01*
X161179600Y-92918733D01*
X161179600Y-92752066D01*
X161146266Y-92685400D01*
X161112933Y-92652066D01*
X161046266Y-92618733D01*
X160912933Y-92618733D01*
X160846266Y-92652066D01*
X160812933Y-92685400D01*
X160779600Y-92752066D01*
X155002666Y-106288666D02*
X154669333Y-106522000D01*
X155002666Y-106688666D02*
X154302666Y-106688666D01*
X154302666Y-106422000D01*
X154336000Y-106355333D01*
X154369333Y-106322000D01*
X154436000Y-106288666D01*
X154536000Y-106288666D01*
X154602666Y-106322000D01*
X154636000Y-106355333D01*
X154669333Y-106422000D01*
X154669333Y-106688666D01*
X154536000Y-105688666D02*
X155002666Y-105688666D01*
X154269333Y-105855333D02*
X154769333Y-106022000D01*
X154769333Y-105588666D01*
X141662166Y-93770404D02*
X141395500Y-93389452D01*
X141205023Y-93770404D02*
X141205023Y-92970404D01*
X141509785Y-92970404D01*
X141585976Y-93008500D01*
X141624071Y-93046595D01*
X141662166Y-93122785D01*
X141662166Y-93237071D01*
X141624071Y-93313261D01*
X141585976Y-93351357D01*
X141509785Y-93389452D01*
X141205023Y-93389452D01*
X141928833Y-92970404D02*
X142424071Y-92970404D01*
X142157404Y-93275166D01*
X142271690Y-93275166D01*
X142347880Y-93313261D01*
X142385976Y-93351357D01*
X142424071Y-93427547D01*
X142424071Y-93618023D01*
X142385976Y-93694214D01*
X142347880Y-93732309D01*
X142271690Y-93770404D01*
X142043119Y-93770404D01*
X141966928Y-93732309D01*
X141928833Y-93694214D01*
X141662166Y-95294404D02*
X141395500Y-94913452D01*
X141205023Y-95294404D02*
X141205023Y-94494404D01*
X141509785Y-94494404D01*
X141585976Y-94532500D01*
X141624071Y-94570595D01*
X141662166Y-94646785D01*
X141662166Y-94761071D01*
X141624071Y-94837261D01*
X141585976Y-94875357D01*
X141509785Y-94913452D01*
X141205023Y-94913452D01*
X141966928Y-94570595D02*
X142005023Y-94532500D01*
X142081214Y-94494404D01*
X142271690Y-94494404D01*
X142347880Y-94532500D01*
X142385976Y-94570595D01*
X142424071Y-94646785D01*
X142424071Y-94722976D01*
X142385976Y-94837261D01*
X141928833Y-95294404D01*
X142424071Y-95294404D01*
X161173333Y-80504466D02*
X160940000Y-80171133D01*
X160773333Y-80504466D02*
X160773333Y-79804466D01*
X161040000Y-79804466D01*
X161106666Y-79837800D01*
X161140000Y-79871133D01*
X161173333Y-79937800D01*
X161173333Y-80037800D01*
X161140000Y-80104466D01*
X161106666Y-80137800D01*
X161040000Y-80171133D01*
X160773333Y-80171133D01*
X161840000Y-80504466D02*
X161440000Y-80504466D01*
X161640000Y-80504466D02*
X161640000Y-79804466D01*
X161573333Y-79904466D01*
X161506666Y-79971133D01*
X161440000Y-80004466D01*
X159537409Y-115728695D02*
X159461219Y-115690600D01*
X159385028Y-115614409D01*
X159270742Y-115500123D01*
X159194552Y-115462028D01*
X159118361Y-115462028D01*
X159156457Y-115652504D02*
X159080266Y-115614409D01*
X159004076Y-115538219D01*
X158965980Y-115385838D01*
X158965980Y-115119171D01*
X159004076Y-114966790D01*
X159080266Y-114890600D01*
X159156457Y-114852504D01*
X159308838Y-114852504D01*
X159385028Y-114890600D01*
X159461219Y-114966790D01*
X159499314Y-115119171D01*
X159499314Y-115385838D01*
X159461219Y-115538219D01*
X159385028Y-115614409D01*
X159308838Y-115652504D01*
X159156457Y-115652504D01*
X159956457Y-115195361D02*
X159880266Y-115157266D01*
X159842171Y-115119171D01*
X159804076Y-115042980D01*
X159804076Y-115004885D01*
X159842171Y-114928695D01*
X159880266Y-114890600D01*
X159956457Y-114852504D01*
X160108838Y-114852504D01*
X160185028Y-114890600D01*
X160223123Y-114928695D01*
X160261219Y-115004885D01*
X160261219Y-115042980D01*
X160223123Y-115119171D01*
X160185028Y-115157266D01*
X160108838Y-115195361D01*
X159956457Y-115195361D01*
X159880266Y-115233457D01*
X159842171Y-115271552D01*
X159804076Y-115347742D01*
X159804076Y-115500123D01*
X159842171Y-115576314D01*
X159880266Y-115614409D01*
X159956457Y-115652504D01*
X160108838Y-115652504D01*
X160185028Y-115614409D01*
X160223123Y-115576314D01*
X160261219Y-115500123D01*
X160261219Y-115347742D01*
X160223123Y-115271552D01*
X160185028Y-115233457D01*
X160108838Y-115195361D01*
X164598295Y-102285790D02*
X164560200Y-102361980D01*
X164484009Y-102438171D01*
X164369723Y-102552457D01*
X164331628Y-102628647D01*
X164331628Y-102704838D01*
X164522104Y-102666742D02*
X164484009Y-102742933D01*
X164407819Y-102819123D01*
X164255438Y-102857219D01*
X163988771Y-102857219D01*
X163836390Y-102819123D01*
X163760200Y-102742933D01*
X163722104Y-102666742D01*
X163722104Y-102514361D01*
X163760200Y-102438171D01*
X163836390Y-102361980D01*
X163988771Y-102323885D01*
X164255438Y-102323885D01*
X164407819Y-102361980D01*
X164484009Y-102438171D01*
X164522104Y-102514361D01*
X164522104Y-102666742D01*
X163722104Y-102057219D02*
X163722104Y-101523885D01*
X164522104Y-101866742D01*
X169148809Y-106451095D02*
X169072619Y-106413000D01*
X168996428Y-106336809D01*
X168882142Y-106222523D01*
X168805952Y-106184428D01*
X168729761Y-106184428D01*
X168767857Y-106374904D02*
X168691666Y-106336809D01*
X168615476Y-106260619D01*
X168577380Y-106108238D01*
X168577380Y-105841571D01*
X168615476Y-105689190D01*
X168691666Y-105613000D01*
X168767857Y-105574904D01*
X168920238Y-105574904D01*
X168996428Y-105613000D01*
X169072619Y-105689190D01*
X169110714Y-105841571D01*
X169110714Y-106108238D01*
X169072619Y-106260619D01*
X168996428Y-106336809D01*
X168920238Y-106374904D01*
X168767857Y-106374904D01*
X169415476Y-105651095D02*
X169453571Y-105613000D01*
X169529761Y-105574904D01*
X169720238Y-105574904D01*
X169796428Y-105613000D01*
X169834523Y-105651095D01*
X169872619Y-105727285D01*
X169872619Y-105803476D01*
X169834523Y-105917761D01*
X169377380Y-106374904D01*
X169872619Y-106374904D01*
X148431266Y-109327904D02*
X148050314Y-109327904D01*
X148050314Y-108527904D01*
X149116980Y-109327904D02*
X148659838Y-109327904D01*
X148888409Y-109327904D02*
X148888409Y-108527904D01*
X148812219Y-108642190D01*
X148736028Y-108718380D01*
X148659838Y-108756476D01*
X173551904Y-95308066D02*
X174123333Y-95308066D01*
X174237619Y-95346161D01*
X174313809Y-95422352D01*
X174351904Y-95536638D01*
X174351904Y-95612828D01*
X173818571Y-94584257D02*
X174351904Y-94584257D01*
X173513809Y-94774733D02*
X174085238Y-94965209D01*
X174085238Y-94469971D01*
X150841933Y-118045666D02*
X150841933Y-117345666D01*
X151008600Y-117345666D01*
X151108600Y-117379000D01*
X151175266Y-117445666D01*
X151208600Y-117512333D01*
X151241933Y-117645666D01*
X151241933Y-117745666D01*
X151208600Y-117879000D01*
X151175266Y-117945666D01*
X151108600Y-118012333D01*
X151008600Y-118045666D01*
X150841933Y-118045666D01*
X151841933Y-117579000D02*
X151841933Y-118045666D01*
X151675266Y-117312333D02*
X151508600Y-117812333D01*
X151941933Y-117812333D01*
X176318133Y-105294866D02*
X176318133Y-104594866D01*
X176484800Y-104594866D01*
X176584800Y-104628200D01*
X176651466Y-104694866D01*
X176684800Y-104761533D01*
X176718133Y-104894866D01*
X176718133Y-104994866D01*
X176684800Y-105128200D01*
X176651466Y-105194866D01*
X176584800Y-105261533D01*
X176484800Y-105294866D01*
X176318133Y-105294866D01*
X176951466Y-104594866D02*
X177384800Y-104594866D01*
X177151466Y-104861533D01*
X177251466Y-104861533D01*
X177318133Y-104894866D01*
X177351466Y-104928200D01*
X177384800Y-104994866D01*
X177384800Y-105161533D01*
X177351466Y-105228200D01*
X177318133Y-105261533D01*
X177251466Y-105294866D01*
X177051466Y-105294866D01*
X176984800Y-105261533D01*
X176951466Y-105228200D01*
X166920133Y-88581666D02*
X166920133Y-87881666D01*
X167086800Y-87881666D01*
X167186800Y-87915000D01*
X167253466Y-87981666D01*
X167286800Y-88048333D01*
X167320133Y-88181666D01*
X167320133Y-88281666D01*
X167286800Y-88415000D01*
X167253466Y-88481666D01*
X167186800Y-88548333D01*
X167086800Y-88581666D01*
X166920133Y-88581666D01*
X167586800Y-87948333D02*
X167620133Y-87915000D01*
X167686800Y-87881666D01*
X167853466Y-87881666D01*
X167920133Y-87915000D01*
X167953466Y-87948333D01*
X167986800Y-88015000D01*
X167986800Y-88081666D01*
X167953466Y-88181666D01*
X167553466Y-88581666D01*
X167986800Y-88581666D01*
X157030000Y-112441800D02*
X156996666Y-112475133D01*
X156896666Y-112508466D01*
X156830000Y-112508466D01*
X156730000Y-112475133D01*
X156663333Y-112408466D01*
X156630000Y-112341800D01*
X156596666Y-112208466D01*
X156596666Y-112108466D01*
X156630000Y-111975133D01*
X156663333Y-111908466D01*
X156730000Y-111841800D01*
X156830000Y-111808466D01*
X156896666Y-111808466D01*
X156996666Y-111841800D01*
X157030000Y-111875133D01*
X157296666Y-111875133D02*
X157330000Y-111841800D01*
X157396666Y-111808466D01*
X157563333Y-111808466D01*
X157630000Y-111841800D01*
X157663333Y-111875133D01*
X157696666Y-111941800D01*
X157696666Y-112008466D01*
X157663333Y-112108466D01*
X157263333Y-112508466D01*
X157696666Y-112508466D01*
X158330000Y-111808466D02*
X157996666Y-111808466D01*
X157963333Y-112141800D01*
X157996666Y-112108466D01*
X158063333Y-112075133D01*
X158230000Y-112075133D01*
X158296666Y-112108466D01*
X158330000Y-112141800D01*
X158363333Y-112208466D01*
X158363333Y-112375133D01*
X158330000Y-112441800D01*
X158296666Y-112475133D01*
X158230000Y-112508466D01*
X158063333Y-112508466D01*
X157996666Y-112475133D01*
X157963333Y-112441800D01*
X170136400Y-108631800D02*
X170103066Y-108665133D01*
X170003066Y-108698466D01*
X169936400Y-108698466D01*
X169836400Y-108665133D01*
X169769733Y-108598466D01*
X169736400Y-108531800D01*
X169703066Y-108398466D01*
X169703066Y-108298466D01*
X169736400Y-108165133D01*
X169769733Y-108098466D01*
X169836400Y-108031800D01*
X169936400Y-107998466D01*
X170003066Y-107998466D01*
X170103066Y-108031800D01*
X170136400Y-108065133D01*
X170403066Y-108065133D02*
X170436400Y-108031800D01*
X170503066Y-107998466D01*
X170669733Y-107998466D01*
X170736400Y-108031800D01*
X170769733Y-108065133D01*
X170803066Y-108131800D01*
X170803066Y-108198466D01*
X170769733Y-108298466D01*
X170369733Y-108698466D01*
X170803066Y-108698466D01*
X171403066Y-108231800D02*
X171403066Y-108698466D01*
X171236400Y-107965133D02*
X171069733Y-108465133D01*
X171503066Y-108465133D01*
X162290933Y-116096800D02*
X162257600Y-116130133D01*
X162157600Y-116163466D01*
X162090933Y-116163466D01*
X161990933Y-116130133D01*
X161924266Y-116063466D01*
X161890933Y-115996800D01*
X161857600Y-115863466D01*
X161857600Y-115763466D01*
X161890933Y-115630133D01*
X161924266Y-115563466D01*
X161990933Y-115496800D01*
X162090933Y-115463466D01*
X162157600Y-115463466D01*
X162257600Y-115496800D01*
X162290933Y-115530133D01*
X162890933Y-115463466D02*
X162757600Y-115463466D01*
X162690933Y-115496800D01*
X162657600Y-115530133D01*
X162590933Y-115630133D01*
X162557600Y-115763466D01*
X162557600Y-116030133D01*
X162590933Y-116096800D01*
X162624266Y-116130133D01*
X162690933Y-116163466D01*
X162824266Y-116163466D01*
X162890933Y-116130133D01*
X162924266Y-116096800D01*
X162957600Y-116030133D01*
X162957600Y-115863466D01*
X162924266Y-115796800D01*
X162890933Y-115763466D01*
X162824266Y-115730133D01*
X162690933Y-115730133D01*
X162624266Y-115763466D01*
X162590933Y-115796800D01*
X162557600Y-115863466D01*
X170291933Y-116150200D02*
X170258600Y-116183533D01*
X170158600Y-116216866D01*
X170091933Y-116216866D01*
X169991933Y-116183533D01*
X169925266Y-116116866D01*
X169891933Y-116050200D01*
X169858600Y-115916866D01*
X169858600Y-115816866D01*
X169891933Y-115683533D01*
X169925266Y-115616866D01*
X169991933Y-115550200D01*
X170091933Y-115516866D01*
X170158600Y-115516866D01*
X170258600Y-115550200D01*
X170291933Y-115583533D01*
X170525266Y-115516866D02*
X170991933Y-115516866D01*
X170691933Y-116216866D01*
X150479933Y-97405000D02*
X150446600Y-97438333D01*
X150346600Y-97471666D01*
X150279933Y-97471666D01*
X150179933Y-97438333D01*
X150113266Y-97371666D01*
X150079933Y-97305000D01*
X150046600Y-97171666D01*
X150046600Y-97071666D01*
X150079933Y-96938333D01*
X150113266Y-96871666D01*
X150179933Y-96805000D01*
X150279933Y-96771666D01*
X150346600Y-96771666D01*
X150446600Y-96805000D01*
X150479933Y-96838333D01*
X150879933Y-97071666D02*
X150813266Y-97038333D01*
X150779933Y-97005000D01*
X150746600Y-96938333D01*
X150746600Y-96905000D01*
X150779933Y-96838333D01*
X150813266Y-96805000D01*
X150879933Y-96771666D01*
X151013266Y-96771666D01*
X151079933Y-96805000D01*
X151113266Y-96838333D01*
X151146600Y-96905000D01*
X151146600Y-96938333D01*
X151113266Y-97005000D01*
X151079933Y-97038333D01*
X151013266Y-97071666D01*
X150879933Y-97071666D01*
X150813266Y-97105000D01*
X150779933Y-97138333D01*
X150746600Y-97205000D01*
X150746600Y-97338333D01*
X150779933Y-97405000D01*
X150813266Y-97438333D01*
X150879933Y-97471666D01*
X151013266Y-97471666D01*
X151079933Y-97438333D01*
X151113266Y-97405000D01*
X151146600Y-97338333D01*
X151146600Y-97205000D01*
X151113266Y-97138333D01*
X151079933Y-97105000D01*
X151013266Y-97071666D01*
X141662166Y-90392214D02*
X141624071Y-90430309D01*
X141509785Y-90468404D01*
X141433595Y-90468404D01*
X141319309Y-90430309D01*
X141243119Y-90354119D01*
X141205023Y-90277928D01*
X141166928Y-90125547D01*
X141166928Y-90011261D01*
X141205023Y-89858880D01*
X141243119Y-89782690D01*
X141319309Y-89706500D01*
X141433595Y-89668404D01*
X141509785Y-89668404D01*
X141624071Y-89706500D01*
X141662166Y-89744595D01*
X141966928Y-89744595D02*
X142005023Y-89706500D01*
X142081214Y-89668404D01*
X142271690Y-89668404D01*
X142347880Y-89706500D01*
X142385976Y-89744595D01*
X142424071Y-89820785D01*
X142424071Y-89896976D01*
X142385976Y-90011261D01*
X141928833Y-90468404D01*
X142424071Y-90468404D01*
X166913733Y-80336200D02*
X166880400Y-80369533D01*
X166780400Y-80402866D01*
X166713733Y-80402866D01*
X166613733Y-80369533D01*
X166547066Y-80302866D01*
X166513733Y-80236200D01*
X166480400Y-80102866D01*
X166480400Y-80002866D01*
X166513733Y-79869533D01*
X166547066Y-79802866D01*
X166613733Y-79736200D01*
X166713733Y-79702866D01*
X166780400Y-79702866D01*
X166880400Y-79736200D01*
X166913733Y-79769533D01*
X167580400Y-80402866D02*
X167180400Y-80402866D01*
X167380400Y-80402866D02*
X167380400Y-79702866D01*
X167313733Y-79802866D01*
X167247066Y-79869533D01*
X167180400Y-79902866D01*
M02*
